<?xml version="1.0" encoding="UTF-8" standalone="no"?>
<!DOCTYPE svg PUBLIC "-//W3C//DTD SVG 1.1//EN" "http://www.w3.org/Graphics/SVG/1.1/DTD/svg11.dtd">
<svg width="100%" height="100%" viewBox="0 0 360 170" version="1.1" xmlns="http://www.w3.org/2000/svg" xmlns:xlink="http://www.w3.org/1999/xlink" xml:space="preserve" xmlns:serif="http://www.serif.com/" style="fill-rule:evenodd;clip-rule:evenodd;stroke-linejoin:round;stroke-miterlimit:1.41421;">
    <g transform="matrix(0.6001,0,0,0.6001,-15.1825,-46.9231)">
        <g transform="matrix(2.14329,0,0,2.14329,138.258,-533.699)">
            <path d="M144.4,308C138.9,297.7 128.2,291.3 116.5,291.3L28.3,291.3C26.6,291.3 25.3,292.7 25.3,294.4C25.3,295.2 25.6,296 26.2,296.5L45.4,315.8C47.1,317.5 49.4,318.5 51.8,318.5L114,318.5C118.4,318.5 122.1,322 122.1,326.4C122.1,330.8 118.6,334.5 114.2,334.5L71.3,334.5C69.6,334.5 68.3,335.9 68.3,337.6C68.3,338.4 68.6,339.2 69.2,339.7L88.3,359C90,360.7 92.3,361.7 94.7,361.7L114.1,361.7C139.4,361.7 158.5,334.7 144.4,308" style="fill:rgb(255,48,8);fill-rule:nonzero;"/>
        </g>
        <g transform="matrix(1.33489,0,0,1.33489,-209.374,-109.341)">
            <path d="M186.5,311.1L186.5,341.9L194.4,341.9C202.8,341.8 209.5,334.9 209.4,326.5C209.6,318.3 203.1,311.4 194.9,311.1C194.7,311.1 194.6,311.1 194.4,311.1L186.5,311.1ZM194.4,301.5C209.1,301.5 220.2,312.6 220.2,326.5C220.2,340.4 209.1,351.6 194.4,351.6L177,351.6C176.3,351.6 175.8,351 175.8,350.4L175.8,302.8C175.8,302.1 176.4,301.6 177,301.6L194.4,301.5Z" style="fill:rgb(255,48,8);fill-rule:nonzero;"/>
            <path d="M257.9,343C267,343 274.4,335.7 274.4,326.6C274.4,317.5 267.1,310.1 258,310.1C248.9,310.1 241.5,317.4 241.5,326.5C241.5,335.6 248.9,342.9 257.9,343M257.9,300.4C273.3,300.4 285.1,312.3 285.1,326.5C285.1,340.8 273.3,352.6 257.9,352.6C242.5,352.6 230.8,340.8 230.8,326.5C230.8,312.2 242.6,300.4 257.9,300.4" style="fill:rgb(255,48,8);fill-rule:nonzero;"/>
            <path d="M322.7,343C331.8,343 339.1,335.6 339.1,326.5C339.1,317.4 331.7,310.1 322.6,310.1C313.5,310.1 306.2,317.5 306.2,326.5C306.2,335.6 313.6,343 322.7,343M322.7,300.4C338.1,300.4 349.9,312.2 349.9,326.5C349.9,340.8 338,352.6 322.7,352.6C307.4,352.6 295.5,340.8 295.5,326.5C295.5,312.2 307.3,300.4 322.7,300.4" style="fill:rgb(255,48,8);fill-rule:nonzero;"/>
            <path d="M385.9,311.1L374.8,311.1L374.8,324.3L385.9,324.3C389.5,324.5 392.5,321.7 392.7,318.1C392.7,318 392.7,317.9 392.7,317.9C392.8,314.3 390,311.2 386.4,311.1C386.2,311.1 386,311.1 385.9,311.1M364.1,302.8C364.1,302.1 364.7,301.6 365.3,301.6L386.2,301.6C396.2,301.6 403.4,308.9 403.4,318.1C403.5,324.3 400,330 394.5,332.8L404.1,349.8C404.5,350.4 404.3,351.1 403.8,351.5C403.6,351.7 403.3,351.7 403,351.7L394.5,351.7C394,351.7 393.6,351.4 393.4,351L384.1,334.1L374.8,334.1L374.8,350.3C374.8,351 374.2,351.5 373.6,351.5L365.5,351.5C364.8,351.5 364.3,350.9 364.3,350.3L364.1,302.8Z" style="fill:rgb(255,48,8);fill-rule:nonzero;"/>
            <path d="M431.4,311.4L431.4,342.2L439.3,342.2C447.7,342.1 454.4,335.2 454.3,326.8C454.5,318.6 448.1,311.7 439.8,311.4C439.6,311.4 439.4,311.4 439.3,311.4L431.4,311.4ZM439.2,301.7C453.9,301.7 465,312.8 465,326.8C465,340.8 453.9,351.9 439.2,351.9L421.9,351.9C421.2,351.9 420.7,351.3 420.7,350.7L420.7,303C420.7,302.3 421.3,301.8 421.9,301.8L439.2,301.7Z" style="fill:rgb(255,48,8);fill-rule:nonzero;"/>
            <path d="M497.7,314L491.6,330.5L503.8,330.5L497.7,314ZM488.1,339.7L484.1,350.7C483.9,351.2 483.4,351.6 482.9,351.6L474.3,351.6C473.6,351.7 473,351.2 472.9,350.5C472.9,350.3 472.9,350.1 473,349.9L491.7,302.4C491.9,301.9 492.4,301.5 492.9,301.6L502.6,301.6C503.2,301.6 503.7,301.9 503.8,302.4L522.5,349.9C522.8,350.5 522.5,351.3 521.9,351.6C521.7,351.7 521.5,351.7 521.3,351.7L512.7,351.7C512.1,351.7 511.6,351.4 511.5,350.8L507.5,339.8L488.1,339.8L488.1,339.7Z" style="fill:rgb(255,48,8);fill-rule:nonzero;"/>
            <path d="M532.5,315C532.5,307.1 539.3,300.3 550,300.3C555.8,300.2 561.3,302.3 565.6,306.2C566.1,306.7 566.1,307.5 565.7,308L565.6,308.1L560.8,312.9C560.3,313.4 559.5,313.4 559,312.9C556.7,310.8 553.8,309.7 550.7,309.6C546.4,309.6 543.2,312.1 543.2,315C543.2,324.3 568.6,318.9 568.6,336.8C568.6,345.9 561.7,352.7 549.6,352.7C542.8,352.8 536.3,350.2 531.5,345.4C531,344.9 531,344.1 531.4,343.6L531.5,343.5L536.1,338.9C536.6,338.4 537.4,338.4 537.9,338.9C540.8,341.7 544.8,343.3 548.8,343.4C554.2,343.4 557.7,340.5 557.7,336.9C557.8,327.6 532.5,333 532.5,315" style="fill:rgb(255,48,8);fill-rule:nonzero;"/>
            <path d="M614.7,302.7L614.7,321.5L593.2,321.5L593.2,302.7C593.2,302 592.6,301.5 592,301.5L583.9,301.5C583.2,301.5 582.7,302.1 582.7,302.7L582.7,350.2C582.7,350.9 583.3,351.4 583.9,351.4L592,351.4C592.7,351.4 593.2,350.8 593.2,350.2L593.2,331.1L614.7,331.1L614.7,350.2C614.7,350.9 615.3,351.4 615.9,351.4L624,351.4C624.7,351.4 625.2,350.8 625.2,350.2L625.2,302.7C625.2,302 624.6,301.5 624,301.5L615.9,301.5C615.2,301.5 614.7,302 614.7,302.7Z" style="fill:rgb(255,48,8);fill-rule:nonzero;"/>
        </g>
    </g>
</svg>
