<?xml version="1.0" encoding="UTF-8" standalone="no"?>
<!DOCTYPE svg PUBLIC "-//W3C//DTD SVG 1.1//EN" "http://www.w3.org/Graphics/SVG/1.1/DTD/svg11.dtd">
<svg width="100%" height="100%" viewBox="0 0 500 500" version="1.1" xmlns="http://www.w3.org/2000/svg" xmlns:xlink="http://www.w3.org/1999/xlink" xml:space="preserve" xmlns:serif="http://www.serif.com/" style="fill-rule:evenodd;clip-rule:evenodd;stroke-linejoin:round;stroke-miterlimit:1.41421;">
    <g transform="matrix(1,0,0,1,12.1875,26)">
        <g transform="matrix(3.14757,-0.000385841,0.000385841,3.14757,-69.5613,-801.771)">
            <path d="M58.4,266.8C48.5,266.8 40,270 34,276.3C28.1,282.6 25.5,291.8 25.5,302.3L25.5,349.5C25.5,359.9 28,369.2 34,375.5C40,381.9 48.6,385 58.4,385C68.3,385 76.8,381.8 82.8,375.5C88.7,369.2 91.3,360 91.3,349.5L91.3,345L91.3,343.8L91.3,328.9L91.3,323.6C91.3,322.5 90.4,321.6 89.3,321.6L60.4,321.6C59.3,321.6 58.3,322.5 58.3,323.6L58.3,342.9C58.3,344 59.3,344.9 60.4,344.9L68,344.9L68,349.3C68,353.3 67.1,356.4 65.3,358.7C63.6,360.8 61.4,361.8 58.4,361.8C55.5,361.8 53.2,360.8 51.5,358.7C49.7,356.4 48.7,353.3 48.7,349.3L48.7,345L48.7,321.7L48.7,302.4C48.7,298.4 49.7,295.3 51.5,293C53.2,290.9 55.4,289.9 58.4,289.9C61.3,289.9 63.6,290.9 65.3,293C67.1,295.3 68,298.4 68,302.4L68,306.8C68,307.7 68.9,308.5 69.9,308.5L89.3,308.5C90.4,308.5 91.2,307.7 91.2,306.8L91.2,302.2C91.2,291.8 88.7,282.5 82.7,276.2C76.8,269.9 68.2,266.8 58.4,266.8" style="fill:rgb(238,48,60);fill-rule:nonzero;"/>
        </g>
        <g transform="matrix(3.24905,-0.000398281,0.000398281,3.24905,-892.475,-834.551)">
            <path d="M415.8,268.6L396.4,268.6C395.3,268.6 394.5,269.5 394.5,270.5L394.5,313.5L374.8,313.5L374.8,270.5C374.8,269.4 373.9,268.6 372.9,268.6L353.5,268.6C352.4,268.6 351.6,269.5 351.6,270.5L351.6,381.2C351.6,382.3 352.5,383.1 353.5,383.1L372.9,383.1C374,383.1 374.8,382.2 374.8,381.2L374.8,336.7L394.5,336.7L394.5,381.2C394.5,382.3 395.4,383.1 396.4,383.1L415.8,383.1C416.9,383.1 417.7,382.2 417.7,381.2L417.7,270.6C417.7,269.5 416.9,268.6 415.8,268.6" style="fill:rgb(238,48,60);fill-rule:nonzero;"/>
        </g>
    </g>
</svg>
