<?xml version="1.0" encoding="UTF-8" standalone="no"?>
<!DOCTYPE svg PUBLIC "-//W3C//DTD SVG 1.1//EN" "http://www.w3.org/Graphics/SVG/1.1/DTD/svg11.dtd">
<svg width="100%" height="100%" viewBox="0 0 360 170" version="1.1" xmlns="http://www.w3.org/2000/svg" xmlns:xlink="http://www.w3.org/1999/xlink" xml:space="preserve" xmlns:serif="http://www.serif.com/" style="fill-rule:evenodd;clip-rule:evenodd;stroke-linejoin:round;stroke-miterlimit:1.41421;">
    <g transform="matrix(0.643443,-7.88757e-05,7.88757e-05,0.643443,-16.6378,-77.788)">
        <path d="M415.8,268.6L396.4,268.6C395.3,268.6 394.5,269.5 394.5,270.5L394.5,313.5L374.8,313.5L374.8,270.5C374.8,269.4 373.9,268.6 372.9,268.6L353.5,268.6C352.4,268.6 351.6,269.5 351.6,270.5L351.6,381.2C351.6,382.3 352.5,383.1 353.5,383.1L372.9,383.1C374,383.1 374.8,382.2 374.8,381.2L374.8,336.7L394.5,336.7L394.5,381.2C394.5,382.3 395.4,383.1 396.4,383.1L415.8,383.1C416.9,383.1 417.7,382.2 417.7,381.2L417.7,270.6C417.7,269.5 416.9,268.6 415.8,268.6" style="fill:rgb(238,48,60);fill-rule:nonzero;"/>
        <path d="M250.7,268.6L241.1,268.6L230.8,268.6C229.7,268.6 228.9,269.4 228.9,270.3L228.9,349.3C228.9,353.1 228,356 226.3,358.2C224.7,360.2 222.6,361.2 219.8,361.2C217,361.2 214.9,360.2 213.3,358.2C211.6,356.1 210.7,353.1 210.7,349.3L210.7,349.2L210.7,321.7L210.7,270.3C210.7,269.4 209.8,268.6 208.8,268.6L198,268.6L188.9,268.6C187.8,268.6 187,269.4 187,270.3L187,349.5C187,359.9 189.5,369.2 195.5,375.5C201.5,381.9 210.1,385.1 219.9,385.1C229.8,385.1 238.3,381.9 244.3,375.5C250.2,369.2 252.8,360 252.8,349.5L252.8,321.7L252.8,270.3C252.6,269.4 251.7,268.6 250.7,268.6" style="fill:rgb(238,48,60);fill-rule:nonzero;"/>
        <path d="M58.4,266.8C48.5,266.8 40,270 34,276.3C28.1,282.6 25.5,291.8 25.5,302.3L25.5,349.5C25.5,359.9 28,369.2 34,375.5C40,381.9 48.6,385 58.4,385C68.3,385 76.8,381.8 82.8,375.5C88.7,369.2 91.3,360 91.3,349.5L91.3,345L91.3,343.8L91.3,328.9L91.3,323.6C91.3,322.5 90.4,321.6 89.3,321.6L60.4,321.6C59.3,321.6 58.3,322.5 58.3,323.6L58.3,342.9C58.3,344 59.3,344.9 60.4,344.9L68,344.9L68,349.3C68,353.3 67.1,356.4 65.3,358.7C63.6,360.8 61.4,361.8 58.4,361.8C55.5,361.8 53.2,360.8 51.5,358.7C49.7,356.4 48.7,353.3 48.7,349.3L48.7,345L48.7,321.7L48.7,302.4C48.7,298.4 49.7,295.3 51.5,293C53.2,290.9 55.4,289.9 58.4,289.9C61.3,289.9 63.6,290.9 65.3,293C67.1,295.3 68,298.4 68,302.4L68,306.8C68,307.7 68.9,308.5 69.9,308.5L89.3,308.5C90.4,308.5 91.2,307.7 91.2,306.8L91.2,302.2C91.2,291.8 88.7,282.5 82.7,276.2C76.8,269.9 68.2,266.8 58.4,266.8" style="fill:rgb(238,48,60);fill-rule:nonzero;"/>
        <path d="M325.6,324C329.2,320.8 335,312.6 335,302.5C335,290.8 330.6,283.3 326.9,279.1C320.9,272.3 312.4,268.6 302.8,268.6L284.7,268.6L271.7,268.6C270.6,268.6 269.8,269.5 269.8,270.5L269.8,381.2C269.8,382.3 270.7,383.1 271.7,383.1L304.2,383.1C314.4,383.1 323.8,379 329.8,371.4C333.3,367 337.1,359.4 337.1,347.9C337,334.7 328.8,326.5 325.6,324M293,291.9L302.8,291.9C305.7,291.9 307.8,292.7 309.3,294.5C310.9,296.3 311.6,299 311.6,302.5C311.6,306.2 310.8,309 309.2,310.9C307.6,312.7 305.5,313.6 302.7,313.6L293,313.6L293,291.9ZM311.2,356.9C309.6,358.9 307.3,359.9 304.2,359.9L293,359.9L293,336.3L304.2,336.3C307.2,336.3 309.4,337.3 311.1,339.4C312.9,341.6 313.8,344.4 313.8,348.1C313.7,351.9 312.9,354.9 311.2,356.9" style="fill:rgb(238,48,60);fill-rule:nonzero;"/>
        <path d="M158.8,333.9C160.8,332.5 162.6,330.8 164.3,328.9C168.3,324.4 173.1,316.4 173.1,304.1C173.1,292.1 168.3,284.2 164.3,279.7C158.4,273 150.2,269.2 141,268.7L141,268.6L139.3,268.6C139.2,268.6 139.1,268.6 139,268.6L108.2,268.6C107.1,268.6 106.3,269.5 106.3,270.5L106.3,381.2C106.3,382.3 107.2,383.1 108.2,383.1L127.6,383.1C128.7,383.1 129.5,382.2 129.5,381.2L129.5,340L136.4,340L148.7,381.8C148.9,382.6 149.7,383.2 150.6,383.2L171.2,383.2C171.8,383.2 172.4,382.9 172.8,382.4C173.2,381.9 173.3,381.3 173.1,380.7L158.8,333.9ZM146.8,313.5C144.9,315.7 142.3,316.7 138.9,316.7L129.5,316.7L129.5,291.9L138.9,291.9C142.3,291.9 144.8,292.9 146.8,295.1C148.8,297.3 149.7,300.3 149.7,304.1C149.7,308.1 148.7,311.3 146.8,313.5" style="fill:rgb(238,48,60);fill-rule:nonzero;"/>
        <path d="M573.8,324C577.4,320.8 583.2,312.6 583.2,302.5C583.2,290.8 578.8,283.3 575.1,279.1C569.1,272.3 560.6,268.6 551,268.6L532.9,268.6L519.9,268.6C518.8,268.6 518,269.5 518,270.5L518,381.2C518,382.3 518.9,383.1 519.9,383.1L552.4,383.1C562.6,383.1 572,379 578,371.4C581.5,367 585.3,359.4 585.3,347.9C585.3,334.7 577,326.5 573.8,324M541.2,291.9L551,291.9C553.9,291.9 556,292.7 557.5,294.5C559.1,296.3 559.8,299 559.8,302.5C559.8,306.2 559,309 557.4,310.9C555.8,312.7 553.7,313.6 550.9,313.6L541.1,313.6L541.1,291.9L541.2,291.9ZM559.4,356.9C557.8,358.9 555.5,359.9 552.4,359.9L541.2,359.9L541.2,336.3L552.4,336.3C555.4,336.3 557.6,337.3 559.3,339.4C561.1,341.6 561.9,344.4 561.9,348.1C561.9,351.9 561.1,354.9 559.4,356.9" style="fill:rgb(238,48,60);fill-rule:nonzero;"/>
        <path d="M498.8,268.6L489.2,268.6L478.9,268.6C477.8,268.6 477,269.4 477,270.3L477,349.3C477,353.1 476.1,356 474.4,358.2C472.8,360.2 470.7,361.2 467.9,361.2C465.1,361.2 463,360.2 461.4,358.2C459.7,356.1 458.8,353.1 458.8,349.3L458.8,349.2L458.8,321.7L458.8,270.3C458.8,269.4 457.9,268.6 456.9,268.6L446.1,268.6L437,268.6C435.9,268.6 435.1,269.4 435.1,270.3L435.1,349.5C435.1,359.9 437.6,369.2 443.6,375.5C449.6,381.9 458.2,385.1 468,385.1C477.8,385.1 486.4,381.9 492.4,375.5C498.3,369.2 500.9,360 500.9,349.5L500.9,321.7L500.9,270.3C500.7,269.4 499.8,268.6 498.8,268.6" style="fill:rgb(238,48,60);fill-rule:nonzero;"/>
    </g>
</svg>
