<?xml version="1.0" encoding="UTF-8" standalone="no"?>
<!DOCTYPE svg PUBLIC "-//W3C//DTD SVG 1.1//EN" "http://www.w3.org/Graphics/SVG/1.1/DTD/svg11.dtd">
<svg width="100%" height="100%" viewBox="0 0 158 567" version="1.1" xmlns="http://www.w3.org/2000/svg" xmlns:xlink="http://www.w3.org/1999/xlink" xml:space="preserve" xmlns:serif="http://www.serif.com/" style="fill-rule:evenodd;clip-rule:evenodd;stroke-linejoin:round;stroke-miterlimit:1.41421;">
    <g transform="matrix(1,0,0,1,-865.322,-160.25)">
        <path d="M1015.73,270.118C1015.29,269.611 1014.83,269.118 1014.36,268.639C1017.97,264.544 1021.7,260.344 1021.67,255.081C1021.63,248.685 1015.96,243.778 1013.84,237.731C1010.95,229.502 1014.96,220.687 1016.6,212.134C1019.19,198.073 1015.37,183.565 1006.19,172.604C1004.52,170.634 1002.59,168.729 1000.11,167.947C996.332,166.757 992.317,168.41 988.383,168.896C975.4,170.499 963.588,159.312 950.543,160.314C949.678,160.345 948.827,160.536 948.031,160.876C946.343,161.683 945.428,163.464 944.385,165C940.333,170.962 933.528,173.925 926.758,176.988C925.907,177.238 925.097,177.609 924.353,178.091C922.319,179.037 920.318,180.024 918.429,181.142C905.646,188.708 907.5,199.293 915.037,205.832C913.564,213.172 906.061,219.635 907.353,227.182C908.367,233.098 914.527,237.124 915.714,243.009C916.403,246.426 915.318,249.683 913.81,252.916C899.507,256.226 883.348,262.322 882.087,273.08C879.893,291.796 873.29,343.486 873.29,343.486C873.29,343.486 865.64,384.901 894.709,365.323L894.336,366.425C889.097,382.284 885.522,398.644 883.667,415.242C883.372,417.711 882.781,419.657 881.705,420.292C881.315,420.522 882.086,420.888 883.765,421.344C883.575,422.041 883.371,422.733 883.189,423.432C879.995,435.536 877.953,447.916 877.092,460.405C876.274,471.467 874.748,482.466 872.525,493.333C865.64,527.971 872.525,572.398 872.525,572.398L887.549,643.135L890.12,655.229C891.817,657.106 893.892,658.604 896.209,659.623C897.215,663.957 897.912,668.357 898.297,672.789C898.338,673.282 898.371,673.782 898.402,674.282C896.582,674.514 894.952,675.532 893.944,677.066C888.59,684.596 894.709,690.62 874.055,705.68C868.719,709.571 866.145,713.108 865.493,716.113L865.493,716.114C864.79,719.348 866.316,721.965 869.04,723.737L869.046,723.74C869.51,724.04 869.993,724.31 870.491,724.548L870.514,724.559C870.767,724.68 871.026,724.795 871.291,724.904L871.294,724.905C871.56,725.014 871.832,725.117 872.11,725.214L872.159,725.23C872.42,725.32 872.686,725.405 872.956,725.484L873.015,725.502C873.296,725.583 873.582,725.658 873.872,725.728C873.896,725.734 873.922,725.739 873.946,725.745C874.213,725.807 874.483,725.865 874.756,725.917C874.791,725.924 874.826,725.931 874.862,725.937C875.154,725.992 875.449,726.04 875.748,726.083C875.781,726.088 875.813,726.092 875.846,726.096C876.113,726.133 876.383,726.165 876.655,726.192C876.707,726.197 876.758,726.203 876.81,726.207C877.108,726.235 877.408,726.257 877.711,726.274C877.749,726.276 877.788,726.277 877.827,726.278C878.095,726.291 878.364,726.299 878.634,726.302C878.697,726.303 878.76,726.304 878.824,726.305C879.126,726.306 879.429,726.303 879.733,726.292C879.773,726.291 879.813,726.288 879.853,726.287C880.122,726.276 880.391,726.26 880.661,726.24C880.733,726.235 880.804,726.23 880.876,726.224C881.179,726.199 881.482,726.169 881.786,726.131C881.822,726.127 881.858,726.121 881.894,726.117C882.166,726.082 882.437,726.042 882.708,725.997C882.784,725.985 882.859,725.972 882.935,725.959C883.237,725.906 883.538,725.849 883.838,725.784C883.867,725.778 883.895,725.771 883.924,725.764C884.199,725.704 884.472,725.637 884.744,725.566C884.821,725.546 884.898,725.526 884.974,725.505C885.271,725.424 885.567,725.338 885.861,725.244L885.91,725.228C886.189,725.138 886.466,725.04 886.741,724.939C886.815,724.911 886.889,724.883 886.963,724.855C887.252,724.744 887.54,724.629 887.824,724.505C901.594,718.481 929.898,702.668 929.898,702.668L929.898,702.524L929.897,702.428L929.896,702.288L929.896,702.163L929.894,701.943L929.892,701.747C929.891,701.669 929.89,701.591 929.889,701.504L929.886,701.273C929.885,701.168 929.884,701.065 929.882,700.949C929.881,700.871 929.879,700.785 929.878,700.703C929.876,700.582 929.874,700.466 929.872,700.335C929.868,700.127 929.864,699.908 929.859,699.678C929.718,693.097 929.069,677.982 926.073,678.572C925.052,678.773 924.359,680.207 923.643,681.859C923.527,681.64 923.409,681.417 923.289,681.185C920.373,675.562 916.156,665.911 915.744,656.479C918.097,654.775 920.275,652.843 922.248,650.711C924.221,648.579 920.711,644.235 919.403,637.405C918.27,631.487 917.306,625.297 917.658,622.85C918.423,617.579 908.479,576.917 908.479,576.917C908.479,576.917 909.504,567.971 911.562,555.539C915.562,531.375 923.442,494.034 935.199,483.477C935.475,483.236 935.742,483.002 936.018,482.791C936.018,482.791 944.432,484.297 951.317,531.736L953.314,552.866C953.885,558.717 954.877,564.52 956.282,570.23C958.335,579.334 958.983,588.7 958.202,598.001C957.33,610.455 956.955,625.116 956.794,635.41C956.672,643.166 956.672,648.452 956.672,648.452C958.096,649.654 959.633,650.717 961.262,651.623L961.262,658.533C961.245,659.998 960.669,661.404 959.652,662.459L959.625,662.488C958.54,663.708 957.749,665.162 957.315,666.737C955.98,669.141 954.85,673.045 954.377,679.325C952.847,699.656 952.082,697.397 952.082,697.397C951.204,699.595 950.62,701.901 950.348,704.253L950.348,704.253C950.304,704.693 950.277,705.136 950.269,705.579C950.267,705.649 950.268,705.718 950.268,705.788C950.267,705.991 950.27,706.194 950.279,706.396C950.283,706.495 950.288,706.594 950.295,706.693C950.304,706.843 950.317,706.992 950.332,707.141C950.347,707.276 950.363,707.41 950.382,707.544C950.396,707.639 950.41,707.735 950.426,707.829C950.457,708.009 950.493,708.188 950.535,708.364C950.554,708.443 950.574,708.521 950.595,708.599C950.644,708.783 950.697,708.965 950.758,709.143C950.777,709.199 950.8,709.254 950.821,709.309C950.881,709.472 950.947,709.631 951.02,709.788C951.041,709.835 951.061,709.883 951.084,709.93C951.173,710.112 951.274,710.288 951.38,710.46C951.409,710.507 951.439,710.555 951.47,710.601C951.583,710.773 951.705,710.938 951.836,711.097C951.867,711.134 951.899,711.17 951.931,711.206C952.075,711.373 952.229,711.531 952.392,711.679C952.409,711.694 952.428,711.708 952.446,711.723C952.614,711.87 952.79,712.007 952.974,712.132C953.003,712.152 953.03,712.173 953.059,712.192C953.262,712.324 953.472,712.444 953.689,712.551C953.732,712.573 953.775,712.594 953.818,712.615C954.052,712.726 954.292,712.823 954.537,712.907C954.579,712.921 954.623,712.934 954.665,712.948C954.945,713.039 955.229,713.116 955.516,713.177L955.547,713.183C955.845,713.244 956.161,713.291 956.491,713.327C956.536,713.332 956.58,713.339 956.626,713.343C956.953,713.375 957.297,713.393 957.655,713.399C957.722,713.4 957.789,713.401 957.857,713.401C958.22,713.402 958.598,713.392 958.994,713.365C959.055,713.361 959.119,713.355 959.182,713.35C959.603,713.318 960.038,713.274 960.497,713.21C976.561,710.951 984.211,709.445 983.446,700.409C982.985,694.963 981.69,687.054 980.734,681.63C980.249,678.874 979.358,676.205 978.088,673.711C978.128,673.288 978.165,672.852 978.198,672.405C978.474,668.67 978.458,664.227 977.326,661.253L977.679,654.66C981.664,653.648 985.265,651.489 988.036,648.452C990.806,645.414 988.151,643.565 988.487,637.089C988.992,627.082 990.002,613.271 991.861,607.79C994.921,598.754 991.861,567.128 991.861,567.128C991.861,567.128 980.386,512.911 991.096,489.568C1000.54,468.977 1000.46,448.379 991.374,428.303C991.554,428.161 991.717,428 991.861,427.822C992.005,427.644 989.566,426.316 990.331,408.997C990.915,395.779 985.976,382.426 984.109,376.7C988.162,378.435 994.097,374.23 995.9,370.935C999.721,363.948 1008.11,334.486 1008.11,334.486L1021.64,292.182L1021.64,292.18C1022.88,288.746 1024.55,280.168 1015.73,270.118ZM937.965,241.103C937.943,241.587 937.91,242.072 937.861,242.554C937.719,244.111 937.39,245.647 936.881,247.126C937.404,245.127 937.722,243.081 937.83,241.018C937.874,241.047 937.92,241.074 937.965,241.103L937.965,241.103ZM984.211,348.004C984.483,348.501 984.741,348.985 984.989,349.461L983.057,348.475C983.773,344.924 984.932,341.477 986.506,338.215C988.407,334.419 989.972,330.463 991.182,326.394C991.127,331.097 991.354,335.798 991.861,340.474C993.391,352.522 984.211,348.004 984.211,348.004Z" style="fill:url(#_Linear1);fill-rule:nonzero;"/>
    </g>
    <g transform="matrix(1,0,0,1,-865.322,-160.25)">
        <path d="M919.342,184.287C916.897,185.955 914.341,187.882 913.471,190.711C912.067,195.274 915.59,199.855 915.938,204.616C916.572,213.273 906.781,220.428 908.225,228.988C909.214,234.855 915.228,238.847 916.387,244.683C918.076,253.195 908.851,260.7 909.577,269.347C909.963,273.953 913.167,277.865 916.802,280.719C921.904,284.712 928.011,287.218 934.447,287.96C934.018,280.556 928.527,273.819 929.469,266.463C930.116,261.419 933.664,257.294 935.718,252.641C939.323,244.472 938.169,235.017 936.007,226.354C933.844,217.691 930.723,209.127 930.565,200.2C930.471,194.826 932.992,186.928 931.143,181.829C928.894,175.63 923.532,181.43 919.342,184.287Z" style="fill:rgb(63,61,86);fill-rule:nonzero;"/>
    </g>
    <g transform="matrix(1,0,0,1,-865.322,-160.25)">
        <path d="M919.342,184.493C916.897,186.161 914.341,188.088 913.471,190.917C912.067,195.48 915.59,200.061 915.938,204.822C916.572,213.479 906.781,220.634 908.225,229.194C909.214,235.061 915.228,239.053 916.387,244.889C918.076,253.401 908.851,260.906 909.577,269.553C909.963,274.159 913.167,278.071 916.802,280.925C921.904,284.918 928.011,287.424 934.447,288.166C934.018,280.762 928.527,274.025 929.469,266.669C930.116,261.625 933.664,257.5 935.718,252.847C939.323,244.678 938.169,235.223 936.007,226.56C933.844,217.897 930.722,209.333 930.565,200.406C930.471,195.032 932.992,187.134 931.143,182.035C928.894,175.836 923.532,181.636 919.342,184.493Z" style="fill-opacity:0.1;fill-rule:nonzero;"/>
    </g>
    <g transform="matrix(1,0,0,1,-865.322,-160.25)">
        <path d="M926.499,684.112L919.778,690.833C919.778,690.833 895.882,703.528 898.869,686.353C899.686,681.247 899.859,676.058 899.384,670.909C898.767,663.723 897.341,656.628 895.135,649.761L917.538,645.28C913.812,656.989 919.95,671.731 923.781,679.236C925.327,682.26 926.499,684.112 926.499,684.112Z" style="fill:rgb(255,185,185);fill-rule:nonzero;"/>
    </g>
    <g transform="matrix(1,0,0,1,-865.322,-160.25)">
        <path d="M977.385,670.528C977.217,672.829 976.933,675.12 976.533,677.391C976.134,679.663 957.864,690.087 956.37,675.898C955.4,666.653 957.595,662.478 959.253,660.693L959.279,660.665C960.275,659.612 960.837,658.22 960.851,656.771L960.851,640.053L977.28,645.28L976.533,659.469C977.638,662.419 977.653,666.824 977.385,670.528Z" style="fill:rgb(255,185,185);fill-rule:nonzero;"/>
    </g>
    <g transform="matrix(1,0,0,1,-865.322,-160.25)">
        <path d="M926.499,684.112L919.778,690.833C919.778,690.833 895.882,703.528 898.869,686.353C899.686,681.247 899.859,676.058 899.384,670.909C904.619,670.14 910.817,675.898 910.817,675.898C919.569,688.249 921.929,683.575 923.781,679.236C925.327,682.26 926.499,684.112 926.499,684.112Z" style="fill-opacity:0.05;fill-rule:nonzero;"/>
    </g>
    <g transform="matrix(1,0,0,1,-865.322,-160.25)">
        <path d="M910.817,677.391C910.817,677.391 900.362,667.683 895.135,675.151C889.907,682.619 895.882,688.593 875.719,703.528C855.556,718.464 875.719,728.172 889.161,722.198C902.603,716.224 930.233,700.541 930.233,700.541C930.233,700.541 930.233,675.898 926.499,676.645C922.765,677.391 923.512,695.314 910.817,677.391Z" style="fill:rgb(63,61,86);fill-rule:nonzero;"/>
    </g>
    <g transform="matrix(1,0,0,1,-865.322,-160.25)">
        <path d="M977.385,670.528C977.217,672.829 976.933,675.12 976.533,677.391C976.134,679.663 957.864,690.087 956.37,675.898C955.4,666.653 957.595,662.478 959.253,660.693C960.572,659.697 962.342,659.512 963.838,660.215C966.825,658.886 970.111,661.104 972.829,663.972C974.671,665.914 976.207,668.125 977.385,670.528Z" style="fill-opacity:0.05;fill-rule:nonzero;"/>
    </g>
    <g transform="matrix(1,0,0,1,-865.322,-160.25)">
        <path d="M963.838,661.709C963.838,661.709 955.624,657.228 954.13,677.391C952.636,697.554 951.89,695.314 951.89,695.314C951.89,695.314 944.422,713.237 960.104,710.996C975.786,708.756 983.254,707.262 982.507,698.301C982.057,692.9 980.793,685.057 979.86,679.678C978.971,674.351 976.525,669.404 972.832,665.462C970.107,662.594 966.825,660.381 963.838,661.709Z" style="fill:rgb(63,61,86);fill-rule:nonzero;"/>
    </g>
    <g transform="matrix(1,0,0,1,-865.322,-160.25)">
        <path d="M990.722,566.122C990.722,566.122 993.709,597.486 990.722,606.448C988.907,611.884 987.922,625.58 987.429,635.505C987.1,641.927 986.988,646.774 986.988,646.774C972.799,661.709 956.37,646.774 956.37,646.774C956.37,646.774 956.37,641.531 956.49,633.839C956.647,623.631 957.013,609.091 957.864,596.74C958.626,587.517 957.994,578.233 955.989,569.199C954.618,563.534 953.65,557.779 953.092,551.978L951.143,531.024C944.422,483.977 936.207,482.483 936.207,482.483C935.939,482.692 935.677,482.924 935.408,483.163C923.93,493.633 916.239,530.665 912.333,554.629C910.324,566.958 909.324,575.83 909.324,575.83C909.324,575.83 919.032,616.156 918.285,621.383C917.941,623.81 918.882,629.949 919.988,635.818C921.264,642.592 922.766,649.014 922.766,649.014C904.096,669.177 891.401,653.495 891.401,653.495L888.892,641.501L874.225,571.349C874.225,571.349 867.504,527.29 874.225,492.938C876.396,482.157 877.885,471.25 878.683,460.282C879.523,447.901 881.516,435.626 884.635,423.615C885.546,420.06 886.557,416.533 887.667,413.033C888.777,409.533 915.708,408.157 942.114,408.157C961.919,408.157 980.797,410.897 986.241,420.501C987.496,422.711 988.636,424.927 989.662,427.147C999.116,447.467 999.4,468.339 989.975,489.204C979.52,512.354 990.722,566.122 990.722,566.122Z" style="fill:rgb(63,61,86);fill-rule:nonzero;"/>
    </g>
    <g transform="matrix(1,0,0,1,-865.322,-160.25)">
        <path d="M927.993,295.043C927.993,295.043 888.414,254.717 918.285,257.704C925.058,258.384 929.643,257.174 932.683,254.904C936.148,252.32 937.604,248.362 938.007,244.232C938.829,235.995 935.461,227.086 935.461,227.086C935.461,227.086 975.786,194.975 967.572,235.301C966.67,239.399 966.145,243.571 966.004,247.765C965.869,256.323 968.685,259.601 972.635,260.945C979.296,263.223 989.199,260.034 993.709,267.412C1001.92,280.854 927.993,295.043 927.993,295.043Z" style="fill:rgb(255,185,185);fill-rule:nonzero;"/>
    </g>
    <g transform="matrix(1,0,0,1,-865.322,-160.25)">
        <path d="M927.993,295.043C927.993,295.043 888.414,254.717 918.285,257.704C925.058,258.384 929.643,257.174 932.683,254.904C936.148,252.32 937.604,248.362 938.007,244.232C938.829,235.995 935.461,227.086 935.461,227.086C935.461,227.086 975.786,194.975 967.572,235.301C966.67,239.399 966.145,243.571 966.004,247.765C965.869,256.323 968.685,259.601 972.635,260.945C979.296,263.223 989.199,260.034 993.709,267.412C1001.92,280.854 927.993,295.043 927.993,295.043Z" style="fill-opacity:0.1;fill-rule:nonzero;"/>
    </g>
    <g transform="matrix(1,0,0,1,-865.322,-160.25)">
        <path d="M987.735,215.885C987.725,233.494 973.233,247.978 955.624,247.978C938.015,247.978 923.522,233.494 923.512,215.885C923.512,215.287 923.527,214.69 923.565,214.1C924.506,197.183 938.682,183.773 955.625,183.773C973.24,183.773 987.735,198.268 987.735,215.883C987.735,215.884 987.735,215.884 987.735,215.885Z" style="fill:rgb(255,185,185);fill-rule:nonzero;"/>
    </g>
    <g transform="matrix(1,0,0,1,-865.322,-160.25)">
        <path d="M927.993,295.043C927.993,295.043 888.414,254.717 918.285,257.704C925.058,258.384 929.643,257.174 932.683,254.904C926.903,264.492 920.398,281.735 949.649,280.107C976.421,278.621 975.966,267.95 972.635,260.945C979.296,263.223 989.199,260.034 993.709,267.412C1001.92,280.854 927.993,295.043 927.993,295.043Z" style="fill-opacity:0.05;fill-rule:nonzero;"/>
    </g>
    <g transform="matrix(1,0,0,1,-865.322,-160.25)">
        <path d="M990.722,430.209C983.926,439.043 897.3,427.461 884.635,423.615C885.546,420.06 886.557,416.533 887.667,413.033C888.777,409.533 915.708,408.157 942.114,408.157C961.919,408.157 980.797,410.897 986.241,420.501C987.496,422.711 988.636,424.927 989.662,427.147C990.139,429.821 990.722,430.209 990.722,430.209Z" style="fill-opacity:0.1;fill-rule:nonzero;"/>
    </g>
    <g transform="matrix(1,0,0,1,-865.322,-160.25)">
        <path d="M936.207,250.983C936.207,250.983 885.8,255.09 883.56,274.507C881.418,293.068 874.972,344.33 874.972,344.33C874.972,344.33 867.504,385.403 895.882,365.986L895.517,367.079C890.4,382.819 886.91,399.042 885.102,415.493C884.814,417.941 884.237,419.871 883.186,420.501C879.453,422.741 983.254,437.677 990.722,427.969C990.722,427.969 988.482,426.475 989.228,409.299C989.975,392.124 983.254,374.201 983.254,374.201C983.254,374.201 977.28,356.278 985.495,339.103C993.709,321.927 990.722,316.699 990.722,316.699L1019.1,295.043C1019.1,295.043 1025.23,284.537 1014.02,271.569C1007.23,263.824 997.631,259.093 987.352,258.427L967.778,257.034C967.778,257.034 989.228,280.107 948.903,282.348C908.577,284.588 936.207,250.983 936.207,250.983Z" style="fill:rgb(87,90,137);fill-rule:nonzero;"/>
    </g>
    <g transform="matrix(1,0,0,1,-865.322,-160.25)">
        <path d="M902.603,292.056C902.603,292.056 904.096,304.004 901.109,307.738C898.122,311.472 897.375,328.648 901.109,339.102" style="fill-opacity:0.05;fill-rule:nonzero;"/>
    </g>
    <g transform="matrix(1,0,0,1,-865.322,-160.25)">
        <path d="M935.408,483.163C923.93,493.633 916.239,530.665 912.333,554.629C906.896,521.271 929.486,466.054 929.486,466.054L935.408,483.163Z" style="fill-opacity:0.1;fill-rule:nonzero;"/>
    </g>
    <g transform="matrix(1,0,0,1,-865.322,-160.25)">
        <path d="M922.765,649.014C904.096,669.177 891.401,653.495 891.401,653.495L888.892,641.501C895.949,645.168 907.875,648.013 919.987,635.818C921.264,642.592 922.765,649.014 922.765,649.014Z" style="fill-opacity:0.1;fill-rule:nonzero;"/>
    </g>
    <g transform="matrix(1,0,0,1,-865.322,-160.25)">
        <path d="M987.429,635.505C987.1,641.927 986.988,646.774 986.988,646.774C972.799,661.709 956.37,646.774 956.37,646.774C956.37,646.774 956.37,641.531 956.49,633.839C962.651,637.753 973.725,642.061 987.429,635.505Z" style="fill-opacity:0.1;fill-rule:nonzero;"/>
    </g>
    <g>
        <g transform="matrix(1,0,0,1,-865.322,-160.25)">
            <path d="M884.724,350.558C886.087,346.498 889.177,343.242 893.161,341.67C896.312,340.501 898.903,338.175 900.404,335.167C903.349,328.648 908.577,321.927 922.019,326.407C935.461,330.888 918.285,333.875 918.285,333.875C918.285,333.875 948.903,329.394 936.954,338.356C925.006,347.317 910.07,352.544 910.07,352.544L902.716,360.331C900.637,362.576 897.712,363.853 894.653,363.853C891.442,363.853 888.386,362.446 886.299,360.005C884.114,357.373 883.511,353.757 884.724,350.558Z" style="fill-opacity:0.05;fill-rule:nonzero;"/>
        </g>
        <g transform="matrix(1,0,0,1,-865.322,-160.25)">
            <path d="M883.977,349.064C885.34,345.005 888.431,341.749 892.414,340.177C895.565,339.007 904.911,333.681 906.412,330.673C909.357,324.154 917.597,321.133 925.603,320.765C933.423,320.405 926.537,330.278 926.537,330.278C926.537,330.278 932.013,332.304 928.091,339.102C924.169,345.901 909.324,351.051 909.324,351.051L901.969,358.838C899.89,361.082 896.965,362.36 893.906,362.36C890.695,362.36 887.64,360.952 885.553,358.512C883.367,355.88 882.764,352.263 883.977,349.064Z" style="fill:rgb(255,185,185);fill-rule:nonzero;"/>
        </g>
    </g>
    <g transform="matrix(-0.0466016,-0.998914,0.998914,-0.0466016,-94.4705,232.62)">
        <g transform="matrix(1,0,0,1,-759.439,3.006e-05)">
            <path d="M851.234,160.946C851.234,158.876 849.554,157.196 847.484,157.196L804.203,157.196C802.134,157.196 800.453,158.876 800.453,160.946L800.453,174.356C800.453,176.425 802.134,178.106 804.203,178.106L847.484,178.106C849.554,178.106 851.234,176.425 851.234,174.356L851.234,160.946Z" style="fill:rgb(205,208,219);"/>
        </g>
        <g>
            <g transform="matrix(1,0,0,1,-759.439,3.006e-05)">
                <path d="M851.234,160.946C851.234,158.876 849.554,157.196 847.484,157.196L804.203,157.196C802.134,157.196 800.453,158.876 800.453,160.946L800.453,174.356C800.453,176.425 802.134,178.106 804.203,178.106L847.484,178.106C849.554,178.106 851.234,176.425 851.234,174.356L851.234,160.946Z" style="fill-opacity:0.05;"/>
            </g>
            <g transform="matrix(1,0,0,1,-759.439,3.006e-05)">
                <path d="M851.234,161.693C851.234,159.623 849.554,157.943 847.484,157.943L804.203,157.943C802.134,157.943 800.453,159.623 800.453,161.693L800.453,175.103C800.453,177.172 802.134,178.853 804.203,178.853L847.484,178.853C849.554,178.853 851.234,177.172 851.234,175.103L851.234,161.693Z" style="fill:rgb(63,61,86);"/>
            </g>
        </g>
        <g transform="matrix(1,0,0,1,-759.439,3.006e-05)">
            <circle cx="840.406" cy="168.024" r="2.24" style="fill:rgb(157,167,192);"/>
        </g>
    </g>
    <g transform="matrix(1,0,0,1,-865.322,-160.25)">
        <path d="M989.228,364.493L984.001,377.188L977.31,372.267L958.611,358.519L945.916,350.304C927.993,336.862 945.916,334.622 945.916,334.622C939.195,331.635 945.916,328.648 945.916,328.648C969.812,323.42 965.332,342.836 965.332,342.836L980.469,350.685L985.495,353.291L989.228,364.493Z" style="fill-opacity:0.05;fill-rule:nonzero;"/>
    </g>
    <g transform="matrix(1,0,0,1,-878.266,-169.306)">
        <path d="M990.722,362.999L985.495,375.694L978.803,370.773L960.104,357.025L947.409,348.811C929.486,335.369 947.409,333.128 947.409,333.128C940.688,330.141 947.409,327.154 947.409,327.154C971.306,321.927 966.825,341.343 966.825,341.343L981.962,349.191L986.988,351.798L990.722,362.999Z" style="fill:rgb(255,185,185);fill-rule:nonzero;"/>
    </g>
    <g transform="matrix(1,0,0,1,-865.322,-160.25)">
        <path d="M990.722,362.999L985.495,375.694L978.803,370.773C984.86,370.99 992.014,368.062 981.962,349.191L986.988,351.798L990.722,362.999Z" style="fill-opacity:0.05;fill-rule:nonzero;"/>
    </g>
    <g transform="matrix(0.983356,0.181688,-0.181688,0.983356,-795.71,-339.895)">
        <path d="M1018.35,287.575L1020.29,292.783L1015.37,336.862L1011.63,365.986C1011.63,365.986 1010.14,385.402 992.962,380.175C975.786,374.948 974.293,369.72 974.293,369.72C974.293,369.72 998.936,377.935 983.254,348.811C983.254,348.811 992.215,353.291 990.722,341.343C989.228,329.394 990.722,308.485 990.722,308.485L1018.35,287.575Z" style="fill:rgb(87,90,137);fill-rule:nonzero;"/>
    </g>
    <g transform="matrix(1,0,0,1,-865.322,-160.25)">
        <path d="M987.735,215.885C987.735,230.831 977.301,243.897 962.725,247.204C961.65,244.098 960.888,241.006 961.672,237.862C963.188,231.761 970.23,227.31 969.446,221.075C969.381,220.373 969.136,219.699 968.737,219.118C967.161,217.042 963.95,218.073 961.396,218.588C954.545,219.723 947.835,215.586 945.774,208.955C939.935,214.698 931.334,216.691 923.565,214.1C924.506,197.183 938.682,183.773 955.625,183.773C973.24,183.773 987.735,198.268 987.735,215.883C987.735,215.884 987.735,215.884 987.735,215.885L987.735,215.885Z" style="fill-opacity:0.05;fill-rule:nonzero;"/>
    </g>
    <g transform="matrix(1,0,0,1,-865.322,-160.25)">
        <path d="M946.524,207.463C948.582,214.094 955.291,218.231 962.139,217.093C964.696,216.583 967.906,215.551 969.481,217.628C969.883,218.205 970.128,218.877 970.19,219.578C970.98,225.817 963.937,230.266 962.42,236.369C960.858,242.655 965.437,248.726 966.412,255.128C966.945,258.631 966.381,262.199 966.422,265.742C966.462,269.284 967.257,273.09 969.884,275.468C972.51,277.846 977.364,277.87 979.124,274.795C987.527,279.235 984.171,292.998 990.552,300.042C994.071,303.927 999.86,304.861 1005.08,304.363C1006.3,304.345 1007.49,303.961 1008.49,303.261C1009.36,302.41 1009.94,301.314 1010.16,300.122C1011.48,295.137 1011.25,289.869 1009.51,285.016C1008.68,282.697 1007.48,280.351 1007.79,277.904C1008.17,276.007 1009.06,274.25 1010.38,272.829C1014.39,267.855 1019.86,263.046 1019.82,256.656C1019.78,250.313 1014.24,245.446 1012.18,239.45C1009.36,231.289 1013.27,222.546 1014.87,214.064C1017.41,200.146 1013.69,185.794 1004.71,174.862C1003.08,172.908 1001.19,171.018 998.772,170.242C995.086,169.062 991.167,170.702 987.327,171.184C974.653,172.774 963.122,161.679 950.387,162.672C949.542,162.704 948.71,162.893 947.935,163.23C946.287,164.03 945.394,165.797 944.375,167.32C938.754,175.724 927.702,178.119 919.037,183.329C893.731,198.545 927.171,226.089 946.524,207.463Z" style="fill:rgb(63,61,86);fill-rule:nonzero;"/>
    </g>
    <g transform="matrix(1,0,0,1,-865.322,-160.25)">
        <path d="M889.161,719.211C880.434,723.089 868.878,720.356 867.36,713.876C865.53,722.432 879.191,726.629 889.161,722.198C902.603,716.224 930.233,700.541 930.233,700.541C930.233,700.541 930.233,699.381 930.195,697.576C929.39,698.032 902.402,713.326 889.161,719.211Z" style="fill:white;fill-opacity:0.3;fill-rule:nonzero;"/>
    </g>
    <g transform="matrix(1,0,0,1,-865.322,-160.25)">
        <path d="M982.469,697.871C981.608,704.589 974.156,706.002 960.104,708.009C952.958,709.03 950.625,705.862 950.196,702.113C949.729,706.915 951.093,712.284 960.104,710.996C975.786,708.756 983.254,707.262 982.507,698.301C982.496,698.162 982.481,698.014 982.469,697.871Z" style="fill:white;fill-opacity:0.3;fill-rule:nonzero;"/>
    </g>
    <g transform="matrix(1,0,0,1,-865.322,-160.25)">
        <path d="M1008.07,301.073C1002.85,301.57 997.058,300.636 993.539,296.751C987.158,289.708 990.513,275.945 982.11,271.505C980.351,274.58 975.496,274.556 972.87,272.178C970.244,269.8 969.448,265.994 969.408,262.451C969.368,258.908 969.932,255.34 969.399,251.838C968.424,245.435 963.845,239.364 965.407,233.079C966.923,226.975 973.966,222.527 973.176,216.287C973.114,215.586 972.87,214.914 972.468,214.337C970.892,212.261 967.682,213.292 965.126,213.802C958.277,214.94 951.569,210.803 949.51,204.173C932.211,220.822 903.663,200.581 915.871,185.23C896.822,200.711 928.073,224.916 946.523,207.16C948.582,213.79 955.29,217.927 962.139,216.789C964.695,216.279 967.905,215.248 969.481,217.324C969.883,217.901 970.127,218.574 970.189,219.274C970.979,225.514 963.936,229.962 962.419,236.066C960.857,242.351 965.437,248.422 966.411,254.825C966.945,258.327 966.381,261.895 966.421,265.438C966.461,268.981 967.257,272.787 969.883,275.165C972.509,277.543 977.364,277.567 979.123,274.492C987.526,278.932 984.171,292.695 990.551,299.738C994.071,303.623 999.86,304.557 1005.08,304.06C1006.3,304.041 1007.49,303.657 1008.49,302.958C1009.14,302.367 1009.62,301.611 1009.87,300.771C1009.28,300.924 1008.68,301.025 1008.07,301.073Z" style="fill-rule:nonzero;"/>
    </g>
    <g transform="matrix(1,0,0,1,-865.322,-160.25)">
        <path d="M947.362,164.029C947.618,163.646 947.867,163.247 948.122,162.852C948.06,162.878 947.995,162.897 947.935,162.926C946.287,163.727 945.393,165.493 944.375,167.016C944.024,167.54 943.653,168.041 943.262,168.52C944.836,167.226 946.216,165.714 947.362,164.029Z" style="fill-rule:nonzero;"/>
    </g>
    <g transform="matrix(1,0,0,1,-865.322,-160.25)">
        <path d="M906.336,372.935C906.336,372.935 904.404,379.656 917.099,382.643C929.794,385.63 906.336,372.935 906.336,372.935Z" style="fill-opacity:0.1;fill-rule:nonzero;"/>
    </g>
    <g transform="matrix(1,0,0,1,-865.322,-160.25)">
        <path d="M900.778,392.849C900.778,392.849 894.297,397.578 909.93,405.793C925.562,414.007 900.778,392.849 900.778,392.849Z" style="fill-opacity:0.1;fill-rule:nonzero;"/>
    </g>
    <g transform="matrix(1,0,0,1,-865.322,-160.25)">
        <path d="M886.232,471.758C886.232,471.758 903.827,466.78 906.231,459.312C908.636,451.844 886.232,471.758 886.232,471.758Z" style="fill-opacity:0.1;fill-rule:nonzero;"/>
    </g>
    <g transform="matrix(1,0,0,1,-865.322,-160.25)">
        <path d="M886.232,566.349C886.232,566.349 893.812,570.083 898.61,569.585C903.408,569.088 886.232,566.349 886.232,566.349Z" style="fill-opacity:0.1;fill-rule:nonzero;"/>
    </g>
    <g transform="matrix(1,0,0,1,-865.322,-160.25)">
        <path d="M888.892,576.804C888.892,576.804 892.319,578.547 898.61,578.796C904.902,579.045 888.892,576.804 888.892,576.804Z" style="fill-opacity:0.1;fill-rule:nonzero;"/>
    </g>
    <defs>
        <linearGradient id="_Linear1" x1="0" y1="0" x2="1" y2="0" gradientUnits="userSpaceOnUse" gradientTransform="matrix(3.46609e-14,-566.055,566.055,3.46609e-14,943.983,726.305)"><stop offset="0" style="stop-color:rgb(128,128,128);stop-opacity:0.247059"/><stop offset="0.54" style="stop-color:rgb(128,128,128);stop-opacity:0.117647"/><stop offset="1" style="stop-color:rgb(128,128,128);stop-opacity:0.0980392"/></linearGradient>
    </defs>
</svg>
