<?xml version="1.0" encoding="UTF-8" standalone="no"?>
<!DOCTYPE svg PUBLIC "-//W3C//DTD SVG 1.1//EN" "http://www.w3.org/Graphics/SVG/1.1/DTD/svg11.dtd">
<svg width="100%" height="100%" viewBox="0 0 193 562" version="1.1" xmlns="http://www.w3.org/2000/svg" xmlns:xlink="http://www.w3.org/1999/xlink" xml:space="preserve" xmlns:serif="http://www.serif.com/" style="fill-rule:evenodd;clip-rule:evenodd;stroke-linejoin:round;stroke-miterlimit:1.41421;">
    <g transform="matrix(1,0,0,1,-762.556,-59.4006)">
        <g transform="matrix(1,0,0,1,-105,-134.699)">
            <path d="M1031.02,310.268L1036.8,313.161C1036.8,313.161 1068.13,391.734 1057.53,410.534C1046.92,429.334 1013.66,464.523 1013.66,464.523L1007.4,446.688L1033.03,391.124L1031.02,310.268Z" style="fill:rgb(87,90,137);fill-rule:nonzero;"/>
        </g>
        <g transform="matrix(1,0,0,1,-105,-134.699)">
            <path d="M1031.02,310.268L1036.8,313.161C1036.8,313.161 1068.13,391.734 1057.53,410.534C1046.92,429.334 1013.66,464.523 1013.66,464.523L1007.4,446.688L1033.03,391.124L1031.02,310.268Z" style="fill-opacity:0.1;fill-rule:nonzero;"/>
        </g>
        <g transform="matrix(1,0,0,1,-105,-134.699)">
            <path d="M1024.75,703.137C1024.75,703.137 1032.95,721.937 1028.61,723.383C1024.27,724.829 1018.97,724.829 1013.66,724.829C1008.36,724.829 1002.1,722.901 1001.13,720.972C1000.17,719.044 1004.99,706.511 1004.99,706.511L1024.75,703.137Z" style="fill:rgb(87,90,137);fill-rule:nonzero;"/>
        </g>
        <g transform="matrix(1,0,0,1,-105,-134.699)">
            <path d="M914.362,712.778C914.362,712.778 919.665,729.649 917.255,730.613C914.844,731.577 907.132,735.916 902.793,734.47C898.455,733.024 891.706,729.649 890.26,728.203C888.814,726.757 890.26,719.044 890.26,719.044L897.009,709.403L914.362,712.778Z" style="fill:rgb(87,90,137);fill-rule:nonzero;"/>
        </g>
        <g transform="matrix(1,0,0,1,-105,-134.699)">
            <path d="M1009.33,462.113L1016.24,464.523C1016.24,464.523 1018,480.913 1016.07,486.698C1014.15,492.482 1009.81,534.42 1012.22,543.097C1014.63,551.774 1013.18,565.753 1013.18,565.753C1013.18,565.753 1027.64,612.994 1024.75,623.117C1021.86,633.24 1022.34,647.701 1025.23,654.932C1028.13,662.163 1030.54,665.055 1029.09,670.84C1027.64,676.624 1024.75,679.516 1027.64,684.337C1030.54,689.157 1036.32,690.603 1033.43,694.942C1030.54,699.28 1027.64,702.655 1028.61,705.547C1029.57,708.439 1003.06,713.742 1000.65,709.403C1000.65,709.403 1008.36,702.655 1000.65,698.798C992.936,694.942 995.346,680.48 995.346,680.48C995.346,680.48 981.849,625.045 982.331,620.707C982.813,616.368 961.121,548.882 961.121,548.882C961.121,548.882 929.306,645.291 927.378,649.629C925.449,653.968 929.788,664.573 927.378,667.465C924.967,670.357 928.342,677.588 924.967,680.48C921.593,683.373 930.752,693.978 924.967,697.834C919.183,701.691 916.291,713.742 916.773,716.152C917.255,718.562 892.67,715.67 892.67,712.296C892.67,708.921 893.152,706.029 890.742,700.244C888.332,694.46 886.886,690.603 888.814,688.675C890.742,686.747 892.188,684.337 890.26,677.588C888.332,670.84 893.152,650.112 891.706,646.255C890.26,642.399 890.742,616.368 890.742,616.368C890.742,616.368 895.563,578.286 894.116,572.02C892.67,565.753 894.116,564.307 894.598,561.897C895.08,559.487 897.973,533.456 899.901,529.6C901.829,525.743 904.239,459.703 915.326,456.329C926.414,452.954 1009.33,462.113 1009.33,462.113Z" style="fill:rgb(47,46,65);fill-rule:nonzero;"/>
        </g>
        <g transform="matrix(1,0,0,1,-105,-134.699)">
            <path d="M1013.18,720.49C1013.18,720.49 1030.54,717.598 1031.5,720.49C1032.46,723.383 1035.36,746.039 1028.61,746.521C1021.86,747.003 1010.29,748.449 1008.36,744.111C1006.43,739.772 997.274,736.88 997.274,736.88C997.274,736.88 983.777,733.024 983.777,728.685C983.777,724.347 984.259,717.598 986.669,717.116C989.08,716.634 998.721,711.331 998.721,709.403C998.721,707.475 1013.18,720.49 1013.18,720.49Z" style="fill:rgb(47,46,65);fill-rule:nonzero;"/>
        </g>
        <g transform="matrix(1,0,0,1,-105,-134.699)">
            <path d="M904.721,728.203C904.721,728.203 917.255,724.347 920.147,726.757C923.039,729.167 926.896,755.68 920.147,755.198C913.398,754.716 895.563,757.608 894.598,753.752C893.634,749.895 880.619,748.931 880.619,748.931C880.619,748.931 866.64,742.182 867.604,734.952C868.568,727.721 870.014,725.311 875.799,724.829C881.583,724.347 885.922,717.598 886.404,717.116C886.886,716.634 891.136,713.11 891.662,717.041C892.188,720.972 898.455,729.649 904.721,728.203Z" style="fill:rgb(47,46,65);fill-rule:nonzero;"/>
        </g>
        <circle cx="839.249" cy="96.995" r="29.405" style="fill:rgb(160,97,106);"/>
        <g transform="matrix(1,0,0,1,-105,-134.699)">
            <path d="M969.798,238.443C969.798,238.443 971.726,270.74 978.957,273.633C986.187,276.525 942.321,276.525 942.321,276.525C942.321,276.525 941.839,256.279 935.572,251.459C929.306,246.638 969.798,238.443 969.798,238.443Z" style="fill:rgb(160,97,106);fill-rule:nonzero;"/>
        </g>
        <g transform="matrix(1,0,0,1,-105,-134.699)">
            <path d="M981.367,266.402C981.367,266.402 951.48,255.315 940.875,272.669C940.875,272.669 907.132,288.576 904.721,298.217C902.311,307.858 924.967,380.165 924.967,380.165C924.967,380.165 924.967,439.939 920.147,446.206C915.327,452.472 906.168,459.221 912.434,460.667C918.701,462.113 1017.04,472.718 1016.56,466.452C1016.07,460.185 1009.81,454.882 1016.56,451.026C1023.31,447.17 1017.52,442.831 1021.86,430.298C1026.2,417.765 1036.8,314.125 1036.8,314.125C1036.8,314.125 1029.57,301.109 1028.13,299.663C1026.68,298.217 981.367,266.402 981.367,266.402Z" style="fill:rgb(87,90,137);fill-rule:nonzero;"/>
        </g>
        <g transform="matrix(1,0,0,1,-105,-134.699)">
            <path d="M895.081,477.539C895.081,477.539 876.281,519.959 892.67,525.743C909.06,531.528 908.096,480.913 908.096,480.913L895.081,477.539Z" style="fill:rgb(160,97,106);fill-rule:nonzero;"/>
        </g>
        <g transform="matrix(1,0,0,1,-105,-134.699)">
            <path d="M958.354,237.163C956.649,233.748 954.098,229.808 950.287,230.016C948.36,230.121 946.698,231.32 944.98,232.201C943.262,233.081 941.062,233.627 939.491,232.505C937.194,230.864 937.906,226.972 935.851,225.036C933.608,222.923 929.097,224.103 927.649,221.382C926.876,219.929 927.501,218.126 927.164,216.516C924.817,216.716 922.454,216.442 920.216,215.708C918.04,214.826 916.155,212.782 916.216,210.435C916.348,208.82 917.125,207.324 918.37,206.288C921.333,203.593 925.62,203.077 929.276,201.442C932.186,200.142 934.717,198.115 937.577,196.709C942.499,194.288 948.178,193.818 953.648,194.236C961.941,194.87 970.328,197.622 976.342,203.368C982.356,209.114 985.539,218.178 982.945,226.081C981.476,230.559 978.361,234.323 976.623,238.704C975.557,241.702 974.819,244.807 974.42,247.963L973.2,255.45C973.389,254.285 970.831,251.363 969.992,250.667C968.162,249.15 965.499,249.665 963.8,248.26C961.287,246.182 959.833,240.126 958.354,237.163Z" style="fill:rgb(47,46,65);fill-rule:nonzero;"/>
        </g>
        <g transform="matrix(1,0,0,1,-105,-134.699)">
            <path d="M915.809,294.843L908.096,299.663C908.096,299.663 895.563,375.345 897.009,385.95C898.455,396.555 891.224,456.329 893.634,461.149C896.045,465.97 897.009,466.934 897.009,469.826C897.009,472.718 890.26,483.323 894.598,485.251C898.937,487.18 914.844,490.554 914.844,485.251C914.844,479.949 911.952,472.718 917.255,469.344C922.557,465.97 926.414,444.277 926.414,444.277C926.414,444.277 928.824,422.103 931.234,417.765C933.644,413.426 937.019,397.519 937.019,390.77C937.019,384.022 942.803,356.545 939.429,342.565C936.055,328.586 935.09,290.986 915.809,294.843Z" style="fill-opacity:0.1;fill-rule:nonzero;"/>
        </g>
        <g transform="matrix(1,0,0,1,-105,-134.699)">
            <path d="M912.434,293.397L904.721,298.217C904.721,298.217 892.188,373.899 893.634,384.504C895.081,395.109 887.85,454.882 890.26,459.703C892.67,464.523 893.634,465.487 893.634,468.38C893.634,471.272 886.886,481.877 891.224,483.805C895.563,485.733 911.47,489.108 911.47,483.805C911.47,478.503 908.578,471.272 913.88,467.898C919.183,464.523 923.039,442.831 923.039,442.831C923.039,442.831 925.449,420.657 927.86,416.319C930.27,411.98 933.644,396.073 933.644,389.324C933.644,382.575 939.429,355.099 936.054,341.119C932.68,327.14 931.716,289.54 912.434,293.397Z" style="fill:rgb(87,90,137);fill-rule:nonzero;"/>
        </g>
    </g>
</svg>
