<?xml version="1.0" encoding="UTF-8" standalone="no"?>
<!DOCTYPE svg PUBLIC "-//W3C//DTD SVG 1.1//EN" "http://www.w3.org/Graphics/SVG/1.1/DTD/svg11.dtd">
<svg width="100%" height="100%" viewBox="0 0 113 194" version="1.1" xmlns="http://www.w3.org/2000/svg" xmlns:xlink="http://www.w3.org/1999/xlink" xml:space="preserve" xmlns:serif="http://www.serif.com/" style="fill-rule:evenodd;clip-rule:evenodd;stroke-linejoin:round;stroke-miterlimit:1.41421;">
    <g transform="matrix(0.447264,0,0,0.447264,-104.66,-21.9246)">
        <g transform="matrix(1,0,0,1,-386.608,-185.587)">
            <path d="M809.608,399.001L800.608,408.001L809.608,417.001L818.608,399.001L809.608,399.001Z" style="fill:rgb(160,97,106);fill-rule:nonzero;"/>
        </g>
        <g transform="matrix(1,0,0,1,-468.304,-256.587)">
            <path d="M893.33,391.96C895.856,392.994 897.057,395.819 898.009,398.377L909.684,429.749L911.957,435.855C913.071,438.849 914.186,441.846 915.129,444.899C915.725,446.83 916.251,448.781 916.707,450.752C917.181,452.438 917.363,454.193 917.246,455.941C916.93,457.864 916.228,459.703 915.182,461.347C911.121,468.421 905.335,474.354 898.367,478.594C897.551,473.328 894.108,468.825 889.24,466.658L895.277,463.338C896.555,462.738 897.703,461.897 898.66,460.86C899.841,459.226 900.308,457.181 899.952,455.197C899.59,453.237 898.988,451.328 898.16,449.515C896.135,444.46 894.377,439.301 892.895,434.061C892.018,430.961 891.212,427.776 889.475,425.063C887.898,422.603 885.615,420.635 884.183,418.088C882,414.206 882.056,409.426 883.02,405.078C883.834,401.407 885.198,397.874 886.347,394.3C887.249,391.492 890.626,390.853 893.33,391.96Z" style="fill:rgb(208,205,225);fill-rule:nonzero;"/>
        </g>
        <g transform="matrix(1,0,0,1,-468.304,-256.587)">
            <path d="M837.668,308.144C833.026,309.711 828.82,313.378 827.869,318.185C827.429,320.413 827.699,322.729 827.328,324.97C826.468,330.167 822.389,334.136 818.626,337.823C814.863,341.509 810.978,345.793 810.703,351.053C810.402,356.814 814.58,362.21 813.857,367.933C813.017,374.582 805.995,378.89 804.259,385.362C803.1,389.685 804.52,394.34 806.857,398.156C811.311,405.429 818.923,410.366 827.029,413.012C835.135,415.659 843.768,416.216 852.295,416.305C862.677,416.414 873.95,415.522 881.751,408.67C886.205,404.722 889.005,399.232 889.585,393.308C890.326,385.37 887.013,377.169 889.298,369.532C890.736,364.725 894.343,360.335 893.805,355.347C893.278,350.47 889.019,347.013 886.096,343.073C883.368,339.395 881.712,335.05 880.09,330.767L874.538,316.113C873.447,313.232 872.248,310.202 869.816,308.311C865.263,304.771 857.941,305.467 852.617,306.197C847.677,306.874 842.418,306.54 837.668,308.144Z" style="fill:rgb(47,46,65);fill-rule:nonzero;"/>
        </g>
        <g transform="matrix(1,0,0,1,-468.304,-256.587)">
            <path d="M841.963,356.439C841.963,356.439 842.506,372.741 840.876,374.372C839.246,376.002 847.397,386.87 847.397,386.87L862.069,386.327L869.677,380.349L863.156,371.655C863.156,371.655 860.439,357.526 862.612,354.265C864.786,351.005 841.963,356.439 841.963,356.439Z" style="fill:rgb(160,97,106);fill-rule:nonzero;"/>
        </g>
        <g transform="matrix(1,0,0,1,-468.304,-256.587)">
            <path d="M841.963,356.439C841.963,356.439 842.506,372.741 840.876,374.372C839.246,376.002 847.397,386.87 847.397,386.87L862.069,386.327L869.677,380.349L863.156,371.655C863.156,371.655 860.439,357.526 862.612,354.265C864.786,351.005 841.963,356.439 841.963,356.439Z" style="fill-opacity:0.1;fill-rule:nonzero;"/>
        </g>
        <g transform="matrix(1,0,0,1,-386.608,-185.587)">
            <path d="M726.303,411.24L735.541,431.89L742.606,423.195L728.477,404.719L726.303,411.24Z" style="fill:rgb(160,97,106);fill-rule:nonzero;"/>
        </g>
        <g transform="matrix(1,0,0,1,-386.608,-185.587)">
            <path d="M701.578,618.009L697.774,639.203L691.253,648.441L695.057,650.614L701.578,649.527L709.186,646.81L712.446,634.312L718.424,618.009L701.578,618.009Z" style="fill:rgb(160,97,106);fill-rule:nonzero;"/>
        </g>
        <g transform="matrix(1,0,0,1,-386.608,-185.587)">
            <path d="M771.135,604.967L768.961,635.399L774.395,639.746L783.09,632.138L783.09,609.858L771.135,604.967Z" style="fill:rgb(160,97,106);fill-rule:nonzero;"/>
        </g>
        <g transform="matrix(1,0,0,1,-386.608,-185.587)">
            <circle cx="769.233" cy="272.126" r="19.563" style="fill:rgb(160,97,106);"/>
        </g>
        <g transform="matrix(1,0,0,1,-468.304,-256.587)">
            <path d="M866.025,369.438C864.839,368.867 863.462,368.841 862.255,369.365C861.069,369.891 859.916,370.491 858.806,371.163C855.951,372.648 852.713,373.237 849.519,372.852C849.143,372.824 848.776,372.729 848.433,372.573C848.07,372.347 847.736,372.077 847.438,371.77C845.045,369.825 841.492,370.132 839.467,372.457C838.893,373.173 838.499,374.028 837.872,374.698C836.248,376.435 833.568,376.505 831.191,376.501C826.262,376.363 821.334,376.815 816.512,377.846C811.668,378.891 807.206,381.256 803.622,384.677C802.643,385.597 801.864,386.708 801.332,387.941C800.676,389.632 800.762,391.531 800.173,393.246C799.517,395.156 798.063,396.724 797.474,398.656C797.031,400.111 797.093,401.731 796.351,403.059C799.527,405.807 802.218,409.473 805.393,412.222C807.496,414.042 809.697,416.01 810.488,418.677C810.843,420.321 811.001,422.001 810.958,423.682C811.351,431.72 815.71,439.012 820.585,445.415C821.922,447.314 823.522,449.014 825.336,450.463C827.8,452.141 830.599,453.264 833.538,453.756C839.09,454.892 844.804,454.886 850.47,454.83C856.326,454.772 862.285,454.647 867.851,452.828C870.684,452.037 873.233,450.454 875.198,448.266C877.488,445.454 878.381,441.386 881.505,439.544C882.261,439.197 882.977,438.769 883.641,438.268C884.277,437.578 884.727,436.737 884.95,435.825C886.042,432.412 886.645,428.861 886.738,425.278C886.658,423.129 886.804,420.976 887.173,418.857C887.713,416.989 888.5,415.202 889.514,413.543L895.987,401.803C896.513,400.849 896.376,399.445 896.424,398.357C896.376,396.787 895.894,395.261 895.032,393.949C890.834,386.53 884.236,380.755 876.327,377.576C875.704,377.364 875.11,377.073 874.56,376.71C873.913,376.166 873.366,375.513 872.943,374.781C871.225,372.192 869.127,369.276 866.025,369.438Z" style="fill:rgb(208,205,225);fill-rule:nonzero;"/>
        </g>
        <g transform="matrix(1,0,0,1,-468.304,-256.587)">
            <path d="M785.349,433.374C784.073,436.477 783.135,439.71 782.553,443.015C781.929,447.58 782.665,452.23 784.67,456.379C788.159,463.56 795.026,468.43 799.873,474.773C804.377,480.666 807.059,487.73 810.959,494.039C810.279,492.433 811.105,490.574 812.218,489.231C813.331,487.888 814.754,486.774 815.57,485.233C816.125,484.039 816.474,482.76 816.602,481.45C817.185,477.538 817.499,473.287 815.504,469.871C814.003,467.3 811.41,465.592 809.356,463.437C805.195,458.991 803.39,452.82 804.5,446.833C804.895,444.799 805.622,442.847 806.167,440.848C806.84,438.161 807.351,435.436 807.694,432.688L810.141,415.88C810.792,411.41 811.343,406.463 808.811,402.721C808.317,401.938 807.634,401.292 806.825,400.842C806.155,400.536 805.442,400.335 804.711,400.247C802.048,399.811 798.44,398.645 797.14,401.499C795.571,404.943 794.478,408.698 793.164,412.249L785.349,433.374Z" style="fill:rgb(208,205,225);fill-rule:nonzero;"/>
        </g>
        <g transform="matrix(1,0,0,1,-468.304,-256.587)">
            <path d="M878.614,442.57C878.614,442.57 846.31,448.819 838.702,448.819L825.117,448.819C825.117,448.819 820.226,457.514 820.226,466.209C820.226,474.903 788.165,596.628 788.165,596.628C788.165,596.628 757.733,696.617 791.425,697.16C825.117,697.703 846.31,699.334 846.853,687.922C847.397,676.51 850.657,529.245 850.657,529.245L855.73,604.968C857.093,623.714 855.637,642.559 851.411,660.874C848.978,671.141 849.355,682.397 861.526,684.661C884.892,689.009 914.237,685.205 914.237,677.054C914.237,668.902 899.021,487.945 899.021,487.945C899.021,487.945 891.413,461.318 887.066,459.144C882.719,456.971 878.614,442.57 878.614,442.57Z" style="fill:rgb(47,46,65);fill-rule:nonzero;"/>
        </g>
        <g transform="matrix(1,0,0,1,-468.304,-256.587)">
            <path d="M777.296,718.353L789.251,714.006L797.403,693.356L806.097,692.269C806.097,692.269 801.207,702.594 798.489,704.224C795.772,705.855 791.425,719.44 791.425,719.44C791.425,719.44 793.599,724.874 783.274,727.048C772.949,729.221 765.341,730.852 765.341,730.852C765.341,730.852 764.254,728.678 769.145,723.244C774.036,717.81 779.747,708.661 779.747,708.661L777.296,718.353Z" style="fill:rgb(47,46,65);fill-rule:nonzero;"/>
        </g>
        <g transform="matrix(1,0,0,1,-468.304,-256.587)">
            <path d="M851.589,693.356L848.484,709.658C848.484,709.658 854.461,718.353 856.091,718.353C857.722,718.353 866.416,710.745 866.416,710.745C866.416,710.745 866.408,702.661 866.416,700.42C866.425,697.97 864.786,687.378 864.786,687.378L864.786,699.49L857.722,706.941L850.91,702.857L851.589,693.356Z" style="fill:rgb(47,46,65);fill-rule:nonzero;"/>
        </g>
        <g transform="matrix(1,0,0,1,-386.608,-185.587)">
            <ellipse cx="770.863" cy="260.714" rx="21.193" ry="11.412" style="fill:rgb(47,46,65);"/>
        </g>
    </g>
</svg>
