<?xml version="1.0" encoding="UTF-8" standalone="no"?>
<!DOCTYPE svg PUBLIC "-//W3C//DTD SVG 1.1//EN" "http://www.w3.org/Graphics/SVG/1.1/DTD/svg11.dtd">
<svg width="100%" height="100%" viewBox="0 0 325 597" version="1.1" xmlns="http://www.w3.org/2000/svg" xmlns:xlink="http://www.w3.org/1999/xlink" xml:space="preserve" xmlns:serif="http://www.serif.com/" style="fill-rule:evenodd;clip-rule:evenodd;stroke-linejoin:round;stroke-miterlimit:1.41421;">
    <g transform="matrix(1,0,0,1,-36.0443,0)">
        <g transform="matrix(1,0,0,1,-307.011,-179)">
            <path d="M396.417,727.553C396.581,729.801 396.859,732.039 397.249,734.259C397.64,736.479 415.493,746.664 416.952,732.8C417.901,723.765 415.755,719.686 414.135,717.942L414.11,717.914C413.137,716.885 412.588,715.526 412.574,714.109L412.574,697.772L396.52,702.881L397.249,716.745C396.169,719.628 396.155,723.933 396.417,727.553Z" style="fill:rgb(255,185,185);fill-rule:nonzero;"/>
        </g>
        <g transform="matrix(1,0,0,1,-307.011,-179)">
            <path d="M396.417,727.553C396.581,729.801 396.859,732.039 397.249,734.259C397.64,736.479 415.493,746.664 416.952,732.8C417.901,723.765 415.755,719.686 414.135,717.942C412.846,716.968 411.117,716.788 409.655,717.475C406.736,716.176 403.525,718.344 400.869,721.146C399.069,723.043 397.568,725.204 396.417,727.553Z" style="fill-opacity:0.05;fill-rule:nonzero;"/>
        </g>
        <g transform="matrix(1,0,0,1,-307.011,-179)">
            <path d="M409.655,718.935C409.655,718.935 417.682,714.556 419.141,734.259C420.601,753.962 421.33,751.773 421.33,751.773C421.33,751.773 428.628,769.286 413.303,767.097C397.979,764.908 390.682,763.448 391.411,754.691C391.851,749.413 393.086,741.75 393.998,736.493C394.867,731.288 397.257,726.453 400.866,722.602C403.529,719.799 406.736,717.637 409.655,718.935Z" style="fill:rgb(47,46,65);fill-rule:nonzero;"/>
        </g>
        <g transform="matrix(1,0,0,1,-307.011,-179)">
            <path d="M495.384,743.982L503.75,748.017C503.75,748.017 529.885,752.029 521.596,737.146C519.197,732.699 517.365,727.968 516.145,723.065C514.398,716.236 513.428,709.232 513.251,702.186L491.139,705.27C498.35,714.872 497.436,730.449 496.32,738.607C495.869,741.895 495.384,743.982 495.384,743.982Z" style="fill:rgb(255,185,185);fill-rule:nonzero;"/>
        </g>
        <g transform="matrix(1,0,0,1,-307.011,-179)">
            <path d="M495.384,743.982L503.75,748.017C503.75,748.017 529.885,752.029 521.596,737.146C519.197,732.699 517.365,727.968 516.145,723.065C511.067,724.042 507.204,731.351 507.204,731.351C503.11,745.566 499.427,742.013 496.32,738.607C495.869,741.895 495.384,743.982 495.384,743.982Z" style="fill-opacity:0.05;fill-rule:nonzero;"/>
        </g>
        <g transform="matrix(1,0,0,1,-307.011,-179)">
            <path d="M507.686,732.729C507.686,732.729 514.203,720.404 521.431,725.609C528.66,730.814 525.073,738.25 548.486,745.532C571.899,752.814 556.426,768.267 542.101,767.086C527.775,765.906 497.233,760.341 497.233,760.341C497.233,760.341 489.292,737.607 492.978,737.092C496.663,736.578 501.749,753.353 507.686,732.729Z" style="fill:rgb(47,46,65);fill-rule:nonzero;"/>
        </g>
        <g transform="matrix(1,0,0,1,-307.011,-179)">
            <path d="M541.139,764.331C550.439,765.097 560.219,758.853 559.532,752.385C563.976,759.689 552.726,767.962 542.101,767.086C527.775,765.906 497.233,760.341 497.233,760.341C497.233,760.341 496.859,759.271 496.312,757.593C497.202,757.755 527.027,763.168 541.139,764.331Z" style="fill:white;fill-opacity:0.3;fill-rule:nonzero;"/>
        </g>
        <g transform="matrix(1,0,0,1,-307.011,-179)">
            <path d="M391.449,754.272C392.291,760.836 399.572,762.216 413.303,764.178C420.287,765.176 422.566,762.08 422.985,758.416C423.442,763.109 422.109,768.355 413.303,767.097C397.979,764.908 390.682,763.448 391.411,754.691C391.423,754.555 391.437,754.411 391.449,754.272Z" style="fill:white;fill-opacity:0.3;fill-rule:nonzero;"/>
        </g>
        <g transform="matrix(1,0,0,1,-307.011,-179)">
            <path d="M358.071,469.44L355.648,505.776C355.648,505.776 353.71,542.595 368.729,545.502C383.748,548.409 368.729,498.509 368.729,498.509L368.729,465.565L358.071,469.44Z" style="fill:rgb(251,190,190);fill-rule:nonzero;"/>
        </g>
        <g transform="matrix(1,0,0,1,-307.011,-179)">
            <path d="M370.667,337.18L368.729,341.54C368.729,341.54 369.214,372.062 368.729,374.484C368.245,376.906 361.946,395.801 361.946,397.739C361.946,399.676 357.102,455.875 356.133,459.266C355.164,462.658 350.804,473.316 354.679,474.769C358.555,476.223 365.822,470.409 368.729,474.769C371.636,479.13 374.058,474.769 374.058,473.316C374.058,471.863 375.027,444.248 380.841,436.496C386.655,428.745 391.984,411.304 392.953,407.912C393.922,404.521 395.375,355.59 395.859,354.621C396.344,353.652 393.922,340.571 393.922,340.571L370.667,337.18Z" style="fill:rgb(63,61,86);fill-rule:nonzero;"/>
        </g>
        <g transform="matrix(1,0,0,1,-307.011,-179)">
            <path d="M398.282,388.534C398.282,388.534 392.468,411.304 388.592,415.664C384.717,420.024 365.338,452.484 371.151,495.602C376.965,538.72 387.139,594.918 387.139,594.918C387.139,594.918 388.592,614.782 386.655,620.111C384.717,625.44 395.375,710.222 395.375,710.222C395.375,710.222 410.394,721.85 418.63,707.315C418.63,707.315 416.692,675.825 418.63,672.918C420.568,670.011 418.63,617.688 418.63,617.688C418.63,617.688 420.083,487.366 427.835,492.695C435.586,498.024 459.325,588.62 459.325,588.62C459.325,588.62 469.499,623.502 469.015,626.409C468.53,629.316 477.735,665.651 477.735,665.651C477.735,665.651 486.455,716.036 489.847,717.005C493.238,717.974 514.07,718.458 516.008,713.129L510.195,667.589C510.195,667.589 504.381,615.751 501.474,608.483C498.567,601.216 493.723,498.024 479.673,467.502C479.673,467.502 474.344,418.571 470.468,411.304C470.468,411.304 468.194,401.32 471,392C471,392 403.611,392.409 398.282,388.534Z" style="fill:rgb(47,46,65);fill-rule:nonzero;"/>
        </g>
        <g transform="matrix(1,0,0,1,-166.297,-71)">
            <ellipse cx="286.394" cy="138.099" rx="40.696" ry="51.596" style="fill:rgb(47,46,65);"/>
        </g>
        <g transform="matrix(1,0,0,1,-307.011,-179)">
            <path d="M510.679,306.658L504.381,320.223L429.772,342.024C429.772,342.024 377.934,357.043 372.605,332.819C367.276,308.596 392.953,306.174 392.953,306.174C392.953,306.174 402.642,299.391 414.754,292.608C418.804,290.336 420.146,286.659 420.136,282.769C420.126,281.612 420.018,280.458 419.812,279.319C419.578,278.004 419.254,276.705 418.843,275.434C417.817,272.296 416.446,269.282 414.754,266.447C413.062,263.612 446.729,253.851 446.244,260.633C446.04,263.076 446.303,265.536 447.02,267.881C447.681,269.934 448.573,271.906 449.679,273.758C450.222,274.693 450.827,275.662 451.501,276.689C452.373,278.021 453.366,279.44 454.48,280.981C460.779,289.702 481.611,289.702 481.611,289.702C498.083,287.764 510.679,306.658 510.679,306.658Z" style="fill:rgb(251,190,190);fill-rule:nonzero;"/>
        </g>
        <g transform="matrix(1,0,0,1,-307.011,-179)">
            <path d="M587.71,384.173C587.71,384.173 622.592,409.85 629.374,409.366C636.157,408.881 675.884,406.459 666.679,415.664C657.474,424.869 615.809,419.055 615.809,419.055L577.536,394.832L587.71,384.173Z" style="fill:rgb(251,190,190);fill-rule:nonzero;"/>
        </g>
        <g transform="matrix(1,0,0,1,-307.011,-179)">
            <path d="M447.02,267.881C439.841,275.543 428.891,278.478 418.843,275.434C417.817,272.296 416.446,269.282 414.754,266.447C413.062,263.612 446.729,253.851 446.244,260.633C446.04,263.076 446.303,265.536 447.02,267.881Z" style="fill-opacity:0.1;fill-rule:nonzero;"/>
        </g>
        <g transform="matrix(1,0,0,1,-166.297,-71)">
            <circle cx="286.152" cy="137.615" r="27.615" style="fill:rgb(251,190,190);"/>
        </g>
        <g transform="matrix(1,0,0,1,-307.011,-179)">
            <path d="M392.468,326.037C392.468,326.037 512.617,298.907 513.101,302.782C513.586,306.658 518.431,314.41 518.431,314.41L490.331,346.385C490.331,346.385 493.723,361.888 486.94,365.279C480.157,368.67 479.188,394.347 472.89,394.832C466.592,395.316 392.953,394.347 392.468,390.472C391.984,386.596 394.406,384.173 392.468,383.204C390.53,382.236 387.623,382.236 390.046,377.391C392.468,372.546 392.468,352.198 392.468,352.198L369.698,341.54C369.698,341.54 366.575,332.512 372.255,330.97C377.934,329.428 392.468,326.037 392.468,326.037Z" style="fill:rgb(63,61,86);fill-rule:nonzero;"/>
        </g>
        <g transform="matrix(1,0,0,1,-307.011,-179)">
            <path d="M514.07,313.441L518.431,313.441C518.431,313.441 531.511,322.161 534.903,329.913C538.294,337.664 550.406,347.838 553.312,350.745C556.219,353.652 595.946,381.267 595.461,385.142C594.977,389.018 583.834,392.894 583.35,397.254C582.865,401.614 588.194,403.552 584.803,403.552C581.412,403.552 560.58,391.44 552.828,387.08C545.077,382.72 529.089,370.124 527.151,366.732C525.213,363.341 512.132,357.527 510.679,355.105C509.226,352.683 486.455,341.54 486.455,341.54L514.07,313.441Z" style="fill:rgb(63,61,86);fill-rule:nonzero;"/>
        </g>
        <g transform="matrix(1,0,0,1,-166.297,-71)">
            <circle cx="245.699" cy="106.851" r="15.503" style="fill:rgb(47,46,65);"/>
        </g>
        <g transform="matrix(1,0,0,1,-166.297,-71)">
            <circle cx="314.009" cy="86.503" r="15.503" style="fill:rgb(47,46,65);"/>
        </g>
        <g transform="matrix(1,0,0,1,-166.297,-71)">
            <ellipse cx="290.028" cy="119.689" rx="28.826" ry="17.683" style="fill:rgb(47,46,65);"/>
        </g>
        <g transform="matrix(1,0,0,1,-307.011,-179)">
            <path d="M449.679,273.758C436.395,278.985 425.897,279.605 419.812,279.319C420.018,280.458 420.126,281.612 420.136,282.769C420.844,282.798 421.604,282.812 422.413,282.812C429.133,282.812 439.171,281.645 451.501,276.689L449.679,273.758Z" style="fill:rgb(47,46,65);fill-rule:nonzero;"/>
        </g>
    </g>
</svg>
