<?xml version="1.0" encoding="UTF-8" standalone="no"?>
<!DOCTYPE svg PUBLIC "-//W3C//DTD SVG 1.1//EN" "http://www.w3.org/Graphics/SVG/1.1/DTD/svg11.dtd">
<svg width="100%" height="100%" viewBox="0 0 2000 800" version="1.1" xmlns="http://www.w3.org/2000/svg" xmlns:xlink="http://www.w3.org/1999/xlink" xml:space="preserve" xmlns:serif="http://www.serif.com/" style="fill-rule:evenodd;clip-rule:evenodd;stroke-miterlimit:10;">
    <g transform="matrix(0.506077,0,0,0.506077,309.74,527.265)">
        <circle cx="495.603" cy="173.285" r="61.186" style="fill:rgb(119,221,119);"/>
        <circle cx="391.603" cy="317.285" r="61.186" style="fill:rgb(119,221,119);"/>
        <circle cx="274.603" cy="432.285" r="61.186" style="fill:rgb(119,221,119);"/>
        <path d="M274.549,542.937L274.549,431.949" style="fill:rgb(63,61,86);fill-rule:nonzero;stroke:rgb(63,61,86);stroke-width:2px;"/>
        <circle cx="274.549" cy="431.949" r="15.695" style="fill:rgb(63,61,86);"/>
        <g transform="matrix(1,0,0,1,-224.5,-124.5)">
            <path d="M499.049,624.853C499.049,624.853 496.806,576.628 450.841,582.234" style="fill:rgb(63,61,86);fill-rule:nonzero;"/>
        </g>
        <path d="M495.641,543.716L495.641,173.51" style="fill:rgb(63,61,86);fill-rule:nonzero;stroke:rgb(63,61,86);stroke-width:2px;"/>
        <circle cx="495.641" cy="173.335" r="15.695" style="fill:rgb(63,61,86);"/>
        <circle cx="447.434" cy="441.18" r="15.695" style="fill:rgb(63,61,86);"/>
        <g transform="matrix(1,0,0,1,-224.5,-124.5)">
            <path d="M720.141,378.007C720.141,378.007 717.899,329.782 671.934,335.388" style="fill:rgb(63,61,86);fill-rule:nonzero;"/>
        </g>
        <g transform="matrix(1,0,0,1,-224.5,-124.5)">
            <path d="M720.141,514.719C720.141,514.719 717.899,466.494 671.934,472.1" style="fill:rgb(63,61,86);fill-rule:nonzero;"/>
        </g>
        <g transform="matrix(1,0,0,1,-224.5,-124.5)">
            <path d="M720.141,663.902C720.141,663.902 730.231,570.165 671.934,565.68" style="fill:none;stroke:rgb(63,61,86);stroke-width:2px;"/>
        </g>
        <circle cx="543.855" cy="441.18" r="15.695" style="fill:rgb(63,61,86);"/>
        <g transform="matrix(1,0,0,1,-224.5,-124.5)">
            <path d="M720.148,663.902C720.148,663.902 710.058,570.165 768.355,565.68" style="fill:none;stroke:rgb(63,61,86);stroke-width:2px;"/>
        </g>
        <circle cx="544.811" cy="293.952" r="15.695" style="fill:rgb(63,61,86);"/>
        <g transform="matrix(1,0,0,1,-224.5,-124.5)">
            <path d="M721.104,511.673C721.104,511.673 711.014,422.937 769.311,418.452" style="fill:none;stroke:rgb(63,61,86);stroke-width:2px;"/>
        </g>
        <path d="M391.659,543.194L391.659,317.217" style="fill:rgb(63,61,86);fill-rule:nonzero;stroke:rgb(63,61,86);stroke-width:2px;"/>
        <circle cx="391.659" cy="317.217" r="15.695" style="fill:rgb(63,61,86);"/>
        <g transform="matrix(1,0,0,1,-224.5,-124.5)">
            <path d="M616.159,505.637C616.159,505.637 613.917,457.412 567.952,463.018" style="fill:rgb(63,61,86);fill-rule:nonzero;"/>
        </g>
        <g transform="matrix(1,0,0,1,-224.5,-124.5)">
            <path d="M616.159,663.38C616.159,663.38 626.249,570.643 567.952,566.158" style="fill:none;stroke:rgb(63,61,86);stroke-width:2px;"/>
        </g>
        <circle cx="343.452" cy="441.658" r="15.695" style="fill:rgb(63,61,86);"/>
        <path d="M218.507,542.976L542.507,542.976" style="fill:none;stroke:rgb(63,61,86);stroke-width:2px;"/>
        <circle cx="661" cy="351" r="32" style="fill:rgb(242,242,242);"/>
        <circle cx="157" cy="151" r="32" style="fill:rgb(242,242,242);"/>
        <circle cx="480" cy="32" r="32" style="fill:rgb(242,242,242);"/>
    </g>
    <g transform="matrix(0.613542,0,0,0.613542,995.258,183.753)">
        <path d="M854,522.26C849.618,519.118 843.528,519.684 839.8,523.58C835.75,527.99 835.947,534.917 840.24,539.09L853.82,552.59C854.244,553.018 854.822,553.259 855.425,553.259C856.028,553.259 856.606,553.018 857.03,552.59L870.57,539C874.84,534.805 875.001,527.878 870.93,523.49C867.17,519.624 861.082,519.094 856.71,522.25C855.909,522.846 854.805,522.85 854,522.26Z" style="fill:rgb(119,221,119);fill-rule:nonzero;"/>
    </g>
    <g transform="matrix(0.613542,0,0,0.613542,1182.08,489.686)">
        <path d="M262,214.26C257.618,211.118 251.528,211.684 247.8,215.58C243.75,219.99 243.947,226.917 248.24,231.09L261.82,244.59C262.244,245.018 262.822,245.259 263.425,245.259C264.028,245.259 264.606,245.018 265.03,244.59L278.57,231C282.84,226.805 283.001,219.878 278.93,215.49C275.17,211.624 269.082,211.094 264.71,214.25C263.909,214.846 262.805,214.85 262,214.26Z" style="fill:rgb(119,221,119);fill-rule:nonzero;"/>
    </g>
    <g transform="matrix(0.613542,0,0,0.613542,626.997,412.126)">
        <path d="M136,489.26C131.618,486.118 125.528,486.684 121.8,490.58C117.75,494.99 117.947,501.917 122.24,506.09L135.82,519.59C136.244,520.018 136.822,520.259 137.425,520.259C138.028,520.259 138.606,520.018 139.03,519.59L152.57,506C156.84,501.805 157.001,494.878 152.93,490.49C149.17,486.624 143.082,486.094 138.71,489.25C137.909,489.846 136.805,489.85 136,489.26Z" style="fill:rgb(119,221,119);fill-rule:nonzero;"/>
    </g>
    <g transform="matrix(0.613542,0,0,0.613542,978.611,653.652)">
        <rect x="651" y="73.92" width="3" height="17" style="fill:rgb(58,210,159);"/>
        <g transform="matrix(-3.82857e-16,1,-1,-3.82857e-16,799.08,-688.98)">
            <rect x="769.9" y="138.08" width="3" height="17" style="fill:rgb(58,210,159);"/>
        </g>
    </g>
    <g transform="matrix(0.613542,0,0,0.613542,998.743,389.976)">
        <rect x="783" y="304.92" width="3" height="17" style="fill:rgb(58,210,159);"/>
        <g transform="matrix(-3.82857e-16,1,-1,-3.82857e-16,1162.08,-589.98)">
            <rect x="901.9" y="369.08" width="3" height="17" style="fill:rgb(58,210,159);"/>
        </g>
    </g>
    <g transform="matrix(0.613542,0,0,0.613542,699.947,451.491)">
        <rect x="193" y="515.92" width="3" height="17" style="fill:rgb(58,210,159);"/>
        <g transform="matrix(-3.82857e-16,1,-1,-3.82857e-16,783.08,211.02)">
            <rect x="311.9" y="580.08" width="3" height="17" style="fill:rgb(58,210,159);"/>
        </g>
    </g>
    <g transform="matrix(0.613542,0,0,0.613542,-68.4344,275.982)">
        <rect x="193" y="515.92" width="3" height="17" style="fill:rgb(58,210,159);"/>
        <g transform="matrix(-3.82857e-16,1,-1,-3.82857e-16,783.08,211.02)">
            <rect x="311.9" y="580.08" width="3" height="17" style="fill:rgb(58,210,159);"/>
        </g>
    </g>
    <g transform="matrix(0.613542,0,0,0.613542,1344.84,358.357)">
        <path d="M312,351C310.295,350.261 309.407,348.337 309.95,346.56C309.992,346.427 310.019,346.289 310.03,346.15C310.033,346.111 310.034,346.071 310.034,346.032C310.034,345.022 309.203,344.192 308.194,344.192C307.614,344.192 307.067,344.466 306.72,344.93C306.64,345.042 306.573,345.163 306.52,345.29C305.777,346.992 303.857,347.878 302.08,347.34C301.947,347.299 301.809,347.272 301.67,347.26C301.631,347.257 301.591,347.256 301.552,347.256C300.542,347.256 299.712,348.087 299.712,349.096C299.712,349.676 299.986,350.223 300.45,350.57C300.561,350.652 300.682,350.719 300.81,350.77C302.513,351.517 303.399,353.44 302.86,355.22C302.813,355.349 302.786,355.483 302.78,355.62C302.777,355.659 302.776,355.699 302.776,355.738C302.776,356.748 303.607,357.578 304.616,357.578C305.196,357.578 305.743,357.304 306.09,356.84C306.168,356.727 306.235,356.606 306.29,356.48C307.047,354.794 308.966,353.93 310.73,354.48C310.863,354.522 311.001,354.549 311.14,354.56C311.173,354.562 311.207,354.563 311.24,354.563C312.255,354.563 313.09,353.728 313.09,352.713C313.09,352.135 312.82,351.59 312.36,351.24C312.249,351.148 312.128,351.067 312,351Z" style="fill:rgb(245,95,68);fill-rule:nonzero;"/>
    </g>
    <g transform="matrix(0.613542,0,0,0.613542,1053.8,553.75)">
        <path d="M527,87C525.314,86.243 524.45,84.324 525,82.56C525.042,82.427 525.069,82.289 525.08,82.15C525.083,82.111 525.084,82.071 525.084,82.032C525.084,81.022 524.253,80.192 523.244,80.192C522.664,80.192 522.117,80.466 521.77,80.93C521.69,81.042 521.623,81.163 521.57,81.29C520.809,82.973 518.894,83.835 517.13,83.29C516.997,83.249 516.859,83.222 516.72,83.21C516.681,83.207 516.641,83.206 516.602,83.206C515.592,83.206 514.762,84.037 514.762,85.046C514.762,85.626 515.036,86.173 515.5,86.52C515.611,86.602 515.732,86.669 515.86,86.72C517.563,87.467 518.449,89.39 517.91,91.17C517.863,91.299 517.836,91.433 517.83,91.57C517.827,91.609 517.826,91.649 517.826,91.688C517.826,92.698 518.657,93.528 519.666,93.528C520.246,93.528 520.793,93.254 521.14,92.79C521.218,92.677 521.285,92.556 521.34,92.43C522.097,90.744 524.016,89.88 525.78,90.43C525.913,90.472 526.051,90.499 526.19,90.51C526.223,90.512 526.257,90.513 526.29,90.513C527.305,90.513 528.14,89.678 528.14,88.663C528.14,88.085 527.87,87.54 527.41,87.19C527.281,87.112 527.143,87.048 527,87Z" style="fill:rgb(245,95,68);fill-rule:nonzero;"/>
    </g>
    <g transform="matrix(0.613542,0,0,0.613542,197.123,506.802)">
        <path d="M784,333C782.314,332.243 781.45,330.324 782,328.56C782.042,328.427 782.069,328.289 782.08,328.15C782.083,328.111 782.084,328.071 782.084,328.032C782.084,327.022 781.253,326.192 780.244,326.192C779.664,326.192 779.117,326.466 778.77,326.93C778.69,327.042 778.623,327.163 778.57,327.29C777.827,328.992 775.907,329.878 774.13,329.34C773.997,329.299 773.859,329.272 773.72,329.26C773.681,329.257 773.641,329.256 773.602,329.256C772.592,329.256 771.762,330.087 771.762,331.096C771.762,331.676 772.036,332.223 772.5,332.57C772.611,332.652 772.732,332.719 772.86,332.77C774.563,333.517 775.449,335.44 774.91,337.22C774.863,337.349 774.836,337.483 774.83,337.62C774.827,337.659 774.826,337.699 774.826,337.738C774.826,338.748 775.657,339.578 776.666,339.578C777.246,339.578 777.793,339.304 778.14,338.84C778.218,338.727 778.285,338.606 778.34,338.48C779.097,336.794 781.016,335.93 782.78,336.48C782.913,336.522 783.051,336.549 783.19,336.56C783.223,336.562 783.257,336.563 783.29,336.563C784.305,336.563 785.14,335.728 785.14,334.713C785.14,334.135 784.87,333.59 784.41,333.24C784.283,333.145 784.145,333.064 784,333Z" style="fill:rgb(245,95,68);fill-rule:nonzero;"/>
    </g>
    <g transform="matrix(0.613542,0,0,0.613542,-400.704,302.782)">
        <path d="M784,333C782.314,332.243 781.45,330.324 782,328.56C782.042,328.427 782.069,328.289 782.08,328.15C782.083,328.111 782.084,328.071 782.084,328.032C782.084,327.022 781.253,326.192 780.244,326.192C779.664,326.192 779.117,326.466 778.77,326.93C778.69,327.042 778.623,327.163 778.57,327.29C777.827,328.992 775.907,329.878 774.13,329.34C773.997,329.299 773.859,329.272 773.72,329.26C773.681,329.257 773.641,329.256 773.602,329.256C772.592,329.256 771.762,330.087 771.762,331.096C771.762,331.676 772.036,332.223 772.5,332.57C772.611,332.652 772.732,332.719 772.86,332.77C774.563,333.517 775.449,335.44 774.91,337.22C774.863,337.349 774.836,337.483 774.83,337.62C774.827,337.659 774.826,337.699 774.826,337.738C774.826,338.748 775.657,339.578 776.666,339.578C777.246,339.578 777.793,339.304 778.14,338.84C778.218,338.727 778.285,338.606 778.34,338.48C779.097,336.794 781.016,335.93 782.78,336.48C782.913,336.522 783.051,336.549 783.19,336.56C783.223,336.562 783.257,336.563 783.29,336.563C784.305,336.563 785.14,335.728 785.14,334.713C785.14,334.135 784.87,333.59 784.41,333.24C784.283,333.145 784.145,333.064 784,333Z" style="fill:rgb(245,95,68);fill-rule:nonzero;"/>
    </g>
    <g transform="matrix(1.25643,0,0,1.25643,-1419.86,-266.588)">
        <g transform="matrix(1,0,0,1,1556.82,108.958)">
            <path d="M1160.3,466.014C1160.3,589.624 1086.81,632.784 996.165,632.784C905.517,632.784 832.033,589.624 832.033,466.014C832.033,342.404 996.165,185.152 996.165,185.152C996.165,185.152 1160.3,342.404 1160.3,466.014Z" style="fill:rgb(119,221,119);fill-rule:nonzero;"/>
        </g>
        <g transform="matrix(1,0,0,1,1596.53,170)">
            <path d="M950.482,552.833L952.162,449.383L1022.12,321.4L952.426,433.154L953.182,386.639L1001.4,294.044L953.382,374.329L954.741,290.669L1006.37,216.952L954.954,277.514L955.804,124.11L950.467,327.188L950.906,318.811L898.414,238.464L950.064,334.893L945.173,428.327L945.027,425.847L884.514,341.294L944.844,434.608L944.232,446.293L944.123,446.469L944.173,447.428L931.764,684.478L948.343,684.478L950.332,562.037L1010.51,468.952L950.482,552.833Z" style="fill:rgb(63,61,86);fill-rule:nonzero;"/>
        </g>
    </g>
    <g transform="matrix(0.515856,0,0,0.515856,539.394,403.633)">
        <circle cx="145.2" cy="266.353" r="36.8" style="fill:rgb(47,46,65);"/>
        <path d="M105.5,727.5L98.5,757.5L115.5,757.5L122.5,723.5L105.5,727.5Z" style="fill:rgb(159,97,106);fill-rule:nonzero;"/>
        <path d="M187.5,727.5L187.5,755.5L204.5,757.5L204.5,727.5L187.5,727.5Z" style="fill:rgb(159,97,106);fill-rule:nonzero;"/>
        <g transform="matrix(1,0,0,1,-135,-56)">
            <path d="M235.5,465.5C235.5,465.5 237.5,508.5 239.5,511.5C241.5,514.5 259.5,557.5 259.5,557.5L268.5,529.5C268.5,529.5 254.5,506.5 256.5,493.5C258.5,480.5 257.24,464.503 257.24,464.503L235.5,465.5Z" style="fill:rgb(159,97,106);fill-rule:nonzero;"/>
        </g>
        <circle cx="157.5" cy="277.5" r="28" style="fill:rgb(159,97,106);"/>
        <g transform="matrix(1,0,0,1,-135,-56)">
            <path d="M269.5,336.5C269.5,336.5 270.5,376.5 263.5,382.5C256.5,388.5 303.5,383.5 303.5,383.5C303.5,383.5 293.5,355.5 301.5,349.5C309.5,343.5 269.5,336.5 269.5,336.5Z" style="fill:rgb(159,97,106);fill-rule:nonzero;"/>
        </g>
        <g transform="matrix(1,0,0,1,-135,-56)">
            <path d="M306.5,381.5C306.5,381.5 300.5,370.5 292.5,371.5C284.5,372.5 258.5,374.5 257.5,376.5C256.5,378.5 253.5,385.5 251.5,387.5C249.5,389.5 234.5,392.5 233.5,404.5C232.5,416.5 269.5,489.5 269.5,489.5C269.5,489.5 264.5,506.5 265.5,510.5C266.5,514.5 260.5,526.5 261.5,531.5C262.5,536.5 246.5,566.5 254.5,605.5L254.5,668.5C254.5,668.5 227.5,777.5 235.5,785.5C243.5,793.5 270.5,788.5 275.5,785.5C280.5,782.5 301.5,631.5 301.5,631.5L311.5,580.5L312.5,692.5C312.5,692.5 310.5,786.5 317.5,789.5C324.5,792.5 351.5,793.5 353.5,787.5C355.06,782.82 362.702,658.311 365.991,603.734C367.13,584.895 365.648,565.989 361.588,547.558C357.426,528.68 351.384,506.502 344.5,497.5C331.5,480.5 323.5,426.5 323.5,426.5L340.5,395.5C340.5,395.5 330.5,385.5 324.5,385.5C318.5,385.5 306.5,381.5 306.5,381.5Z" style="fill:rgb(47,46,65);fill-rule:nonzero;"/>
        </g>
        <g transform="matrix(1,0,0,1,-135,-56)">
            <path d="M239.5,397.5L234.226,401.089C234.226,401.089 230.5,465.5 233.5,469.5C236.5,473.5 257.357,471.548 258.929,468.024C260.5,464.5 239.5,397.5 239.5,397.5Z" style="fill:rgb(47,46,65);fill-rule:nonzero;"/>
        </g>
        <g transform="matrix(1,0,0,1,-135,-56)">
            <path d="M321.5,457.5C321.5,457.5 322.5,499.5 328.5,511.5C334.5,523.5 356.5,573.5 356.5,573.5C356.5,573.5 355.223,628.532 366.361,615.016C377.5,601.5 370.5,569.5 370.5,569.5L351.5,495.5C351.5,495.5 341.5,462.5 342.5,452.5C343.5,442.5 321.5,457.5 321.5,457.5Z" style="fill:rgb(159,97,106);fill-rule:nonzero;"/>
        </g>
        <g transform="matrix(1,0,0,1,-135,-56)">
            <path d="M339.5,795.299C339.5,795.299 340.5,794.5 343.5,797.5C346.5,800.5 354.5,804.5 353.5,815.5C352.5,826.5 346.5,828.5 346.5,828.5L343.5,828.63C343.5,828.63 325.952,831.859 317,826.5C317,826.5 315.976,816.63 316.976,811.63C317.976,806.63 316.5,794.5 319.5,795.5C322.5,796.5 330.5,797.5 332.5,801.5C334.5,805.5 340.5,804.098 339.5,795.299Z" style="fill:rgb(47,46,65);fill-rule:nonzero;"/>
        </g>
        <g transform="matrix(1,0,0,1,-135,-56)">
            <path d="M236.5,796.299C236.5,796.299 235.5,795.5 232.5,798.5C229.5,801.5 221.5,805.5 222.5,816.5C223.5,827.5 229.332,825.76 229.332,825.76L232.332,825.89C232.332,825.89 245.53,829.282 259.013,825.855C259.013,825.855 260.013,825.76 259.013,820.76C258.013,815.76 259.5,795.5 256.5,796.5C253.5,797.5 245.5,798.5 243.5,802.5C241.5,806.5 235.5,805.098 236.5,796.299Z" style="fill:rgb(47,46,65);fill-rule:nonzero;"/>
        </g>
        <g transform="matrix(1,0,0,1,-135,-56)">
            <path d="M326.5,392.5L340.5,395.5C340.5,395.5 340.5,417.5 344.5,426.5C348.5,435.5 355.5,456.5 352.5,457.5C349.5,458.5 321.5,472.5 319.5,464.5C317.5,456.5 312.5,392.5 326.5,392.5Z" style="fill:rgb(47,46,65);fill-rule:nonzero;"/>
        </g>
        <circle cx="105.334" cy="217.9" r="36.8" style="fill:rgb(47,46,65);"/>
        <g transform="matrix(1,0,0,1,-135,-56)">
            <path d="M208.592,304.372C214.864,308.906 222.41,311.347 230.15,311.347C246.382,311.347 260.787,300.607 265.421,285.049C263.117,303.367 247.368,317.26 228.906,317.26C208.717,317.26 192.104,300.647 192.104,280.458C192.104,276.903 192.62,273.366 193.634,269.958C191.957,283.283 197.705,296.508 208.592,304.372Z" style="fill:rgb(47,46,65);fill-rule:nonzero;"/>
        </g>
        <circle cx="135.387" cy="272.486" r="26.987" style="fill:rgb(47,46,65);"/>
        <ellipse cx="158.08" cy="262.366" rx="23.92" ry="18.707" style="fill:rgb(47,46,65);"/>
        <ellipse cx="164.46" cy="281.535" rx="4.54" ry="8.032" style="fill:rgb(160,97,106);"/>
    </g>
    <g transform="matrix(0.615592,0,0,0.615592,1009.27,327.673)">
        <g transform="matrix(1,0,0,1,-108,-65.54)">
            <path d="M868.63,530.62C868.63,530.62 827,510.25 835,525.75C843,541.25 868.63,543 868.63,543L868.63,530.62Z" style="fill:rgb(255,193,199);fill-rule:nonzero;"/>
        </g>
        <path d="M720.33,450.46L719,453.12L750.44,469.5L751.77,466.85L720.33,450.46Z" style="fill:rgb(25,37,52);fill-rule:nonzero;"/>
        <g transform="matrix(1,0,0,1,-108,-65.54)">
            <path d="M897.41,529.73C897.41,529.73 894.75,536.38 884.57,532.39C878.807,530.031 872.637,528.829 866.41,528.85C860.183,528.871 859.77,542.13 866.41,547C873.05,551.87 900.95,560.29 901.84,555.42C902.73,550.55 897.41,529.73 897.41,529.73Z" style="fill:rgb(119,221,119);fill-rule:nonzero;"/>
        </g>
        <g transform="matrix(1,0,0,1,-108,-65.54)">
            <path d="M897.41,529.73C897.41,529.73 894.75,536.38 884.57,532.39C878.807,530.031 872.637,528.829 866.41,528.85C860.183,528.871 859.77,542.13 866.41,547C873.05,551.87 900.95,560.29 901.84,555.42C902.73,550.55 897.41,529.73 897.41,529.73Z" style="fill-opacity:0.1;fill-rule:nonzero;"/>
        </g>
        <circle cx="810" cy="359.01" r="27.9" style="fill:rgb(255,101,132);"/>
        <g transform="matrix(1,0,0,1,-108,-65.54)">
            <path d="M897.19,476.81L897.19,471.94C897.19,471.94 903.83,463.53 911.36,469.29C918.89,475.05 907.36,494.97 907.36,494.97L899,490.1L897.19,476.81Z" style="fill:rgb(119,221,119);fill-rule:nonzero;"/>
        </g>
        <g transform="matrix(1,0,0,1,-108,-65.54)">
            <path d="M921.77,805.32L913.35,815.07C913.35,815.07 928.41,818.61 928.85,819.07C929.29,819.53 944.35,817.74 944.35,817.74L943,802.22L921.77,805.32Z" style="fill:rgb(255,193,199);fill-rule:nonzero;"/>
        </g>
        <g transform="matrix(1,0,0,1,-108,-65.54)">
            <path d="M953.65,796.32L957.65,813.15L974.92,809.15L983.78,795.42C983.78,795.42 977.58,790.99 975.78,786.56C973.98,782.13 953.65,796.32 953.65,796.32Z" style="fill:rgb(255,193,199);fill-rule:nonzero;"/>
        </g>
        <g transform="matrix(1,0,0,1,-108,-65.54)">
            <path d="M955.87,665.39L954.1,694.17C951.918,698.881 951.447,704.209 952.77,709.23C954.98,717.64 954.1,753.07 954.1,753.07C954.1,753.07 951,801.78 950.1,804.88C949.2,807.98 946.1,809.31 948.33,811.97C948.33,811.97 918.66,818.61 919.1,807.54C919.1,807.54 923.1,800.01 923.1,792.93C923.1,785.85 924.43,746.87 924.43,746.87L935.05,647.23L955.87,665.39Z" style="fill:rgb(63,61,86);fill-rule:nonzero;"/>
        </g>
        <g transform="matrix(1,0,0,1,-108,-65.54)">
            <path d="M955.87,665.39L954.1,694.17C951.918,698.881 951.447,704.209 952.77,709.23C954.98,717.64 954.1,753.07 954.1,753.07C954.1,753.07 951,801.78 950.1,804.88C949.2,807.98 946.1,809.31 948.33,811.97C948.33,811.97 918.66,818.61 919.1,807.54C919.1,807.54 923.1,800.01 923.1,792.93C923.1,785.85 924.43,746.87 924.43,746.87L935.05,647.23L955.87,665.39Z" style="fill-opacity:0.1;fill-rule:nonzero;"/>
        </g>
        <g transform="matrix(1,0,0,1,-108,-65.54)">
            <path d="M909.37,592.17C909.37,592.17 896.97,665.69 897.37,689.17C897.77,712.65 904.01,725.92 904.01,725.92L937.23,771.09C936.209,773.581 936.542,776.431 938.11,778.62C940.77,782.62 941.66,785.71 941.66,788.36C941.66,791.01 946.97,792.79 948.74,796.36C950.51,799.93 955.38,810.09 966.9,802.12C978.42,794.15 982.4,791.05 980.18,784.85C977.96,778.65 973.1,774.67 972.66,771.57C972.22,768.47 962.51,760.9 961.18,752C959.85,743.1 937.27,706.83 937.27,706.83C937.27,706.83 959.85,661.66 960.74,653.25C961.63,644.84 964.28,641.25 964.28,641.25C964.28,641.25 978.01,615.12 970.48,603.17C962.95,591.22 909.37,592.17 909.37,592.17Z" style="fill:rgb(63,61,86);fill-rule:nonzero;"/>
        </g>
        <g transform="matrix(1,0,0,1,-108,-65.54)">
            <path d="M928.85,816.84C928.85,816.84 916.85,815.07 916.85,808.42L900.46,817.72C900.46,817.72 868.13,819.05 881.86,830.12C895.59,841.19 955.86,826.58 955.86,826.58C955.86,826.58 951.44,812 947,810.64C947,810.64 939,817.28 928.85,816.84Z" style="fill:rgb(63,61,86);fill-rule:nonzero;"/>
        </g>
        <g transform="matrix(1,0,0,1,-108,-65.54)">
            <path d="M928.85,816.84C928.85,816.84 916.85,815.07 916.85,808.42L900.46,817.72C900.46,817.72 868.13,819.05 881.86,830.12C895.59,841.19 955.86,826.58 955.86,826.58C955.86,826.58 951.44,812 947,810.64C947,810.64 939,817.28 928.85,816.84Z" style="fill-opacity:0.1;fill-rule:nonzero;"/>
        </g>
        <g transform="matrix(1,0,0,1,-108,-65.54)">
            <path d="M982.88,793.22C982.88,793.22 970,811.38 958.52,806.51C958.52,806.51 951.84,799.7 949.43,803.51C947.02,807.32 941.7,817.98 935.94,819.31C930.18,820.64 909.81,827.31 929.74,832.6C949.67,837.89 987.31,820.2 990.85,813.11C994.39,806.02 982.88,793.22 982.88,793.22Z" style="fill:rgb(63,61,86);fill-rule:nonzero;"/>
        </g>
        <g transform="matrix(1,0,0,1,-108,-65.54)">
            <path d="M901,461.25C902.485,463.365 903.723,465.643 904.69,468.04C905.646,470.465 905.71,473.152 904.87,475.62C904.44,476.75 903.75,477.77 903.3,478.89C902.341,481.527 902.427,484.434 903.54,487.01C904.665,489.559 906.31,491.844 908.37,493.72C908.948,494.392 909.726,494.861 910.59,495.06C911.83,495.073 912.992,494.444 913.66,493.4C915.66,490.86 916.07,487.48 916.74,484.33C917.41,481.18 918.59,477.79 921.38,476.17C922.919,475.416 924.59,474.971 926.3,474.86L932.59,474.05C933.764,474.02 934.899,473.617 935.83,472.9C937.1,471.67 940.35,475.58 939.3,474.16C938.25,472.74 933.12,465.79 931.56,464.96C929.928,464.256 928.523,463.113 927.5,461.66C926.77,460.123 926.427,458.43 926.5,456.73C926.36,453.54 926.07,450.21 924.37,447.51C922.458,444.768 919.583,442.843 916.32,442.12C913.087,441.412 909.778,441.113 906.47,441.23C904.383,441.078 902.287,441.336 900.3,441.99C899.044,442.476 897.956,443.317 897.17,444.41C895.78,446.41 894.17,449.87 895.17,452.25C896.49,455.4 899.1,458.39 901,461.25Z" style="fill:rgb(255,193,199);fill-rule:nonzero;"/>
        </g>
        <circle cx="802.25" cy="367.21" r="25.68" style="fill:rgb(255,193,199);"/>
        <g transform="matrix(1,0,0,1,-108,-65.54)">
            <path d="M943.91,478.36C940.788,471.807 933.827,467.917 926.61,468.69C919.26,469.49 911.2,471.44 910.25,476.15C908.48,485.01 905.38,494.75 905.38,487.22C905.38,479.69 905.21,474.35 905.21,474.35C905.21,474.35 898.3,468.62 896.97,472.16C895.64,475.7 894.31,489.43 894.75,499.16C895.19,508.89 895.64,539.01 895.64,539.01C895.64,539.01 896.53,569.13 899.18,577.1C900.777,582.404 901.231,587.988 900.51,593.48C899.789,598.972 896.97,597.03 905.38,598.35C913.79,599.67 918.23,592.15 931.95,601.45C945.67,610.75 975.8,615.62 977.12,609.45C978.44,603.28 968.71,577.56 971.37,558.52C974.03,539.48 943.91,478.36 943.91,478.36Z" style="fill:rgb(119,221,119);fill-rule:nonzero;"/>
        </g>
        <g transform="matrix(1,0,0,1,-108,-65.54)">
            <path d="M914.68,590.85C914.68,590.85 908.04,601.47 905.83,601.92C903.62,602.37 902.73,606.79 908.04,604.57C913.35,602.35 911.58,602.36 911.58,602.36C911.58,602.36 907.15,609.45 914.68,610.77C922.21,612.09 926.2,613 926.2,609C926.2,605 925.31,594.39 925.31,594.39L914.68,590.85Z" style="fill:rgb(255,193,199);fill-rule:nonzero;"/>
        </g>
        <g transform="matrix(1,0,0,1,-108,-65.54)">
            <path d="M916.9,476.15C910.994,484.063 909.807,494.58 913.8,503.61C920.44,519.55 935.94,547.45 935.94,547.45C935.94,547.45 943.02,551.45 939.94,554.53C936.86,557.61 936.4,556.75 934.19,559.4C931.98,562.05 916.47,581.55 916.47,581.55C916.47,581.55 907.62,586.86 910.27,593.06C912.92,599.26 923.56,601.92 923.56,601.92C924.795,598.669 928.105,596.655 931.56,597.05C937.76,597.49 948.83,588.19 948.83,588.19C948.83,588.19 966.1,558.52 967.83,555.42C969.56,552.32 971.83,551.42 968.72,543.42C965.61,535.42 943,478.81 933.28,476.15C923.56,473.49 916.9,476.15 916.9,476.15Z" style="fill-opacity:0.1;fill-rule:nonzero;"/>
        </g>
        <g transform="matrix(1,0,0,1,-108,-65.54)">
            <path d="M918.67,475.26C912.77,483.175 911.583,493.689 915.57,502.72C922.21,518.66 937.71,546.56 937.71,546.56C937.71,546.56 944.8,550.56 941.71,553.65C938.62,556.74 938.16,555.86 935.95,558.52C933.74,561.18 918.24,580.66 918.24,580.66C918.24,580.66 909.38,585.97 912.04,592.17C914.7,598.37 925.31,601 925.31,601C926.548,597.751 929.855,595.738 933.31,596.13C939.51,596.57 950.58,587.27 950.58,587.27C950.58,587.27 967.85,557.6 969.63,554.5C971.41,551.4 973.63,550.5 970.51,542.55C967.39,534.6 944.83,477.89 935.08,475.23C925.33,472.57 918.67,475.26 918.67,475.26Z" style="fill:rgb(119,221,119);fill-rule:nonzero;"/>
        </g>
        <circle cx="816.87" cy="361.01" r="26.79" style="fill:rgb(255,101,132);"/>
        <g transform="matrix(0.737984,-0.674818,0.674818,0.737984,-133.2,676.14)">
            <ellipse cx="942.58" cy="403.3" rx="8.64" ry="13.73" style="fill:rgb(255,101,132);"/>
        </g>
        <ellipse cx="792.29" cy="346.62" rx="19.04" ry="8.86" style="fill:rgb(255,101,132);"/>
        <ellipse cx="796.28" cy="372.97" rx="3.99" ry="5.98" style="fill:rgb(255,193,199);"/>
    </g>
    <g transform="matrix(0.601617,0,0,0.601617,905.884,329.106)">
        <g transform="matrix(1,0,0,1,-35.84,-56.63)">
            <path d="M961.49,797C959.213,795.286 956.718,793.883 954.07,792.83C953.869,792.726 953.647,792.668 953.42,792.66C947.941,788.727 942.821,784.317 938.12,779.48C939.12,778.68 940.04,777.9 941.02,777.13C935.02,774.27 931.69,767.72 928.45,761.81C919.884,746.099 908.595,732.034 895.11,720.27C894.78,719 892.85,719.27 891.82,718.45C891.137,717.794 890.858,716.818 891.09,715.9C891.25,714.98 891.67,714.13 891.9,713.23C892.45,711.12 891.97,708.9 891.73,706.73C891.49,704.56 891.59,702.14 893.03,700.52C893.49,699.99 894.08,699.58 894.53,699.04C895.486,697.754 895.85,696.12 895.53,694.55C895.421,692.993 895.084,691.459 894.53,690C899.43,676.667 904.327,663.31 909.22,649.93C912.65,640.59 916.11,631.05 916.46,621.09C916.74,613.09 914.68,604.78 909.84,598.67C910.72,598.46 911.6,598.24 912.47,597.99C906.75,590.41 906.13,580.37 905.98,570.82C905.9,566.06 905.737,561.297 905.49,556.53C907.15,557.26 908.83,557.91 910.55,558.47L912.15,558.96C914.748,559.721 917.399,560.289 920.08,560.66C921.26,560.83 922.46,560.96 923.65,561.04C921.93,556.733 920.213,552.42 918.5,548.1C917.609,546.188 917.067,544.133 916.9,542.03L916.9,541.63C916.9,541.39 916.9,541.15 916.95,540.91C917.018,540.337 917.149,539.774 917.34,539.23C917.429,538.961 917.532,538.697 917.65,538.44C918.006,537.652 918.435,536.899 918.93,536.19C919.29,535.64 919.69,535.11 920.09,534.57C921.58,532.831 922.791,530.871 923.68,528.76C924.032,527.691 924.217,526.575 924.23,525.45C924.249,524.309 924.149,523.17 923.93,522.05C923.79,521.31 923.61,520.56 923.41,519.84C923.28,519.39 923.14,518.94 923,518.5L922.88,518.14C922.77,517.8 922.66,517.47 922.54,517.14L922.42,516.8C922.29,516.44 922.16,516.09 922.02,515.73L921.94,515.52C920.03,510.61 917.49,505.93 915.94,500.88C915.533,499.536 915.199,498.171 914.94,496.79C914.87,496.44 914.82,496.08 914.76,495.73C914.7,495.38 914.67,495.13 914.63,494.83C914.59,494.53 914.54,494.13 914.5,493.78L914.41,492.78C914.41,492.46 914.36,492.14 914.34,491.78C914.34,491.17 914.28,490.56 914.27,489.95L914.27,487.17C914.27,486.71 914.34,486.25 914.38,485.8C914.38,485.58 914.38,485.36 914.45,485.15C914.517,484.483 914.607,483.817 914.72,483.15C914.82,482.56 914.93,481.96 915.05,481.36C915.412,479.718 915.6,478.042 915.61,476.36C915.61,476.04 915.61,475.71 915.54,475.36C915.47,475.01 915.46,474.82 915.41,474.56C915.405,474.48 915.405,474.4 915.41,474.32C915.41,474.14 915.32,473.96 915.28,473.78C915.24,473.6 915.23,473.61 915.2,473.53C915.17,473.45 915.09,473.18 915.03,473.01C914.97,472.84 914.98,472.86 914.95,472.78C914.92,472.7 914.81,472.42 914.73,472.25L914.66,472.07C914.56,471.85 914.45,471.64 914.34,471.43C913.952,470.7 913.504,470.005 913,469.35C909.71,465.03 904.24,461.74 901.23,456.98C899.473,453.895 898.328,450.499 897.86,446.98C897.71,446.18 897.58,445.38 897.44,444.59C897.3,443.8 897.18,443.02 897.04,442.24C896.95,441.76 896.86,441.24 896.76,440.8L896.7,440.49C896.62,440.11 896.54,439.72 896.45,439.34L896.39,439.07C896.3,438.67 896.21,438.27 896.11,437.87L896.05,437.66C895.95,437.24 895.84,436.82 895.73,436.4C895.725,436.35 895.725,436.3 895.73,436.25C895.61,435.81 895.48,435.37 895.35,434.93L895.35,434.84C895.21,434.38 895.07,433.93 894.92,433.48C894.77,433.02 894.61,432.55 894.44,432.09C894.26,431.62 894.09,431.15 893.9,430.69C892.642,427.468 890.939,424.439 888.84,421.69C884.26,415.81 877.18,411.59 869.84,411.87C865.9,412.02 862.12,413.4 858.41,414.77L848.78,418.32L851.47,417.08C848.67,417.33 845.81,417.59 843.28,418.83C840.75,420.07 838.61,422.5 838.53,425.34C838.48,426.99 839.13,428.63 838.92,430.27C838.57,432.98 836.08,434.82 834.79,437.22C834.034,438.666 833.688,440.292 833.79,441.92L833.79,442.56C833.785,442.613 833.785,442.667 833.79,442.72L833.79,443.04C829.79,441.3 825.79,439.49 821.79,437.55C815.18,434.3 808.49,430.48 804.37,424.32C803.05,422.32 802.03,420.16 800.72,418.18C799.217,416.049 797.545,414.043 795.72,412.18L783.45,398.9C782.51,400.67 783.72,402.76 784.67,404.52C785.679,406.366 786.442,408.336 786.94,410.38C787.182,411.046 787.16,411.78 786.88,412.43C786.433,412.966 785.854,413.377 785.2,413.62C782.903,415.066 781.859,417.899 782.67,420.49C783.555,423.019 785.714,424.9 788.34,425.43C789.206,425.529 790.056,425.737 790.87,426.05C792.35,426.78 793.05,428.48 794.11,429.75C796.04,432.07 799.11,432.94 802.04,433.7C806.58,438.94 811.3,443.96 815.84,449.2C822.71,457.13 829.74,465.2 838.7,470.56C839.63,471.12 840.58,471.64 841.54,472.12C841.54,472.28 841.54,472.44 841.49,472.6C841.239,473.782 841.391,475.014 841.92,476.1C842.72,477.37 844.37,477.75 845.84,478.01L852.62,479.22C852.56,480.099 852.45,480.974 852.29,481.84C852.2,482.37 852.09,482.89 851.99,483.42L851.87,484.1C851.87,484.1 851.87,484.17 851.87,484.2C851.87,484.23 851.87,484.56 851.8,484.75C851.73,484.94 851.8,484.88 851.8,484.94L851.8,486.27C852.03,488.93 853.8,491.13 855.57,493.16L856.52,494.31C855.013,496.208 853.956,498.424 853.43,500.79C853.128,502.274 852.981,503.786 852.99,505.3C852.083,506.165 851.397,507.235 850.99,508.42C850.516,510.059 850.34,511.769 850.47,513.47L850.47,515.47C850.354,517.859 850.749,520.246 851.63,522.47C851.72,522.65 851.82,522.81 851.91,522.98C850.41,525.92 847.91,528.21 846.12,530.98C842.42,537.265 843.058,545.243 847.71,550.86C849.08,552.44 850.84,553.96 851,556.06C850.976,557.012 850.883,557.961 850.72,558.9C850.56,561.16 851.6,563.3 852.16,565.49C852.63,567.31 852.65,569.49 851.61,570.95C850.558,572.484 850.074,574.338 850.24,576.19C850.75,579.02 849.58,581.85 849.38,584.72C849.29,585.95 849.38,587.2 849.27,588.43C849.126,589.609 848.882,590.773 848.54,591.91C848.54,592.03 848.48,592.16 848.44,592.29C845.97,593.38 843.52,594.51 841.16,595.82C839.886,596.388 838.832,597.357 838.16,598.58C837.761,599.808 837.706,601.123 838,602.38L840.13,617.2L839.76,617.04C839.927,619.467 840.1,621.903 840.28,624.35C840.41,626.2 840.58,628.16 841.68,629.64C842.24,630.237 842.745,630.883 843.19,631.57C844.03,633.27 843.03,635.25 842.29,636.99C841.55,638.73 841.29,641.2 842.92,642.14C843.77,642.731 844.686,643.221 845.65,643.6C843.65,651.94 845.49,660.68 847.35,669.05C848.77,675.45 850.193,681.843 851.62,688.23C852.178,690.943 852.493,693.701 852.56,696.47C852.56,696.87 852.56,697.27 852.56,697.67C852.761,701.478 853.432,705.247 854.56,708.89C856.78,716.37 854.65,725.35 855.35,733.5C855.815,737.42 856.598,741.296 857.69,745.09C862.52,764.25 866.83,783.03 868.49,802.73C870.266,804.991 872.675,806.673 875.41,807.56C875.21,809.98 875.48,812.75 875.41,814.16C875.407,815.328 875.225,816.488 874.87,817.6C874.02,819.82 871.87,821.27 869.64,822.05C868.94,822.29 868.23,822.48 867.51,822.65L868.31,821.97C863.74,820.977 858.957,821.818 855,824.31C853.745,824.95 852.797,826.067 852.37,827.41C852.206,828.68 852.535,829.966 853.29,831C855.491,834.222 858.773,836.553 862.54,837.57C866.263,838.55 870.09,839.084 873.94,839.16L881,839.57C880.506,840.4 880.704,841.479 881.46,842.08C882.217,842.633 883.115,842.959 884.05,843.02C886.935,843.448 889.864,843.492 892.76,843.15C893.486,843.129 894.187,842.877 894.76,842.43C895.029,842.186 895.183,841.839 895.183,841.475C895.183,841.111 895.029,840.764 894.76,840.52C895.625,840.492 896.389,839.935 896.68,839.12C896.957,838.307 897.046,837.442 896.94,836.59C896.75,833.3 896.46,828.52 894.75,825.59C894.144,824.498 892.875,823.939 891.66,824.23C890.554,818.375 889.885,812.445 889.66,806.49C891.422,805.829 893.139,805.054 894.8,804.17C889.89,796.24 889.8,786.17 891.3,776.95C891.895,774.039 892.332,771.098 892.61,768.14C892.94,762.24 892.05,755.56 888.78,750.68C894.741,754.471 900.016,759.245 904.38,764.8C911.29,773.8 915.5,784.7 923.97,792.2C925.083,791.113 926.21,790.033 927.35,788.96C929.137,791.987 930.827,795.077 932.42,798.23C933.67,800.549 934.656,803.001 935.36,805.54C936.14,809.424 936.231,813.415 935.63,817.33C935.397,819.41 935.113,821.48 934.78,823.54C934.646,824.421 934.442,825.291 934.17,826.14C934.166,825.869 934.101,825.602 933.98,825.36C933.45,824.43 931.98,824.85 931.18,825.49C929.755,826.559 928.578,827.924 927.73,829.49C927.263,830.255 927.047,831.146 927.11,832.04C927.372,833.128 928.106,834.045 929.11,834.54C932.82,836.71 937.48,835.14 941.46,833.54C942.559,833.144 943.607,832.617 944.58,831.97C946.58,830.53 947.67,828.16 949.66,826.76C950.722,826.177 951.748,825.529 952.73,824.82C954.58,823.13 954.73,820.28 956.08,818.14C958.32,814.45 963.33,813.5 965.29,809.59C967.56,805.27 964.91,799.82 961.49,797Z" style="fill:url(#_Linear1);fill-rule:nonzero;"/>
        </g>
        <g transform="matrix(1,0,0,1,-35.84,-56.63)">
            <path d="M875.28,814.6C875.274,815.755 875.088,816.902 874.73,818C873.89,820.19 871.73,821.62 869.51,822.39C867.29,823.16 864.93,823.39 862.67,824.06C861.677,824.286 860.758,824.761 860,825.44C858,827.44 859.2,831.04 861.54,832.53C863.88,834.02 866.86,833.97 869.64,833.78C875.539,833.437 881.399,832.604 887.16,831.29C889.24,830.8 891.67,829.84 892,827.73C892.062,827.059 892.008,826.382 891.84,825.73C890.421,818.572 889.668,811.297 889.59,804C889.59,803.52 877.99,803.21 876.91,803.91C874.49,805.5 875.41,812.14 875.28,814.6Z" style="fill:rgb(161,97,106);fill-rule:nonzero;"/>
        </g>
        <g transform="matrix(1,0,0,1,-35.84,-56.63)">
            <path d="M927,789.13C928.92,792.31 930.723,795.553 932.41,798.86C933.659,801.144 934.646,803.563 935.35,806.07C936.125,809.9 936.216,813.838 935.62,817.7C935.387,819.747 935.1,821.79 934.76,823.83C934.43,825.83 933.9,828.1 932.19,829.25C933.733,830.165 935.611,830.33 937.29,829.7C938.94,829.061 940.461,828.13 941.78,826.95C950.35,819.88 956.78,809.61 957.1,798.5C957.19,797.632 957.027,796.757 956.63,795.98C956.226,795.436 955.716,794.98 955.13,794.64C948.735,790.284 942.795,785.296 937.4,779.75C937.083,779.324 936.62,779.028 936.1,778.92C935.691,778.922 935.289,779.037 934.94,779.25C931.65,780.9 926.15,783.25 924.78,787C925.716,787.472 926.49,788.214 927,789.13Z" style="fill:rgb(161,97,106);fill-rule:nonzero;"/>
        </g>
        <g transform="matrix(0.992293,-0.123915,0.123915,0.992293,-132.275,58.1667)">
            <path d="M887,826.21C879.8,829.21 872.598,830.515 864.416,829.671C863.414,829.567 862.587,827.692 862.97,826.64C864.098,823.545 868.14,822.31 868.14,822.31C863.634,821.354 858.928,822.163 855,824.57C853.766,825.185 852.823,826.264 852.38,827.57C852.214,828.827 852.544,830.102 853.3,831.12C855.512,834.308 858.789,836.606 862.54,837.6C866.263,838.565 869.246,839.828 873.091,839.906L880.091,840.306C879.595,841.128 880.637,841.467 881.4,842.05C882.16,842.605 883.061,842.934 884,843C886.882,843.42 889.807,843.46 892.7,843.12C893.426,843.108 894.129,842.858 894.7,842.41C894.968,842.171 895.121,841.829 895.121,841.47C895.121,841.111 894.968,840.769 894.7,840.53C895.563,840.504 896.326,839.951 896.62,839.14C896.887,838.339 896.976,837.489 896.88,836.65C896.69,833.41 896.4,828.65 894.69,825.82C892.98,822.99 889.42,825.21 887,826.21Z" style="fill:rgb(63,61,86);fill-rule:nonzero;"/>
        </g>
        <g transform="matrix(1,0,0,1,-35.84,-56.63)">
            <path d="M961.31,797.62C959.029,795.929 956.534,794.546 953.89,793.51C953.736,793.392 953.548,793.328 953.354,793.328C953.007,793.328 952.691,793.533 952.55,793.85C947.827,800.259 944.139,807.368 941.62,814.92C940.19,819.22 939.06,823.8 936.16,827.28C935.78,827.74 935.16,828.21 934.64,827.94C933.89,827.56 934.35,826.35 933.93,825.62C933.41,824.7 931.99,825.12 931.14,825.75C929.711,826.812 928.536,828.178 927.7,829.75C927.221,830.495 927.003,831.378 927.08,832.26C927.333,833.328 928.048,834.23 929.03,834.72C932.74,836.87 937.4,835.32 941.37,833.72C942.467,833.333 943.511,832.813 944.48,832.17C946.48,830.76 947.57,828.41 949.56,827.04C950.622,826.464 951.647,825.823 952.63,825.12C954.47,823.45 954.63,820.64 955.97,818.52C958.21,814.89 963.22,813.95 965.18,810.09C967.37,805.78 964.73,800.4 961.31,797.62Z" style="fill:rgb(63,61,86);fill-rule:nonzero;"/>
        </g>
        <g transform="matrix(1,0,0,1,-35.84,-56.63)">
            <path d="M905.5,597.87C913.36,603.77 916.66,614.26 916.31,624.08C915.96,633.9 912.51,643.32 909.09,652.53C904.19,665.71 899.297,678.887 894.41,692.06C894.955,693.505 895.292,695.02 895.41,696.56C895.723,698.108 895.359,699.718 894.41,700.98C893.95,701.51 893.41,701.92 892.91,702.44C891.47,704.04 891.38,706.44 891.61,708.57C891.84,710.7 892.33,712.9 891.78,714.98C891.55,715.87 891.13,716.71 890.97,717.61C890.743,718.519 891.022,719.483 891.7,720.13C892.7,720.93 894.7,720.67 894.99,721.93C908.436,733.511 919.712,747.395 928.29,762.93C931.53,768.76 934.8,775.22 940.85,778.04C934.955,782.71 929.304,787.68 923.92,792.93C915.47,785.53 911.26,774.76 904.36,765.93C899.992,760.439 894.724,755.728 888.78,752C892.05,756.81 892.94,763.41 892.61,769.22C892.333,772.139 891.896,775.04 891.3,777.91C889.75,787.01 889.89,796.91 894.8,804.77C889.56,807.49 883.54,809.51 877.69,808.7C874.02,808.178 870.685,806.274 868.37,803.38C866.71,783.94 862.37,765.38 857.58,746.51C856.482,742.745 855.702,738.895 855.25,735C854.55,727 856.68,718.1 854.45,710.72C853.326,707.131 852.655,703.415 852.45,699.66C852.45,699.26 852.45,698.87 852.45,698.47C852.382,695.741 852.067,693.023 851.51,690.35L847.25,671.43C845.39,663.16 843.53,654.54 845.54,646.31C844.581,645.94 843.669,645.46 842.82,644.88C841.19,643.95 841.45,641.52 842.19,639.8C842.93,638.08 843.92,636.13 843.09,634.45C842.647,633.768 842.142,633.128 841.58,632.54C840.48,631.08 840.31,629.15 840.18,627.33L839.66,620.11C842.678,621.307 845.193,623.507 846.78,626.34C842.84,620.24 844.78,611.54 847.69,604.88C848.798,600.702 852.55,597.731 856.87,597.61C872.9,594.87 892.48,588.08 905.5,597.87Z" style="fill:rgb(63,61,86);fill-rule:nonzero;"/>
        </g>
        <g transform="matrix(1,0,0,1,-35.84,-56.63)">
            <path d="M898.19,638.93C898.19,638.93 890.31,644.19 890.31,648.13C890.31,652.07 888.31,687.53 888.31,687.53L888.31,712.53C888.31,712.53 889.62,725.67 888.31,728.95C887,732.23 888.31,747.34 888.31,749.31C888.31,751.28 890.31,728.95 890.31,728.95L890.31,705.27L892.31,651.41L898.19,638.93Z" style="fill-opacity:0.1;fill-rule:nonzero;"/>
        </g>
        <g transform="matrix(1,0,0,1,-35.84,-56.63)">
            <path d="M854.24,456.79L849.65,455C840.27,451.24 830.88,447.47 821.8,443.06C815.2,439.85 808.51,436.06 804.4,430.01C803.08,428.01 802.06,425.91 800.75,423.94C799.245,421.833 797.573,419.85 795.75,418.01L783.49,404.91C782.55,406.66 783.75,408.72 784.71,410.45C785.715,412.273 786.478,414.22 786.98,416.24C787.216,416.89 787.191,417.608 786.91,418.24C786.469,418.775 785.892,419.183 785.24,419.42C782.95,420.824 781.902,423.629 782.71,426.19C783.602,428.699 785.757,430.557 788.37,431.07C789.235,431.17 790.084,431.375 790.9,431.68C792.38,432.41 793.08,434.08 794.14,435.33C796.07,437.62 799.14,438.49 802.06,439.23C806.6,444.4 811.31,449.35 815.85,454.52C822.71,462.34 829.73,470.3 838.69,475.6C841.872,477.545 845.357,478.944 849,479.74C850.205,471.976 851.956,464.307 854.24,456.79Z" style="fill:rgb(161,97,106);fill-rule:nonzero;"/>
        </g>
        <g transform="matrix(1,0,0,1,-35.84,-56.63)">
            <path d="M854.24,456.79L849.65,455C840.27,451.24 830.88,447.47 821.8,443.06C815.2,439.85 808.51,436.06 804.4,430.01C803.08,428.01 802.06,425.91 800.75,423.94C799.245,421.833 797.573,419.85 795.75,418.01L783.49,404.91C782.55,406.66 783.75,408.72 784.71,410.45C785.715,412.273 786.478,414.22 786.98,416.24C787.216,416.89 787.191,417.608 786.91,418.24C786.469,418.775 785.892,419.183 785.24,419.42C782.95,420.824 781.902,423.629 782.71,426.19C783.602,428.699 785.757,430.557 788.37,431.07C789.235,431.17 790.084,431.375 790.9,431.68C792.38,432.41 793.08,434.08 794.14,435.33C796.07,437.62 799.14,438.49 802.06,439.23C806.6,444.4 811.31,449.35 815.85,454.52C822.71,462.34 829.73,470.3 838.69,475.6C841.872,477.545 845.357,478.944 849,479.74C850.205,471.976 851.956,464.307 854.24,456.79Z" style="fill-opacity:0.15;fill-rule:nonzero;"/>
        </g>
        <g transform="matrix(1,0,0,1,-35.84,-56.63)">
            <path d="M845.84,482.9C844.37,482.64 842.72,482.28 841.92,481.02C841.391,479.952 841.239,478.735 841.49,477.57C842.285,470.033 843.964,462.615 846.49,455.47C848.72,459.6 853.11,462.01 857.27,464.18C860.984,466.245 864.856,468.01 868.85,469.46C867.85,469.14 865.4,484.52 864.02,485.46C862.28,486.68 858.08,485.03 856.15,484.7L845.84,482.9Z" style="fill:rgb(119,221,119);fill-rule:nonzero;"/>
        </g>
        <circle cx="820.65" cy="400.71" r="21.02" style="fill:rgb(161,97,106);"/>
        <g transform="matrix(1,0,0,1,-35.84,-56.63)">
            <path d="M852.22,474.74C852.22,474.74 866.01,486.56 860.1,494.44C854.19,502.32 850.9,507.58 858.78,508.24C866.66,508.9 892.93,495.1 892.93,495.1C892.93,495.1 868.63,475.4 872.57,463.58C876.51,451.76 852.22,474.74 852.22,474.74Z" style="fill:rgb(251,190,190);fill-rule:nonzero;"/>
        </g>
        <g transform="matrix(1,0,0,1,-35.84,-56.63)">
            <path d="M865.45,493.24C859.465,494.678 854.783,499.387 853.38,505.38C851.83,512.46 855.12,520.38 852.02,526.9C850.56,530 847.85,532.32 846.02,535.23C842.336,541.423 842.972,549.317 847.6,554.84C848.97,556.4 850.73,557.91 850.89,559.97C850.867,560.909 850.773,561.845 850.61,562.77C850.45,565 851.49,567.12 852.05,569.28C852.52,571.07 852.54,573.22 851.5,574.66C850.451,576.169 849.969,578.001 850.14,579.83C850.64,582.63 849.47,585.42 849.27,588.25C849.18,589.47 849.27,590.69 849.16,591.91C849.014,593.071 848.774,594.218 848.44,595.34L846.68,601.83C856.22,605.91 866.36,607.38 876.68,607.19C885.92,607.01 895.03,605.1 904.07,603.19C906.82,602.61 909.57,602.03 912.28,601.28C906.56,593.8 905.95,583.89 905.79,574.48C905.541,558.791 904.369,543.131 902.28,527.58C905.05,522.35 906.28,516.52 907.42,510.71C907.932,508.37 908.147,505.974 908.06,503.58C907.78,498.58 905.48,493.83 903.23,489.3C901.17,485.16 898.94,480.8 894.35,479.01C892.1,478.062 889.511,478.346 887.52,479.76C884.05,482.38 885.08,486.9 884.19,490.76C883.02,495.76 878.41,499.35 873.5,500.76C869.836,501.72 866.039,502.075 862.26,501.81C861.208,501.75 860.374,500.867 860.374,499.813C860.374,499.344 860.539,498.89 860.84,498.53C862.45,496.75 864.07,494.94 865.45,493.24Z" style="fill:rgb(119,221,119);fill-rule:nonzero;"/>
        </g>
        <g transform="matrix(1,0,0,1,-35.84,-56.63)">
            <path d="M881.73,574.49C873.95,580.85 866.08,587.27 857.1,591.77C851.83,594.41 846.23,596.36 841.1,599.2C839.832,599.757 838.779,600.712 838.1,601.92C837.692,603.129 837.636,604.43 837.94,605.67L840.22,621.39C840.85,625.65 844.94,628.39 848.22,631.11C848.04,629.68 847.75,628.57 848.43,627.3C848.666,626.903 848.923,626.519 849.2,626.15C850.6,624.03 850.65,621.28 850.31,618.76C849.97,616.24 849.31,613.76 849.44,611.18C849.383,610.312 849.786,609.476 850.5,608.98C861.67,603.61 873.7,599.49 884.99,594.39C887.977,593.183 890.792,591.585 893.36,589.64C895.94,587.661 897.677,584.776 898.22,581.57C898.325,581.15 898.252,580.705 898.02,580.34C897.793,580.092 897.497,579.917 897.17,579.84C892.11,578 886.77,576.31 881.73,574.49Z" style="fill:rgb(161,97,106);fill-rule:nonzero;"/>
        </g>
        <g transform="matrix(1,0,0,1,-35.84,-56.63)">
            <path d="M860.12,508.53C856.26,509.18 852.2,511.18 850.89,514.88C850.419,516.502 850.243,518.196 850.37,519.88C850.25,522.248 850.649,524.613 851.54,526.81C852.198,528.023 852.982,529.162 853.88,530.21C863.12,542.05 867.76,556.92 876.76,568.95C877.56,570.01 879.02,571.39 878.57,572.64C878.406,572.964 878.263,573.298 878.14,573.64C878.057,574.296 878.304,574.952 878.8,575.39C879.28,575.83 879.653,576.374 879.89,576.98C880.06,577.61 879.64,578.43 878.99,578.38C880.07,581.72 883.38,583.67 886.52,585.25C891.74,587.88 897.52,589.95 903.33,589.38C904.42,585.01 905.94,580.07 905.33,575.62C904.692,572.222 903.563,568.934 901.98,565.86L898.07,557.32C894.74,550.03 891.38,542.69 886.74,536.16C885.068,534.093 883.661,531.825 882.55,529.41C881.36,526.32 878.09,524.15 876.11,521.5C873.17,517.5 870.11,513.5 866.17,510.61C864.59,509.39 862.05,508.21 860.12,508.53Z" style="fill-opacity:0.1;fill-rule:nonzero;"/>
        </g>
        <g transform="matrix(1,0,0,1,-35.84,-56.63)">
            <path d="M860.12,506.56C856.26,507.21 852.2,509.21 850.89,512.9C850.42,514.522 850.244,516.216 850.37,517.9C850.25,520.268 850.649,522.633 851.54,524.83C852.198,526.043 852.982,527.182 853.88,528.23C863.12,540.07 867.76,554.94 876.76,566.97C877.56,568.03 879.02,569.41 878.57,570.66C878.406,570.984 878.263,571.318 878.14,571.66C878.057,572.316 878.304,572.972 878.8,573.41C879.28,573.85 879.653,574.394 879.89,575C880.06,575.63 879.64,576.45 878.99,576.4C880.07,579.74 883.38,581.69 886.52,583.27C891.74,585.9 897.52,587.97 903.33,587.4C904.42,583.03 905.94,578.09 905.33,573.64C904.692,570.242 903.563,566.954 901.98,563.88L898.07,555.34C894.74,548.05 891.38,540.71 886.74,534.18C885.066,532.111 883.659,529.84 882.55,527.42C881.36,524.34 878.09,522.17 876.11,519.52C873.17,515.52 870.11,511.52 866.17,508.63C864.59,507.42 862.05,506.24 860.12,506.56Z" style="fill:rgb(119,221,119);fill-rule:nonzero;"/>
        </g>
        <g transform="matrix(1,0,0,1,-35.84,-56.63)">
            <path d="M851.31,422.81C848.52,423.05 845.65,423.31 843.13,424.53C840.61,425.75 838.46,428.15 838.38,430.95C838.38,432.58 838.98,434.2 838.77,435.81C838.42,438.49 835.93,440.3 834.65,442.67C832.41,446.79 834.15,452.03 837.05,455.67C839.95,459.31 843.88,462.11 846.86,465.73C851.614,471.583 853.594,479.225 852.28,486.65C851.91,488.077 851.732,489.546 851.75,491.02C851.98,493.64 853.75,495.81 855.51,497.81C864.072,507.821 871.994,518.362 879.23,529.37C881.401,532.567 883.352,535.908 885.07,539.37C886.77,542.95 888.07,546.77 890.43,549.94C892.609,552.662 895.278,554.951 898.3,556.69C905.922,561.39 914.568,564.18 923.5,564.82L918.35,552.05C917.44,549.78 916.5,547.39 916.8,544.96C917.37,540.36 922.01,537.34 923.52,532.96C924.52,530.14 924.07,527.03 923.25,524.16C921.43,517.69 917.79,511.87 915.83,505.44C914.112,499.802 913.728,493.841 914.71,488.03C915.14,485.47 915.84,482.9 915.52,480.33C914.57,472.51 905.4,468.77 901.16,462.14C898.42,457.88 897.89,452.63 896.97,447.65C895.64,440.38 893.27,433.12 888.69,427.32C884.11,421.52 877.05,417.32 869.69,417.63C865.75,417.78 861.98,419.15 858.27,420.49L848.63,424" style="fill:rgb(63,61,86);fill-rule:nonzero;"/>
        </g>
        <g transform="matrix(1,0,0,1,-35.84,-56.63)">
            <path d="M894.34,439.14C895.17,443.63 895.69,448.34 897.79,452.35C897.5,450.79 897.26,449.22 896.97,447.68C896.291,443.76 895.212,439.92 893.75,436.22C894,437.19 894.17,438.16 894.34,439.14Z" style="fill-rule:nonzero;"/>
        </g>
        <g transform="matrix(1,0,0,1,-35.84,-56.63)">
            <path d="M912.08,479.52C911.104,485.335 911.487,491.298 913.2,496.94C913.67,498.47 914.2,499.94 914.84,501.44C914.007,497.023 913.963,492.493 914.71,488.06C915.14,485.5 915.84,482.93 915.52,480.36C915.226,478.158 914.325,476.081 912.92,474.36C912.77,476.1 912.37,477.81 912.08,479.52Z" style="fill-rule:nonzero;"/>
        </g>
        <g transform="matrix(1,0,0,1,-35.84,-56.63)">
            <path d="M923.25,524.19C922.696,522.311 922.028,520.468 921.25,518.67C921.586,520.599 921.456,522.581 920.87,524.45C919.36,528.82 914.71,531.85 914.15,536.45C913.85,538.88 914.78,541.27 915.7,543.54C916.04,544.39 916.38,545.25 916.7,546.1C916.675,545.73 916.675,545.36 916.7,544.99C917.27,540.39 921.91,537.37 923.42,532.99C924.5,530.17 924.07,527.06 923.25,524.19Z" style="fill-rule:nonzero;"/>
        </g>
        <g transform="matrix(1,0,0,1,-35.84,-56.63)">
            <path d="M895.68,548.18C892.659,546.437 889.989,544.144 887.81,541.42C885.44,538.25 884.14,534.42 882.44,530.85C880.725,527.387 878.774,524.046 876.6,520.85C869.367,509.84 861.448,499.296 852.89,489.28C852.58,488.93 852.28,488.57 851.98,488.21C851.774,489.135 851.696,490.084 851.75,491.03C851.98,493.65 853.75,495.82 855.51,497.82C864.072,507.831 871.994,518.372 879.23,529.38C881.401,532.577 883.352,535.918 885.07,539.38C886.77,542.96 888.07,546.78 890.43,549.95C892.609,552.672 895.278,554.961 898.3,556.7C905.922,561.4 914.568,564.19 923.5,564.83L920,556.23C911.378,555.475 903.05,552.718 895.68,548.18Z" style="fill-rule:nonzero;"/>
        </g>
        <g transform="matrix(1,0,0,1,-35.84,-56.63)">
            <path d="M844.23,457.23C841.23,453.61 837.32,450.86 834.42,447.18C834.16,446.84 833.91,446.49 833.66,446.12C833.6,449.619 834.804,453.026 837.05,455.71C839.95,459.4 843.88,462.15 846.86,465.77C848.023,467.176 849.029,468.705 849.86,470.33C849.241,465.524 847.29,460.986 844.23,457.23Z" style="fill-rule:nonzero;"/>
        </g>
    </g>
    <g transform="matrix(0.624922,0,0,0.624922,-9.59078,325.56)">
        <g transform="matrix(1,0,0,1,-92.22,-58.23)">
            <path d="M341,455L341.05,454.93L340.96,454.86L340.42,454.5L340.53,454.58C339.732,454.118 338.701,454.346 338.17,455.1L337.95,455.41L325.8,472.89L323.68,476C317.27,474.07 306.86,482.19 301.59,486.85C301.26,487.14 300.95,487.41 300.67,487.67C300.25,486.73 300,486.13 300,486.13C299.74,488.99 289.64,493.28 287.28,494.84C286.208,495.488 285.006,495.891 283.76,496.02C284.1,485.15 275.69,473.71 275.69,473.71L255.14,447.56C254.384,442.831 255.118,437.983 257.24,433.69C257.41,433.35 257.58,433.01 257.77,432.69L257.87,432.69C257.093,434.887 256.657,437.191 256.58,439.52C256.63,441.29 258.27,449.87 260.58,449.52C261.046,449.568 261.502,449.351 261.76,448.96C263.6,446.82 263.76,443.18 263.67,439.81C263.638,440.801 263.528,441.787 263.34,442.76C263.49,439.96 263.17,437 263.17,434.89C263.17,434.05 263.17,433.22 263.23,432.38L263.48,432.38C263.48,432.7 263.48,433.04 263.48,433.38C263.48,433.03 263.48,432.69 263.48,432.38L263.74,432.38C268.349,431.536 272.669,429.533 276.29,426.56C278.096,426.487 279.798,425.69 281.01,424.35C281.455,425.834 281.12,427.446 280.12,428.63C282.87,428.5 285.2,426.36 286.26,423.85C287.168,421.287 287.436,418.54 287.04,415.85C286.645,413.158 286.447,410.441 286.45,407.72C286.64,406.251 286.72,404.771 286.69,403.29C286.646,402.838 286.566,402.39 286.45,401.95L286.53,401.95C287.062,401.961 287.577,401.759 287.96,401.39C289.1,400.51 289.47,398.79 289.76,397.47C290.549,394.432 290.906,391.298 290.82,388.16C290.76,389.11 290.64,390.07 290.5,391.02C290.75,387.42 290.25,383.92 287.87,381.31C286.23,379.52 283.94,378.47 281.74,377.42C280.953,377.139 280.261,376.643 279.74,375.99C279.351,375.22 279.139,374.373 279.12,373.51C278.35,368.25 273.4,364.59 268.47,362.51C262.13,359.75 254.47,358.57 248.42,361.85C245.42,363.44 243.12,365.93 240.42,367.96C237.04,370.53 233.14,372.33 229.53,374.57C225.92,376.81 222.53,379.65 220.76,383.51C218.11,389.51 220.1,396.31 220.43,402.82C220.96,413.07 216.74,423.82 208.38,429.82C207.378,430.434 206.483,431.208 205.73,432.11C204.979,433.044 204.891,434.354 205.51,435.38C205.94,435.94 206.62,436.26 207.09,436.79C208.04,437.87 207.85,439.52 207.48,440.9C206.266,445.415 203.846,449.515 200.48,452.76C200.63,453.82 201.94,454.24 203.01,454.4C205.841,454.816 208.699,455.024 211.56,455.02L212.79,455.02C212.66,455.35 212.52,455.7 212.38,456.07C210.83,460.15 208.82,466.43 209.49,470.27C210.49,476.33 213.69,504.04 212.11,508.9C210.53,513.76 214.65,549 214.65,549C214.65,549 215.2,551.72 216.15,555.78C213.68,561.6 210.86,568.06 209.45,570.65C206.61,575.84 208.01,602.34 217.8,614.12C217.8,614.12 221.8,619.84 220.8,621.91C219.8,623.98 220.98,627.63 220.98,627.63L222.53,661.92C222.497,665.424 222.256,668.924 221.81,672.4C217.63,677.57 211.19,685.11 208.16,686.34C203.47,688.25 168.49,730.68 168.49,730.68C168.49,730.68 168.77,731.19 169.32,732.02L168.32,733.16L161.61,740.94L161.08,741.55C159.82,741.31 151.43,739.79 144.78,739.31L144.12,739.31L144.12,739.19C141.789,738.923 139.433,738.987 137.12,739.38C136.683,739.461 136.279,739.67 135.96,739.98C133.69,742.76 132.47,786.4 132.47,786.4C132.47,786.4 134.89,808.25 142.47,809.47C142.856,809.604 143.261,809.678 143.67,809.69L144,809.69C149.4,809.29 151.88,806.2 153,804.08C153.331,803.447 153.583,802.775 153.75,802.08C153.917,801.385 152.87,798.19 155.23,792.82C157.59,787.45 162,778 162,778C162,778 170,769.59 168.57,765.51C168.79,765.18 169.05,764.82 169.33,764.41C172.33,760.13 178.41,751.68 183.33,746.04C183.65,745.66 183.97,745.31 184.33,744.96C186.12,745.715 187.993,746.256 189.91,746.57C191.827,746.884 197.43,743.63 200.22,737.05C201.41,734.25 206.08,729.29 211.05,724.52L210.89,725.79L210.72,767.53C212.336,768.64 214.058,769.588 215.86,770.36L215.86,771.36C215.895,777.307 215.534,783.251 214.78,789.15L214.63,790.08C214.01,789.64 213.47,789.49 213.13,789.83C211.59,791.39 210.63,801.35 210.54,805.94C210.54,806.09 210.54,806.24 210.54,806.4C210.29,810.98 207.68,817.64 215.54,817.98C221.42,818.23 246.77,818.61 260.33,818.81C267.634,818.948 274.744,816.427 280.33,811.72C284.64,808.03 287.25,803.64 281.38,800.41C281.02,800.21 280.64,800.02 280.22,799.83L267.22,797.83L245.01,786.49C245.01,786.49 244.88,779.63 242.21,780.77C241.417,780.943 240.657,781.244 239.96,781.66C239.83,781.41 239.69,781.14 239.56,780.86C237.751,777.276 236.812,773.315 236.82,769.3C236.82,768.94 236.82,768.57 236.87,768.2C237.52,767.607 238.135,766.976 238.71,766.31C239.285,765.644 238.54,750.72 240.29,747.78C242.04,744.84 247.46,715.04 247.46,715.04C247.46,715.04 247.63,709.5 251.13,706.21C254.63,702.92 253.4,693.39 253.4,693.39C253.4,693.39 258.3,690.79 259.87,682.31C261.44,673.83 266.52,655.31 266.52,655.31C266.52,655.31 277.01,627.94 276.32,610.63C275.63,593.32 277.32,584.3 277.32,584.3L279.5,544.06L279.5,543.44C280.37,544.1 280.96,544.64 280.96,544.64C280.96,544.64 280.96,544.48 280.96,544.2C281.28,544.47 281.46,544.64 281.46,544.64C281.46,544.64 282.58,526.38 282.2,519.14C288.32,517.06 297.64,513.64 298.2,511.9C298.98,509.31 309.48,501.12 309.48,501.12C309.253,501.083 309.035,501.002 308.84,500.88C309.17,500.73 309.51,500.55 309.84,500.36C316.72,496.68 329.5,485.92 327.35,479.36L341.35,459.27C342.25,457.947 342.104,456.159 341,455Z" style="fill:url(#_Linear2);fill-rule:nonzero;"/>
        </g>
        <g transform="matrix(1,0,0,1,-92.22,-58.23)">
            <path d="M308.43,503.52C307.408,504.161 306.27,504.592 305.08,504.79C300.71,504.92 297.08,493.09 297.08,493.09C297.08,493.09 298.32,491.83 300.3,490.09C306.16,484.88 318.45,475.26 324.21,480.64C330.71,486.65 316,499.45 308.43,503.52Z" style="fill:rgb(236,180,182);fill-rule:nonzero;"/>
        </g>
        <g transform="matrix(1,0,0,1,-92.22,-58.23)">
            <path d="M242,785.65L225.87,803.06C225.87,803.06 210.95,803.23 213.87,795C214.453,793.216 214.868,791.381 215.11,789.52C215.845,783.676 216.196,777.79 216.16,771.9C216.16,768.04 216.1,765.33 216.1,765.33C216.1,765.33 239.59,755.04 237.19,765.76C236.891,767.1 236.731,768.467 236.71,769.84C236.701,773.813 237.618,777.734 239.39,781.29C240.115,782.825 240.989,784.286 242,785.65Z" style="fill:rgb(236,180,182);fill-rule:nonzero;"/>
        </g>
        <g transform="matrix(1,0,0,1,-92.22,-58.23)">
            <path d="M242,785.65L225.87,803.06C225.87,803.06 210.95,803.23 213.87,795C214.453,793.216 214.868,791.381 215.11,789.52C217.24,791.17 220.3,796.03 220.3,796.03C220.3,796.03 230.59,799.03 233.42,790.03C235,785.03 237.5,782.5 239.42,781.29C240.136,782.824 241,784.284 242,785.65Z" style="fill-opacity:0.1;fill-rule:nonzero;"/>
        </g>
        <g transform="matrix(1,0,0,1,-92.22,-58.23)">
            <path d="M279.42,811.87C273.953,816.528 266.961,819.02 259.78,818.87C246.48,818.68 221.63,818.29 215.86,818.05C208.14,817.71 210.7,811.12 210.95,806.58C210.95,806.42 210.95,806.28 210.95,806.13C211.04,801.58 211.95,791.72 213.49,790.18C215.03,788.64 220.3,797.04 220.3,797.04C220.3,797.04 230.59,800.04 233.42,791.04C236.25,782.04 242,781.17 242,781.17C244.61,780.04 244.74,786.83 244.74,786.83L266.52,798.06L279.3,800.06C279.71,800.25 280.08,800.44 280.43,800.63C286.21,803.87 283.65,808.21 279.42,811.87Z" style="fill:rgb(193,113,116);fill-rule:nonzero;"/>
        </g>
        <circle cx="146.96" cy="735.39" r="0.94" style="fill:white;fill-opacity:0.25;"/>
        <circle cx="155.8" cy="739.77" r="0.94" style="fill:white;fill-opacity:0.25;"/>
        <circle cx="160.34" cy="741.8" r="0.94" style="fill:white;fill-opacity:0.25;"/>
        <circle cx="169.77" cy="745.42" r="0.94" style="fill:white;fill-opacity:0.25;"/>
        <circle cx="164.97" cy="743.88" r="0.94" style="fill:white;fill-opacity:0.25;"/>
        <g transform="matrix(1,0,0,1,-92.22,-58.23)">
            <path d="M279.42,811.87C273.953,816.528 266.961,819.02 259.78,818.87C246.48,818.68 221.63,818.29 215.86,818.05C208.14,817.71 210.7,811.12 210.95,806.58L259.42,809.58C259.42,809.58 279.27,806.58 280.42,800.66C286.21,803.87 283.65,808.21 279.42,811.87Z" style="fill:rgb(193,113,116);fill-rule:nonzero;"/>
        </g>
        <g transform="matrix(1,0,0,1,-92.22,-58.23)">
            <path d="M279.42,811.87C273.953,816.528 266.961,819.02 259.78,818.87C246.48,818.68 221.63,818.29 215.86,818.05C208.14,817.71 210.7,811.12 210.95,806.58L259.42,809.58C259.42,809.58 279.27,806.58 280.42,800.66C286.21,803.87 283.65,808.21 279.42,811.87Z" style="fill:white;fill-opacity:0.25;fill-rule:nonzero;"/>
        </g>
        <g transform="matrix(1,0,0,1,-92.22,-58.23)">
            <path d="M189.19,741.92C187.407,743.375 185.778,745.011 184.33,746.8C179.52,752.38 173.57,760.8 170.62,764.98C169.48,766.62 168.79,767.65 168.79,767.65L162.35,766.7C162.35,766.7 155.41,756.07 155.5,755.82C155.59,755.57 161,744.15 161,744.15L163.09,741.7L169.68,734L172.68,730.52C172.68,730.52 195,737.72 189.19,741.92Z" style="fill:rgb(236,180,182);fill-rule:nonzero;"/>
        </g>
        <g transform="matrix(1,0,0,1,-92.22,-58.23)">
            <path d="M170.62,765C169.48,766.64 168.79,767.67 168.79,767.67L162.35,766.72C162.35,766.72 155.41,756.09 155.5,755.84C155.59,755.59 161,744.15 161,744.15L163.09,741.7L163.77,741.83L165.41,741.83C159.66,747.83 165.83,761.03 165.83,761.03C165.83,761.03 168.49,761.28 170.62,765Z" style="fill-opacity:0.1;fill-rule:nonzero;"/>
        </g>
        <g transform="matrix(1,0,0,1,-92.22,-58.23)">
            <path d="M163.43,778.44C163.43,778.44 159.14,787.7 156.82,793.02C154.5,798.34 155.36,802.19 155.36,802.19C155.197,802.883 154.952,803.555 154.63,804.19C152.957,807.518 149.574,809.66 145.85,809.75L145.43,809.75C137.61,809.55 135.13,786.85 135.13,786.85C135.13,786.85 136.33,743.64 138.56,740.85C138.867,740.539 139.261,740.33 139.69,740.25C141.966,739.855 144.286,739.791 146.58,740.06C153.65,740.57 162.74,742.31 162.74,742.31L164.37,742.31C158.62,748.31 164.79,761.52 164.79,761.52C164.79,761.52 167.54,761.77 169.68,765.63C171.82,769.49 163.43,778.44 163.43,778.44Z" style="fill:rgb(193,113,116);fill-rule:nonzero;"/>
        </g>
        <circle cx="61.77" cy="707.35" r="0.94" style="fill:white;fill-opacity:0.25;"/>
        <circle cx="61.3" cy="714.84" r="0.94" style="fill:white;fill-opacity:0.25;"/>
        <g transform="matrix(1,0,0,1,-92.22,-58.23)">
            <path d="M154,804C152.327,807.328 148.944,809.47 145.22,809.56L144.81,809.56C136.99,809.36 134.5,786.66 134.5,786.66C134.5,786.66 135.7,743.45 137.93,740.66C138.237,740.349 138.631,740.14 139.06,740.06C141.336,739.665 143.656,739.601 145.95,739.87C145.82,747.64 145.45,772.19 145.95,774.63C146.45,777.07 150.88,797.49 154,804Z" style="fill:rgb(193,113,116);fill-rule:nonzero;"/>
        </g>
        <g transform="matrix(1,0,0,1,-92.22,-58.23)">
            <path d="M154,804C152.327,807.328 148.944,809.47 145.22,809.56L144.81,809.56C136.99,809.36 134.5,786.66 134.5,786.66C134.5,786.66 135.7,743.45 137.93,740.66C138.237,740.349 138.631,740.14 139.06,740.06C141.336,739.665 143.656,739.601 145.95,739.87C145.82,747.64 145.45,772.19 145.95,774.63C146.45,777.07 150.88,797.49 154,804Z" style="fill:white;fill-opacity:0.25;fill-rule:nonzero;"/>
        </g>
        <g transform="matrix(1,0,0,1,-92.22,-58.23)">
            <path d="M144.8,809.58C136.98,809.38 134.49,786.68 134.49,786.68C134.49,786.68 135.69,743.47 137.92,740.68C138.227,740.369 138.621,740.16 139.05,740.08C140.69,742.52 142.13,747.92 140.83,759.8C138.39,782.31 141.33,783.73 141.33,783.73C141.33,783.73 145,802.86 144.8,809.58Z" style="fill:rgb(193,113,116);fill-rule:nonzero;"/>
        </g>
        <g transform="matrix(1,0,0,1,-92.22,-58.23)">
            <path d="M144.8,809.58C136.98,809.38 134.49,786.68 134.49,786.68C134.49,786.68 135.69,743.47 137.92,740.68C138.227,740.369 138.621,740.16 139.05,740.08C140.69,742.52 142.13,747.92 140.83,759.8C138.39,782.31 141.33,783.73 141.33,783.73C141.33,783.73 145,802.86 144.8,809.58Z" style="fill-opacity:0.1;fill-rule:nonzero;"/>
        </g>
        <g transform="matrix(1,0,0,1,-92.22,-58.23)">
            <path d="M308.43,503.52C307.408,504.161 306.27,504.592 305.08,504.79C300.71,504.92 297.08,493.09 297.08,493.09C297.08,493.09 298.32,491.83 300.3,490.09C301.73,493.29 305.67,501.92 308.43,503.52Z" style="fill-opacity:0.1;fill-rule:nonzero;"/>
        </g>
        <g transform="matrix(1,0,0,1,-92.22,-58.23)">
            <path d="M280.39,499.26C280.39,499.26 283.99,499.52 286.3,497.98C288.61,496.44 298.52,492.19 298.78,489.36C298.78,489.36 304.69,503.76 308.04,504.28C308.04,504.28 297.75,512.38 296.98,514.95C296.21,517.52 276.14,523.83 276.14,523.83L280.39,499.26Z" style="fill:rgb(255,116,142);fill-rule:nonzero;"/>
        </g>
        <g transform="matrix(1,0,0,1,-92.22,-58.23)">
            <path d="M280.39,499.26C280.39,499.26 283.99,499.52 286.3,497.98C288.61,496.44 298.52,492.19 298.78,489.36C298.78,489.36 304.69,503.76 308.04,504.28C308.04,504.28 297.75,512.38 296.98,514.95C296.21,517.52 276.14,523.83 276.14,523.83L280.39,499.26Z" style="fill-opacity:0.1;fill-rule:nonzero;"/>
        </g>
        <g transform="matrix(1,0,0,1,-92.22,-58.23)">
            <path d="M189.19,741.92C187.407,743.375 185.778,745.011 184.33,746.8C176.57,743.55 171.57,736.91 169.67,734L172.67,730.52C172.67,730.52 195,737.72 189.19,741.92Z" style="fill-opacity:0.1;fill-rule:nonzero;"/>
        </g>
        <g transform="matrix(1,0,0,1,-92.22,-58.23)">
            <path d="M225.89,669C225.89,669 213.31,685.81 208.71,687.7C204.11,689.59 169.82,731.6 169.82,731.6C169.82,731.6 177.19,745.15 190.74,747.37C190.74,747.37 198.11,744.46 200.86,737.94C203.61,731.42 225.21,713 225.21,713L225.89,669Z" style="fill:rgb(94,90,107);fill-rule:nonzero;"/>
        </g>
        <g transform="matrix(1,0,0,1,-92.22,-58.23)">
            <path d="M225.89,669C225.89,669 213.31,685.81 208.71,687.7C204.11,689.59 169.82,731.6 169.82,731.6C169.82,731.6 177.19,745.15 190.74,747.37C190.74,747.37 198.11,744.46 200.86,737.94C203.61,731.42 225.21,713 225.21,713L225.89,669Z" style="fill-opacity:0.1;fill-rule:nonzero;"/>
        </g>
        <g transform="matrix(1,0,0,1,-92.22,-58.23)">
            <path d="M187.78,725.25C191.586,725.65 195.424,725.65 199.23,725.25C206,724.6 200.9,728.72 187.78,725.25Z" style="fill-opacity:0.1;fill-rule:nonzero;"/>
        </g>
        <g transform="matrix(1,0,0,1,-92.22,-58.23)">
            <path d="M184.69,729.62C184.69,729.62 193.69,734.76 197.17,732.19C200.65,729.62 193.82,734.67 184.69,729.62Z" style="fill-opacity:0.1;fill-rule:nonzero;"/>
        </g>
        <g transform="matrix(1,0,0,1,-92.22,-58.23)">
            <path d="M237.21,765.76C236.911,767.1 236.751,768.467 236.73,769.84C229.78,776.15 221.41,774.2 216.18,771.9C216.18,768.04 216.12,765.33 216.12,765.33C216.12,765.33 239.61,755 237.21,765.76Z" style="fill-opacity:0.1;fill-rule:nonzero;"/>
        </g>
        <g transform="matrix(1,0,0,1,-92.22,-58.23)">
            <path d="M278.88,542.05L278.63,546.79L276.49,586.64C276.49,586.64 274.77,595.56 275.49,612.7C276.21,629.84 265.85,657 265.85,657C265.85,657 260.85,675.35 259.33,683.75C257.81,692.15 252.99,694.75 252.99,694.75C252.99,694.75 254.19,704.18 250.76,707.44C247.33,710.7 247.16,716.18 247.16,716.18C247.16,716.18 241.84,745.68 240.16,748.6C238.48,751.52 238.61,766.95 238.61,766.95C227.47,780.15 211.18,768.15 211.18,768.15L211.35,726.82C211.35,726.82 215.98,688.75 219.41,683.43C222.84,678.11 222.84,663.54 222.84,663.54L221.31,629.54C221.31,629.54 220.09,625.94 221.14,623.88C222.19,621.82 218.21,616.17 218.21,616.17C208.6,604.5 207.21,578.26 210.02,573.17C212.83,568.08 221.14,547.45 221.14,547.45L232.61,540.76L253.34,541.37L278.88,542.05Z" style="fill:rgb(94,90,107);fill-rule:nonzero;"/>
        </g>
        <g transform="matrix(1,0,0,1,-92.22,-58.23)">
            <path d="M230.1,744.15C230.1,744.15 232.81,753.54 234.99,754.57C237.17,755.6 230.1,744.15 230.1,744.15Z" style="fill-opacity:0.1;fill-rule:nonzero;"/>
        </g>
        <g transform="matrix(1,0,0,1,-92.22,-58.23)">
            <path d="M233.83,712.9C233.83,712.9 240.83,718.44 243.83,718.43C246.83,718.42 233.83,712.9 233.83,712.9Z" style="fill-opacity:0.1;fill-rule:nonzero;"/>
        </g>
        <g transform="matrix(1,0,0,1,-92.22,-58.23)">
            <path d="M276.14,480.74L276.14,492.06L268.67,488.84L261.22,485.63L245,469.68C245,469.68 232.17,461.35 225.31,453.76C221.39,449.43 219.42,445.34 222.87,443.18C224.542,442.085 226.053,440.762 227.36,439.25C230.808,435.186 233.805,430.76 236.3,426.05C236.41,425.86 236.52,425.67 236.62,425.48C239.96,419.35 242.17,414.12 242.17,414.12C242.17,414.12 251.57,417.12 257.61,421.4C258.1,421.74 258.56,422.09 259,422.45C262.37,425.21 264.05,428.45 260.94,431.61C260.141,432.436 259.403,433.318 258.73,434.25C258.228,434.942 257.767,435.663 257.35,436.41C257.17,436.75 256.99,437.08 256.83,437.41C254.749,441.666 254.03,446.461 254.77,451.14L276.14,480.74Z" style="fill:rgb(236,180,182);fill-rule:nonzero;"/>
        </g>
        <g transform="matrix(1,0,0,1,-92.22,-58.23)">
            <path d="M274.77,400C275.16,400.68 275.7,401.26 276.06,401.95C276.666,403.473 276.863,405.128 276.63,406.75C276.435,409.314 276.603,411.893 277.13,414.41C277.66,416.67 278.65,418.85 278.73,421.17C278.84,424.44 277.14,427.47 275.5,430.3C277.3,430.245 279,429.453 280.2,428.11C280.641,429.574 280.317,431.165 279.34,432.34C282.03,432.21 284.34,430.09 285.34,427.61C286.252,425.048 286.517,422.299 286.11,419.61C285.718,416.945 285.524,414.254 285.53,411.56C285.716,410.104 285.793,408.637 285.76,407.17C285.51,404.26 283.76,401.73 282,399.37L278.52,394.59C278.278,394.199 277.932,393.884 277.52,393.68C274.23,392.28 273.85,398.34 274.77,400Z" style="fill:rgb(70,67,83);fill-rule:nonzero;"/>
        </g>
        <g transform="matrix(1,0,0,1,-92.22,-58.23)">
            <path d="M261,431.61C260.201,432.436 259.463,433.318 258.79,434.25C258.288,434.942 257.827,435.663 257.41,436.41C257.23,436.75 257.05,437.08 256.89,437.41C248.868,436.96 241.452,432.953 236.68,426.49C236.57,426.34 236.46,426.19 236.36,426.03C236.47,425.84 236.58,425.65 236.68,425.46C240.02,419.33 242.23,414.1 242.23,414.1C242.23,414.1 251.63,417.1 257.67,421.38C258.16,421.72 258.62,422.07 259.06,422.43C262.39,425.21 264.07,428.41 261,431.61Z" style="fill-opacity:0.1;fill-rule:nonzero;"/>
        </g>
        <g transform="matrix(1,0,0,1,-92.22,-58.23)">
            <path d="M285.38,409.44C285.383,422.416 276.031,433.65 263.27,436C261.653,436.294 260.013,436.441 258.37,436.44L258.25,436.44C257.96,436.44 257.66,436.44 257.37,436.44C242.945,435.905 231.37,423.893 231.37,409.459C231.37,394.647 243.558,382.459 258.37,382.459C273.175,382.459 285.36,394.635 285.37,409.44L285.38,409.44Z" style="fill:rgb(236,180,182);fill-rule:nonzero;"/>
        </g>
        <g transform="matrix(1,0,0,1,-92.22,-58.23)">
            <path d="M261.91,476.2C261.91,476.2 275.51,483.87 272.03,477.4L254.28,451.16L274.43,477.05C274.43,477.05 287.29,494.72 280.26,506.89C280.26,506.89 279.26,517.01 280.43,519.41C281.6,521.81 280.09,547.41 280.09,547.41C280.09,547.41 275.28,542.95 272.71,543.8C270.14,544.65 252,546.17 252,546.17L261.91,476.2Z" style="fill-opacity:0.1;fill-rule:nonzero;"/>
        </g>
        <g transform="matrix(1,0,0,1,-92.22,-58.23)">
            <path d="M278.88,542.05L278.63,546.79C277,545.61 274.73,544.29 273.22,544.79C270.65,545.65 252.48,547.2 252.48,547.2L253.31,541.29L278.88,542.05Z" style="fill-opacity:0.1;fill-rule:nonzero;"/>
        </g>
        <g transform="matrix(1,0,0,1,-92.22,-58.23)">
            <path d="M262.42,476.2C262.42,476.2 276.03,483.87 272.54,477.4L254.79,451.16L274.94,477.05C274.94,477.05 287.8,494.72 280.77,506.89C280.77,506.89 279.77,517.01 280.94,519.41C282.11,521.81 280.6,547.41 280.6,547.41C280.6,547.41 275.8,542.95 273.23,543.8C270.66,544.65 252.48,546.21 252.48,546.21L262.42,476.2Z" style="fill:rgb(70,67,83);fill-rule:nonzero;"/>
        </g>
        <g transform="matrix(1,0,0,1,-92.22,-58.23)">
            <path d="M269.69,489.35C268.9,497.6 265.51,507.41 265.51,507.41C265.51,507.41 263.11,531.76 260,539C256.89,546.24 258.28,556.15 256.57,574.5C255.95,581.11 253.82,585.65 250.95,588.71C246.23,593.71 239.49,594.8 234.17,594.49L232.91,594.39C224.33,593.54 216.1,552.21 216.1,552.21C216.1,552.21 212.16,517.05 213.7,512.21C215.24,507.37 212.18,480 211.15,474C210.49,470.19 212.46,464 213.98,459.94C214.87,457.6 215.6,455.94 215.6,455.94C215.6,455.94 218.52,446.68 223.32,441.88C224.657,440.508 226.494,439.735 228.41,439.74C230.666,439.832 232.858,440.522 234.76,441.74C234.837,441.784 234.911,441.835 234.98,441.89C235.049,441.945 266.2,473.79 269.11,481.16C269.92,483.23 270,486.17 269.69,489.35Z" style="fill-opacity:0.1;fill-rule:nonzero;"/>
        </g>
        <g transform="matrix(1,0,0,1,-92.22,-58.23)">
            <path d="M268.67,488.84C267.87,497.08 264.48,506.89 264.48,506.89C264.48,506.89 262.08,531.25 258.99,538.45C255.9,545.65 257.28,555.6 255.56,573.95C254.94,580.55 252.81,585.09 249.94,588.16C245.22,593.16 238.48,594.24 233.16,593.94L231.9,593.84C223.32,592.98 215.09,551.65 215.09,551.65C215.09,551.65 211.15,516.5 212.69,511.7C214.23,506.9 211.15,479.46 210.12,473.45C209.46,469.65 211.43,463.45 212.95,459.39C213.84,457.05 214.57,455.44 214.57,455.44C214.57,455.44 217.49,446.18 222.29,441.38C223.623,440.004 225.464,439.233 227.38,439.25C229.638,439.331 231.833,440.023 233.73,441.25L233.95,441.39C233.95,441.39 265.17,473.29 268.08,480.66C268.89,482.71 269,485.66 268.67,488.84Z" style="fill:rgb(255,116,142);fill-rule:nonzero;"/>
        </g>
        <g transform="matrix(1,0,0,1,-92.22,-58.23)">
            <path d="M233.7,614.38C233.7,614.38 226.62,620.68 224.18,620.38C221.74,620.08 233.7,614.38 233.7,614.38Z" style="fill-opacity:0.1;fill-rule:nonzero;"/>
        </g>
        <g transform="matrix(1,0,0,1,-92.22,-58.23)">
            <path d="M235.58,620.43C235.58,620.43 228.12,623.89 225.89,624.43C223.66,624.97 232.7,619.54 235.58,620.43Z" style="fill-opacity:0.1;fill-rule:nonzero;"/>
        </g>
        <g transform="matrix(1,0,0,1,-92.22,-58.23)">
            <path d="M264.44,525.76C264.44,525.76 275.5,525.89 277.17,529.36C278.84,532.83 268,524.34 264.44,525.76Z" style="fill-opacity:0.1;fill-rule:nonzero;"/>
        </g>
        <g transform="matrix(1,0,0,1,-92.22,-58.23)">
            <path d="M262.89,531.8C262.89,531.8 271.38,533.6 273.95,535.66C276.52,537.72 262.89,531.8 262.89,531.8Z" style="fill-opacity:0.1;fill-rule:nonzero;"/>
        </g>
        <g transform="matrix(1,0,0,1,-92.22,-58.23)">
            <path d="M248.62,510.84C248.62,510.84 247.62,545.69 243.8,550.2C239.98,554.71 248.62,510.84 248.62,510.84Z" style="fill-opacity:0.1;fill-rule:nonzero;"/>
        </g>
        <g transform="matrix(1,0,0,1,-92.22,-58.23)">
            <path d="M239.1,609.36C239.1,609.36 232,640.1 246.24,642C260.48,643.9 256.08,607 256.08,607L239.1,609.36Z" style="fill-opacity:0.1;fill-rule:nonzero;"/>
        </g>
        <g transform="matrix(1,0,0,1,-92.22,-58.23)">
            <path d="M238.58,608.85C238.58,608.85 231.52,639.59 245.73,641.51C259.94,643.43 255.56,606.51 255.56,606.51L238.58,608.85Z" style="fill:rgb(236,180,182);fill-rule:nonzero;"/>
        </g>
        <g transform="matrix(1,0,0,1,-92.22,-58.23)">
            <path d="M285.21,406.46C284.814,405.872 284.479,405.246 284.21,404.59C282.32,400.65 277.46,402.59 273.9,404.46L272,406.91C271.133,407.927 270.403,409.053 269.83,410.26C269.465,411.24 269.161,412.242 268.92,413.26C268.43,415 267.71,416.66 267.06,418.36C264.904,424.012 263.626,429.961 263.27,436C261.653,436.294 260.013,436.441 258.37,436.44L258.25,436.44L258.25,436.32C258.43,435.64 258.58,434.95 258.72,434.26C259.464,430.369 259.556,426.381 258.99,422.46C258.99,422.37 258.99,422.29 258.99,422.2C258.86,421.33 258.69,420.45 258.62,419.58C258.29,420.18 257.97,420.79 257.62,421.41C255.47,425.41 253.21,429.41 249.15,431.16C247.502,431.807 245.766,432.198 244,432.32C241.82,432.436 239.66,432.795 237.56,433.39C236.844,433.586 236.196,433.977 235.69,434.52C235.125,435.356 234.8,436.332 234.75,437.34C234.533,438.67 234.199,439.979 233.75,441.25C231.914,445.995 229.044,450.272 225.35,453.77L224.42,454.67C222.836,456.304 220.947,457.612 218.86,458.52C216.964,459.158 214.97,459.456 212.97,459.4C213.86,457.06 214.59,455.45 214.59,455.45C214.59,455.45 217.51,446.19 222.31,441.39C223.643,440.014 225.484,439.243 227.4,439.26C230.983,435.024 234.088,430.406 236.66,425.49C233.241,420.85 231.395,415.235 231.395,409.472C231.395,394.66 243.583,382.472 258.395,382.472C272.085,382.472 283.718,392.884 285.23,406.49L285.21,406.46Z" style="fill-opacity:0.1;fill-rule:nonzero;"/>
        </g>
        <g transform="matrix(1,0,0,1,-92.22,-58.23)">
            <path d="M286.93,385.39C285.33,383.61 283.08,382.57 280.93,381.54C280.165,381.25 279.491,380.759 278.98,380.12C278.607,379.356 278.402,378.52 278.38,377.67C277.63,372.45 272.77,368.84 267.94,366.72C261.72,363.99 254.25,362.82 248.28,366.06C245.38,367.64 243.09,370.11 240.47,372.12C237.15,374.66 233.33,376.44 229.79,378.66C226.25,380.88 222.87,383.66 221.19,387.52C218.59,393.42 220.54,400.19 220.87,406.63C221.38,416.79 217.25,427.4 209.05,433.41C208.062,434.015 207.183,434.783 206.45,435.68C205.718,436.607 205.634,437.896 206.24,438.91C206.65,439.47 207.33,439.79 207.78,440.31C208.72,441.38 208.53,443.01 208.16,444.39C206.976,448.848 204.604,452.902 201.3,456.12C201.44,457.18 202.72,457.59 203.77,457.75C206.547,458.163 209.352,458.367 212.16,458.36C216.594,458.723 220.948,456.968 223.89,453.63C228.89,448.93 233.12,443.06 234.25,436.3C234.309,435.294 234.633,434.32 235.19,433.48C235.704,432.946 236.349,432.556 237.06,432.35C240.79,431.07 245.06,431.7 248.65,430.12C253.33,428.12 255.65,423.12 258.1,418.54C258.18,419.41 258.34,420.29 258.48,421.17C259.194,425.876 258.956,430.678 257.78,435.29C257.11,437.9 256.14,440.5 256.21,443.19C256.26,445.19 258.29,455.64 260.96,452.51C263.63,449.38 262.65,442.46 262.65,438.58C262.653,431.316 263.985,424.114 266.58,417.33C267.22,415.64 267.95,413.97 268.44,412.23C268.682,411.214 268.983,410.212 269.34,409.23C269.921,408.025 270.653,406.899 271.52,405.88L273.43,403.43C276.99,401.54 281.85,399.62 283.74,403.56C284.46,405.07 284.85,406.74 286.74,405.27C287.85,404.4 288.21,402.69 288.5,401.39C289.69,395.94 290.67,389.53 286.93,385.39Z" style="fill:rgb(70,67,83);fill-rule:nonzero;"/>
        </g>
        <g transform="matrix(1,0,0,1,-92.22,-58.23)">
            <path d="M250.74,479.8C250.01,461.33 224.16,457.51 218.13,474.98C218.081,475.097 218.041,475.217 218.01,475.34C214.06,487.17 215.78,517.13 215.78,517.13C215.78,517.13 216.29,537.25 218.18,543.94C220.07,550.63 225.38,569.83 225.38,572.94C225.38,576.05 230.31,587.86 232.38,588.72C234.45,589.58 235.5,596.26 236.01,597.46C236.52,598.66 238.01,614.27 238.01,614.27C238.01,614.27 257.39,613.07 257.73,609.98C258.07,606.89 253.44,591.8 253.44,591.8C253.44,591.8 250.03,585.63 249.59,580.66C249.15,575.69 246.47,573.43 247,570C247.53,566.57 245.45,564.86 245.45,562.63C245.45,560.4 243.91,554.4 243.91,554.4C243.91,554.4 240.65,551.82 241.17,548.74C241.69,545.66 236.54,539.48 237.91,537.25C239.28,535.02 239.62,529.53 239.62,529.53C239.62,529.53 241.34,504.84 242.54,498.15C243.74,491.46 250.77,480.66 250.77,480.66C250.77,480.66 250.76,480.35 250.74,479.8Z" style="fill-opacity:0.1;fill-rule:nonzero;"/>
        </g>
        <g transform="matrix(1,0,0,1,-92.22,-58.23)">
            <path d="M249.94,588.16C245.22,593.16 238.48,594.24 233.16,593.94C232.54,591.6 231.64,588.72 230.33,588.18C228.25,587.32 223.33,575.49 223.33,572.41C223.33,569.33 218.02,550.11 216.13,543.41C214.24,536.71 213.73,516.61 213.73,516.61C213.73,516.61 212.01,486.61 215.96,474.81C215.96,474.7 216.03,474.58 216.08,474.46C222.08,456.98 247.96,460.81 248.69,479.28C248.69,479.83 248.69,480.13 248.69,480.13C248.69,480.13 241.69,490.93 240.46,497.62C239.23,504.31 237.56,529 237.56,529C237.56,529 237.21,534.49 235.84,536.72C234.47,538.95 239.61,545.13 239.1,548.21C238.59,551.29 241.84,553.87 241.84,553.87C241.84,553.87 243.38,559.87 243.38,562.11C243.38,564.35 245.44,566.05 244.93,569.48C244.42,572.91 247.16,575.14 247.6,580.11C247.967,582.896 248.756,585.611 249.94,588.16Z" style="fill-opacity:0.1;fill-rule:nonzero;"/>
        </g>
        <g transform="matrix(1,0,0,1,-92.22,-58.23)">
            <path d="M249.71,479.29C248.98,460.82 223.13,457 217.1,474.47L216.98,474.82C213.03,486.66 214.75,516.62 214.75,516.62C214.75,516.62 215.26,536.73 217.15,543.42C219.04,550.11 224.35,569.32 224.35,572.42C224.35,575.52 229.28,587.34 231.35,588.2C233.42,589.06 234.47,595.75 234.98,596.95C235.49,598.15 236.98,613.75 236.98,613.75C236.98,613.75 256.36,612.55 256.7,609.47C257.04,606.39 252.42,591.29 252.42,591.29C252.42,591.29 249,585.11 248.56,580.14C248.12,575.17 245.38,572.94 245.9,569.51C246.42,566.08 244.35,564.36 244.35,562.13C244.35,559.9 242.81,553.9 242.81,553.9C242.81,553.9 239.55,551.33 240.07,548.24C240.59,545.15 235.44,538.98 236.81,536.75C238.18,534.52 238.52,529.04 238.52,529.04C238.52,529.04 240.24,504.34 241.44,497.65C242.64,490.96 249.67,480.16 249.67,480.16C249.67,480.16 249.73,479.84 249.71,479.29Z" style="fill:rgb(255,116,142);fill-rule:nonzero;"/>
        </g>
        <g transform="matrix(1,0,0,1,-92.22,-58.23)">
            <path d="M217.88,526.79C218.39,526.27 228.17,515.47 231.25,519.33C234.33,523.19 217.88,526.79 217.88,526.79Z" style="fill-opacity:0.1;fill-rule:nonzero;"/>
        </g>
        <g transform="matrix(1,0,0,1,-92.22,-58.23)">
            <path d="M218.78,535.15C219.16,534.76 228.55,534.38 230.87,529.15C233.19,523.92 218.78,535.15 218.78,535.15Z" style="fill-opacity:0.1;fill-rule:nonzero;"/>
        </g>
        <g transform="matrix(1,0,0,1,-92.22,-58.23)">
            <path d="M208.08,440.31C208.311,440.582 208.484,440.899 208.59,441.24C208.973,440.058 208.784,438.763 208.08,437.74C207.62,437.21 206.95,436.9 206.53,436.34C206.53,436.34 206.48,436.25 206.45,436.2C205.978,437.048 206.009,438.091 206.53,438.91C207,439.47 207.62,439.79 208.08,440.31Z" style="fill-rule:nonzero;"/>
        </g>
        <g transform="matrix(1,0,0,1,-92.22,-58.23)">
            <path d="M221.17,407C221.17,406 221.17,405 221.17,404.08C220.99,400.58 220.34,396.99 220.17,393.48C219.96,397.78 220.92,402.29 221.17,406.65C221.17,406.75 221.16,406.86 221.17,407Z" style="fill-rule:nonzero;"/>
        </g>
        <g transform="matrix(1,0,0,1,-92.22,-58.23)">
            <path d="M261.25,449.94C258.87,452.73 257,444.7 256.59,441.53C256.525,442.081 256.495,442.635 256.5,443.19C256.56,445.19 258.58,455.64 261.25,452.51C263.06,450.39 263.25,446.78 263.13,443.45C263,446 262.6,448.36 261.25,449.94Z" style="fill-rule:nonzero;"/>
        </g>
        <g transform="matrix(1,0,0,1,-92.22,-58.23)">
            <path d="M258.77,421.17C258.973,422.515 259.097,423.871 259.14,425.23C259.227,423.01 259.103,420.787 258.77,418.59C258.64,417.72 258.47,416.84 258.39,415.96C255.92,420.58 253.63,425.52 248.95,427.55C245.32,429.12 241.09,428.5 237.36,429.78C236.644,429.976 235.996,430.367 235.49,430.91C234.927,431.748 234.603,432.722 234.55,433.73C233.41,440.49 229.17,446.36 224.18,451.06C221.238,454.398 216.884,456.153 212.45,455.79C209.646,455.792 206.845,455.588 204.07,455.18C203.64,455.114 203.218,455.003 202.81,454.85C202.42,455.29 202.01,455.71 201.59,456.12C201.73,457.18 203.02,457.59 204.07,457.75C206.844,458.163 209.645,458.367 212.45,458.36C216.884,458.723 221.238,456.968 224.18,453.63C229.18,448.93 233.41,443.06 234.55,436.3C234.604,435.293 234.929,434.318 235.49,433.48C236,432.942 236.646,432.551 237.36,432.35C241.09,431.07 245.36,431.7 248.95,430.12C253.63,428.12 255.95,423.12 258.39,418.54C258.47,419.41 258.64,420.29 258.77,421.17Z" style="fill-rule:nonzero;"/>
        </g>
        <g transform="matrix(1,0,0,1,-92.22,-58.23)">
            <path d="M288.79,398.82C288.5,400.12 288.13,401.82 287.02,402.7C285.14,404.16 284.76,402.5 284.02,400.99C282.13,397.05 277.27,398.99 273.71,400.86L271.8,403.31C270.933,404.327 270.203,405.453 269.63,406.66C269.264,407.639 268.963,408.641 268.73,409.66C268.23,411.4 267.51,413.06 266.86,414.75C264.275,421.537 262.947,428.738 262.94,436C262.94,436.33 262.94,436.69 262.94,437.06C263.118,430.31 264.44,423.638 266.85,417.33C267.5,415.64 268.22,413.97 268.72,412.23C268.953,411.211 269.254,410.209 269.62,409.23C270.193,408.023 270.923,406.897 271.79,405.88L273.7,403.43C277.26,401.54 282.12,399.62 284.01,403.56C284.74,405.07 285.12,406.74 287.01,405.27C288.12,404.4 288.49,402.69 288.78,401.39C289.534,398.377 289.87,395.275 289.78,392.17C289.62,394.409 289.289,396.632 288.79,398.82Z" style="fill-rule:nonzero;"/>
        </g>
        <g transform="matrix(1,0,0,1,-92.22,-58.23)">
            <path d="M312.18,496.18L312.71,496.54C312.119,496.147 311.764,495.484 311.764,494.774C311.764,494.332 311.902,493.9 312.16,493.54L336,459C336.393,458.425 337.046,458.08 337.742,458.08C338.174,458.08 338.596,458.213 338.95,458.46L338.42,458.09C339.958,459.152 340.35,461.291 339.29,462.83L316.92,495.3C315.858,496.836 313.723,497.233 312.18,496.18Z" style="fill:rgb(70,67,83);fill-rule:nonzero;"/>
        </g>
        <g transform="matrix(0.823533,0.567269,-0.567269,0.823533,235.71,-158.44)">
            <path d="M325.63,453.79L326.12,453.79L326.12,500.05L325.63,500.05C324.675,500.05 323.89,499.265 323.89,498.31L323.89,455.54C323.89,454.585 324.675,453.8 325.63,453.8L325.63,453.79Z" style="fill:rgb(159,158,255);fill-rule:nonzero;"/>
        </g>
        <g transform="matrix(0.823533,0.567269,-0.567269,0.823533,230.62,-165.99)">
            <path d="M334.8,463.295C334.8,463.176 334.704,463.08 334.585,463.08C334.466,463.08 334.37,463.176 334.37,463.295L334.37,466.635C334.37,466.754 334.466,466.85 334.585,466.85C334.704,466.85 334.8,466.754 334.8,466.635L334.8,463.295Z" style="fill:rgb(70,67,83);"/>
        </g>
    </g>
    <g transform="matrix(0.613542,0,0,0.613542,62.1726,320.962)">
        <path d="M136,489.26C131.618,486.118 125.528,486.684 121.8,490.58C117.75,494.99 117.947,501.917 122.24,506.09L135.82,519.59C136.244,520.018 136.822,520.259 137.425,520.259C138.028,520.259 138.606,520.018 139.03,519.59L152.57,506C156.84,501.805 157.001,494.878 152.93,490.49C149.17,486.624 143.082,486.094 138.71,489.25C137.909,489.846 136.805,489.85 136,489.26Z" style="fill:rgb(119,221,119);fill-rule:nonzero;"/>
    </g>
    <defs>
        <linearGradient id="_Linear1" x1="0" y1="0" x2="1" y2="0" gradientUnits="userSpaceOnUse" gradientTransform="matrix(2.72172e-14,-444.49,444.49,2.72172e-14,874.32,843.37)"><stop offset="0" style="stop-color:rgb(128,128,128);stop-opacity:0.247059"/><stop offset="0.54" style="stop-color:rgb(128,128,128);stop-opacity:0.117647"/><stop offset="1" style="stop-color:rgb(128,128,128);stop-opacity:0.0980392"/></linearGradient>
        <linearGradient id="_Linear2" x1="0" y1="0" x2="1" y2="0" gradientUnits="userSpaceOnUse" gradientTransform="matrix(2.81246e-14,-459.31,459.31,2.81246e-14,237.19,818.89)"><stop offset="0" style="stop-color:rgb(128,128,128);stop-opacity:0.247059"/><stop offset="0.54" style="stop-color:rgb(128,128,128);stop-opacity:0.117647"/><stop offset="1" style="stop-color:rgb(128,128,128);stop-opacity:0.0980392"/></linearGradient>
    </defs>
</svg>
