<?xml version="1.0" encoding="UTF-8" standalone="no"?>
<!DOCTYPE svg PUBLIC "-//W3C//DTD SVG 1.1//EN" "http://www.w3.org/Graphics/SVG/1.1/DTD/svg11.dtd">
<svg width="100%" height="100%" viewBox="0 0 1080 1920" version="1.1" xmlns="http://www.w3.org/2000/svg" xmlns:xlink="http://www.w3.org/1999/xlink" xml:space="preserve" xmlns:serif="http://www.serif.com/" style="fill-rule:evenodd;clip-rule:evenodd;stroke-linejoin:round;stroke-miterlimit:1.41421;">
    <g transform="matrix(1.11284,0,0,1.16109,9.66094,13.9499)">
        <rect x="25.125" y="83.382" width="902.875" height="1500.62" style="fill:white;"/>
    </g>
    <path d="M1005.17,41C1033.74,41 1056.94,64.195 1056.94,92.764L1056.94,1827.24C1056.94,1855.81 1033.74,1879 1005.17,1879L74.826,1879C46.257,1879 23.063,1855.81 23.063,1827.24L23.063,92.764C23.063,64.195 46.257,41 74.826,41L1005.17,41ZM992.073,110.764L87.927,110.764C60.162,110.764 37.621,133.306 37.621,161.07L37.621,1802.81C37.621,1830.58 60.163,1853.12 87.927,1853.12L992.073,1853.12C1019.84,1853.12 1042.38,1830.58 1042.38,1802.81L1042.38,161.07C1042.38,133.306 1019.84,110.764 992.073,110.764Z"/>
    <g transform="matrix(1,0,0,1,2.0625,35)">
        <path d="M23.063,193.016C23.063,191.351 21.711,190 20.047,190L14.016,190C12.351,190 11,191.351 11,193.016L11,287.984C11,289.649 12.351,291 14.016,291L20.047,291C21.711,291 23.063,289.649 23.063,287.984L23.063,193.016Z"/>
    </g>
    <g transform="matrix(1,0,0,1,2.0625,166)">
        <path d="M23.063,193.016C23.063,191.351 21.711,190 20.047,190L14.016,190C12.351,190 11,191.351 11,193.016L11,287.984C11,289.649 12.351,291 14.016,291L20.047,291C21.711,291 23.063,289.649 23.063,287.984L23.063,193.016Z"/>
    </g>
    <g transform="matrix(1,0,0,1,201.137,0)">
        <g transform="matrix(1,0,0,1,2.72658,2.88197)">
            <circle cx="240" cy="73" r="16" style="fill:rgb(36,36,36);"/>
        </g>
        <g transform="matrix(1.83441,0,0,1,-174.533,0.381971)">
            <path d="M341,71.75C341,69.68 340.084,68 338.956,68L244.771,68C243.643,68 242.727,69.68 242.727,71.75L242.727,79.25C242.727,81.32 243.643,83 244.771,83L338.956,83C340.084,83 341,81.32 341,79.25L341,71.75Z" style="fill:rgb(36,36,36);"/>
        </g>
    </g>
    <g transform="matrix(1,0,0,1,1043.88,38.0156)">
        <path d="M23.063,193.016C23.063,191.351 21.711,190 20.047,190L14.016,190C12.351,190 11,191.351 11,193.016L11,287.984C11,289.649 12.351,291 14.016,291L20.047,291C21.711,291 23.063,289.649 23.063,287.984L23.063,193.016Z"/>
    </g>
</svg>
