<?xml version="1.0" encoding="UTF-8" standalone="no"?>
<!DOCTYPE svg PUBLIC "-//W3C//DTD SVG 1.1//EN" "http://www.w3.org/Graphics/SVG/1.1/DTD/svg11.dtd">
<svg width="100%" height="100%" viewBox="0 0 1050 1050" version="1.1" xmlns="http://www.w3.org/2000/svg" xmlns:xlink="http://www.w3.org/1999/xlink" xml:space="preserve" xmlns:serif="http://www.serif.com/" style="fill-rule:evenodd;clip-rule:evenodd;stroke-linejoin:round;stroke-miterlimit:1.41421;">
    <g transform="matrix(1.41319,0,0,1.41319,-112.349,-148.385)">
        <path d="M525,142C525,121.579 508.421,105 488,105L414,105C393.579,105 377,121.579 377,142L377,811C377,831.421 393.579,848 414,848L488,848C508.421,848 525,831.421 525,811L525,142Z"/>
    </g>
    <g transform="matrix(8.65329e-17,1.41319,-1.41319,8.65329e-17,1198.38,-112.349)">
        <path d="M525,142C525,121.579 508.421,105 488,105L414,105C393.579,105 377,121.579 377,142L377,811C377,831.421 393.579,848 414,848L488,848C508.421,848 525,831.421 525,811L525,142Z"/>
    </g>
</svg>
