<?xml version="1.0" encoding="UTF-8" standalone="no"?>
<!DOCTYPE svg PUBLIC "-//W3C//DTD SVG 1.1//EN" "http://www.w3.org/Graphics/SVG/1.1/DTD/svg11.dtd">
<svg width="100%" height="100%" viewBox="0 0 800 800" version="1.1" xmlns="http://www.w3.org/2000/svg" xmlns:xlink="http://www.w3.org/1999/xlink" xml:space="preserve" xmlns:serif="http://www.serif.com/" style="fill-rule:evenodd;clip-rule:evenodd;stroke-linejoin:round;stroke-miterlimit:1.41421;">
    <g transform="matrix(1,0,0,1,0,-153.931)">
        <g transform="matrix(0.520335,0,0,0.520335,-110.033,391.866)">
            <clipPath id="_clip1">
                <rect x="211.467" y="0" width="1537.47" height="400"/>
            </clipPath>
            <g clip-path="url(#_clip1)">
                <g>
                    <g transform="matrix(0.8884,0.45907,-0.45907,0.8884,-13.7954,-182.25)">
                        <rect x="360" y="73" width="55" height="55" style="fill:white;fill-opacity:0.301961;"/>
                    </g>
                    <g transform="matrix(0.688545,-0.237097,0.237097,0.688545,716.735,371.46)">
                        <rect x="360" y="73" width="55" height="55" style="fill:white;fill-opacity:0.301961;"/>
                    </g>
                    <g transform="matrix(1,0,0,1,-127.6,75.9415)">
                        <circle cx="570.5" cy="89.5" r="14.5" style="fill:white;fill-opacity:0.301961;"/>
                    </g>
                    <g transform="matrix(1,0,0,1,56.827,-53.184)">
                        <circle cx="962.459" cy="290.871" r="19.459" style="fill:white;fill-opacity:0.301961;"/>
                    </g>
                    <path d="M899.693,84.923C899.693,79.447 895.247,75 889.77,75L869.923,75C864.447,75 860,79.447 860,84.923L860,104.77C860,110.247 864.447,114.693 869.923,114.693L889.77,114.693C895.247,114.693 899.693,110.247 899.693,104.77L899.693,84.923Z" style="fill:white;fill-opacity:0.301961;"/>
                    <g transform="matrix(0.393189,0.919458,-0.919458,0.393189,326.98,-88.4489)">
                        <path d="M245,196.25C245,192.249 241.751,189 237.75,189L223.25,189C219.249,189 216,192.249 216,196.25L216,210.75C216,214.751 219.249,218 223.25,218L237.75,218C241.751,218 245,214.751 245,210.75L245,196.25Z" style="fill:white;fill-opacity:0.301961;"/>
                    </g>
                </g>
                <g transform="matrix(-0.347652,-0.937623,0.937623,-0.347652,652.291,881.765)">
                    <g transform="matrix(0.8884,0.45907,-0.45907,0.8884,63.3814,-140.674)">
                        <rect x="360" y="73" width="55" height="55" style="fill:white;fill-opacity:0.301961;"/>
                    </g>
                    <g transform="matrix(-0.677793,-0.0298216,0.0298216,-0.677793,1019.25,270.295)">
                        <rect x="360" y="73" width="55" height="55" style="fill:white;fill-opacity:0.301961;"/>
                    </g>
                    <g transform="matrix(0.688545,-0.237097,0.237097,0.688545,813.916,319.543)">
                        <rect x="360" y="73" width="55" height="55" style="fill:white;fill-opacity:0.301961;"/>
                    </g>
                    <g transform="matrix(1,0,0,1,26.6436,9.1283)">
                        <circle cx="428.349" cy="267.073" r="29.794" style="fill:white;fill-opacity:0.301961;"/>
                    </g>
                    <circle cx="570.5" cy="89.5" r="14.5" style="fill:white;fill-opacity:0.301961;"/>
                    <circle cx="962.459" cy="290.871" r="19.459" style="fill:white;fill-opacity:0.301961;"/>
                    <path d="M899.693,84.923C899.693,79.447 895.247,75 889.77,75L869.923,75C864.447,75 860,79.447 860,84.923L860,104.77C860,110.247 864.447,114.693 869.923,114.693L889.77,114.693C895.247,114.693 899.693,110.247 899.693,104.77L899.693,84.923Z" style="fill:white;fill-opacity:0.301961;"/>
                    <g transform="matrix(0.738438,-0.674322,0.674322,0.738438,30.4307,477.574)">
                        <path d="M625.749,280.885C625.749,273.262 619.56,267.073 611.937,267.073L584.312,267.073C576.689,267.073 570.5,273.262 570.5,280.885L570.5,308.51C570.5,316.133 576.689,322.322 584.312,322.322L611.937,322.322C619.56,322.322 625.749,316.133 625.749,308.51L625.749,280.885Z" style="fill:white;fill-opacity:0.301961;"/>
                    </g>
                    <g transform="matrix(0.393189,0.919458,-0.919458,0.393189,326.98,-88.4489)">
                        <path d="M245,196.25C245,192.249 241.751,189 237.75,189L223.25,189C219.249,189 216,192.249 216,196.25L216,210.75C216,214.751 219.249,218 223.25,218L237.75,218C241.751,218 245,214.751 245,210.75L245,196.25Z" style="fill:white;fill-opacity:0.301961;"/>
                    </g>
                </g>
                <g transform="matrix(-0.758276,0.651934,-0.651934,-0.758276,1958.18,-288.869)">
                    <g transform="matrix(0.8884,0.45907,-0.45907,0.8884,63.3814,-140.674)">
                        <rect x="360" y="73" width="55" height="55" style="fill:white;fill-opacity:0.301961;"/>
                    </g>
                    <g transform="matrix(-0.677793,-0.0298216,0.0298216,-0.677793,1100.19,299.134)">
                        <rect x="360" y="73" width="55" height="55" style="fill:white;fill-opacity:0.301961;"/>
                    </g>
                    <circle cx="428.349" cy="267.073" r="29.794" style="fill:white;fill-opacity:0.301961;"/>
                    <circle cx="570.5" cy="89.5" r="14.5" style="fill:white;fill-opacity:0.301961;"/>
                    <g transform="matrix(0.738438,-0.674322,0.674322,0.738438,-42.2739,480.41)">
                        <path d="M625.749,280.885C625.749,273.262 619.56,267.073 611.937,267.073L584.312,267.073C576.689,267.073 570.5,273.262 570.5,280.885L570.5,308.51C570.5,316.133 576.689,322.322 584.312,322.322L611.937,322.322C619.56,322.322 625.749,316.133 625.749,308.51L625.749,280.885Z" style="fill:white;fill-opacity:0.301961;"/>
                    </g>
                    <g transform="matrix(0.393189,0.919458,-0.919458,0.393189,326.98,-88.4489)">
                        <path d="M245,196.25C245,192.249 241.751,189 237.75,189L223.25,189C219.249,189 216,192.249 216,196.25L216,210.75C216,214.751 219.249,218 223.25,218L237.75,218C241.751,218 245,214.751 245,210.75L245,196.25Z" style="fill:white;fill-opacity:0.301961;"/>
                    </g>
                </g>
                <g transform="matrix(-0.00648467,0.813365,-0.813365,-0.00648467,1715.32,-185.476)">
                    <g transform="matrix(0.8884,0.45907,-0.45907,0.8884,63.3814,-140.674)">
                        <rect x="360" y="73" width="55" height="55" style="fill:white;fill-opacity:0.301961;"/>
                    </g>
                    <g transform="matrix(-0.677793,-0.0298216,0.0298216,-0.677793,1100.19,299.134)">
                        <rect x="360" y="73" width="55" height="55" style="fill:white;fill-opacity:0.301961;"/>
                    </g>
                    <g transform="matrix(0.688545,-0.237097,0.237097,0.688545,813.916,319.543)">
                        <rect x="360" y="73" width="55" height="55" style="fill:white;fill-opacity:0.301961;"/>
                    </g>
                    <circle cx="428.349" cy="267.073" r="29.794" style="fill:white;fill-opacity:0.301961;"/>
                    <circle cx="570.5" cy="89.5" r="14.5" style="fill:white;fill-opacity:0.301961;"/>
                    <circle cx="962.459" cy="290.871" r="19.459" style="fill:white;fill-opacity:0.301961;"/>
                    <path d="M899.693,84.923C899.693,79.447 895.247,75 889.77,75L869.923,75C864.447,75 860,79.447 860,84.923L860,104.77C860,110.247 864.447,114.693 869.923,114.693L889.77,114.693C895.247,114.693 899.693,110.247 899.693,104.77L899.693,84.923Z" style="fill:white;fill-opacity:0.301961;"/>
                    <g transform="matrix(0.738438,-0.674322,0.674322,0.738438,-171.303,656.257)">
                        <path d="M625.749,280.885C625.749,273.262 619.56,267.073 611.937,267.073L584.312,267.073C576.689,267.073 570.5,273.262 570.5,280.885L570.5,308.51C570.5,316.133 576.689,322.322 584.312,322.322L611.937,322.322C619.56,322.322 625.749,316.133 625.749,308.51L625.749,280.885Z" style="fill:white;fill-opacity:0.301961;"/>
                    </g>
                    <g transform="matrix(0.393189,0.919458,-0.919458,0.393189,403.749,179.886)">
                        <path d="M245,196.25C245,192.249 241.751,189 237.75,189L223.25,189C219.249,189 216,192.249 216,196.25L216,210.75C216,214.751 219.249,218 223.25,218L237.75,218C241.751,218 245,214.751 245,210.75L245,196.25Z" style="fill:white;fill-opacity:0.301961;"/>
                    </g>
                </g>
            </g>
        </g>
        <g transform="matrix(-0.520335,-6.37226e-17,6.37226e-17,-0.520335,910.033,360.703)">
            <clipPath id="_clip2">
                <rect x="211.467" y="0" width="1537.47" height="400"/>
            </clipPath>
            <g clip-path="url(#_clip2)">
                <g>
                    <g transform="matrix(0.8884,0.45907,-0.45907,0.8884,-13.7954,-182.25)">
                        <rect x="360" y="73" width="55" height="55" style="fill:white;fill-opacity:0.301961;"/>
                    </g>
                    <g transform="matrix(0.688545,-0.237097,0.237097,0.688545,716.735,371.46)">
                        <rect x="360" y="73" width="55" height="55" style="fill:white;fill-opacity:0.301961;"/>
                    </g>
                    <g transform="matrix(1,0,0,1,-127.6,75.9415)">
                        <circle cx="570.5" cy="89.5" r="14.5" style="fill:white;fill-opacity:0.301961;"/>
                    </g>
                    <g transform="matrix(1,0,0,1,56.827,-53.184)">
                        <circle cx="962.459" cy="290.871" r="19.459" style="fill:white;fill-opacity:0.301961;"/>
                    </g>
                    <path d="M899.693,84.923C899.693,79.447 895.247,75 889.77,75L869.923,75C864.447,75 860,79.447 860,84.923L860,104.77C860,110.247 864.447,114.693 869.923,114.693L889.77,114.693C895.247,114.693 899.693,110.247 899.693,104.77L899.693,84.923Z" style="fill:white;fill-opacity:0.301961;"/>
                    <g transform="matrix(0.393189,0.919458,-0.919458,0.393189,326.98,-88.4489)">
                        <path d="M245,196.25C245,192.249 241.751,189 237.75,189L223.25,189C219.249,189 216,192.249 216,196.25L216,210.75C216,214.751 219.249,218 223.25,218L237.75,218C241.751,218 245,214.751 245,210.75L245,196.25Z" style="fill:white;fill-opacity:0.301961;"/>
                    </g>
                </g>
                <g transform="matrix(-0.347652,-0.937623,0.937623,-0.347652,652.291,881.765)">
                    <g transform="matrix(-0.677793,-0.0298216,0.0298216,-0.677793,1019.25,270.295)">
                        <rect x="360" y="73" width="55" height="55" style="fill:white;fill-opacity:0.301961;"/>
                    </g>
                    <g transform="matrix(0.688545,-0.237097,0.237097,0.688545,813.916,319.543)">
                        <rect x="360" y="73" width="55" height="55" style="fill:white;fill-opacity:0.301961;"/>
                    </g>
                    <g transform="matrix(1,0,0,1,26.6436,9.1283)">
                        <circle cx="428.349" cy="267.073" r="29.794" style="fill:white;fill-opacity:0.301961;"/>
                    </g>
                    <circle cx="570.5" cy="89.5" r="14.5" style="fill:white;fill-opacity:0.301961;"/>
                    <circle cx="962.459" cy="290.871" r="19.459" style="fill:white;fill-opacity:0.301961;"/>
                    <path d="M899.693,84.923C899.693,79.447 895.247,75 889.77,75L869.923,75C864.447,75 860,79.447 860,84.923L860,104.77C860,110.247 864.447,114.693 869.923,114.693L889.77,114.693C895.247,114.693 899.693,110.247 899.693,104.77L899.693,84.923Z" style="fill:white;fill-opacity:0.301961;"/>
                    <g transform="matrix(0.738438,-0.674322,0.674322,0.738438,30.4307,477.574)">
                        <path d="M625.749,280.885C625.749,273.262 619.56,267.073 611.937,267.073L584.312,267.073C576.689,267.073 570.5,273.262 570.5,280.885L570.5,308.51C570.5,316.133 576.689,322.322 584.312,322.322L611.937,322.322C619.56,322.322 625.749,316.133 625.749,308.51L625.749,280.885Z" style="fill:white;fill-opacity:0.301961;"/>
                    </g>
                </g>
                <g transform="matrix(-0.758276,0.651934,-0.651934,-0.758276,1958.18,-288.869)">
                    <g transform="matrix(0.8884,0.45907,-0.45907,0.8884,63.3814,-140.674)">
                        <rect x="360" y="73" width="55" height="55" style="fill:white;fill-opacity:0.301961;"/>
                    </g>
                    <g transform="matrix(-0.677793,-0.0298216,0.0298216,-0.677793,1100.19,299.134)">
                        <rect x="360" y="73" width="55" height="55" style="fill:white;fill-opacity:0.301961;"/>
                    </g>
                    <circle cx="428.349" cy="267.073" r="29.794" style="fill:white;fill-opacity:0.301961;"/>
                    <circle cx="570.5" cy="89.5" r="14.5" style="fill:white;fill-opacity:0.301961;"/>
                    <g transform="matrix(0.738438,-0.674322,0.674322,0.738438,-42.2739,480.41)">
                        <path d="M625.749,280.885C625.749,273.262 619.56,267.073 611.937,267.073L584.312,267.073C576.689,267.073 570.5,273.262 570.5,280.885L570.5,308.51C570.5,316.133 576.689,322.322 584.312,322.322L611.937,322.322C619.56,322.322 625.749,316.133 625.749,308.51L625.749,280.885Z" style="fill:white;fill-opacity:0.301961;"/>
                    </g>
                    <g transform="matrix(0.393189,0.919458,-0.919458,0.393189,326.98,-88.4489)">
                        <path d="M245,196.25C245,192.249 241.751,189 237.75,189L223.25,189C219.249,189 216,192.249 216,196.25L216,210.75C216,214.751 219.249,218 223.25,218L237.75,218C241.751,218 245,214.751 245,210.75L245,196.25Z" style="fill:white;fill-opacity:0.301961;"/>
                    </g>
                </g>
                <g transform="matrix(-0.00648467,0.813365,-0.813365,-0.00648467,1715.32,-185.476)">
                    <g transform="matrix(0.8884,0.45907,-0.45907,0.8884,63.3814,-140.674)">
                        <rect x="360" y="73" width="55" height="55" style="fill:white;fill-opacity:0.301961;"/>
                    </g>
                    <circle cx="428.349" cy="267.073" r="29.794" style="fill:white;fill-opacity:0.301961;"/>
                    <circle cx="570.5" cy="89.5" r="14.5" style="fill:white;fill-opacity:0.301961;"/>
                    <g transform="matrix(0.738438,-0.674322,0.674322,0.738438,-171.303,656.257)">
                        <path d="M625.749,280.885C625.749,273.262 619.56,267.073 611.937,267.073L584.312,267.073C576.689,267.073 570.5,273.262 570.5,280.885L570.5,308.51C570.5,316.133 576.689,322.322 584.312,322.322L611.937,322.322C619.56,322.322 625.749,316.133 625.749,308.51L625.749,280.885Z" style="fill:white;fill-opacity:0.301961;"/>
                    </g>
                    <g transform="matrix(0.393189,0.919458,-0.919458,0.393189,403.749,179.886)">
                        <path d="M245,196.25C245,192.249 241.751,189 237.75,189L223.25,189C219.249,189 216,192.249 216,196.25L216,210.75C216,214.751 219.249,218 223.25,218L237.75,218C241.751,218 245,214.751 245,210.75L245,196.25Z" style="fill:white;fill-opacity:0.301961;"/>
                    </g>
                </g>
            </g>
        </g>
    </g>
    <g transform="matrix(1,0,0,1,-30.462,215.047)">
        <clipPath id="_clip3">
            <rect x="30.462" y="152.57" width="800" height="447.43"/>
        </clipPath>
        <g clip-path="url(#_clip3)">
            <g transform="matrix(0.520335,0,0,0.520335,-110.033,391.866)">
                <clipPath id="_clip4">
                    <rect x="211.467" y="0" width="1537.47" height="400"/>
                </clipPath>
                <g clip-path="url(#_clip4)">
                    <g>
                        <g transform="matrix(0.8884,0.45907,-0.45907,0.8884,-13.7954,-182.25)">
                            <rect x="360" y="73" width="55" height="55" style="fill:white;fill-opacity:0.301961;"/>
                        </g>
                        <g transform="matrix(0.688545,-0.237097,0.237097,0.688545,716.735,371.46)">
                            <rect x="360" y="73" width="55" height="55" style="fill:white;fill-opacity:0.301961;"/>
                        </g>
                        <g transform="matrix(1,0,0,1,-127.6,75.9415)">
                            <circle cx="570.5" cy="89.5" r="14.5" style="fill:white;fill-opacity:0.301961;"/>
                        </g>
                        <g transform="matrix(1,0,0,1,56.827,-53.184)">
                            <circle cx="962.459" cy="290.871" r="19.459" style="fill:white;fill-opacity:0.301961;"/>
                        </g>
                        <path d="M899.693,84.923C899.693,79.447 895.247,75 889.77,75L869.923,75C864.447,75 860,79.447 860,84.923L860,104.77C860,110.247 864.447,114.693 869.923,114.693L889.77,114.693C895.247,114.693 899.693,110.247 899.693,104.77L899.693,84.923Z" style="fill:white;fill-opacity:0.301961;"/>
                    </g>
                    <g transform="matrix(-0.347652,-0.937623,0.937623,-0.347652,652.291,881.765)">
                        <g transform="matrix(-0.677793,-0.0298216,0.0298216,-0.677793,1019.25,270.295)">
                            <rect x="360" y="73" width="55" height="55" style="fill:white;fill-opacity:0.301961;"/>
                        </g>
                        <g transform="matrix(0.688545,-0.237097,0.237097,0.688545,813.916,319.543)">
                            <rect x="360" y="73" width="55" height="55" style="fill:white;fill-opacity:0.301961;"/>
                        </g>
                        <g transform="matrix(1,0,0,1,26.6436,9.1283)">
                            <circle cx="428.349" cy="267.073" r="29.794" style="fill:white;fill-opacity:0.301961;"/>
                        </g>
                        <circle cx="570.5" cy="89.5" r="14.5" style="fill:white;fill-opacity:0.301961;"/>
                        <circle cx="962.459" cy="290.871" r="19.459" style="fill:white;fill-opacity:0.301961;"/>
                        <path d="M899.693,84.923C899.693,79.447 895.247,75 889.77,75L869.923,75C864.447,75 860,79.447 860,84.923L860,104.77C860,110.247 864.447,114.693 869.923,114.693L889.77,114.693C895.247,114.693 899.693,110.247 899.693,104.77L899.693,84.923Z" style="fill:white;fill-opacity:0.301961;"/>
                        <g transform="matrix(0.738438,-0.674322,0.674322,0.738438,30.4307,477.574)">
                            <path d="M625.749,280.885C625.749,273.262 619.56,267.073 611.937,267.073L584.312,267.073C576.689,267.073 570.5,273.262 570.5,280.885L570.5,308.51C570.5,316.133 576.689,322.322 584.312,322.322L611.937,322.322C619.56,322.322 625.749,316.133 625.749,308.51L625.749,280.885Z" style="fill:white;fill-opacity:0.301961;"/>
                        </g>
                    </g>
                    <g transform="matrix(-0.758276,0.651934,-0.651934,-0.758276,1958.18,-288.869)">
                        <g transform="matrix(0.8884,0.45907,-0.45907,0.8884,63.3814,-140.674)">
                            <rect x="360" y="73" width="55" height="55" style="fill:white;fill-opacity:0.301961;"/>
                        </g>
                        <g transform="matrix(-0.677793,-0.0298216,0.0298216,-0.677793,1100.19,299.134)">
                            <rect x="360" y="73" width="55" height="55" style="fill:white;fill-opacity:0.301961;"/>
                        </g>
                        <circle cx="428.349" cy="267.073" r="29.794" style="fill:white;fill-opacity:0.301961;"/>
                        <circle cx="570.5" cy="89.5" r="14.5" style="fill:white;fill-opacity:0.301961;"/>
                        <g transform="matrix(0.738438,-0.674322,0.674322,0.738438,-42.2739,480.41)">
                            <path d="M625.749,280.885C625.749,273.262 619.56,267.073 611.937,267.073L584.312,267.073C576.689,267.073 570.5,273.262 570.5,280.885L570.5,308.51C570.5,316.133 576.689,322.322 584.312,322.322L611.937,322.322C619.56,322.322 625.749,316.133 625.749,308.51L625.749,280.885Z" style="fill:white;fill-opacity:0.301961;"/>
                        </g>
                        <g transform="matrix(0.393189,0.919458,-0.919458,0.393189,326.98,-88.4489)">
                            <path d="M245,196.25C245,192.249 241.751,189 237.75,189L223.25,189C219.249,189 216,192.249 216,196.25L216,210.75C216,214.751 219.249,218 223.25,218L237.75,218C241.751,218 245,214.751 245,210.75L245,196.25Z" style="fill:white;fill-opacity:0.301961;"/>
                        </g>
                    </g>
                    <g transform="matrix(-0.00648467,0.813365,-0.813365,-0.00648467,1715.32,-185.476)">
                        <g transform="matrix(0.8884,0.45907,-0.45907,0.8884,63.3814,-140.674)">
                            <rect x="360" y="73" width="55" height="55" style="fill:white;fill-opacity:0.301961;"/>
                        </g>
                        <circle cx="428.349" cy="267.073" r="29.794" style="fill:white;fill-opacity:0.301961;"/>
                        <circle cx="570.5" cy="89.5" r="14.5" style="fill:white;fill-opacity:0.301961;"/>
                        <g transform="matrix(0.738438,-0.674322,0.674322,0.738438,-171.303,656.257)">
                            <path d="M625.749,280.885C625.749,273.262 619.56,267.073 611.937,267.073L584.312,267.073C576.689,267.073 570.5,273.262 570.5,280.885L570.5,308.51C570.5,316.133 576.689,322.322 584.312,322.322L611.937,322.322C619.56,322.322 625.749,316.133 625.749,308.51L625.749,280.885Z" style="fill:white;fill-opacity:0.301961;"/>
                        </g>
                        <g transform="matrix(0.393189,0.919458,-0.919458,0.393189,403.749,179.886)">
                            <path d="M245,196.25C245,192.249 241.751,189 237.75,189L223.25,189C219.249,189 216,192.249 216,196.25L216,210.75C216,214.751 219.249,218 223.25,218L237.75,218C241.751,218 245,214.751 245,210.75L245,196.25Z" style="fill:white;fill-opacity:0.301961;"/>
                        </g>
                    </g>
                </g>
            </g>
            <g transform="matrix(-0.520335,-6.37226e-17,6.37226e-17,-0.520335,910.033,360.703)">
                <clipPath id="_clip5">
                    <rect x="211.467" y="0" width="1537.47" height="400"/>
                </clipPath>
                <g clip-path="url(#_clip5)">
                    <g>
                        <g transform="matrix(0.8884,0.45907,-0.45907,0.8884,-13.7954,-182.25)">
                            <rect x="360" y="73" width="55" height="55" style="fill:white;fill-opacity:0.301961;"/>
                        </g>
                        <g transform="matrix(0.688545,-0.237097,0.237097,0.688545,716.735,371.46)">
                            <rect x="360" y="73" width="55" height="55" style="fill:white;fill-opacity:0.301961;"/>
                        </g>
                        <g transform="matrix(1,0,0,1,-127.6,75.9415)">
                            <circle cx="570.5" cy="89.5" r="14.5" style="fill:white;fill-opacity:0.301961;"/>
                        </g>
                        <g transform="matrix(1,0,0,1,56.827,-53.184)">
                            <circle cx="962.459" cy="290.871" r="19.459" style="fill:white;fill-opacity:0.301961;"/>
                        </g>
                        <path d="M899.693,84.923C899.693,79.447 895.247,75 889.77,75L869.923,75C864.447,75 860,79.447 860,84.923L860,104.77C860,110.247 864.447,114.693 869.923,114.693L889.77,114.693C895.247,114.693 899.693,110.247 899.693,104.77L899.693,84.923Z" style="fill:white;fill-opacity:0.301961;"/>
                        <g transform="matrix(0.393189,0.919458,-0.919458,0.393189,326.98,-88.4489)">
                            <path d="M245,196.25C245,192.249 241.751,189 237.75,189L223.25,189C219.249,189 216,192.249 216,196.25L216,210.75C216,214.751 219.249,218 223.25,218L237.75,218C241.751,218 245,214.751 245,210.75L245,196.25Z" style="fill:white;fill-opacity:0.301961;"/>
                        </g>
                    </g>
                    <g transform="matrix(-0.347652,-0.937623,0.937623,-0.347652,652.291,881.765)">
                        <g transform="matrix(0.8884,0.45907,-0.45907,0.8884,63.3814,-140.674)">
                            <rect x="360" y="73" width="55" height="55" style="fill:white;fill-opacity:0.301961;"/>
                        </g>
                        <g transform="matrix(-0.677793,-0.0298216,0.0298216,-0.677793,1019.25,270.295)">
                            <rect x="360" y="73" width="55" height="55" style="fill:white;fill-opacity:0.301961;"/>
                        </g>
                        <g transform="matrix(0.688545,-0.237097,0.237097,0.688545,813.916,319.543)">
                            <rect x="360" y="73" width="55" height="55" style="fill:white;fill-opacity:0.301961;"/>
                        </g>
                        <g transform="matrix(1,0,0,1,26.6436,9.1283)">
                            <circle cx="428.349" cy="267.073" r="29.794" style="fill:white;fill-opacity:0.301961;"/>
                        </g>
                        <circle cx="570.5" cy="89.5" r="14.5" style="fill:white;fill-opacity:0.301961;"/>
                        <circle cx="962.459" cy="290.871" r="19.459" style="fill:white;fill-opacity:0.301961;"/>
                        <path d="M899.693,84.923C899.693,79.447 895.247,75 889.77,75L869.923,75C864.447,75 860,79.447 860,84.923L860,104.77C860,110.247 864.447,114.693 869.923,114.693L889.77,114.693C895.247,114.693 899.693,110.247 899.693,104.77L899.693,84.923Z" style="fill:white;fill-opacity:0.301961;"/>
                        <g transform="matrix(0.738438,-0.674322,0.674322,0.738438,30.4307,477.574)">
                            <path d="M625.749,280.885C625.749,273.262 619.56,267.073 611.937,267.073L584.312,267.073C576.689,267.073 570.5,273.262 570.5,280.885L570.5,308.51C570.5,316.133 576.689,322.322 584.312,322.322L611.937,322.322C619.56,322.322 625.749,316.133 625.749,308.51L625.749,280.885Z" style="fill:white;fill-opacity:0.301961;"/>
                        </g>
                        <g transform="matrix(0.393189,0.919458,-0.919458,0.393189,326.98,-88.4489)">
                            <path d="M245,196.25C245,192.249 241.751,189 237.75,189L223.25,189C219.249,189 216,192.249 216,196.25L216,210.75C216,214.751 219.249,218 223.25,218L237.75,218C241.751,218 245,214.751 245,210.75L245,196.25Z" style="fill:white;fill-opacity:0.301961;"/>
                        </g>
                    </g>
                    <g transform="matrix(-0.758276,0.651934,-0.651934,-0.758276,1958.18,-288.869)">
                        <g transform="matrix(0.8884,0.45907,-0.45907,0.8884,63.3814,-140.674)">
                            <rect x="360" y="73" width="55" height="55" style="fill:white;fill-opacity:0.301961;"/>
                        </g>
                        <g transform="matrix(-0.677793,-0.0298216,0.0298216,-0.677793,1100.19,299.134)">
                            <rect x="360" y="73" width="55" height="55" style="fill:white;fill-opacity:0.301961;"/>
                        </g>
                        <circle cx="428.349" cy="267.073" r="29.794" style="fill:white;fill-opacity:0.301961;"/>
                        <circle cx="570.5" cy="89.5" r="14.5" style="fill:white;fill-opacity:0.301961;"/>
                        <g transform="matrix(0.738438,-0.674322,0.674322,0.738438,-42.2739,480.41)">
                            <path d="M625.749,280.885C625.749,273.262 619.56,267.073 611.937,267.073L584.312,267.073C576.689,267.073 570.5,273.262 570.5,280.885L570.5,308.51C570.5,316.133 576.689,322.322 584.312,322.322L611.937,322.322C619.56,322.322 625.749,316.133 625.749,308.51L625.749,280.885Z" style="fill:white;fill-opacity:0.301961;"/>
                        </g>
                        <g transform="matrix(0.393189,0.919458,-0.919458,0.393189,326.98,-88.4489)">
                            <path d="M245,196.25C245,192.249 241.751,189 237.75,189L223.25,189C219.249,189 216,192.249 216,196.25L216,210.75C216,214.751 219.249,218 223.25,218L237.75,218C241.751,218 245,214.751 245,210.75L245,196.25Z" style="fill:white;fill-opacity:0.301961;"/>
                        </g>
                    </g>
                    <g transform="matrix(-0.00648467,0.813365,-0.813365,-0.00648467,1715.32,-185.476)">
                        <g transform="matrix(0.8884,0.45907,-0.45907,0.8884,63.3814,-140.674)">
                            <rect x="360" y="73" width="55" height="55" style="fill:white;fill-opacity:0.301961;"/>
                        </g>
                        <g transform="matrix(-0.677793,-0.0298216,0.0298216,-0.677793,1100.19,299.134)">
                            <rect x="360" y="73" width="55" height="55" style="fill:white;fill-opacity:0.301961;"/>
                        </g>
                        <g transform="matrix(0.688545,-0.237097,0.237097,0.688545,813.916,319.543)">
                            <rect x="360" y="73" width="55" height="55" style="fill:white;fill-opacity:0.301961;"/>
                        </g>
                        <circle cx="428.349" cy="267.073" r="29.794" style="fill:white;fill-opacity:0.301961;"/>
                        <circle cx="570.5" cy="89.5" r="14.5" style="fill:white;fill-opacity:0.301961;"/>
                        <circle cx="962.459" cy="290.871" r="19.459" style="fill:white;fill-opacity:0.301961;"/>
                        <path d="M899.693,84.923C899.693,79.447 895.247,75 889.77,75L869.923,75C864.447,75 860,79.447 860,84.923L860,104.77C860,110.247 864.447,114.693 869.923,114.693L889.77,114.693C895.247,114.693 899.693,110.247 899.693,104.77L899.693,84.923Z" style="fill:white;fill-opacity:0.301961;"/>
                        <g transform="matrix(0.738438,-0.674322,0.674322,0.738438,-171.303,656.257)">
                            <path d="M625.749,280.885C625.749,273.262 619.56,267.073 611.937,267.073L584.312,267.073C576.689,267.073 570.5,273.262 570.5,280.885L570.5,308.51C570.5,316.133 576.689,322.322 584.312,322.322L611.937,322.322C619.56,322.322 625.749,316.133 625.749,308.51L625.749,280.885Z" style="fill:white;fill-opacity:0.301961;"/>
                        </g>
                        <g transform="matrix(0.393189,0.919458,-0.919458,0.393189,403.749,179.886)">
                            <path d="M245,196.25C245,192.249 241.751,189 237.75,189L223.25,189C219.249,189 216,192.249 216,196.25L216,210.75C216,214.751 219.249,218 223.25,218L237.75,218C241.751,218 245,214.751 245,210.75L245,196.25Z" style="fill:white;fill-opacity:0.301961;"/>
                        </g>
                    </g>
                </g>
            </g>
        </g>
    </g>
</svg>
