<?xml version="1.0" encoding="UTF-8" standalone="no"?>
<!DOCTYPE svg PUBLIC "-//W3C//DTD SVG 1.1//EN" "http://www.w3.org/Graphics/SVG/1.1/DTD/svg11.dtd">
<svg width="100%" height="100%" viewBox="0 0 360 170" version="1.1" xmlns="http://www.w3.org/2000/svg" xmlns:xlink="http://www.w3.org/1999/xlink" xml:space="preserve" xmlns:serif="http://www.serif.com/" style="fill-rule:evenodd;clip-rule:evenodd;stroke-linejoin:round;stroke-miterlimit:1.41421;">
    <g transform="matrix(0.599779,0,0,0.599779,-15.5343,-104.325)">
        <path id="Fill-1" d="M69.2,255.3C86.8,255.3 99,248.8 99,230.1L99,194.7L87.6,194.7C86.6,194.7 86.1,195.2 86.1,196.2L86.1,229.6C86.1,240.8 81,245.4 69.2,245.4C57.4,245.4 52.3,240.8 52.3,229.6L52.3,194.7L40.9,194.7C39.9,194.7 39.4,195.2 39.4,196.2L39.4,230.2C39.4,248.8 51.5,255.3 69.2,255.3" style="fill:rgb(38,38,38);fill-rule:nonzero;"/>
        <g id="Fill-3" transform="matrix(1,0,0,1,38.4318,0)">
            <path d="M172.6,254.9L216.2,254.9C217.2,254.9 217.6,254.6 217.9,253.9L221.3,245.8C221.5,245.3 221.3,245.1 220.8,245.1L180.9,245.1L180.9,234.4C180.9,230.7 183,229 188.6,229L205.9,229C206.9,229 207.3,228.7 207.6,228L210.8,220.2C211,219.7 210.8,219.5 210.3,219.5L180.8,219.5L180.8,204.4L216.1,204.4C217.1,204.4 217.5,204.1 217.8,203.4L221.2,195.3C221.4,194.8 221.2,194.6 220.7,194.6L174,194.6C169.6,194.6 168,195.9 168,198.8L168,251.2C168,253.8 169.2,254.9 172.6,254.9" style="fill:rgb(38,38,38);fill-rule:nonzero;"/>
        </g>
        <path id="Fill-6" d="M137.1,233.5C137.1,229.9 139.2,228.2 144.8,228.2L160,228.2C167.3,228.2 169.3,230.9 169.3,236.3C169.3,241.7 167.3,244.3 160,244.3L137.1,244.3L137.1,233.5ZM137.1,204.2L157.6,204.2C164.5,204.2 166.4,206.7 166.4,211.8C166.4,216.9 164.5,219.4 157.6,219.4L137.1,219.4L137.1,204.2ZM128.9,253.8L161.4,253.8C173.6,253.8 182.4,249.3 182.4,237.5C182.4,230.4 179.2,224.4 172.3,222.7C177.4,220.2 179.5,215.4 179.5,209.7C179.5,196.6 168.3,194.7 156.8,194.7L130.4,194.7C126,194.7 124.4,196 124.4,198.8L124.4,250.3C124.3,252.8 125.5,253.8 128.9,253.8Z" style="fill:rgb(38,38,38);fill-rule:nonzero;"/>
        <path id="Fill-8" d="M293.4,204.2L314.7,204.2C322.7,204.2 324.4,207.2 324.4,213.2C324.4,219.3 322.6,222.2 314.7,222.2L293.4,222.2L293.4,204.2ZM282.2,253.8L293.4,253.8L293.4,236.5C293.4,232.9 295.5,231.2 301,231.2L312.3,231.2L324.7,252.8C325.1,253.4 325.5,253.8 326.4,253.8L338.1,253.8C338.9,253.8 338.9,253.1 338.7,252.8L324.9,230C331.7,228.3 337.2,223.9 337.2,212.9C337.2,198.5 328,194.7 312.8,194.7L286.6,194.7C282.3,194.7 280.6,196 280.6,198.8L280.6,252.4C280.7,253.4 281.2,253.8 282.2,253.8Z" style="fill:rgb(38,38,38);fill-rule:nonzero;"/>
        <g id="Fill-10" transform="matrix(1,0,0,1,95.9206,19.0769)">
            <path d="M471.4,335.5L461.9,333.2C436.4,326.8 424.1,323.1 424.1,313.9C424.1,303.8 435.9,298.8 451.1,298.8C470,298.8 481.8,305.7 488.5,319.9C489.9,322.6 491.8,323.1 494.6,322.2L522,312.1C524.8,310.7 525.8,308.9 524.4,306.1C513.1,279.5 488,265.3 453.5,265.3C410.5,265.3 384.9,285.9 384.9,315.7C384.9,342.8 405.2,354.7 444.5,364.8L453.5,367.1C477.6,373.1 491.3,376.7 491.3,387.3C491.3,399.2 477.6,404.7 459.1,404.7C436.9,404.7 421.3,395.1 414.2,377.2C413.3,374.5 410.9,373.5 408.1,374.9L383.5,386.4C381.1,387.8 379.7,389.6 380.7,392.4C394.4,425 419,438.3 458.3,438.3C501.3,438.3 530.2,419 530.2,387.4C530,356.5 509.7,344.6 471.4,335.5" style="fill:rgb(125,194,64);fill-rule:nonzero;"/>
        </g>
        <path id="Fill-13" d="M68.6,353.1C74.3,328.4 93.5,318.6 112,318.6C136,318.6 148.7,330.1 152,353.1L68.6,353.1ZM112,284.1C63.6,284.1 25.9,319 25.9,369.1C25.9,422.8 63.5,457.3 112,457.3C143.5,457.3 172.7,447.2 188.2,416.9C189.6,414.1 188.7,412.3 185.8,410.9L159,399C156.2,397.8 154.3,398.5 152.9,401.3C145.8,415.1 130.8,421.5 112,421.5C96,421.5 79.6,414.2 71.7,395.6C69.1,388 71.5,383.4 80.1,383.4L189.7,383.4C192.5,383.4 194.4,381.6 194.4,378.8L194.4,373.3C194.3,318.1 162.3,284.1 112,284.1Z" style="fill:rgb(125,194,64);fill-rule:nonzero;"/>
        <g id="Fill-15" transform="matrix(1,0,0,1,37.7965,19.0769)">
            <path d="M277.1,377.2C277.1,393.2 254.6,404.3 232.9,404.3C216.9,404.3 206.1,397.9 206.1,386.9C206.1,374.1 221.6,369.9 235.7,367.2L277,358L277,377.2L277.1,377.2ZM318.4,384.1L318.4,330.5C318.4,286 290.7,265.4 246.1,265.4C206.2,265.4 179.9,282.8 170.5,306.7C169.6,309.5 171,311.7 173.3,312.7L200.5,324.6C203.3,326 205.2,325.1 206.6,322.3C214.6,305.3 226.3,300.3 246.1,300.3C263.5,300.3 276.2,307.6 276.2,318.6C276.2,323.6 273.9,326.9 268.7,329.6C261.2,333.3 246.2,335.1 222.2,340.6C188.9,348.4 165.8,358 165.8,388.3C165.8,421.8 194.5,438.3 227.3,438.3C250.8,438.3 271.5,430 280.4,415.8L280.9,415.8C282.3,420.8 284.2,427.3 287,431.8C287.9,433.6 289.8,434.5 292.2,434.5L326.5,434.5C330.3,434.5 331.7,432.2 329.8,429C322.6,418.4 318.4,406.1 318.4,384.1Z" style="fill:rgb(125,194,64);fill-rule:nonzero;"/>
        </g>
        <path id="Fill-18" d="M462,415.5C460.6,412.8 458.7,412.3 455.9,413.2C448.4,416.4 441.8,417.8 437.1,417.8C426.3,417.8 418.8,411.4 418.8,397.7L418.8,334.6C418.8,327.7 423.5,323.2 430.5,323.2L462.9,323.2C465.7,323.2 467.6,321.4 467.6,318.6L467.6,293C467.6,290.3 465.7,288.4 462.9,288.4L418.8,288.4L418.8,252.7C418.8,250 416.9,248.1 414.1,248.1L382.2,248.1C379.4,248.1 377.5,249.9 377.5,252.7L377.5,401.9C377.5,437.1 398.6,454.5 432.4,454.5C446,454.5 458.2,451.3 471.3,445.3C474.1,444.4 475.1,441.6 473.6,439.4L462,415.5Z" style="fill:rgb(125,194,64);fill-rule:nonzero;"/>
    </g>
</svg>
