<?xml version="1.0" encoding="UTF-8" standalone="no"?>
<!DOCTYPE svg PUBLIC "-//W3C//DTD SVG 1.1//EN" "http://www.w3.org/Graphics/SVG/1.1/DTD/svg11.dtd">
<svg width="100%" height="100%" viewBox="0 0 879 178" version="1.1" xmlns="http://www.w3.org/2000/svg" xmlns:xlink="http://www.w3.org/1999/xlink" xml:space="preserve" xmlns:serif="http://www.serif.com/" style="fill-rule:evenodd;clip-rule:evenodd;stroke-linejoin:round;stroke-miterlimit:1.41421;">
    <g transform="matrix(1.5102,0,0,1.5099,-98.5129,-260.29)">
        <g transform="matrix(1.91899,0,0,1.91899,388.099,-265.37)">
            <text x="37.081px" y="288.689px" style="font-family:'Arial-BoldMT', 'Arial', sans-serif;font-weight:700;font-size:51.676px;">ELS</text>
        </g>
        <g transform="matrix(0.366948,0,0,0.366948,283.413,170.59)">
            <g>
                <g>
                    <g transform="matrix(0.968421,0,0,0.968421,247.579,31.3158)">
                        <g>
                            <g>
                                <circle cx="140" cy="200" r="100"/>
                                <path d="M140.646,100.002L141.292,100.008L141.936,100.018L142.579,100.033L143.222,100.051L143.863,100.073L144.503,100.1L145.143,100.13L145.781,100.165L146.418,100.203L147.054,100.245L147.689,100.292L148.323,100.342L148.956,100.396L149.588,100.455L150.218,100.517L150.848,100.583L151.476,100.653L152.103,100.726L152.729,100.804L153.354,100.886L153.977,100.971L154.599,101.06L155.22,101.153L155.84,101.25L156.459,101.351L157.076,101.455L157.692,101.563L158.307,101.675L158.92,101.791L159.532,101.91L160.143,102.033L160.752,102.16L161.36,102.291L161.967,102.425L162.572,102.563L163.176,102.704L163.779,102.849L164.38,102.998L164.979,103.151L165.577,103.307L166.174,103.466L166.769,103.629L167.363,103.796L167.955,103.967L168.546,104.141L169.135,104.318L169.723,104.499L170.309,104.683L170.894,104.871L171.477,105.063L172.059,105.258L172.639,105.456L173.217,105.658L173.793,105.863L174.369,106.072L174.942,106.284L175.514,106.5L176.084,106.719L176.652,106.941L177.219,107.167L177.784,107.396L178.347,107.628L178.909,107.864L179.469,108.103L180.027,108.345L180.583,108.591L181.138,108.839L181.691,109.092L182.242,109.347L182.791,109.606L183.338,109.867L183.884,110.132L184.427,110.401L184.969,110.672L185.509,110.947L186.047,111.225L186.583,111.506L187.117,111.79L187.65,112.077L188.18,112.367L188.708,112.661L189.235,112.957L189.759,113.257L190.282,113.56L190.802,113.865L191.321,114.174L191.837,114.486L192.352,114.801L192.864,115.119L193.374,115.439L193.883,115.763L194.389,116.09L194.893,116.42L195.395,116.753L195.895,117.088L196.392,117.427L196.888,117.768L197.381,118.113L197.873,118.46L198.362,118.81L198.849,119.163L199.333,119.519L199.816,119.877L200.296,120.239L200.774,120.603L201.25,120.97L201.723,121.34L202.194,121.713L202.663,122.088L203.13,122.466L203.594,122.847L204.056,123.231L204.515,123.617L204.973,124.006L205.428,124.398L205.88,124.792L206.33,125.189L206.778,125.589L207.223,125.991L207.666,126.396L208.106,126.804L208.544,127.214L208.98,127.627L209.413,128.042L209.843,128.46L210.271,128.88L210.697,129.303L211.12,129.729L211.54,130.157L211.958,130.587L212.373,131.02L212.786,131.456L213.196,131.894L213.604,132.334L214.009,132.777L214.411,133.222L214.811,133.67L215.208,134.12L215.602,134.572L215.994,135.027L216.383,135.485L216.769,135.944L217.153,136.406L217.534,136.87L217.912,137.337L218.287,137.806L218.66,138.277L219.03,138.75L219.397,139.226L219.761,139.704L220.123,140.184L220.481,140.667L220.837,141.151L221.19,141.638L221.54,142.127L221.887,142.619L222.232,143.112L222.573,143.608L222.912,144.105L223.247,144.605L223.58,145.107L223.91,145.611L224.237,146.117L224.561,146.626L224.881,147.136L225.199,147.648L225.514,148.163L225.826,148.679L226.135,149.198L226.44,149.718L226.743,150.241L227.043,150.765L227.339,151.292L227.633,151.82L227.923,152.35L228.21,152.883L228.494,153.417L228.775,153.953L229.053,154.491L229.328,155.031L229.599,155.573L229.868,156.116L230.133,156.662L230.394,157.209L230.653,157.758L230.908,158.309L231.161,158.862L231.409,159.417L231.655,159.973L231.897,160.531L232.136,161.091L232.372,161.653L232.604,162.216L232.833,162.781L233.059,163.348L233.281,163.916L233.5,164.486L233.716,165.058L233.928,165.631L234.137,166.207L234.342,166.783L234.544,167.361L234.742,167.941L234.937,168.523L235.129,169.106L235.317,169.691L235.501,170.277L235.682,170.865L235.859,171.454L236.033,172.045L236.204,172.637L236.371,173.231L236.534,173.826L236.693,174.423L236.849,175.021L237.002,175.62L237.151,176.221L237.296,176.824L237.437,177.428L237.575,178.033L237.709,178.64L237.84,179.248L237.967,179.857L238.09,180.468L238.209,181.08L238.325,181.693L238.437,182.308L238.545,182.924L238.649,183.541L238.75,184.16L238.847,184.78L238.94,185.401L239.029,186.023L239.114,186.646L239.196,187.271L239.274,187.897L239.347,188.524L239.417,189.152L239.483,189.782L239.545,190.412L239.604,191.044L239.658,191.677L239.708,192.311L239.755,192.946L239.797,193.582L239.835,194.219L239.87,194.857L239.9,195.497L239.927,196.137L239.949,196.778L239.967,197.421L239.982,198.064L239.992,198.708L239.998,199.354L240,200L239.998,200.646L239.992,201.292L239.982,201.936L239.967,202.579L239.949,203.222L239.927,203.863L239.9,204.503L239.87,205.143L239.835,205.781L239.797,206.418L239.755,207.054L239.708,207.689L239.658,208.323L239.604,208.956L239.545,209.588L239.483,210.218L239.417,210.848L239.347,211.476L239.274,212.103L239.196,212.729L239.114,213.354L239.029,213.977L238.94,214.599L238.847,215.22L238.75,215.84L238.649,216.459L238.545,217.076L238.437,217.692L238.325,218.307L238.209,218.92L238.09,219.532L237.967,220.143L237.84,220.752L237.709,221.36L237.575,221.967L237.437,222.572L237.296,223.176L237.151,223.779L237.002,224.38L236.849,224.979L236.693,225.577L236.534,226.174L236.371,226.769L236.204,227.363L236.033,227.955L235.859,228.546L235.682,229.135L235.501,229.723L235.317,230.309L235.129,230.894L234.937,231.477L234.742,232.059L234.544,232.639L234.342,233.217L234.137,233.793L233.928,234.369L233.716,234.942L233.5,235.514L233.281,236.084L233.059,236.652L232.833,237.219L232.604,237.784L232.372,238.347L232.136,238.909L231.897,239.469L231.655,240.027L231.409,240.583L231.161,241.138L230.908,241.691L230.653,242.242L230.394,242.791L230.133,243.338L229.868,243.884L229.599,244.427L229.328,244.969L229.053,245.509L228.775,246.047L228.494,246.583L228.21,247.117L227.923,247.65L227.633,248.18L227.339,248.708L227.043,249.235L226.743,249.759L226.44,250.282L226.135,250.802L225.826,251.321L225.514,251.837L225.199,252.352L224.881,252.864L224.561,253.374L224.237,253.883L223.91,254.389L223.58,254.893L223.247,255.395L222.912,255.895L222.573,256.392L222.232,256.888L221.887,257.381L221.54,257.873L221.19,258.362L220.837,258.849L220.481,259.333L220.123,259.816L219.761,260.296L219.397,260.774L219.03,261.25L218.66,261.723L218.287,262.194L217.912,262.663L217.534,263.13L217.153,263.594L216.769,264.056L216.383,264.515L215.994,264.973L215.602,265.428L215.208,265.88L214.811,266.33L214.411,266.778L214.009,267.223L213.604,267.666L213.196,268.106L212.786,268.544L212.373,268.98L211.958,269.413L211.54,269.843L211.12,270.271L210.697,270.697L210.271,271.12L209.843,271.54L209.413,271.958L208.98,272.373L208.544,272.786L208.106,273.196L207.666,273.604L207.223,274.009L206.778,274.411L206.33,274.811L205.88,275.208L205.428,275.602L204.973,275.994L204.515,276.383L204.056,276.769L203.594,277.153L203.13,277.534L202.663,277.912L202.194,278.287L201.723,278.66L201.25,279.03L200.774,279.397L200.296,279.761L199.816,280.123L199.333,280.481L198.849,280.837L198.362,281.19L197.873,281.54L197.381,281.887L196.888,282.232L196.392,282.573L195.895,282.912L195.395,283.247L194.893,283.58L194.389,283.91L193.883,284.237L193.374,284.561L192.864,284.881L192.352,285.199L191.837,285.514L191.321,285.826L190.802,286.135L190.282,286.44L189.759,286.743L189.235,287.043L188.708,287.339L188.18,287.633L187.65,287.923L187.117,288.21L186.583,288.494L186.047,288.775L185.509,289.053L184.969,289.328L184.427,289.599L183.884,289.868L183.338,290.133L182.791,290.394L182.242,290.653L181.691,290.908L181.138,291.161L180.583,291.409L180.027,291.655L179.469,291.897L178.909,292.136L178.347,292.372L177.784,292.604L177.219,292.833L176.652,293.059L176.084,293.281L175.514,293.5L174.942,293.716L174.369,293.928L173.793,294.137L173.217,294.342L172.639,294.544L172.059,294.742L171.477,294.937L170.894,295.129L170.309,295.317L169.723,295.501L169.135,295.682L168.546,295.859L167.955,296.033L167.363,296.204L166.769,296.371L166.174,296.534L165.577,296.693L164.979,296.849L164.38,297.002L163.779,297.151L163.176,297.296L162.572,297.437L161.967,297.575L161.36,297.709L160.752,297.84L160.143,297.967L159.532,298.09L158.92,298.209L158.307,298.325L157.692,298.437L157.076,298.545L156.459,298.649L155.84,298.75L155.22,298.847L154.599,298.94L153.977,299.029L153.354,299.114L152.729,299.196L152.103,299.274L151.476,299.347L150.848,299.417L150.218,299.483L149.588,299.545L148.956,299.604L148.323,299.658L147.689,299.708L147.054,299.755L146.418,299.797L145.781,299.835L145.143,299.87L144.503,299.9L143.863,299.927L143.222,299.949L142.579,299.967L141.936,299.982L141.292,299.992L140.646,299.998L140,300L139.354,299.998L138.708,299.992L138.064,299.982L137.421,299.967L136.778,299.949L136.137,299.927L135.497,299.9L134.857,299.87L134.219,299.835L133.582,299.797L132.946,299.755L132.311,299.708L131.677,299.658L131.044,299.604L130.412,299.545L129.782,299.483L129.152,299.417L128.524,299.347L127.897,299.274L127.271,299.196L126.646,299.114L126.023,299.029L125.401,298.94L124.78,298.847L124.16,298.75L123.541,298.649L122.924,298.545L122.308,298.437L121.693,298.325L121.08,298.209L120.468,298.09L119.857,297.967L119.248,297.84L118.64,297.709L118.033,297.575L117.428,297.437L116.824,297.296L116.221,297.151L115.62,297.002L115.021,296.849L114.423,296.693L113.826,296.534L113.231,296.371L112.637,296.204L112.045,296.033L111.454,295.859L110.865,295.682L110.277,295.501L109.691,295.317L109.106,295.129L108.523,294.937L107.941,294.742L107.361,294.544L106.783,294.342L106.207,294.137L105.631,293.928L105.058,293.716L104.486,293.5L103.916,293.281L103.348,293.059L102.781,292.833L102.216,292.604L101.653,292.372L101.091,292.136L100.531,291.897L99.973,291.655L99.417,291.409L98.862,291.161L98.309,290.908L97.758,290.653L97.209,290.394L96.662,290.133L96.116,289.868L95.573,289.599L95.031,289.328L94.491,289.053L93.953,288.775L93.417,288.494L92.883,288.21L92.35,287.923L91.82,287.633L91.292,287.339L90.765,287.043L90.241,286.743L89.718,286.44L89.198,286.135L88.679,285.826L88.163,285.514L87.648,285.199L87.136,284.881L86.626,284.561L86.117,284.237L85.611,283.91L85.107,283.58L84.605,283.247L84.105,282.912L83.608,282.573L83.112,282.232L82.619,281.887L82.127,281.54L81.638,281.19L81.151,280.837L80.667,280.481L80.184,280.123L79.704,279.761L79.226,279.397L78.75,279.03L78.277,278.66L77.806,278.287L77.337,277.912L76.87,277.534L76.406,277.153L75.944,276.769L75.485,276.383L75.027,275.994L74.572,275.602L74.12,275.208L73.67,274.811L73.222,274.411L72.777,274.009L72.334,273.604L71.894,273.196L71.456,272.786L71.02,272.373L70.587,271.958L70.157,271.54L69.729,271.12L69.303,270.697L68.88,270.271L68.46,269.843L68.042,269.413L67.627,268.98L67.214,268.544L66.804,268.106L66.396,267.666L65.991,267.223L65.589,266.778L65.189,266.33L64.792,265.88L64.398,265.428L64.006,264.973L63.617,264.515L63.231,264.056L62.847,263.594L62.466,263.13L62.088,262.663L61.713,262.194L61.34,261.723L60.97,261.25L60.603,260.774L60.239,260.296L59.877,259.816L59.519,259.333L59.163,258.849L58.81,258.362L58.46,257.873L58.113,257.381L57.768,256.888L57.427,256.392L57.088,255.895L56.753,255.395L56.42,254.893L56.09,254.389L55.763,253.883L55.439,253.374L55.119,252.864L54.801,252.352L54.486,251.837L54.174,251.321L53.865,250.802L53.56,250.282L53.257,249.759L52.957,249.235L52.661,248.708L52.367,248.18L52.077,247.65L51.79,247.117L51.506,246.583L51.225,246.047L50.947,245.509L50.672,244.969L50.401,244.427L50.132,243.884L49.867,243.338L49.606,242.791L49.347,242.242L49.092,241.691L48.839,241.138L48.591,240.583L48.345,240.027L48.103,239.469L47.864,238.909L47.628,238.347L47.396,237.784L47.167,237.219L46.941,236.652L46.719,236.084L46.5,235.514L46.284,234.942L46.072,234.369L45.863,233.793L45.658,233.217L45.456,232.639L45.258,232.059L45.063,231.477L44.871,230.894L44.683,230.309L44.499,229.723L44.318,229.135L44.141,228.546L43.967,227.955L43.796,227.363L43.629,226.769L43.466,226.174L43.307,225.577L43.151,224.979L42.998,224.38L42.849,223.779L42.704,223.176L42.563,222.572L42.425,221.967L42.291,221.36L42.16,220.752L42.033,220.143L41.91,219.532L41.791,218.92L41.675,218.307L41.563,217.692L41.455,217.076L41.351,216.459L41.25,215.84L41.153,215.22L41.06,214.599L40.971,213.977L40.886,213.354L40.804,212.729L40.726,212.103L40.653,211.476L40.583,210.848L40.517,210.218L40.455,209.588L40.396,208.956L40.342,208.323L40.292,207.689L40.245,207.054L40.203,206.418L40.165,205.781L40.13,205.143L40.1,204.503L40.073,203.863L40.051,203.222L40.033,202.579L40.018,201.936L40.008,201.292L40.002,200.646L40,200L40.002,199.354L40.008,198.708L40.018,198.064L40.033,197.421L40.051,196.778L40.073,196.137L40.1,195.497L40.13,194.857L40.165,194.219L40.203,193.582L40.245,192.946L40.292,192.311L40.342,191.677L40.396,191.044L40.455,190.412L40.517,189.782L40.583,189.152L40.653,188.524L40.726,187.897L40.804,187.271L40.886,186.646L40.971,186.023L41.06,185.401L41.153,184.78L41.25,184.16L41.351,183.541L41.455,182.924L41.563,182.308L41.675,181.693L41.791,181.08L41.91,180.468L42.033,179.857L42.16,179.248L42.291,178.64L42.425,178.033L42.563,177.428L42.704,176.824L42.849,176.221L42.998,175.62L43.151,175.021L43.307,174.423L43.466,173.826L43.629,173.231L43.796,172.637L43.967,172.045L44.141,171.454L44.318,170.865L44.499,170.277L44.683,169.691L44.871,169.106L45.063,168.523L45.258,167.941L45.456,167.361L45.658,166.783L45.863,166.207L46.072,165.631L46.284,165.058L46.5,164.486L46.719,163.916L46.941,163.348L47.167,162.781L47.396,162.216L47.628,161.653L47.864,161.091L48.103,160.531L48.345,159.973L48.591,159.417L48.839,158.862L49.092,158.309L49.347,157.758L49.606,157.209L49.867,156.662L50.132,156.116L50.401,155.573L50.672,155.031L50.947,154.491L51.225,153.953L51.506,153.417L51.79,152.883L52.077,152.35L52.367,151.82L52.661,151.292L52.957,150.765L53.257,150.241L53.56,149.718L53.865,149.198L54.174,148.679L54.486,148.163L54.801,147.648L55.119,147.136L55.439,146.626L55.763,146.117L56.09,145.611L56.42,145.107L56.753,144.605L57.088,144.105L57.427,143.608L57.768,143.112L58.113,142.619L58.46,142.127L58.81,141.638L59.163,141.151L59.519,140.667L59.877,140.184L60.239,139.704L60.603,139.226L60.97,138.75L61.34,138.277L61.713,137.806L62.088,137.337L62.466,136.87L62.847,136.406L63.231,135.944L63.617,135.485L64.006,135.027L64.398,134.572L64.792,134.12L65.189,133.67L65.589,133.222L65.991,132.777L66.396,132.334L66.804,131.894L67.214,131.456L67.627,131.02L68.042,130.587L68.46,130.157L68.88,129.729L69.303,129.303L69.729,128.88L70.157,128.46L70.587,128.042L71.02,127.627L71.456,127.214L71.894,126.804L72.334,126.396L72.777,125.991L73.222,125.589L73.67,125.189L74.12,124.792L74.572,124.398L75.027,124.006L75.485,123.617L75.944,123.231L76.406,122.847L76.87,122.466L77.337,122.088L77.806,121.713L78.277,121.34L78.75,120.97L79.226,120.603L79.704,120.239L80.184,119.877L80.667,119.519L81.151,119.163L81.638,118.81L82.127,118.46L82.619,118.113L83.112,117.768L83.608,117.427L84.105,117.088L84.605,116.753L85.107,116.42L85.611,116.09L86.117,115.763L86.626,115.439L87.136,115.119L87.648,114.801L88.163,114.486L88.679,114.174L89.198,113.865L89.718,113.56L90.241,113.257L90.765,112.957L91.292,112.661L91.82,112.367L92.35,112.077L92.883,111.79L93.417,111.506L93.953,111.225L94.491,110.947L95.031,110.672L95.573,110.401L96.116,110.132L96.662,109.867L97.209,109.606L97.758,109.347L98.309,109.092L98.862,108.839L99.417,108.591L99.973,108.345L100.531,108.103L101.091,107.864L101.653,107.628L102.216,107.396L102.781,107.167L103.348,106.941L103.916,106.719L104.486,106.5L105.058,106.284L105.631,106.072L106.207,105.863L106.783,105.658L107.361,105.456L107.941,105.258L108.523,105.063L109.106,104.871L109.691,104.683L110.277,104.499L110.865,104.318L111.454,104.141L112.045,103.967L112.637,103.796L113.231,103.629L113.826,103.466L114.423,103.307L115.021,103.151L115.62,102.998L116.221,102.849L116.824,102.704L117.428,102.563L118.033,102.425L118.64,102.291L119.248,102.16L119.857,102.033L120.468,101.91L121.08,101.791L121.693,101.675L122.308,101.563L122.924,101.455L123.541,101.351L124.16,101.25L124.78,101.153L125.401,101.06L126.023,100.971L126.646,100.886L127.271,100.804L127.897,100.726L128.524,100.653L129.152,100.583L129.782,100.517L130.412,100.455L131.044,100.396L131.677,100.342L132.311,100.292L132.946,100.245L133.582,100.203L134.219,100.165L134.857,100.13L135.497,100.1L136.137,100.073L136.778,100.051L137.421,100.033L138.064,100.018L138.708,100.008L139.354,100.002L140,100L140.646,100.002ZM139.443,114.134L138.887,114.139L138.333,114.148L137.779,114.161L137.226,114.176L136.674,114.196L136.123,114.218L135.573,114.244L135.025,114.274L134.477,114.307L133.93,114.344L133.384,114.383L132.839,114.427L132.295,114.473L131.753,114.523L131.211,114.577L130.67,114.633L130.131,114.693L129.592,114.757L129.055,114.823L128.518,114.893L127.983,114.967L127.449,115.043L126.916,115.123L126.384,115.206L125.853,115.292L125.323,115.382L124.795,115.475L124.267,115.571L123.741,115.67L123.216,115.773L122.692,115.878L122.17,115.987L121.648,116.099L121.128,116.214L120.608,116.332L120.091,116.454L119.574,116.578L119.058,116.706L118.544,116.836L118.031,116.97L117.519,117.107L117.009,117.247L116.5,117.39L115.992,117.536L115.485,117.686L114.98,117.838L114.476,117.993L113.973,118.151L113.472,118.312L112.972,118.476L112.473,118.644L111.976,118.814L111.48,118.987L110.985,119.163L110.492,119.342L110,119.524L109.51,119.709L109.021,119.897L108.533,120.087L108.048,120.281L107.563,120.477L107.079,120.677L106.598,120.879L106.117,121.084L105.638,121.292L105.161,121.502L104.686,121.716L104.211,121.932L103.738,122.151L103.267,122.373L102.798,122.598L102.329,122.825L101.863,123.055L101.398,123.288L100.934,123.524L100.472,123.763L100.012,124.004L99.554,124.248L99.097,124.494L98.642,124.744L98.188,124.995L97.736,125.25L97.286,125.507L96.837,125.767L96.39,126.03L95.945,126.295L95.501,126.563L95.06,126.833L94.619,127.106L94.181,127.382L93.745,127.66L93.309,127.941L92.876,128.224L92.446,128.51L92.016,128.798L91.588,129.089L91.163,129.382L90.739,129.678L90.317,129.976L89.896,130.277L89.478,130.581L89.061,130.886L88.647,131.195L88.234,131.505L87.824,131.818L87.415,132.134L87.008,132.452L86.603,132.772L86.2,133.095L85.799,133.419L85.4,133.747L85.003,134.077L84.608,134.409L84.214,134.743L83.823,135.08L83.434,135.419L83.047,135.761L82.663,136.104L82.28,136.449L81.899,136.798L81.52,137.148L81.144,137.501L80.769,137.856L80.397,138.213L80.027,138.572L79.659,138.934L79.294,139.297L78.93,139.663L78.568,140.031L78.209,140.401L77.852,140.773L77.497,141.148L77.144,141.524L76.794,141.903L76.446,142.284L76.1,142.667L75.756,143.051L75.415,143.438L75.076,143.827L74.739,144.218L74.405,144.611L74.073,145.006L73.743,145.403L73.416,145.803L73.09,146.204L72.768,146.607L72.448,147.011L72.13,147.418L71.815,147.827L71.501,148.238L71.191,148.651L70.883,149.065L70.577,149.481L70.273,149.9L69.973,150.32L69.674,150.742L69.378,151.167L69.085,151.592L68.794,152.019L68.506,152.449L68.22,152.881L67.937,153.313L67.656,153.748L67.378,154.184L67.103,154.623L66.829,155.063L66.559,155.505L66.291,155.948L66.026,156.393L65.764,156.84L65.504,157.289L65.247,157.739L64.992,158.191L64.74,158.645L64.491,159.1L64.244,159.557L64,160.016L63.759,160.477L63.521,160.938L63.285,161.401L63.052,161.866L62.822,162.332L62.594,162.801L62.37,163.27L62.148,163.741L61.929,164.214L61.712,164.689L61.499,165.164L61.288,165.641L61.081,166.12L60.875,166.601L60.673,167.083L60.474,167.566L60.277,168.05L60.084,168.536L59.893,169.024L59.705,169.513L59.521,170.003L59.339,170.495L59.16,170.988L58.984,171.483L58.811,171.978L58.64,172.476L58.473,172.974L58.309,173.474L58.148,173.976L57.99,174.478L57.835,174.982L57.682,175.488L57.533,175.994L57.387,176.502L57.244,177.012L57.104,177.521L56.967,178.033L56.833,178.546L56.703,179.06L56.575,179.576L56.451,180.092L56.329,180.611L56.211,181.129L56.096,181.649L55.984,182.171L55.875,182.694L55.77,183.218L55.667,183.743L55.568,184.269L55.472,184.796L55.379,185.325L55.29,185.854L55.203,186.385L55.12,186.916L55.04,187.45L54.964,187.985L54.891,188.519L54.821,189.055L54.754,189.593L54.691,190.131L54.63,190.671L54.574,191.212L54.52,191.753L54.47,192.296L54.424,192.839L54.381,193.385L54.341,193.931L54.304,194.477L54.271,195.025L54.242,195.574L54.216,196.123L54.193,196.675L54.174,197.226L54.158,197.779L54.145,198.333L54.137,198.888L54.131,199.444L54.13,200L54.131,200.556L54.137,201.112L54.145,201.667L54.158,202.221L54.174,202.774L54.193,203.325L54.216,203.877L54.242,204.426L54.271,204.975L54.304,205.523L54.341,206.069L54.381,206.615L54.424,207.161L54.47,207.704L54.52,208.247L54.574,208.788L54.63,209.329L54.691,209.869L54.754,210.407L54.821,210.945L54.891,211.481L54.964,212.015L55.04,212.55L55.12,213.084L55.203,213.615L55.29,214.146L55.379,214.675L55.472,215.204L55.568,215.731L55.667,216.257L55.77,216.782L55.875,217.306L55.984,217.829L56.096,218.351L56.211,218.871L56.329,219.389L56.451,219.908L56.575,220.424L56.703,220.94L56.833,221.454L56.967,221.967L57.104,222.479L57.244,222.988L57.387,223.498L57.533,224.007L57.682,224.512L57.835,225.018L57.99,225.522L58.148,226.024L58.309,226.526L58.473,227.026L58.64,227.524L58.811,228.022L58.984,228.517L59.16,229.012L59.339,229.505L59.521,229.997L59.705,230.487L59.893,230.976L60.084,231.464L60.277,231.95L60.474,232.434L60.673,232.917L60.875,233.399L61.081,233.88L61.288,234.359L61.499,234.836L61.712,235.311L61.929,235.786L62.148,236.259L62.37,236.73L62.594,237.199L62.822,237.668L63.052,238.134L63.285,238.599L63.521,239.062L63.759,239.523L64,239.984L64.244,240.443L64.491,240.9L64.74,241.355L64.992,241.809L65.247,242.261L65.504,242.711L65.764,243.16L66.026,243.607L66.291,244.052L66.559,244.495L66.829,244.937L67.103,245.377L67.378,245.816L67.656,246.252L67.937,246.687L68.22,247.119L68.506,247.551L68.794,247.981L69.085,248.408L69.378,248.833L69.675,249.258L69.973,249.68L70.273,250.1L70.577,250.519L70.883,250.935L71.191,251.349L71.501,251.762L71.815,252.173L72.13,252.582L72.448,252.989L72.768,253.393L73.09,253.796L73.416,254.197L73.743,254.597L74.073,254.994L74.405,255.389L74.739,255.782L75.076,256.173L75.415,256.562L75.756,256.949L76.1,257.333L76.446,257.716L76.794,258.097L77.144,258.476L77.497,258.852L77.852,259.227L78.209,259.599L78.568,259.969L78.93,260.337L79.294,260.703L79.659,261.066L80.027,261.428L80.397,261.787L80.769,262.144L81.144,262.499L81.521,262.852L81.899,263.202L82.28,263.551L82.663,263.896L83.047,264.239L83.434,264.581L83.823,264.92L84.214,265.257L84.608,265.591L85.003,265.923L85.4,266.253L85.799,266.58L86.2,266.905L86.603,267.228L87.008,267.548L87.415,267.866L87.824,268.182L88.234,268.495L88.647,268.805L89.062,269.114L89.478,269.419L89.896,269.723L90.317,270.024L90.738,270.322L91.163,270.618L91.588,270.911L92.016,271.202L92.446,271.49L92.876,271.776L93.309,272.059L93.745,272.34L94.181,272.618L94.619,272.894L95.06,273.167L95.501,273.437L95.945,273.705L96.39,273.97L96.837,274.233L97.286,274.493L97.736,274.75L98.188,275.005L98.642,275.257L99.097,275.506L99.554,275.752L100.012,275.996L100.472,276.237L100.934,276.476L101.398,276.712L101.863,276.945L102.329,277.175L102.798,277.402L103.267,277.627L103.738,277.849L104.211,278.068L104.686,278.284L105.161,278.498L105.638,278.708L106.117,278.916L106.598,279.121L107.079,279.323L107.563,279.523L108.048,279.719L108.533,279.913L109.021,280.103L109.51,280.291L110,280.476L110.492,280.658L110.985,280.837L111.48,281.013L111.976,281.186L112.473,281.356L112.972,281.524L113.472,281.688L113.973,281.849L114.476,282.007L114.98,282.162L115.485,282.314L115.992,282.464L116.5,282.61L117.009,282.753L117.519,282.893L118.031,283.03L118.544,283.164L119.058,283.294L119.574,283.422L120.091,283.546L120.608,283.668L121.128,283.786L121.648,283.901L122.169,284.013L122.692,284.122L123.216,284.227L123.741,284.33L124.267,284.429L124.795,284.525L125.323,284.618L125.853,284.708L126.384,284.794L126.916,284.877L127.449,284.957L127.983,285.033L128.518,285.107L129.055,285.177L129.592,285.243L130.131,285.307L130.67,285.367L131.211,285.423L131.753,285.477L132.295,285.527L132.839,285.573L133.384,285.617L133.93,285.656L134.477,285.693L135.024,285.726L135.573,285.756L136.123,285.782L136.674,285.804L137.226,285.824L137.779,285.839L138.333,285.852L138.888,285.861L139.443,285.866L140,285.868L140.557,285.866L141.112,285.861L141.667,285.852L142.221,285.839L142.774,285.824L143.326,285.804L143.877,285.782L144.427,285.756L144.976,285.726L145.523,285.693L146.07,285.656L146.616,285.617L147.161,285.573L147.705,285.527L148.248,285.477L148.789,285.423L149.33,285.367L149.869,285.307L150.408,285.243L150.945,285.177L151.482,285.107L152.017,285.033L152.551,284.957L153.084,284.877L153.616,284.794L154.147,284.708L154.677,284.618L155.205,284.525L155.732,284.429L156.259,284.33L156.784,284.227L157.308,284.122L157.831,284.013L158.352,283.901L158.872,283.786L159.391,283.668L159.91,283.546L160.426,283.422L160.942,283.294L161.456,283.163L161.969,283.03L162.48,282.893L162.991,282.753L163.5,282.61L164.008,282.464L164.515,282.315L165.02,282.162L165.524,282.007L166.027,281.849L166.528,281.688L167.028,281.524L167.527,281.356L168.024,281.186L168.52,281.013L169.015,280.837L169.508,280.658L169.999,280.476L170.49,280.291L170.979,280.104L171.466,279.913L171.953,279.719L172.437,279.523L172.92,279.324L173.402,279.121L173.883,278.916L174.361,278.708L174.839,278.498L175.314,278.284L175.789,278.068L176.262,277.849L176.733,277.627L177.202,277.402L177.671,277.175L178.137,276.944L178.602,276.711L179.066,276.476L179.527,276.237L179.987,275.996L180.446,275.752L180.903,275.506L181.358,275.257L181.812,275.005L182.264,274.75L182.715,274.492L183.163,274.233L183.61,273.97L184.056,273.705L184.499,273.437L184.94,273.167L185.381,272.894L185.819,272.618L186.256,272.34L186.69,272.059L187.123,271.776L187.554,271.49L187.984,271.202L188.412,270.911L188.837,270.618L189.261,270.322L189.683,270.024L190.104,269.723L190.522,269.419L190.938,269.114L191.353,268.805L191.766,268.495L192.176,268.182L192.585,267.866L192.992,267.548L193.397,267.228L193.8,266.905L194.202,266.58L194.6,266.253L194.997,265.923L195.392,265.591L195.786,265.257L196.177,264.92L196.566,264.581L196.953,264.239L197.337,263.896L197.72,263.55L198.101,263.202L198.479,262.852L198.856,262.499L199.231,262.144L199.603,261.787L199.973,261.428L200.341,261.066L200.707,260.703L201.07,260.337L201.432,259.969L201.791,259.599L202.148,259.227L202.503,258.852L202.856,258.476L203.206,258.097L203.554,257.716L203.9,257.334L204.244,256.949L204.585,256.562L204.924,256.173L205.261,255.781L205.595,255.389L205.927,254.994L206.257,254.596L206.584,254.198L206.909,253.797L207.232,253.393L207.552,252.989L207.87,252.582L208.186,252.172L208.498,251.762L208.809,251.35L209.118,250.934L209.423,250.518L209.726,250.1L210.027,249.68L210.325,249.258L210.621,248.834L210.915,248.407L211.206,247.98L211.494,247.551L211.78,247.12L212.063,246.687L212.344,246.252L212.622,245.815L212.897,245.377L213.17,244.937L213.441,244.495L213.709,244.052L213.974,243.607L214.236,243.16L214.496,242.711L214.753,242.261L215.008,241.809L215.26,241.355L215.509,240.9L215.756,240.443L216,239.984L216.241,239.524L216.479,239.062L216.715,238.599L216.948,238.134L217.178,237.667L217.405,237.2L217.63,236.73L217.852,236.259L218.071,235.786L218.288,235.311L218.501,234.836L218.712,234.358L218.92,233.879L219.125,233.399L219.327,232.917L219.526,232.435L219.722,231.95L219.916,231.464L220.107,230.976L220.294,230.487L220.479,229.997L220.661,229.505L220.84,229.012L221.016,228.518L221.19,228.021L221.36,227.524L221.527,227.026L221.691,226.526L221.852,226.025L222.01,225.522L222.166,225.018L222.317,224.513L222.467,224.006L222.613,223.498L222.756,222.989L222.896,222.478L223.033,221.967L223.166,221.454L223.297,220.94L223.425,220.424L223.549,219.908L223.671,219.39L223.789,218.87L223.904,218.351L224.016,217.829L224.125,217.306L224.23,216.782L224.333,216.258L224.432,215.731L224.528,215.204L224.621,214.676L224.71,214.146L224.797,213.615L224.88,213.083L224.96,212.55L225.036,212.016L225.109,211.481L225.179,210.945L225.246,210.406L225.31,209.868L225.37,209.329L225.426,208.789L225.479,208.247L225.53,207.703L225.576,207.16L225.619,206.616L225.659,206.07L225.696,205.522L225.729,204.975L225.758,204.426L225.785,203.876L225.807,203.326L225.826,202.774L225.842,202.22L225.855,201.668L225.863,201.113L225.869,200.556L225.87,200L225.869,199.444L225.863,198.887L225.855,198.332L225.842,197.78L225.826,197.226L225.807,196.674L225.785,196.124L225.758,195.574L225.729,195.025L225.696,194.478L225.659,193.93L225.619,193.384L225.576,192.84L225.53,192.297L225.479,191.753L225.426,191.211L225.37,190.671L225.31,190.132L225.246,189.594L225.179,189.055L225.109,188.519L225.036,187.984L224.96,187.45L224.88,186.917L224.797,186.385L224.71,185.854L224.621,185.324L224.528,184.796L224.432,184.269L224.333,183.742L224.23,183.218L224.125,182.694L224.016,182.171L223.904,181.649L223.789,181.13L223.671,180.61L223.549,180.092L223.425,179.576L223.297,179.06L223.166,178.546L223.033,178.033L222.896,177.522L222.756,177.011L222.613,176.502L222.467,175.994L222.317,175.487L222.165,174.982L222.01,174.478L221.852,173.975L221.691,173.474L221.527,172.974L221.36,172.476L221.19,171.979L221.016,171.482L220.84,170.988L220.661,170.495L220.479,170.003L220.294,169.513L220.107,169.024L219.916,168.536L219.722,168.05L219.526,167.565L219.327,167.083L219.125,166.601L218.92,166.121L218.712,165.642L218.501,165.164L218.288,164.689L218.071,164.214L217.852,163.741L217.63,163.27L217.405,162.8L217.178,162.333L216.948,161.867L216.715,161.401L216.479,160.938L216.241,160.476L216,160.016L215.756,159.557L215.509,159.1L215.26,158.645L215.008,158.191L214.753,157.739L214.496,157.289L214.236,156.84L213.974,156.393L213.709,155.948L213.441,155.505L213.17,155.063L212.897,154.623L212.622,154.185L212.344,153.748L212.063,153.313L211.78,152.88L211.494,152.449L211.206,152.02L210.915,151.593L210.621,151.166L210.326,150.742L210.027,150.32L209.726,149.9L209.423,149.482L209.118,149.066L208.809,148.65L208.498,148.238L208.186,147.827L207.87,147.419L207.552,147.011L207.232,146.607L206.909,146.203L206.584,145.802L206.257,145.404L205.927,145.006L205.595,144.611L205.261,144.219L204.924,143.827L204.585,143.438L204.243,143.051L203.9,142.666L203.554,142.284L203.206,141.903L202.856,141.524L202.503,141.148L202.148,140.773L201.791,140.401L201.431,140.031L201.07,139.663L200.707,139.297L200.341,138.934L199.973,138.572L199.603,138.213L199.231,137.856L198.856,137.501L198.48,137.148L198.101,136.798L197.72,136.45L197.337,136.104L196.953,135.761L196.566,135.419L196.177,135.08L195.786,134.743L195.392,134.409L194.997,134.077L194.6,133.747L194.202,133.42L193.8,133.095L193.397,132.772L192.992,132.452L192.585,132.134L192.176,131.818L191.766,131.505L191.353,131.195L190.938,130.886L190.522,130.581L190.104,130.277L189.683,129.976L189.261,129.678L188.837,129.382L188.412,129.089L187.984,128.798L187.554,128.51L187.123,128.224L186.69,127.941L186.256,127.66L185.819,127.382L185.381,127.106L184.94,126.833L184.499,126.563L184.055,126.295L183.61,126.03L183.163,125.767L182.715,125.508L182.264,125.25L181.812,124.995L181.358,124.744L180.903,124.494L180.446,124.248L179.987,124.004L179.527,123.763L179.066,123.524L178.602,123.289L178.137,123.056L177.671,122.825L177.202,122.598L176.733,122.373L176.262,122.151L175.789,121.932L175.315,121.716L174.839,121.502L174.361,121.292L173.883,121.084L173.402,120.879L172.92,120.676L172.437,120.477L171.953,120.281L171.466,120.087L170.979,119.896L170.49,119.709L169.999,119.524L169.508,119.342L169.015,119.163L168.52,118.987L168.024,118.814L167.527,118.644L167.028,118.476L166.528,118.312L166.027,118.151L165.524,117.993L165.02,117.838L164.515,117.685L164.008,117.536L163.5,117.39L162.991,117.247L162.48,117.107L161.969,116.97L161.456,116.837L160.942,116.706L160.426,116.578L159.91,116.454L159.391,116.332L158.872,116.214L158.352,116.099L157.831,115.987L157.308,115.878L156.784,115.773L156.259,115.67L155.732,115.571L155.205,115.475L154.677,115.382L154.147,115.292L153.616,115.206L153.084,115.123L152.551,115.043L152.017,114.967L151.482,114.893L150.945,114.823L150.408,114.757L149.87,114.693L149.33,114.633L148.789,114.577L148.248,114.523L147.705,114.473L147.161,114.427L146.616,114.383L146.07,114.344L145.523,114.307L144.975,114.274L144.427,114.244L143.877,114.218L143.326,114.196L142.774,114.176L142.221,114.161L141.667,114.148L141.113,114.139L140.557,114.134L140,114.132L139.443,114.134Z"/>
                            </g>
                        </g>
                    </g>
                    <g transform="matrix(0.564427,0,0,1.36948,239.229,-77.2648)">
                        <path d="M460,75C460,66.721 443.695,60 423.612,60L86.388,60C66.305,60 50,66.721 50,75L50,105C50,113.279 66.305,120 86.388,120L423.612,120C443.695,120 460,113.279 460,105L460,75Z"/>
                    </g>
                    <g transform="matrix(0.968421,0,0,0.968421,-18.7368,31.3158)">
                        <g>
                            <g>
                                <circle cx="140" cy="200" r="100"/>
                                <path d="M140.646,100.002L141.292,100.008L141.936,100.018L142.579,100.033L143.222,100.051L143.863,100.073L144.503,100.1L145.143,100.13L145.781,100.165L146.418,100.203L147.054,100.245L147.689,100.292L148.323,100.342L148.956,100.396L149.588,100.455L150.218,100.517L150.848,100.583L151.476,100.653L152.103,100.726L152.729,100.804L153.354,100.886L153.977,100.971L154.599,101.06L155.22,101.153L155.84,101.25L156.459,101.351L157.076,101.455L157.692,101.563L158.307,101.675L158.92,101.791L159.532,101.91L160.143,102.033L160.752,102.16L161.36,102.291L161.967,102.425L162.572,102.563L163.176,102.704L163.779,102.849L164.38,102.998L164.979,103.151L165.577,103.307L166.174,103.466L166.769,103.629L167.363,103.796L167.955,103.967L168.546,104.141L169.135,104.318L169.723,104.499L170.309,104.683L170.894,104.871L171.477,105.063L172.059,105.258L172.639,105.456L173.217,105.658L173.793,105.863L174.369,106.072L174.942,106.284L175.514,106.5L176.084,106.719L176.652,106.941L177.219,107.167L177.784,107.396L178.347,107.628L178.909,107.864L179.469,108.103L180.027,108.345L180.583,108.591L181.138,108.839L181.691,109.092L182.242,109.347L182.791,109.606L183.338,109.867L183.884,110.132L184.427,110.401L184.969,110.672L185.509,110.947L186.047,111.225L186.583,111.506L187.117,111.79L187.65,112.077L188.18,112.367L188.708,112.661L189.235,112.957L189.759,113.257L190.282,113.56L190.802,113.865L191.321,114.174L191.837,114.486L192.352,114.801L192.864,115.119L193.374,115.439L193.883,115.763L194.389,116.09L194.893,116.42L195.395,116.753L195.895,117.088L196.392,117.427L196.888,117.768L197.381,118.113L197.873,118.46L198.362,118.81L198.849,119.163L199.333,119.519L199.816,119.877L200.296,120.239L200.774,120.603L201.25,120.97L201.723,121.34L202.194,121.713L202.663,122.088L203.13,122.466L203.594,122.847L204.056,123.231L204.515,123.617L204.973,124.006L205.428,124.398L205.88,124.792L206.33,125.189L206.778,125.589L207.223,125.991L207.666,126.396L208.106,126.804L208.544,127.214L208.98,127.627L209.413,128.042L209.843,128.46L210.271,128.88L210.697,129.303L211.12,129.729L211.54,130.157L211.958,130.587L212.373,131.02L212.786,131.456L213.196,131.894L213.604,132.334L214.009,132.777L214.411,133.222L214.811,133.67L215.208,134.12L215.602,134.572L215.994,135.027L216.383,135.485L216.769,135.944L217.153,136.406L217.534,136.87L217.912,137.337L218.287,137.806L218.66,138.277L219.03,138.75L219.397,139.226L219.761,139.704L220.123,140.184L220.481,140.667L220.837,141.151L221.19,141.638L221.54,142.127L221.887,142.619L222.232,143.112L222.573,143.608L222.912,144.105L223.247,144.605L223.58,145.107L223.91,145.611L224.237,146.117L224.561,146.626L224.881,147.136L225.199,147.648L225.514,148.163L225.826,148.679L226.135,149.198L226.44,149.718L226.743,150.241L227.043,150.765L227.339,151.292L227.633,151.82L227.923,152.35L228.21,152.883L228.494,153.417L228.775,153.953L229.053,154.491L229.328,155.031L229.599,155.573L229.868,156.116L230.133,156.662L230.394,157.209L230.653,157.758L230.908,158.309L231.161,158.862L231.409,159.417L231.655,159.973L231.897,160.531L232.136,161.091L232.372,161.653L232.604,162.216L232.833,162.781L233.059,163.348L233.281,163.916L233.5,164.486L233.716,165.058L233.928,165.631L234.137,166.207L234.342,166.783L234.544,167.361L234.742,167.941L234.937,168.523L235.129,169.106L235.317,169.691L235.501,170.277L235.682,170.865L235.859,171.454L236.033,172.045L236.204,172.637L236.371,173.231L236.534,173.826L236.693,174.423L236.849,175.021L237.002,175.62L237.151,176.221L237.296,176.824L237.437,177.428L237.575,178.033L237.709,178.64L237.84,179.248L237.967,179.857L238.09,180.468L238.209,181.08L238.325,181.693L238.437,182.308L238.545,182.924L238.649,183.541L238.75,184.16L238.847,184.78L238.94,185.401L239.029,186.023L239.114,186.646L239.196,187.271L239.274,187.897L239.347,188.524L239.417,189.152L239.483,189.782L239.545,190.412L239.604,191.044L239.658,191.677L239.708,192.311L239.755,192.946L239.797,193.582L239.835,194.219L239.87,194.857L239.9,195.497L239.927,196.137L239.949,196.778L239.967,197.421L239.982,198.064L239.992,198.708L239.998,199.354L240,200L239.998,200.646L239.992,201.292L239.982,201.936L239.967,202.579L239.949,203.222L239.927,203.863L239.9,204.503L239.87,205.143L239.835,205.781L239.797,206.418L239.755,207.054L239.708,207.689L239.658,208.323L239.604,208.956L239.545,209.588L239.483,210.218L239.417,210.848L239.347,211.476L239.274,212.103L239.196,212.729L239.114,213.354L239.029,213.977L238.94,214.599L238.847,215.22L238.75,215.84L238.649,216.459L238.545,217.076L238.437,217.692L238.325,218.307L238.209,218.92L238.09,219.532L237.967,220.143L237.84,220.752L237.709,221.36L237.575,221.967L237.437,222.572L237.296,223.176L237.151,223.779L237.002,224.38L236.849,224.979L236.693,225.577L236.534,226.174L236.371,226.769L236.204,227.363L236.033,227.955L235.859,228.546L235.682,229.135L235.501,229.723L235.317,230.309L235.129,230.894L234.937,231.477L234.742,232.059L234.544,232.639L234.342,233.217L234.137,233.793L233.928,234.369L233.716,234.942L233.5,235.514L233.281,236.084L233.059,236.652L232.833,237.219L232.604,237.784L232.372,238.347L232.136,238.909L231.897,239.469L231.655,240.027L231.409,240.583L231.161,241.138L230.908,241.691L230.653,242.242L230.394,242.791L230.133,243.338L229.868,243.884L229.599,244.427L229.328,244.969L229.053,245.509L228.775,246.047L228.494,246.583L228.21,247.117L227.923,247.65L227.633,248.18L227.339,248.708L227.043,249.235L226.743,249.759L226.44,250.282L226.135,250.802L225.826,251.321L225.514,251.837L225.199,252.352L224.881,252.864L224.561,253.374L224.237,253.883L223.91,254.389L223.58,254.893L223.247,255.395L222.912,255.895L222.573,256.392L222.232,256.888L221.887,257.381L221.54,257.873L221.19,258.362L220.837,258.849L220.481,259.333L220.123,259.816L219.761,260.296L219.397,260.774L219.03,261.25L218.66,261.723L218.287,262.194L217.912,262.663L217.534,263.13L217.153,263.594L216.769,264.056L216.383,264.515L215.994,264.973L215.602,265.428L215.208,265.88L214.811,266.33L214.411,266.778L214.009,267.223L213.604,267.666L213.196,268.106L212.786,268.544L212.373,268.98L211.958,269.413L211.54,269.843L211.12,270.271L210.697,270.697L210.271,271.12L209.843,271.54L209.413,271.958L208.98,272.373L208.544,272.786L208.106,273.196L207.666,273.604L207.223,274.009L206.778,274.411L206.33,274.811L205.88,275.208L205.428,275.602L204.973,275.994L204.515,276.383L204.056,276.769L203.594,277.153L203.13,277.534L202.663,277.912L202.194,278.287L201.723,278.66L201.25,279.03L200.774,279.397L200.296,279.761L199.816,280.123L199.333,280.481L198.849,280.837L198.362,281.19L197.873,281.54L197.381,281.887L196.888,282.232L196.392,282.573L195.895,282.912L195.395,283.247L194.893,283.58L194.389,283.91L193.883,284.237L193.374,284.561L192.864,284.881L192.352,285.199L191.837,285.514L191.321,285.826L190.802,286.135L190.282,286.44L189.759,286.743L189.235,287.043L188.708,287.339L188.18,287.633L187.65,287.923L187.117,288.21L186.583,288.494L186.047,288.775L185.509,289.053L184.969,289.328L184.427,289.599L183.884,289.868L183.338,290.133L182.791,290.394L182.242,290.653L181.691,290.908L181.138,291.161L180.583,291.409L180.027,291.655L179.469,291.897L178.909,292.136L178.347,292.372L177.784,292.604L177.219,292.833L176.652,293.059L176.084,293.281L175.514,293.5L174.942,293.716L174.369,293.928L173.793,294.137L173.217,294.342L172.639,294.544L172.059,294.742L171.477,294.937L170.894,295.129L170.309,295.317L169.723,295.501L169.135,295.682L168.546,295.859L167.955,296.033L167.363,296.204L166.769,296.371L166.174,296.534L165.577,296.693L164.979,296.849L164.38,297.002L163.779,297.151L163.176,297.296L162.572,297.437L161.967,297.575L161.36,297.709L160.752,297.84L160.143,297.967L159.532,298.09L158.92,298.209L158.307,298.325L157.692,298.437L157.076,298.545L156.459,298.649L155.84,298.75L155.22,298.847L154.599,298.94L153.977,299.029L153.354,299.114L152.729,299.196L152.103,299.274L151.476,299.347L150.848,299.417L150.218,299.483L149.588,299.545L148.956,299.604L148.323,299.658L147.689,299.708L147.054,299.755L146.418,299.797L145.781,299.835L145.143,299.87L144.503,299.9L143.863,299.927L143.222,299.949L142.579,299.967L141.936,299.982L141.292,299.992L140.646,299.998L140,300L139.354,299.998L138.708,299.992L138.064,299.982L137.421,299.967L136.778,299.949L136.137,299.927L135.497,299.9L134.857,299.87L134.219,299.835L133.582,299.797L132.946,299.755L132.311,299.708L131.677,299.658L131.044,299.604L130.412,299.545L129.782,299.483L129.152,299.417L128.524,299.347L127.897,299.274L127.271,299.196L126.646,299.114L126.023,299.029L125.401,298.94L124.78,298.847L124.16,298.75L123.541,298.649L122.924,298.545L122.308,298.437L121.693,298.325L121.08,298.209L120.468,298.09L119.857,297.967L119.248,297.84L118.64,297.709L118.033,297.575L117.428,297.437L116.824,297.296L116.221,297.151L115.62,297.002L115.021,296.849L114.423,296.693L113.826,296.534L113.231,296.371L112.637,296.204L112.045,296.033L111.454,295.859L110.865,295.682L110.277,295.501L109.691,295.317L109.106,295.129L108.523,294.937L107.941,294.742L107.361,294.544L106.783,294.342L106.207,294.137L105.631,293.928L105.058,293.716L104.486,293.5L103.916,293.281L103.348,293.059L102.781,292.833L102.216,292.604L101.653,292.372L101.091,292.136L100.531,291.897L99.973,291.655L99.417,291.409L98.862,291.161L98.309,290.908L97.758,290.653L97.209,290.394L96.662,290.133L96.116,289.868L95.573,289.599L95.031,289.328L94.491,289.053L93.953,288.775L93.417,288.494L92.883,288.21L92.35,287.923L91.82,287.633L91.292,287.339L90.765,287.043L90.241,286.743L89.718,286.44L89.198,286.135L88.679,285.826L88.163,285.514L87.648,285.199L87.136,284.881L86.626,284.561L86.117,284.237L85.611,283.91L85.107,283.58L84.605,283.247L84.105,282.912L83.608,282.573L83.112,282.232L82.619,281.887L82.127,281.54L81.638,281.19L81.151,280.837L80.667,280.481L80.184,280.123L79.704,279.761L79.226,279.397L78.75,279.03L78.277,278.66L77.806,278.287L77.337,277.912L76.87,277.534L76.406,277.153L75.944,276.769L75.485,276.383L75.027,275.994L74.572,275.602L74.12,275.208L73.67,274.811L73.222,274.411L72.777,274.009L72.334,273.604L71.894,273.196L71.456,272.786L71.02,272.373L70.587,271.958L70.157,271.54L69.729,271.12L69.303,270.697L68.88,270.271L68.46,269.843L68.042,269.413L67.627,268.98L67.214,268.544L66.804,268.106L66.396,267.666L65.991,267.223L65.589,266.778L65.189,266.33L64.792,265.88L64.398,265.428L64.006,264.973L63.617,264.515L63.231,264.056L62.847,263.594L62.466,263.13L62.088,262.663L61.713,262.194L61.34,261.723L60.97,261.25L60.603,260.774L60.239,260.296L59.877,259.816L59.519,259.333L59.163,258.849L58.81,258.362L58.46,257.873L58.113,257.381L57.768,256.888L57.427,256.392L57.088,255.895L56.753,255.395L56.42,254.893L56.09,254.389L55.763,253.883L55.439,253.374L55.119,252.864L54.801,252.352L54.486,251.837L54.174,251.321L53.865,250.802L53.56,250.282L53.257,249.759L52.957,249.235L52.661,248.708L52.367,248.18L52.077,247.65L51.79,247.117L51.506,246.583L51.225,246.047L50.947,245.509L50.672,244.969L50.401,244.427L50.132,243.884L49.867,243.338L49.606,242.791L49.347,242.242L49.092,241.691L48.839,241.138L48.591,240.583L48.345,240.027L48.103,239.469L47.864,238.909L47.628,238.347L47.396,237.784L47.167,237.219L46.941,236.652L46.719,236.084L46.5,235.514L46.284,234.942L46.072,234.369L45.863,233.793L45.658,233.217L45.456,232.639L45.258,232.059L45.063,231.477L44.871,230.894L44.683,230.309L44.499,229.723L44.318,229.135L44.141,228.546L43.967,227.955L43.796,227.363L43.629,226.769L43.466,226.174L43.307,225.577L43.151,224.979L42.998,224.38L42.849,223.779L42.704,223.176L42.563,222.572L42.425,221.967L42.291,221.36L42.16,220.752L42.033,220.143L41.91,219.532L41.791,218.92L41.675,218.307L41.563,217.692L41.455,217.076L41.351,216.459L41.25,215.84L41.153,215.22L41.06,214.599L40.971,213.977L40.886,213.354L40.804,212.729L40.726,212.103L40.653,211.476L40.583,210.848L40.517,210.218L40.455,209.588L40.396,208.956L40.342,208.323L40.292,207.689L40.245,207.054L40.203,206.418L40.165,205.781L40.13,205.143L40.1,204.503L40.073,203.863L40.051,203.222L40.033,202.579L40.018,201.936L40.008,201.292L40.002,200.646L40,200L40.002,199.354L40.008,198.708L40.018,198.064L40.033,197.421L40.051,196.778L40.073,196.137L40.1,195.497L40.13,194.857L40.165,194.219L40.203,193.582L40.245,192.946L40.292,192.311L40.342,191.677L40.396,191.044L40.455,190.412L40.517,189.782L40.583,189.152L40.653,188.524L40.726,187.897L40.804,187.271L40.886,186.646L40.971,186.023L41.06,185.401L41.153,184.78L41.25,184.16L41.351,183.541L41.455,182.924L41.563,182.308L41.675,181.693L41.791,181.08L41.91,180.468L42.033,179.857L42.16,179.248L42.291,178.64L42.425,178.033L42.563,177.428L42.704,176.824L42.849,176.221L42.998,175.62L43.151,175.021L43.307,174.423L43.466,173.826L43.629,173.231L43.796,172.637L43.967,172.045L44.141,171.454L44.318,170.865L44.499,170.277L44.683,169.691L44.871,169.106L45.063,168.523L45.258,167.941L45.456,167.361L45.658,166.783L45.863,166.207L46.072,165.631L46.284,165.058L46.5,164.486L46.719,163.916L46.941,163.348L47.167,162.781L47.396,162.216L47.628,161.653L47.864,161.091L48.103,160.531L48.345,159.973L48.591,159.417L48.839,158.862L49.092,158.309L49.347,157.758L49.606,157.209L49.867,156.662L50.132,156.116L50.401,155.573L50.672,155.031L50.947,154.491L51.225,153.953L51.506,153.417L51.79,152.883L52.077,152.35L52.367,151.82L52.661,151.292L52.957,150.765L53.257,150.241L53.56,149.718L53.865,149.198L54.174,148.679L54.486,148.163L54.801,147.648L55.119,147.136L55.439,146.626L55.763,146.117L56.09,145.611L56.42,145.107L56.753,144.605L57.088,144.105L57.427,143.608L57.768,143.112L58.113,142.619L58.46,142.127L58.81,141.638L59.163,141.151L59.519,140.667L59.877,140.184L60.239,139.704L60.603,139.226L60.97,138.75L61.34,138.277L61.713,137.806L62.088,137.337L62.466,136.87L62.847,136.406L63.231,135.944L63.617,135.485L64.006,135.027L64.398,134.572L64.792,134.12L65.189,133.67L65.589,133.222L65.991,132.777L66.396,132.334L66.804,131.894L67.214,131.456L67.627,131.02L68.042,130.587L68.46,130.157L68.88,129.729L69.303,129.303L69.729,128.88L70.157,128.46L70.587,128.042L71.02,127.627L71.456,127.214L71.894,126.804L72.334,126.396L72.777,125.991L73.222,125.589L73.67,125.189L74.12,124.792L74.572,124.398L75.027,124.006L75.485,123.617L75.944,123.231L76.406,122.847L76.87,122.466L77.337,122.088L77.806,121.713L78.277,121.34L78.75,120.97L79.226,120.603L79.704,120.239L80.184,119.877L80.667,119.519L81.151,119.163L81.638,118.81L82.127,118.46L82.619,118.113L83.112,117.768L83.608,117.427L84.105,117.088L84.605,116.753L85.107,116.42L85.611,116.09L86.117,115.763L86.626,115.439L87.136,115.119L87.648,114.801L88.163,114.486L88.679,114.174L89.198,113.865L89.718,113.56L90.241,113.257L90.765,112.957L91.292,112.661L91.82,112.367L92.35,112.077L92.883,111.79L93.417,111.506L93.953,111.225L94.491,110.947L95.031,110.672L95.573,110.401L96.116,110.132L96.662,109.867L97.209,109.606L97.758,109.347L98.309,109.092L98.862,108.839L99.417,108.591L99.973,108.345L100.531,108.103L101.091,107.864L101.653,107.628L102.216,107.396L102.781,107.167L103.348,106.941L103.916,106.719L104.486,106.5L105.058,106.284L105.631,106.072L106.207,105.863L106.783,105.658L107.361,105.456L107.941,105.258L108.523,105.063L109.106,104.871L109.691,104.683L110.277,104.499L110.865,104.318L111.454,104.141L112.045,103.967L112.637,103.796L113.231,103.629L113.826,103.466L114.423,103.307L115.021,103.151L115.62,102.998L116.221,102.849L116.824,102.704L117.428,102.563L118.033,102.425L118.64,102.291L119.248,102.16L119.857,102.033L120.468,101.91L121.08,101.791L121.693,101.675L122.308,101.563L122.924,101.455L123.541,101.351L124.16,101.25L124.78,101.153L125.401,101.06L126.023,100.971L126.646,100.886L127.271,100.804L127.897,100.726L128.524,100.653L129.152,100.583L129.782,100.517L130.412,100.455L131.044,100.396L131.677,100.342L132.311,100.292L132.946,100.245L133.582,100.203L134.219,100.165L134.857,100.13L135.497,100.1L136.137,100.073L136.778,100.051L137.421,100.033L138.064,100.018L138.708,100.008L139.354,100.002L140,100L140.646,100.002ZM139.443,114.134L138.887,114.139L138.333,114.148L137.779,114.161L137.226,114.176L136.674,114.196L136.123,114.218L135.573,114.244L135.025,114.274L134.477,114.307L133.93,114.344L133.384,114.383L132.839,114.427L132.295,114.473L131.753,114.523L131.211,114.577L130.67,114.633L130.131,114.693L129.592,114.757L129.055,114.823L128.518,114.893L127.983,114.967L127.449,115.043L126.916,115.123L126.384,115.206L125.853,115.292L125.323,115.382L124.795,115.475L124.267,115.571L123.741,115.67L123.216,115.773L122.692,115.878L122.17,115.987L121.648,116.099L121.128,116.214L120.608,116.332L120.091,116.454L119.574,116.578L119.058,116.706L118.544,116.836L118.031,116.97L117.519,117.107L117.009,117.247L116.5,117.39L115.992,117.536L115.485,117.686L114.98,117.838L114.476,117.993L113.973,118.151L113.472,118.312L112.972,118.476L112.473,118.644L111.976,118.814L111.48,118.987L110.985,119.163L110.492,119.342L110,119.524L109.51,119.709L109.021,119.897L108.533,120.087L108.048,120.281L107.563,120.477L107.079,120.677L106.598,120.879L106.117,121.084L105.638,121.292L105.161,121.502L104.686,121.716L104.211,121.932L103.738,122.151L103.267,122.373L102.798,122.598L102.329,122.825L101.863,123.055L101.398,123.288L100.934,123.524L100.472,123.763L100.012,124.004L99.554,124.248L99.097,124.494L98.642,124.744L98.188,124.995L97.736,125.25L97.286,125.507L96.837,125.767L96.39,126.03L95.945,126.295L95.501,126.563L95.06,126.833L94.619,127.106L94.181,127.382L93.745,127.66L93.309,127.941L92.876,128.224L92.446,128.51L92.016,128.798L91.588,129.089L91.163,129.382L90.739,129.678L90.317,129.976L89.896,130.277L89.478,130.581L89.061,130.886L88.647,131.195L88.234,131.505L87.824,131.818L87.415,132.134L87.008,132.452L86.603,132.772L86.2,133.095L85.799,133.419L85.4,133.747L85.003,134.077L84.608,134.409L84.214,134.743L83.823,135.08L83.434,135.419L83.047,135.761L82.663,136.104L82.28,136.449L81.899,136.798L81.52,137.148L81.144,137.501L80.769,137.856L80.397,138.213L80.027,138.572L79.659,138.934L79.294,139.297L78.93,139.663L78.568,140.031L78.209,140.401L77.852,140.773L77.497,141.148L77.144,141.524L76.794,141.903L76.446,142.284L76.1,142.667L75.756,143.051L75.415,143.438L75.076,143.827L74.739,144.218L74.405,144.611L74.073,145.006L73.743,145.403L73.416,145.803L73.09,146.204L72.768,146.607L72.448,147.011L72.13,147.418L71.815,147.827L71.502,148.238L71.191,148.651L70.883,149.065L70.577,149.482L70.274,149.9L69.973,150.32L69.674,150.743L69.379,151.166L69.085,151.592L68.794,152.02L68.506,152.449L68.22,152.88L67.937,153.313L67.656,153.748L67.378,154.185L67.102,154.623L66.83,155.063L66.559,155.505L66.292,155.948L66.026,156.394L65.764,156.841L65.504,157.289L65.247,157.739L64.992,158.191L64.74,158.645L64.491,159.1L64.244,159.557L64,160.016L63.759,160.476L63.521,160.938L63.285,161.401L63.052,161.866L62.822,162.333L62.594,162.801L62.37,163.27L62.148,163.741L61.929,164.214L61.712,164.689L61.499,165.164L61.288,165.642L61.08,166.12L60.875,166.6L60.673,167.082L60.474,167.566L60.277,168.05L60.084,168.536L59.893,169.024L59.706,169.513L59.521,170.003L59.339,170.495L59.16,170.988L58.984,171.483L58.811,171.979L58.64,172.476L58.473,172.974L58.309,173.474L58.148,173.976L57.99,174.478L57.835,174.982L57.682,175.488L57.533,175.994L57.387,176.502L57.244,177.011L57.104,177.522L56.967,178.033L56.834,178.546L56.703,179.06L56.575,179.576L56.451,180.092L56.329,180.61L56.211,181.13L56.096,181.65L55.984,182.171L55.875,182.694L55.77,183.218L55.667,183.743L55.568,184.269L55.472,184.796L55.379,185.325L55.29,185.854L55.203,186.385L55.12,186.917L55.04,187.45L54.964,187.984L54.891,188.519L54.821,189.056L54.754,189.593L54.691,190.131L54.631,190.671L54.574,191.212L54.52,191.753L54.47,192.296L54.424,192.84L54.381,193.385L54.341,193.93L54.304,194.477L54.271,195.025L54.242,195.574L54.216,196.124L54.193,196.674L54.174,197.226L54.158,197.779L54.145,198.333L54.137,198.888L54.131,199.444L54.13,200L54.131,200.557L54.137,201.112L54.145,201.667L54.158,202.221L54.174,202.774L54.193,203.326L54.215,203.876L54.242,204.426L54.271,204.975L54.304,205.523L54.341,206.07L54.381,206.615L54.424,207.16L54.47,207.704L54.52,208.247L54.574,208.788L54.631,209.329L54.691,209.869L54.754,210.407L54.821,210.944L54.891,211.481L54.964,212.016L55.04,212.55L55.12,213.083L55.203,213.615L55.29,214.146L55.379,214.675L55.472,215.204L55.568,215.731L55.667,216.257L55.77,216.782L55.875,217.306L55.984,217.829L56.096,218.35L56.211,218.87L56.329,219.39L56.451,219.908L56.575,220.424L56.703,220.94L56.834,221.454L56.967,221.967L57.104,222.478L57.244,222.989L57.387,223.498L57.533,224.006L57.682,224.512L57.835,225.018L57.99,225.522L58.148,226.024L58.309,226.526L58.473,227.026L58.64,227.524L58.811,228.021L58.984,228.518L59.16,229.012L59.339,229.505L59.521,229.997L59.706,230.487L59.893,230.976L60.084,231.464L60.277,231.95L60.474,232.434L60.673,232.918L60.875,233.4L61.08,233.88L61.288,234.358L61.499,234.836L61.712,235.312L61.929,235.786L62.148,236.259L62.37,236.73L62.594,237.199L62.822,237.668L63.052,238.134L63.285,238.599L63.521,239.062L63.759,239.524L64,239.984L64.244,240.443L64.491,240.9L64.74,241.355L64.992,241.809L65.247,242.261L65.504,242.711L65.764,243.159L66.026,243.606L66.292,244.052L66.559,244.495L66.83,244.937L67.102,245.377L67.378,245.815L67.656,246.252L67.937,246.687L68.22,247.12L68.506,247.551L68.794,247.98L69.085,248.408L69.379,248.834L69.674,249.258L69.973,249.68L70.274,250.1L70.577,250.518L70.883,250.935L71.191,251.349L71.502,251.762L71.815,252.173L72.13,252.582L72.448,252.989L72.768,253.393L73.09,253.796L73.416,254.197L73.743,254.597L74.073,254.994L74.405,255.389L74.739,255.782L75.076,256.173L75.415,256.562L75.756,256.949L76.1,257.333L76.446,257.716L76.794,258.097L77.144,258.476L77.497,258.852L77.852,259.227L78.209,259.599L78.568,259.969L78.93,260.337L79.294,260.703L79.659,261.066L80.027,261.428L80.397,261.787L80.769,262.144L81.144,262.499L81.521,262.852L81.899,263.202L82.28,263.551L82.663,263.896L83.047,264.239L83.434,264.581L83.823,264.92L84.214,265.257L84.608,265.591L85.003,265.923L85.4,266.253L85.799,266.58L86.2,266.905L86.603,267.228L87.008,267.548L87.415,267.866L87.824,268.182L88.234,268.495L88.647,268.805L89.062,269.114L89.478,269.419L89.896,269.723L90.317,270.024L90.738,270.322L91.163,270.618L91.588,270.911L92.016,271.202L92.446,271.49L92.876,271.776L93.309,272.059L93.745,272.34L94.181,272.618L94.619,272.894L95.06,273.167L95.501,273.437L95.945,273.705L96.39,273.97L96.837,274.233L97.286,274.493L97.736,274.75L98.188,275.005L98.642,275.257L99.097,275.506L99.554,275.752L100.012,275.996L100.472,276.237L100.934,276.476L101.398,276.712L101.863,276.945L102.329,277.175L102.798,277.402L103.267,277.627L103.738,277.849L104.211,278.068L104.686,278.284L105.161,278.498L105.638,278.708L106.117,278.916L106.598,279.121L107.079,279.323L107.563,279.523L108.048,279.719L108.533,279.913L109.021,280.103L109.51,280.291L110,280.476L110.492,280.658L110.985,280.837L111.48,281.013L111.976,281.186L112.473,281.356L112.972,281.524L113.472,281.688L113.973,281.849L114.476,282.007L114.98,282.162L115.485,282.314L115.992,282.464L116.5,282.61L117.009,282.753L117.519,282.893L118.031,283.03L118.544,283.164L119.058,283.294L119.574,283.422L120.091,283.546L120.608,283.668L121.128,283.786L121.648,283.901L122.169,284.013L122.692,284.122L123.216,284.227L123.741,284.33L124.267,284.429L124.795,284.525L125.323,284.618L125.853,284.708L126.384,284.794L126.916,284.877L127.449,284.957L127.983,285.033L128.518,285.107L129.055,285.177L129.592,285.243L130.131,285.307L130.67,285.367L131.211,285.423L131.753,285.477L132.295,285.527L132.839,285.573L133.384,285.617L133.93,285.656L134.477,285.693L135.024,285.726L135.573,285.756L136.123,285.782L136.674,285.804L137.226,285.824L137.779,285.839L138.333,285.852L138.888,285.861L139.443,285.866L140,285.868L140.557,285.866L141.112,285.861L141.667,285.852L142.221,285.839L142.774,285.824L143.326,285.804L143.877,285.782L144.427,285.756L144.976,285.726L145.523,285.693L146.07,285.656L146.616,285.617L147.161,285.573L147.705,285.527L148.248,285.477L148.789,285.423L149.33,285.367L149.869,285.307L150.408,285.243L150.945,285.177L151.482,285.107L152.017,285.033L152.551,284.957L153.084,284.877L153.616,284.794L154.147,284.708L154.677,284.618L155.205,284.525L155.732,284.429L156.259,284.33L156.784,284.227L157.308,284.122L157.831,284.013L158.352,283.901L158.872,283.786L159.391,283.668L159.91,283.546L160.426,283.422L160.942,283.294L161.456,283.163L161.969,283.03L162.48,282.893L162.991,282.753L163.5,282.61L164.008,282.464L164.515,282.315L165.02,282.162L165.524,282.007L166.027,281.849L166.528,281.688L167.028,281.524L167.527,281.356L168.024,281.186L168.52,281.013L169.015,280.837L169.508,280.658L169.999,280.476L170.49,280.291L170.979,280.104L171.466,279.913L171.953,279.719L172.437,279.523L172.92,279.324L173.402,279.121L173.883,278.916L174.361,278.708L174.839,278.498L175.314,278.284L175.789,278.068L176.262,277.849L176.733,277.627L177.202,277.402L177.671,277.175L178.137,276.944L178.602,276.711L179.066,276.476L179.527,276.237L179.987,275.996L180.446,275.752L180.903,275.506L181.358,275.257L181.812,275.005L182.264,274.75L182.715,274.492L183.163,274.233L183.61,273.97L184.056,273.705L184.499,273.437L184.94,273.167L185.381,272.894L185.819,272.618L186.256,272.34L186.69,272.059L187.123,271.776L187.554,271.49L187.984,271.202L188.412,270.911L188.837,270.618L189.261,270.322L189.683,270.024L190.104,269.723L190.522,269.419L190.938,269.114L191.353,268.805L191.766,268.495L192.176,268.182L192.585,267.866L192.992,267.548L193.397,267.228L193.8,266.905L194.202,266.58L194.6,266.253L194.997,265.923L195.392,265.591L195.786,265.257L196.177,264.92L196.566,264.581L196.953,264.239L197.337,263.896L197.72,263.55L198.101,263.202L198.479,262.852L198.856,262.499L199.231,262.144L199.603,261.787L199.973,261.428L200.341,261.066L200.707,260.703L201.07,260.337L201.432,259.969L201.791,259.599L202.148,259.227L202.503,258.852L202.856,258.476L203.206,258.097L203.554,257.716L203.9,257.334L204.244,256.949L204.585,256.562L204.924,256.173L205.261,255.781L205.595,255.389L205.927,254.994L206.257,254.596L206.584,254.198L206.909,253.797L207.232,253.393L207.552,252.989L207.87,252.582L208.186,252.172L208.498,251.762L208.809,251.35L209.118,250.934L209.423,250.518L209.726,250.1L210.027,249.68L210.325,249.258L210.621,248.834L210.915,248.407L211.206,247.98L211.494,247.551L211.78,247.12L212.063,246.687L212.344,246.252L212.622,245.815L212.897,245.377L213.17,244.937L213.441,244.495L213.709,244.052L213.974,243.607L214.236,243.16L214.496,242.711L214.753,242.261L215.008,241.809L215.26,241.355L215.509,240.9L215.756,240.443L216,239.984L216.241,239.524L216.479,239.062L216.715,238.599L216.948,238.134L217.178,237.667L217.405,237.2L217.63,236.73L217.852,236.259L218.071,235.786L218.288,235.311L218.501,234.836L218.712,234.358L218.92,233.879L219.125,233.399L219.327,232.917L219.526,232.435L219.722,231.95L219.916,231.464L220.107,230.976L220.294,230.487L220.479,229.997L220.661,229.505L220.84,229.012L221.016,228.518L221.19,228.021L221.36,227.524L221.527,227.026L221.691,226.526L221.852,226.025L222.01,225.522L222.166,225.018L222.317,224.513L222.467,224.006L222.613,223.498L222.756,222.989L222.896,222.478L223.033,221.967L223.166,221.454L223.297,220.94L223.425,220.424L223.549,219.908L223.671,219.39L223.789,218.87L223.904,218.351L224.016,217.829L224.125,217.306L224.23,216.782L224.333,216.258L224.432,215.731L224.528,215.204L224.621,214.676L224.71,214.146L224.797,213.615L224.88,213.083L224.96,212.55L225.036,212.016L225.109,211.481L225.179,210.945L225.246,210.406L225.31,209.868L225.37,209.329L225.426,208.789L225.479,208.247L225.53,207.703L225.576,207.16L225.619,206.616L225.659,206.07L225.696,205.522L225.729,204.975L225.758,204.426L225.785,203.876L225.807,203.326L225.826,202.774L225.842,202.22L225.855,201.668L225.863,201.113L225.869,200.556L225.87,200L225.869,199.444L225.863,198.887L225.855,198.332L225.842,197.78L225.826,197.226L225.807,196.674L225.785,196.124L225.758,195.574L225.729,195.025L225.696,194.478L225.659,193.93L225.619,193.384L225.576,192.84L225.53,192.297L225.479,191.753L225.426,191.211L225.37,190.671L225.31,190.132L225.246,189.594L225.179,189.055L225.109,188.519L225.036,187.984L224.96,187.45L224.88,186.917L224.797,186.385L224.71,185.854L224.621,185.324L224.528,184.796L224.432,184.269L224.333,183.742L224.23,183.218L224.125,182.694L224.016,182.171L223.904,181.649L223.789,181.13L223.671,180.61L223.549,180.092L223.425,179.576L223.297,179.06L223.166,178.546L223.033,178.033L222.896,177.522L222.756,177.011L222.613,176.502L222.467,175.994L222.317,175.487L222.165,174.982L222.01,174.478L221.852,173.975L221.691,173.474L221.527,172.974L221.36,172.476L221.19,171.979L221.016,171.482L220.84,170.988L220.661,170.495L220.479,170.003L220.294,169.513L220.107,169.024L219.916,168.536L219.722,168.05L219.526,167.565L219.327,167.083L219.125,166.601L218.92,166.121L218.712,165.642L218.501,165.164L218.288,164.689L218.071,164.214L217.852,163.741L217.63,163.27L217.405,162.8L217.178,162.333L216.948,161.867L216.715,161.401L216.479,160.938L216.241,160.476L216,160.016L215.756,159.557L215.509,159.1L215.26,158.645L215.008,158.191L214.753,157.739L214.496,157.289L214.236,156.84L213.974,156.393L213.709,155.948L213.441,155.505L213.17,155.063L212.897,154.623L212.622,154.185L212.344,153.748L212.063,153.313L211.78,152.88L211.494,152.449L211.206,152.02L210.915,151.593L210.621,151.166L210.326,150.742L210.027,150.32L209.726,149.9L209.423,149.482L209.118,149.066L208.809,148.65L208.498,148.238L208.186,147.827L207.87,147.419L207.552,147.011L207.232,146.607L206.909,146.203L206.584,145.802L206.257,145.404L205.927,145.006L205.595,144.611L205.261,144.219L204.924,143.827L204.585,143.438L204.243,143.051L203.9,142.666L203.554,142.284L203.206,141.903L202.856,141.524L202.503,141.148L202.148,140.773L201.791,140.401L201.431,140.031L201.07,139.663L200.707,139.297L200.341,138.934L199.973,138.572L199.603,138.213L199.231,137.856L198.856,137.501L198.48,137.148L198.101,136.798L197.72,136.45L197.337,136.104L196.953,135.761L196.566,135.419L196.177,135.08L195.786,134.743L195.392,134.409L194.997,134.077L194.6,133.747L194.202,133.42L193.8,133.095L193.397,132.772L192.992,132.452L192.585,132.134L192.176,131.818L191.766,131.505L191.353,131.195L190.938,130.886L190.522,130.581L190.104,130.277L189.683,129.976L189.261,129.678L188.837,129.382L188.412,129.089L187.984,128.798L187.554,128.51L187.123,128.224L186.69,127.941L186.256,127.66L185.819,127.382L185.381,127.106L184.94,126.833L184.499,126.563L184.055,126.295L183.61,126.03L183.163,125.767L182.715,125.508L182.264,125.25L181.812,124.995L181.358,124.744L180.903,124.494L180.446,124.248L179.987,124.004L179.527,123.763L179.066,123.524L178.602,123.289L178.137,123.056L177.671,122.825L177.202,122.598L176.733,122.373L176.262,122.151L175.789,121.932L175.315,121.716L174.839,121.502L174.361,121.292L173.883,121.084L173.402,120.879L172.92,120.676L172.437,120.477L171.953,120.281L171.466,120.087L170.979,119.896L170.49,119.709L169.999,119.524L169.508,119.342L169.015,119.163L168.52,118.987L168.024,118.814L167.527,118.644L167.028,118.476L166.528,118.312L166.027,118.151L165.524,117.993L165.02,117.838L164.515,117.685L164.008,117.536L163.5,117.39L162.991,117.247L162.48,117.107L161.969,116.97L161.456,116.837L160.942,116.706L160.426,116.578L159.91,116.454L159.391,116.332L158.872,116.214L158.352,116.099L157.831,115.987L157.308,115.878L156.784,115.773L156.259,115.67L155.732,115.571L155.205,115.475L154.677,115.382L154.147,115.292L153.616,115.206L153.084,115.123L152.551,115.043L152.017,114.967L151.482,114.893L150.945,114.823L150.408,114.757L149.87,114.693L149.33,114.633L148.789,114.577L148.248,114.523L147.705,114.473L147.161,114.427L146.616,114.383L146.07,114.344L145.523,114.307L144.975,114.274L144.427,114.244L143.877,114.218L143.326,114.196L142.774,114.176L142.221,114.161L141.667,114.148L141.113,114.139L140.557,114.134L140,114.132L139.443,114.134Z"/>
                            </g>
                        </g>
                    </g>
                    <g transform="matrix(0.564427,0,0,1.36948,-27.0867,-77.2648)">
                        <path d="M460,75C460,66.721 443.695,60 423.612,60L86.388,60C66.305,60 50,66.721 50,75L50,105C50,113.279 66.305,120 86.388,120L423.612,120C443.695,120 460,113.279 460,105L460,75Z"/>
                    </g>
                </g>
            </g>
        </g>
        <g transform="matrix(1.98575,0,0,1.98575,-8.35241,-284.576)">
            <text x="37.081px" y="288.689px" style="font-family:'Arial-BoldMT', 'Arial', sans-serif;font-weight:700;font-size:50px;">VIZH</text>
        </g>
    </g>
</svg>
