<?xml version="1.0" encoding="UTF-8" standalone="no"?>
<!DOCTYPE svg PUBLIC "-//W3C//DTD SVG 1.1//EN" "http://www.w3.org/Graphics/SVG/1.1/DTD/svg11.dtd">
<svg width="100%" height="100%" viewBox="0 0 700 700" version="1.1" xmlns="http://www.w3.org/2000/svg" xmlns:xlink="http://www.w3.org/1999/xlink" xml:space="preserve" xmlns:serif="http://www.serif.com/" style="fill-rule:evenodd;clip-rule:evenodd;stroke-linecap:round;stroke-linejoin:round;stroke-miterlimit:1.5;">
    <g>
        <g transform="matrix(0.934443,-0.356114,0.356114,0.934443,-99.4701,141.585)">
            <g transform="matrix(1.23288,-0.0812532,0.0812532,1.23288,-184.392,-132.199)">
                <path d="M340.695,211.373C343.455,197.419 353.278,185.907 366.625,180.986C379.971,176.064 394.916,178.444 406.075,187.266C535.784,289.594 609.405,396.668 588.508,511.683C584.182,535.596 563.363,552.986 539.062,552.986C483.068,553 375.05,553 283.655,553C265.621,553 249.1,542.918 240.852,526.88C232.604,510.842 234.014,491.54 244.504,476.87C285.885,419.064 317.6,329.455 340.695,211.373Z" style="fill:rgb(224,224,224);"/>
            </g>
            <g transform="matrix(1.23555,0,0,1.23555,-156.915,-162.347)">
                <path d="M340.695,211.373C343.455,197.419 353.278,185.907 366.625,180.986C379.971,176.064 394.916,178.444 406.075,187.266C535.784,289.594 609.405,396.668 588.508,511.683C584.182,535.596 563.363,552.986 539.062,552.986C483.068,553 375.05,553 283.655,553C265.621,553 249.1,542.918 240.852,526.88C232.604,510.842 234.014,491.54 244.504,476.87C285.885,419.064 317.6,329.455 340.695,211.373Z" style="fill:rgb(104,159,200);"/>
            </g>
        </g>
        <g transform="matrix(1.27779,0,0,1.27779,-97.6448,40.5108)">
            <g>
                <g>
                    <g transform="matrix(1,0,0,1,9.37178,0)">
                        <path d="M320.945,432C349.012,430.361 400.992,423.952 407,435C408.846,438.394 377.426,442 341,442C304.574,442 276.346,438.621 275,435C272.265,427.643 276.843,434.575 320.945,432Z" style="fill:rgb(220,220,220);"/>
                    </g>
                    <g transform="matrix(0.857143,0,0,1,37.381,-10.8829)">
                        <path d="M450,131.249C450,129.592 449.232,128.002 447.864,126.83C446.497,125.658 444.643,125 442.709,125C414.242,125 310.758,125 282.291,125C280.357,125 278.503,125.658 277.136,126.83C275.768,128.002 275,129.592 275,131.249C275,170.243 275,379.757 275,418.751C275,420.408 275.768,421.998 277.136,423.17C278.503,424.342 280.357,425 282.291,425C310.758,425 414.242,425 442.709,425C444.643,425 446.497,424.342 447.864,423.17C449.232,421.998 450,420.408 450,418.751C450,379.757 450,170.243 450,131.249Z" style="fill:rgb(224,224,224);"/>
                    </g>
                    <g transform="matrix(0.857143,0,0,1,39.2857,-12.5)">
                        <path d="M450,131.249C450,129.592 449.232,128.002 447.864,126.83C446.497,125.658 444.643,125 442.709,125C414.242,125 310.758,125 282.291,125C280.357,125 278.503,125.658 277.136,126.83C275.768,128.002 275,129.592 275,131.249C275,170.243 275,379.757 275,418.751C275,420.408 275.768,421.998 277.136,423.17C278.503,424.342 280.357,425 282.291,425C310.758,425 414.242,425 442.709,425C444.643,425 446.497,424.342 447.864,423.17C449.232,421.998 450,420.408 450,418.751C450,379.757 450,170.243 450,131.249Z" style="fill:white;"/>
                        <clipPath id="_clip1">
                            <path d="M450,131.249C450,129.592 449.232,128.002 447.864,126.83C446.497,125.658 444.643,125 442.709,125C414.242,125 310.758,125 282.291,125C280.357,125 278.503,125.658 277.136,126.83C275.768,128.002 275,129.592 275,131.249C275,170.243 275,379.757 275,418.751C275,420.408 275.768,421.998 277.136,423.17C278.503,424.342 280.357,425 282.291,425C310.758,425 414.242,425 442.709,425C444.643,425 446.497,424.342 447.864,423.17C449.232,421.998 450,420.408 450,418.751C450,379.757 450,170.243 450,131.249Z"/>
                        </clipPath>
                        <g clip-path="url(#_clip1)">
                            <g transform="matrix(0.271379,0,0,0.232611,253.015,112.72)">
                                <text x="286.501px" y="234.863px" style="font-family:'ArialMT', 'Arial', sans-serif;font-size:50px;">Menu Item</text>
                            </g>
                        </g>
                        <g transform="matrix(1,0,0,0.0833333,0,114.583)">
                            <path d="M450,199.994C450,158.576 446.736,125 442.709,125C414.242,125 310.758,125 282.291,125C278.264,125 275,158.576 275,199.994C275,288.853 275,425 275,425L450,425C450,425 450,288.853 450,199.994Z" style="fill:rgb(154,202,238);"/>
                        </g>
                        <g transform="matrix(-1,-1.22465e-16,1.02054e-17,-0.0833333,725,435.417)">
                            <path d="M450,199.994C450,158.576 446.736,125 442.709,125C414.242,125 310.758,125 282.291,125C278.264,125 275,158.576 275,199.994C275,288.853 275,425 275,425L450,425C450,425 450,288.853 450,199.994Z" style="fill:rgb(154,202,238);"/>
                        </g>
                        <g transform="matrix(1.16667,0,0,1,-45.8333,0)">
                            <g>
                                <g transform="matrix(1,0,0,1,6.3244,-3.25)">
                                    <path d="M387.5,290.75C387.5,288.956 386.044,287.5 384.25,287.5L303.101,287.5C301.307,287.5 299.851,288.956 299.851,290.75C299.851,292.544 301.307,294 303.101,294L384.25,294C386.044,294 387.5,292.544 387.5,290.75Z" style="fill:rgb(214,237,255);"/>
                                </g>
                                <g transform="matrix(0.662988,0,0,1,122.147,6)">
                                    <path d="M387.5,290.75C387.5,288.956 385.303,287.5 382.598,287.5L304.753,287.5C302.048,287.5 299.851,288.956 299.851,290.75C299.851,292.544 302.048,294 304.753,294L382.598,294C385.303,294 387.5,292.544 387.5,290.75Z" style="fill:rgb(214,237,255);"/>
                                </g>
                                <g transform="matrix(0.744482,0,0,1,94.1396,15.25)">
                                    <path d="M387.5,290.75C387.5,288.956 385.544,287.5 383.135,287.5L304.217,287.5C301.807,287.5 299.851,288.956 299.851,290.75C299.851,292.544 301.807,294 304.217,294L383.135,294C385.544,294 387.5,292.544 387.5,290.75Z" style="fill:rgb(214,237,255);"/>
                                </g>
                                <g transform="matrix(0.478268,0,0,1,185.631,24.5)">
                                    <path d="M387.5,290.75C387.5,288.956 384.455,287.5 380.705,287.5L306.647,287.5C302.896,287.5 299.851,288.956 299.851,290.75C299.851,292.544 302.896,294 306.647,294L380.705,294C384.455,294 387.5,292.544 387.5,290.75Z" style="fill:rgb(214,237,255);"/>
                                </g>
                                <g transform="matrix(0.932929,0,0,1,29.3749,33.75)">
                                    <path d="M387.5,290.75C387.5,288.956 385.939,287.5 384.016,287.5L303.335,287.5C301.412,287.5 299.851,288.956 299.851,290.75C299.851,292.544 301.412,294 303.335,294L384.016,294C385.939,294 387.5,292.544 387.5,290.75Z" style="fill:rgb(214,237,255);"/>
                                </g>
                            </g>
                            <g transform="matrix(0.794414,0,0,2.38462,76.9792,-318.327)">
                                <path d="M387.5,290.75C387.5,288.956 383.129,287.5 377.744,287.5L309.607,287.5C304.223,287.5 299.851,288.956 299.851,290.75C299.851,292.544 304.223,294 309.607,294L377.744,294C383.129,294 387.5,292.544 387.5,290.75Z" style="fill:rgb(104,159,200);"/>
                            </g>
                            <g>
                                <g transform="matrix(0.898491,0,0,0.898491,36.2021,17.4665)">
                                    <circle cx="349.25" cy="231.25" r="56.25" style="fill:rgb(229,229,229);"/>
                                </g>
                                <g transform="matrix(0.891534,0,0,0.891534,38.6316,18.6839)">
                                    <circle cx="349.25" cy="231.25" r="56.25" style="fill:rgb(214,237,255);"/>
                                </g>
                                <g transform="matrix(0.431669,0,0,0.431669,170.143,75.689)">
                                    <g transform="matrix(1,0,0,1,84.2069,-19.09)">
                                        <circle cx="332.448" cy="365.544" r="85.448" style="fill:white;"/>
                                    </g>
                                    <g transform="matrix(0.815803,0,0,0.815803,145.443,48.242)">
                                        <circle cx="332.448" cy="365.544" r="85.448" style="fill:rgb(247,247,247);"/>
                                    </g>
                                    <g transform="matrix(1,0,0,1,10.6835,5.61746)">
                                        <path d="M431.906,356.877C390.044,413.203 325.652,363.793 355.227,314.347C369.213,290.965 423.654,279.887 440.731,304.944C450.806,319.727 443.564,341.19 431.906,356.877Z" style="fill:rgb(115,36,0);"/>
                                    </g>
                                    <g transform="matrix(-0.939473,0.342623,0.342623,0.939473,613.856,-64.6954)">
                                        <g transform="matrix(1,0,0,1,75.6991,0)">
                                            <path d="M254.725,355.816C251.02,347.428 277.271,348.966 269.725,359.96C267.243,363.577 267.775,364.126 272.18,373.094C274.76,377.995 274.76,382.896 272.18,385.347C269.601,387.797 264.442,387.797 261.862,382.896C259.283,387.797 254.124,387.797 251.544,385.347C248.965,382.896 248.257,377.551 251.544,373.094C257.644,364.824 256.148,359.038 254.725,355.816Z" style="fill:url(#_Linear2);"/>
                                        </g>
                                        <g transform="matrix(1,0,0,1,75.6991,0)">
                                            <path d="M254.725,355.816C230.852,333.049 225.225,315.909 225.225,296.316C225.225,276.723 238.92,260.725 258.097,259.346C296.965,256.55 313.481,325.011 269.725,359.96C266.297,362.698 257.274,358.247 254.725,355.816Z" style="fill:rgb(134,68,25);"/>
                                            <clipPath id="_clip3">
                                                <path d="M254.725,355.816C230.852,333.049 225.225,315.909 225.225,296.316C225.225,276.723 238.92,260.725 258.097,259.346C296.965,256.55 313.481,325.011 269.725,359.96C266.297,362.698 257.274,358.247 254.725,355.816Z"/>
                                            </clipPath>
                                            <g clip-path="url(#_clip3)">
                                                <g transform="matrix(1.785,0,0,1.46187,-321.107,-136.598)">
                                                    <path d="M325.017,271.434C347.585,271.938 344.564,324.625 327.759,340.005C318.808,348.196 303.945,320.213 303.945,302C303.945,283.787 314.075,271.19 325.017,271.434Z" style="fill:rgb(154,85,41);"/>
                                                </g>
                                            </g>
                                        </g>
                                        <g transform="matrix(0.858319,0.187874,-0.186774,0.853293,105.036,-12.1372)">
                                            <g transform="matrix(1,0,0,1,31.3944,-16.4231)">
                                                <path d="M294.451,323.08L293.917,323.437L293.401,323.788L292.903,324.133L292.425,324.469L291.965,324.798L291.525,325.119L291.103,325.43L290.702,325.731L290.421,325.945L290.321,326.023L289.964,326.309L289.626,326.583L289.309,326.844L289.012,327.091L288.736,327.325L288.481,327.543L288.247,327.745L288.034,327.932L287.842,328.102L287.525,328.388L287.297,328.598L287.16,328.727L287.158,328.729L287.112,328.774L287.169,328.745L287.172,328.744L287.339,328.661L287.618,328.527L288.002,328.348L288.233,328.243L288.488,328.128L288.768,328.004L289.072,327.872L289.4,327.731L289.751,327.584L290.125,327.43L290.521,327.27L290.939,327.104L291.054,327.059L291.375,326.928L291.831,326.745L292.307,326.559L292.803,326.368L293.319,326.175L293.853,325.979L294.407,325.782L294.978,325.583L295.567,325.384L296.067,325.22L296.172,325.183L296.788,324.97L297.422,324.758L297.743,324.654L298.07,324.549L298.4,324.445L298.734,324.341L298.768,324.33L299.068,324.231L299.407,324.122L299.749,324.013L300.094,323.904L300.444,323.797L300.796,323.691L301.152,323.585L301.489,323.487L301.512,323.48L301.871,323.366L302.233,323.254L302.599,323.143L302.968,323.033L303.34,322.924L303.715,322.817L304.093,322.711L304.147,322.696L304.472,322.597L304.853,322.484L305.236,322.372L305.427,322.318L305.622,322.258L306.009,322.14L306.4,322.025L306.662,321.949L306.791,321.907L307.184,321.783L307.579,321.66L307.935,321.553L307.977,321.539L308.376,321.408L308.777,321.28L309.181,321.154L309.327,321.109L309.586,321.021L309.993,320.887L310.403,320.754L310.815,320.624L311.231,320.496L311.65,320.37L312.072,320.247L312.373,320.161L312.495,320.122L312.92,319.993L313.348,319.865L313.779,319.741L314.213,319.619L314.65,319.5L315.09,319.383L315.532,319.27L315.609,319.251L315.976,319.153L316.423,319.038L316.873,318.926L317.326,318.818L317.782,318.712L318.24,318.61L318.702,318.512L318.819,318.488L319.165,318.411L319.632,318.312L320.101,318.217L320.573,318.125L321.048,318.038L321.526,317.954L322.007,317.875L322.491,317.799L322.977,317.728L323.466,317.662L323.958,317.6L324.201,317.572L324.453,317.539L324.951,317.479L325.452,317.424L325.955,317.374L326.396,317.335L326.461,317.329L326.397,317.315L325.963,317.223L325.465,317.123L324.966,317.028L324.468,316.939L324.215,316.896L323.969,316.858L323.471,316.786L322.973,316.719L322.476,316.656L321.978,316.599L321.482,316.546L320.986,316.498L320.49,316.455L319.996,316.416L319.502,316.382L319.009,316.352L318.641,316.333L318.517,316.329L318.027,316.316L317.538,316.308L317.05,316.304L316.563,316.303L316.078,316.307L315.594,316.315L315.195,316.325L315.112,316.328L314.633,316.352L314.155,316.379L313.679,316.41L313.205,316.445L312.733,316.483L312.263,316.525L311.795,316.57L311.66,316.583L311.331,316.626L310.869,316.689L310.41,316.755L309.954,316.824L309.5,316.895L309.048,316.97L308.599,317.047L308.313,317.098L308.154,317.132L307.713,317.226L307.276,317.324L306.841,317.423L306.795,317.434L306.412,317.535L305.987,317.651L305.565,317.768L305.425,317.808L305.148,317.895L304.736,318.028L304.328,318.163L304.122,318.232L303.924,318.304L303.525,318.45L303.13,318.597L302.794,318.725L302.739,318.748L302.355,318.908L301.974,319.069L301.598,319.231L301.225,319.393L300.856,319.557L300.491,319.721L300.13,319.885L300.107,319.896L299.776,320.059L299.427,320.235L299.082,320.41L298.741,320.585L298.404,320.761L298.071,320.936L297.743,321.111L297.451,321.268L297.419,321.287L297.102,321.468L296.789,321.649L296.481,321.83L296.175,322.01L295.582,322.367L295.005,322.72L294.907,322.782L294.451,323.08Z" style="fill:rgb(118,43,0);"/>
                                            </g>
                                            <g transform="matrix(0.992047,-0.125864,0.125864,0.992047,-11.2115,10.3968)">
                                                <path d="M299.777,320.058L299.428,320.233L299.083,320.408L298.742,320.584L298.405,320.759L298.072,320.935L297.744,321.11L297.434,321.277L297.42,321.285L297.103,321.467L296.79,321.648L296.482,321.828L296.176,322.009L295.583,322.365L295.006,322.719L294.894,322.789L294.452,323.079L293.917,323.436L293.401,323.787L292.904,324.131L292.425,324.468L291.965,324.797L291.525,325.118L291.103,325.429L290.702,325.73L290.414,325.949L290.321,326.022L289.964,326.309L289.626,326.583L289.309,326.844L289.012,327.091L288.736,327.324L288.481,327.542L288.247,327.745L288.034,327.932L287.842,328.101L287.525,328.388L287.297,328.598L287.16,328.727L287.158,328.729L287.112,328.774L287.169,328.745L287.172,328.744L287.339,328.661L287.618,328.527L288.002,328.348L288.233,328.243L288.488,328.128L288.768,328.004L289.072,327.872L289.4,327.732L289.751,327.584L290.125,327.43L290.521,327.27L290.939,327.105L291.047,327.063L291.375,326.929L291.831,326.746L292.307,326.559L292.803,326.369L293.319,326.176L293.853,325.98L294.406,325.783L294.978,325.585L295.566,325.386L296.051,325.226L296.171,325.184L296.787,324.972L297.422,324.76L297.743,324.655L298.069,324.551L298.399,324.446L298.733,324.342L298.748,324.338L299.067,324.233L299.406,324.123L299.748,324.014L300.093,323.906L300.442,323.799L300.795,323.692L301.151,323.587L301.466,323.495L301.51,323.481L301.869,323.367L302.231,323.255L302.597,323.144L302.966,323.034L303.338,322.925L303.713,322.818L304.091,322.712L304.122,322.703L304.469,322.598L304.85,322.484L305.234,322.373L305.401,322.325L305.62,322.258L306.007,322.14L306.397,322.025L306.635,321.956L306.789,321.906L307.181,321.782L307.577,321.66L307.909,321.559L307.974,321.537L308.373,321.407L308.774,321.279L309.178,321.152L309.301,321.115L309.583,321.019L309.99,320.885L310.4,320.752L310.813,320.622L311.228,320.494L311.647,320.368L312.069,320.245L312.351,320.165L312.493,320.12L312.918,319.99L313.346,319.863L313.777,319.738L314.211,319.617L314.648,319.498L315.087,319.381L315.53,319.268L315.59,319.253L315.974,319.151L316.421,319.036L316.871,318.924L317.324,318.816L317.78,318.71L318.239,318.609L318.7,318.51L318.806,318.489L319.164,318.41L319.63,318.311L320.1,318.215L320.572,318.124L321.047,318.036L321.525,317.953L322.006,317.874L322.49,317.798L322.976,317.728L323.466,317.661L323.958,317.599L324.197,317.572L324.453,317.538L324.951,317.479L325.451,317.424L325.955,317.374L326.396,317.335L326.461,317.329L326.397,317.315L325.963,317.223L325.465,317.123L324.967,317.029L324.468,316.94L324.211,316.896L323.97,316.859L323.472,316.787L322.974,316.719L322.476,316.657L321.979,316.6L321.483,316.547L320.987,316.499L320.492,316.456L319.997,316.417L319.503,316.383L319.01,316.354L318.631,316.335L318.519,316.331L318.028,316.318L317.539,316.31L317.052,316.305L316.565,316.305L316.08,316.309L315.596,316.317L315.18,316.327L315.114,316.33L314.635,316.354L314.157,316.381L313.682,316.412L313.208,316.447L312.736,316.485L312.266,316.527L311.798,316.572L311.641,316.588L311.333,316.628L310.872,316.691L310.413,316.757L309.957,316.825L309.503,316.897L309.051,316.972L308.602,317.049L308.291,317.105L308.157,317.133L307.716,317.228L307.279,317.325L306.844,317.425L306.772,317.441L306.415,317.536L305.99,317.651L305.567,317.769L305.402,317.816L305.151,317.895L304.739,318.028L304.33,318.163L304.1,318.241L303.926,318.303L303.527,318.449L303.132,318.597L302.772,318.734L302.741,318.747L302.357,318.907L301.976,319.068L301.599,319.23L301.227,319.392L300.857,319.556L300.492,319.72L300.131,319.884L300.087,319.905L299.777,320.058Z" style="fill:rgb(118,43,0);"/>
                                            </g>
                                            <g transform="matrix(0.585936,-0.151112,0.151112,0.585936,98.1736,134.858)">
                                                <path d="M304.324,316.69L303.713,316.899L303.504,316.978L302.7,317.295L302.369,317.429L301.918,317.635L301.158,317.993L300.413,318.353L299.685,318.715L299.67,318.722L298.986,319.11L298.305,319.505L297.641,319.899L297.034,320.268L296.995,320.293L296.377,320.706L295.776,321.115L295.193,321.52L294.629,321.92L294.538,321.985L294.092,322.331L293.575,322.74L293.076,323.14L292.597,323.532L292.136,323.915L291.694,324.288L291.272,324.651L290.868,325.002L290.484,325.342L290.218,325.581L290.122,325.672L289.783,325.997L289.465,326.308L289.165,326.604L288.627,327.147L288.168,327.621L287.791,328.022L287.495,328.342L287.283,328.578L287.157,328.722L287.112,328.774L287.176,328.749L287.353,328.681L287.648,328.573L288.054,328.428L288.566,328.252L289.181,328.049L289.895,327.824L290.286,327.705L290.701,327.582L291.138,327.455L291.262,327.42L291.593,327.317L292.066,327.173L292.56,327.027L293.074,326.879L293.608,326.729L294.16,326.58L294.731,326.43L295.32,326.281L295.927,326.133L296.446,326.011L296.548,325.983L297.177,325.817L297.822,325.653L298.482,325.492L299.157,325.334L299.199,325.325L299.837,325.158L300.53,324.985L301.237,324.815L301.941,324.654L301.956,324.65L302.676,324.458L303.407,324.271L304.151,324.089L304.59,323.988L304.902,323.9L305.657,323.697L305.856,323.647L306.422,323.479L306.8,323.37L307.066,323.296L307.184,323.256L307.567,323.13L307.952,323.005L308.308,322.892L308.34,322.881L308.727,322.74L309.116,322.602L309.508,322.465L309.659,322.414L309.9,322.318L310.293,322.164L310.69,322.013L311.089,321.863L311.492,321.716L311.897,321.571L312.306,321.428L312.607,321.325L312.717,321.282L313.128,321.124L313.542,320.969L313.96,320.816L314.381,320.666L314.805,320.518L315.232,320.373L315.663,320.231L315.745,320.204L316.095,320.08L316.53,319.93L316.969,319.783L317.411,319.638L317.856,319.497L318.305,319.359L318.757,319.225L318.878,319.19L319.212,319.084L319.67,318.943L320.131,318.805L320.596,318.671L321.065,318.54L321.538,318.414L322.013,318.291L322.493,318.173L322.976,318.058L323.463,317.948L323.953,317.842L324.198,317.792L324.447,317.735L324.945,317.627L325.446,317.523L325.952,317.424L326.395,317.342L326.461,317.329L326.397,317.308L325.966,317.174L325.47,317.025L324.973,316.881L324.474,316.743L324.223,316.676L323.975,316.616L323.475,316.5L322.974,316.389L322.473,316.283L321.972,316.182L321.47,316.086L320.969,315.995L320.467,315.909L319.965,315.828L319.464,315.751L318.962,315.68L318.595,315.631L318.461,315.616L317.962,315.567L317.463,315.523L316.965,315.483L316.467,315.447L315.971,315.416L315.475,315.388L315.075,315.37L314.981,315.368L314.49,315.363L314,315.361L313.511,315.363L313.024,315.369L312.539,315.379L312.055,315.393L311.573,315.41L311.445,315.416L311.096,315.445L310.622,315.488L310.15,315.534L309.68,315.584L309.212,315.637L308.747,315.692L308.285,315.751L308,315.789L307.826,315.82L307.374,315.905L306.925,315.992L306.478,316.081L306.441,316.089L306.039,316.191L305.604,316.304L305.172,316.419L305.039,316.455L304.748,316.55L304.324,316.69Z" style="fill:rgb(118,43,0);"/>
                                            </g>
                                        </g>
                                    </g>
                                    <g transform="matrix(2.23655,0,0,2.23655,-365.201,-352.135)">
                                        <g transform="matrix(0.775898,0,0,0.775898,74.3011,83.6787)">
                                            <g transform="matrix(0.756343,0,0,0.801718,93.6912,57.8727)">
                                                <path d="M368.626,304.505L364,307L364,337.901C364,337.901 366.959,337.901 369.101,337.901C369.661,337.901 370.196,337.681 370.576,337.293C370.957,336.906 371.15,336.387 371.108,335.86C370.534,328.608 368.626,304.505 368.626,304.505Z" style="fill:rgb(255,182,37);"/>
                                            </g>
                                            <path d="M369,304C369,304 365.06,323.361 369,328.774L369,304Z" style="fill:rgb(247,148,3);"/>
                                        </g>
                                        <g transform="matrix(-0.671948,-0.387949,0.387949,-0.671948,493.915,683.19)">
                                            <g transform="matrix(0.756343,0,0,0.801718,93.6912,57.8727)">
                                                <path d="M368.626,304.505L364,307L364,337.901C364,337.901 366.959,337.901 369.101,337.901C369.661,337.901 370.196,337.681 370.576,337.293C370.957,336.906 371.15,336.387 371.108,335.86C370.534,328.608 368.626,304.505 368.626,304.505Z" style="fill:rgb(255,182,37);"/>
                                            </g>
                                            <path d="M369,304C369,304 365.06,323.361 369,328.774L369,304Z" style="fill:rgb(247,148,3);"/>
                                        </g>
                                        <g transform="matrix(0.387949,0.671948,-0.671948,0.387949,432.965,-46.1629)">
                                            <g transform="matrix(0.756343,0,0,0.801718,93.6912,57.8727)">
                                                <path d="M368.626,304.505L364,307L364,337.901C364,337.901 366.959,337.901 369.101,337.901C369.661,337.901 370.196,337.681 370.576,337.293C370.957,336.906 371.15,336.387 371.108,335.86C370.534,328.608 368.626,304.505 368.626,304.505Z" style="fill:rgb(255,182,37);"/>
                                            </g>
                                            <path d="M369,304C369,304 365.06,323.361 369,328.774L369,304Z" style="fill:rgb(247,148,3);"/>
                                        </g>
                                        <g transform="matrix(8.88178e-16,-0.775898,0.775898,8.88178e-16,120.879,618.96)">
                                            <g transform="matrix(0.756343,0,0,0.801718,93.6912,57.8727)">
                                                <path d="M368.626,304.505L364,307L364,337.901C364,337.901 366.959,337.901 369.101,337.901C369.661,337.901 370.196,337.681 370.576,337.293C370.957,336.906 371.15,336.387 371.108,335.86C370.534,328.608 368.626,304.505 368.626,304.505Z" style="fill:rgb(255,182,37);"/>
                                            </g>
                                            <path d="M369,304C369,304 365.06,323.361 369,328.774L369,304Z" style="fill:rgb(247,148,3);"/>
                                        </g>
                                        <g transform="matrix(0.210286,0.746859,-0.746859,0.210286,525.727,-15.7892)">
                                            <g transform="matrix(0.756343,0,0,0.801718,93.6912,57.8727)">
                                                <path d="M368.626,304.505L364,307L364,337.901C364,337.901 366.959,337.901 369.101,337.901C369.661,337.901 370.196,337.681 370.576,337.293C370.957,336.906 371.15,336.387 371.108,335.86C370.534,328.608 368.626,304.505 368.626,304.505Z" style="fill:rgb(255,182,37);"/>
                                            </g>
                                            <path d="M369,304C369,304 365.06,323.361 369,328.774L369,304Z" style="fill:rgb(247,148,3);"/>
                                        </g>
                                        <g transform="matrix(-0.404832,-0.661914,0.661914,-0.404832,307.737,692.779)">
                                            <g transform="matrix(0.756343,0,0,0.801718,93.6912,57.8727)">
                                                <path d="M368.626,304.505L364,307L364,337.901C364,337.901 366.959,337.901 369.101,337.901C369.661,337.901 370.196,337.681 370.576,337.293C370.957,336.906 371.15,336.387 371.108,335.86C370.534,328.608 368.626,304.505 368.626,304.505Z" style="fill:rgb(255,182,37);"/>
                                            </g>
                                            <path d="M369,304C369,304 365.06,323.361 369,328.774L369,304Z" style="fill:rgb(247,148,3);"/>
                                        </g>
                                        <g transform="matrix(0.466753,0.619806,-0.619806,0.466753,391.824,-64.5253)">
                                            <g transform="matrix(0.756343,0,0,0.801718,93.6912,57.8727)">
                                                <path d="M368.626,304.505L364,307L364,337.901C364,337.901 366.959,337.901 369.101,337.901C369.661,337.901 370.196,337.681 370.576,337.293C370.957,336.906 371.15,336.387 371.108,335.86C370.534,328.608 368.626,304.505 368.626,304.505Z" style="fill:rgb(255,182,37);"/>
                                            </g>
                                            <path d="M369,304C369,304 365.06,323.361 369,328.774L369,304Z" style="fill:rgb(247,148,3);"/>
                                        </g>
                                        <g transform="matrix(-0.77566,-0.0192282,0.0192282,-0.77566,657.697,565.141)">
                                            <g transform="matrix(0.756343,0,0,0.801718,93.6912,57.8727)">
                                                <path d="M368.626,304.505L364,307L364,337.901C364,337.901 366.959,337.901 369.101,337.901C369.661,337.901 370.196,337.681 370.576,337.293C370.957,336.906 371.15,336.387 371.108,335.86C370.534,328.608 368.626,304.505 368.626,304.505Z" style="fill:rgb(255,182,37);"/>
                                            </g>
                                            <path d="M369,304C369,304 365.06,323.361 369,328.774L369,304Z" style="fill:rgb(247,148,3);"/>
                                        </g>
                                        <g transform="matrix(-0.746979,0.209858,-0.209858,-0.746979,715.406,469.578)">
                                            <g transform="matrix(0.756343,0,0,0.801718,93.6912,57.8727)">
                                                <path d="M368.626,304.505L364,307L364,337.901C364,337.901 366.959,337.901 369.101,337.901C369.661,337.901 370.196,337.681 370.576,337.293C370.957,336.906 371.15,336.387 371.108,335.86C370.534,328.608 368.626,304.505 368.626,304.505Z" style="fill:rgb(255,182,37);"/>
                                            </g>
                                            <path d="M369,304C369,304 365.06,323.361 369,328.774L369,304Z" style="fill:rgb(247,148,3);"/>
                                        </g>
                                    </g>
                                </g>
                            </g>
                        </g>
                    </g>
                </g>
            </g>
        </g>
        <g>
            <g transform="matrix(0.986224,-0.165418,0.165418,0.986224,315.888,61.1448)">
                <path d="M130.946,481.283C128.683,480.341 45.989,473.817 88.415,418.833C106.009,396.032 100.459,382.088 96.034,364C89.62,337.779 109.779,306.224 144,280.096C158.253,288.997 153.117,333.106 153,364C152.94,379.951 159.325,392.369 174,411.389C217.099,467.245 131,481.306 131,481.306L130.946,481.283Z" style="fill:rgb(208,244,218);"/>
                <g>
                    <path d="M131,518.02L131,319.647" style="fill:none;stroke:rgb(179,179,179);stroke-width:2.08px;"/>
                    <path d="M131,435.028L157,423.208" style="fill:none;stroke:rgb(179,179,179);stroke-width:2.08px;"/>
                    <path d="M131,376.93L108,364" style="fill:none;stroke:rgb(179,179,179);stroke-width:2.08px;"/>
                </g>
            </g>
            <g>
                <g transform="matrix(0.723039,0,0,0.723039,137.2,130.822)">
                    <circle cx="492.688" cy="469.661" r="2.688" style="fill:rgb(111,167,127);"/>
                </g>
                <g transform="matrix(0.442006,0,0,0.442006,312.21,238.066)">
                    <circle cx="492.688" cy="469.661" r="2.688" style="fill:rgb(111,167,127);"/>
                </g>
                <g transform="matrix(0.723039,0,0,0.723039,128.023,22.3206)">
                    <circle cx="492.688" cy="469.661" r="2.688" style="fill:rgb(111,167,127);"/>
                </g>
                <g transform="matrix(1,0,0,1,44.169,15.4984)">
                    <circle cx="492.688" cy="469.661" r="2.688" style="fill:rgb(111,167,127);"/>
                </g>
                <g transform="matrix(1,0,0,1,5.3764,-42.2996)">
                    <circle cx="492.688" cy="469.661" r="2.688" style="fill:rgb(111,167,127);"/>
                </g>
                <g transform="matrix(1,0,0,1,33.4162,-51.4309)">
                    <circle cx="492.688" cy="469.661" r="2.688" style="fill:rgb(111,167,127);"/>
                </g>
                <g transform="matrix(1,0,0,1,17.4546,-84.5992)">
                    <circle cx="492.688" cy="469.661" r="2.688" style="fill:rgb(111,167,127);"/>
                </g>
                <g transform="matrix(0.723039,0,0,0.723039,146.464,-0.93781)">
                    <circle cx="492.688" cy="469.661" r="2.688" style="fill:rgb(111,167,127);"/>
                </g>
            </g>
            <g transform="matrix(0.678367,0,0,0.678367,171.745,184.618)">
                <path d="M503.172,536.811L503.172,536.806C503.172,519.589 517.15,505.612 534.366,505.612C545.803,505.612 555.81,511.779 561.24,520.967C563.385,520.338 565.653,520 568,520C581.246,520 592,530.754 592,544C592,557.246 581.246,574 568,574C562.053,574 510.164,574 503.172,574C492.908,574 485,565.667 485,555.403C485,545.281 493.104,537.037 503.172,536.811Z" style="fill:rgb(208,244,218);"/>
            </g>
            <g transform="matrix(-0.403056,0,0,0.403056,671.53,405.315)">
                <path d="M320.945,432C349.012,430.361 400.992,423.952 407,435C408.846,438.394 377.426,442 341,442C304.574,442 276.346,438.621 275,435C272.265,427.643 276.843,434.575 320.945,432Z" style="fill:rgb(220,220,220);"/>
            </g>
        </g>
        <g transform="matrix(-0.995755,0.0920394,0.0920394,0.995755,616.675,25.853)">
            <g transform="matrix(0.986224,-0.165418,0.165418,0.986224,315.888,61.1448)">
                <path d="M130.946,481.283C128.683,480.341 44.521,482.573 86.946,427.59C104.54,404.788 95.194,373.188 91.908,354.774C86.396,323.88 126.178,278.243 144,280.096C149.911,280.711 159.884,302.797 153.12,321.287C146.151,340.337 179.391,353.189 166.166,368.561C155.763,380.653 157.856,401.125 172.531,420.145C215.63,476.001 131,481.306 131,481.306L130.946,481.283Z" style="fill:rgb(208,244,218);"/>
                <g>
                    <path d="M131,518.02L131,319.647" style="fill:none;stroke:rgb(179,179,179);stroke-width:2.08px;"/>
                    <path d="M131,435.028L157,423.208" style="fill:none;stroke:rgb(179,179,179);stroke-width:2.08px;"/>
                    <path d="M131,376.93L108,364" style="fill:none;stroke:rgb(179,179,179);stroke-width:2.08px;"/>
                </g>
            </g>
            <g>
                <g transform="matrix(0.723039,0,0,0.723039,126.695,159.912)">
                    <circle cx="492.688" cy="469.661" r="2.688" style="fill:rgb(111,167,127);"/>
                </g>
                <g transform="matrix(0.723039,0,0,0.723039,147.841,140.259)">
                    <circle cx="492.688" cy="469.661" r="2.688" style="fill:rgb(111,167,127);"/>
                </g>
                <g transform="matrix(0.442006,0,0,0.442006,327.39,239.328)">
                    <circle cx="492.688" cy="469.661" r="2.688" style="fill:rgb(111,167,127);"/>
                </g>
                <g transform="matrix(0.442006,0,0,0.442006,306.087,230.25)">
                    <circle cx="492.688" cy="469.661" r="2.688" style="fill:rgb(111,167,127);"/>
                </g>
                <g transform="matrix(0.723039,0,0,0.723039,137.287,6.89731)">
                    <circle cx="492.688" cy="469.661" r="2.688" style="fill:rgb(111,167,127);"/>
                </g>
                <g transform="matrix(1,0,0,1,60.0844,2.98047)">
                    <circle cx="492.688" cy="469.661" r="2.688" style="fill:rgb(111,167,127);"/>
                </g>
                <g transform="matrix(1,0,0,1,21.1546,-66.0571)">
                    <circle cx="492.688" cy="469.661" r="2.688" style="fill:rgb(111,167,127);"/>
                </g>
                <g transform="matrix(1,0,0,1,14.5469,-16.5461)">
                    <circle cx="492.688" cy="469.661" r="2.688" style="fill:rgb(111,167,127);"/>
                </g>
                <g transform="matrix(1,0,0,1,-13.45,-60.4072)">
                    <circle cx="492.688" cy="469.661" r="2.688" style="fill:rgb(111,167,127);"/>
                </g>
                <g transform="matrix(0.723039,0,0,0.723039,156.908,37.9938)">
                    <circle cx="492.688" cy="469.661" r="2.688" style="fill:rgb(111,167,127);"/>
                </g>
                <g transform="matrix(0.723039,0,0,0.723039,128.993,33.3241)">
                    <circle cx="492.688" cy="469.661" r="2.688" style="fill:rgb(111,167,127);"/>
                </g>
            </g>
            <g transform="matrix(0.675487,-0.0624365,0.0624365,0.675487,138.374,219.906)">
                <path d="M503.172,536.811L503.172,536.806C503.172,519.589 517.15,505.612 534.366,505.612C545.803,505.612 555.81,511.779 561.24,520.967C563.385,520.338 565.653,520 568,520C581.246,520 592,530.754 592,544C592,557.246 581.246,574 568,574C562.053,574 510.164,574 503.172,574C492.908,574 485,565.667 485,555.403C485,545.281 493.104,537.037 503.172,536.811Z" style="fill:rgb(208,244,218);"/>
            </g>
            <g transform="matrix(-0.401346,0.0370971,0.0370971,0.401346,656.689,392.687)">
                <path d="M320.945,432C349.012,430.361 400.992,423.952 407,435C408.846,438.394 377.426,442 341,442C304.574,442 276.346,438.621 275,435C272.265,427.643 276.843,434.575 320.945,432Z" style="fill:rgb(220,220,220);"/>
            </g>
        </g>
        <g transform="matrix(1,0,0,1,21.8564,-20)">
            <circle cx="408.812" cy="97.203" r="36.602" style="fill:rgb(214,237,255);"/>
            <g transform="matrix(1,0,0,1,36.6023,-9)">
                <circle cx="408.812" cy="97.203" r="36.602" style="fill:rgb(214,237,255);"/>
            </g>
            <g transform="matrix(1,0,0,1,55.8909,18)">
                <circle cx="408.812" cy="97.203" r="36.602" style="fill:rgb(214,237,255);"/>
            </g>
            <g transform="matrix(1,0,0,1,85.7543,-18.6023)">
                <circle cx="408.812" cy="97.203" r="36.602" style="fill:rgb(214,237,255);"/>
            </g>
            <g transform="matrix(1,0,0,1,112.045,18)">
                <circle cx="408.812" cy="97.203" r="36.602" style="fill:rgb(214,237,255);"/>
            </g>
        </g>
        <g transform="matrix(-0.680815,0,0,0.680815,408.611,103.212)">
            <circle cx="408.812" cy="97.203" r="36.602" style="fill:rgb(214,237,255);"/>
            <g transform="matrix(1,0,0,1,36.6023,-9)">
                <circle cx="408.812" cy="97.203" r="36.602" style="fill:rgb(214,237,255);"/>
            </g>
            <g transform="matrix(1,0,0,1,55.8909,18)">
                <circle cx="408.812" cy="97.203" r="36.602" style="fill:rgb(214,237,255);"/>
            </g>
            <g transform="matrix(1,0,0,1,85.7543,-18.6023)">
                <circle cx="408.812" cy="97.203" r="36.602" style="fill:rgb(214,237,255);"/>
            </g>
            <g transform="matrix(1,0,0,1,112.045,18)">
                <circle cx="408.812" cy="97.203" r="36.602" style="fill:rgb(214,237,255);"/>
            </g>
        </g>
    </g>
    <defs>
        <linearGradient id="_Linear2" x1="0" y1="0" x2="1" y2="0" gradientUnits="userSpaceOnUse" gradientTransform="matrix(21.8641,-4.13721,4.13721,21.8641,255.031,370.435)"><stop offset="0" style="stop-color:rgb(229,217,199);stop-opacity:1"/><stop offset="1" style="stop-color:rgb(186,154,106);stop-opacity:1"/></linearGradient>
    </defs>
</svg>
