<?xml version="1.0" encoding="UTF-8" standalone="no"?>
<!DOCTYPE svg PUBLIC "-//W3C//DTD SVG 1.1//EN" "http://www.w3.org/Graphics/SVG/1.1/DTD/svg11.dtd">
<svg width="100%" height="100%" viewBox="0 0 700 700" version="1.1" xmlns="http://www.w3.org/2000/svg" xmlns:xlink="http://www.w3.org/1999/xlink" xml:space="preserve" xmlns:serif="http://www.serif.com/" style="fill-rule:evenodd;clip-rule:evenodd;stroke-linecap:round;stroke-linejoin:round;stroke-miterlimit:1.5;">
    <g transform="matrix(1.27779,0,0,1.27779,-72.0876,116.322)">
        <g>
            <g transform="matrix(0.593885,0,0,0.593885,121.754,-25.6516)">
                <path d="M39.223,91.735L221.154,91.735C177.592,61.488 198.931,63.328 148.077,59.432C123.255,57.53 43.335,1.119 39.223,91.735Z" style="fill:rgb(214,237,255);"/>
            </g>
            <g transform="matrix(0.516982,0,0,0.516982,296.451,-95.898)">
                <path d="M25,150L242.949,150C242.949,150 188.509,98.709 138.462,121.154C120.82,129.065 125.606,109.23 75,100C36.64,93.003 25,150 25,150Z" style="fill:rgb(214,237,255);"/>
            </g>
            <g transform="matrix(-0.362391,0,0,0.362391,532.974,-17.4405)">
                <path d="M25,150L225,150C225,150 193.805,112.55 151.812,111.234C109.819,109.917 130.454,122.762 73.794,105.391C38.607,94.602 25,150 25,150Z" style="fill:rgb(214,237,255);"/>
            </g>
        </g>
        <g transform="matrix(1,0,0,1,3.85355,-73.5899)">
            <g transform="matrix(1,0,0,1,-4,4)">
                <path d="M371.25,112.5C452.076,74.052 517.817,160.986 517.5,258.75C517.238,339.467 451.968,405 371.25,405C290.532,405 301.498,284.505 225,258.75C43.269,197.565 240.048,174.912 371.25,112.5Z" style="fill:rgb(224,224,224);"/>
            </g>
            <path d="M371.25,112.5C451.919,115.295 517.5,178.032 517.5,258.75C517.5,339.468 451.968,405 371.25,405C290.532,405 298.551,292.001 225,258.75C14.327,163.51 208.989,106.879 371.25,112.5Z" style="fill:rgb(104,159,200);"/>
        </g>
        <g transform="matrix(1,0,0,1,-28.1029,-27.9174)">
            <g transform="matrix(0.244476,0.0143886,-0.0191075,0.324653,148.269,221.847)">
                <path d="M320.945,432C349.012,430.361 400.992,423.952 407,435C408.846,438.394 377.426,442 341,442C304.574,442 276.346,438.621 275,435C272.265,427.643 276.843,434.575 320.945,432Z" style="fill:rgb(220,220,220);"/>
            </g>
            <g transform="matrix(1,0,0,1,-5.68434e-14,-62.5)">
                <g transform="matrix(1,0,0,1,8,-2.25)">
                    <path d="M228.442,382.186C228.442,382.186 231.676,374.069 227.319,366.898C223.822,361.144 225.625,355.137 224,350C222.702,345.895 215.136,341.379 217,334C218.864,326.621 219.692,321.952 216.5,317C209.775,306.569 217,299 217,299C217,299 231.661,304.234 230,316C228.339,327.766 239.343,329.033 235,339C232.55,344.623 242.18,353.852 237.5,362.5C234.351,368.319 236.015,375.933 235.887,379.704L228.442,382.186Z" style="fill:rgb(185,224,254);"/>
                </g>
                <g transform="matrix(1,0,0,1,5,0)">
                    <path d="M226.75,382.75C226.75,382.75 229.441,340.191 200,325C200,325 191.148,346.287 204,353C212.046,357.203 203.215,366.237 211,371.25C217.081,375.166 210.904,380.127 220.211,384.93L226.75,382.75Z" style="fill:rgb(185,224,254);"/>
                </g>
                <path d="M250,375L212.5,387.5C212.5,387.5 206.792,404.624 203.09,415.729C202.374,417.877 202.734,420.238 204.058,422.075C205.382,423.912 207.508,425 209.772,425C217.217,425 227.573,425 235.913,425C239.649,425 243.232,423.516 245.874,420.874C248.516,418.232 250,414.649 250,410.913C250,396.126 250,375 250,375Z" style="fill:rgb(214,237,255);"/>
            </g>
        </g>
        <g transform="matrix(1,0,0,1,-19.5651,5.42)">
            <g transform="matrix(-0.244763,-0.00815527,-0.0108298,0.325035,580.636,258.362)">
                <path d="M320.945,432C349.012,430.361 400.992,423.952 407,435C408.846,438.394 377.426,442 341,442C304.574,442 276.346,438.621 275,435C272.265,427.643 276.843,434.575 320.945,432Z" style="fill:rgb(220,220,220);"/>
            </g>
            <g transform="matrix(-1,0,0,1,717.5,-34.25)">
                <g transform="matrix(1,0,0,1,8,-2.25)">
                    <path d="M228.442,382.186C228.442,382.186 231.676,374.069 227.319,366.898C223.822,361.144 225.439,351.137 223.814,346C222.516,341.895 218.136,338.379 220,331C221.864,323.621 217.726,317.846 217,312C215.733,301.798 223.814,299 223.814,299C223.814,299 233.661,308.234 232,320C230.339,331.766 237.343,332.033 233,342C230.55,347.623 240.994,354.477 236.314,363.125C233.165,368.944 236.015,375.933 235.887,379.704L228.442,382.186Z" style="fill:rgb(185,224,254);"/>
                </g>
                <g transform="matrix(1,0,0,1,5,0)">
                    <path d="M226.75,382.75C226.75,382.75 227.575,377.645 225.659,371.067C223.968,365.263 218.975,358.495 219.865,350C221.076,338.438 211.9,325.842 200,325C200,325 195.826,342.196 202.901,346C210.825,350.259 202.249,354.475 211,362.5C216.331,367.389 210.904,380.127 220.211,384.93L226.75,382.75Z" style="fill:rgb(185,224,254);"/>
                </g>
                <path d="M250,375L212.5,387.5C212.5,387.5 206.792,404.624 203.09,415.729C202.374,417.877 202.734,420.238 204.058,422.075C205.382,423.912 207.508,425 209.772,425C217.217,425 227.573,425 235.913,425C239.649,425 243.232,423.516 245.874,420.874C248.516,418.232 250,414.649 250,410.913C250,396.126 250,375 250,375Z" style="fill:rgb(214,237,255);"/>
            </g>
        </g>
        <g transform="matrix(1,0,0,1,-20.0011,-59.33)">
            <g transform="matrix(1,0,0,1,9.37178,0)">
                <path d="M320.945,432C349.012,430.361 400.992,423.952 407,435C408.846,438.394 377.426,442 341,442C304.574,442 276.346,438.621 275,435C272.265,427.643 276.843,434.575 320.945,432Z" style="fill:rgb(220,220,220);"/>
            </g>
            <g transform="matrix(0.857143,0,0,1,37.381,-10.8829)">
                <path d="M450,131.249C450,129.592 449.232,128.002 447.864,126.83C446.497,125.658 444.643,125 442.709,125C414.242,125 310.758,125 282.291,125C280.357,125 278.503,125.658 277.136,126.83C275.768,128.002 275,129.592 275,131.249C275,170.243 275,379.757 275,418.751C275,420.408 275.768,421.998 277.136,423.17C278.503,424.342 280.357,425 282.291,425C310.758,425 414.242,425 442.709,425C444.643,425 446.497,424.342 447.864,423.17C449.232,421.998 450,420.408 450,418.751C450,379.757 450,170.243 450,131.249Z" style="fill:rgb(224,224,224);"/>
            </g>
            <g transform="matrix(0.857143,0,0,1,39.2857,-12.5)">
                <path d="M450,131.249C450,129.592 449.232,128.002 447.864,126.83C446.497,125.658 444.643,125 442.709,125C414.242,125 310.758,125 282.291,125C280.357,125 278.503,125.658 277.136,126.83C275.768,128.002 275,129.592 275,131.249C275,170.243 275,379.757 275,418.751C275,420.408 275.768,421.998 277.136,423.17C278.503,424.342 280.357,425 282.291,425C310.758,425 414.242,425 442.709,425C444.643,425 446.497,424.342 447.864,423.17C449.232,421.998 450,420.408 450,418.751C450,379.757 450,170.243 450,131.249Z" style="fill:white;"/>
                <clipPath id="_clip1">
                    <path d="M450,131.249C450,129.592 449.232,128.002 447.864,126.83C446.497,125.658 444.643,125 442.709,125C414.242,125 310.758,125 282.291,125C280.357,125 278.503,125.658 277.136,126.83C275.768,128.002 275,129.592 275,131.249C275,170.243 275,379.757 275,418.751C275,420.408 275.768,421.998 277.136,423.17C278.503,424.342 280.357,425 282.291,425C310.758,425 414.242,425 442.709,425C444.643,425 446.497,424.342 447.864,423.17C449.232,421.998 450,420.408 450,418.751C450,379.757 450,170.243 450,131.249Z"/>
                </clipPath>
                <g clip-path="url(#_clip1)">
                    <g transform="matrix(0.271379,0,0,0.232611,245.662,112.72)">
                        <text x="286.501px" y="234.863px" style="font-family:'ArialMT', 'Arial', sans-serif;font-size:50px;">VIZHO<tspan x="428.957px 439.284px " y="226.343px 234.863px ">͞O</tspan>ƏLS</text>
                    </g>
                </g>
                <g transform="matrix(1,0,0,0.0833333,0,114.583)">
                    <path d="M450,199.994C450,158.576 446.736,125 442.709,125C414.242,125 310.758,125 282.291,125C278.264,125 275,158.576 275,199.994C275,288.853 275,425 275,425L450,425C450,425 450,288.853 450,199.994Z" style="fill:rgb(154,202,238);"/>
                </g>
                <g transform="matrix(-1,-1.22465e-16,1.02054e-17,-0.0833333,725,435.417)">
                    <path d="M450,199.994C450,158.576 446.736,125 442.709,125C414.242,125 310.758,125 282.291,125C278.264,125 275,158.576 275,199.994C275,288.853 275,425 275,425L450,425C450,425 450,288.853 450,199.994Z" style="fill:rgb(154,202,238);"/>
                </g>
                <g transform="matrix(1.16667,0,0,1,-45.8333,0)">
                    <g transform="matrix(1,0,0,1,6.3244,-3.25)">
                        <path d="M387.5,290.75C387.5,288.956 386.044,287.5 384.25,287.5L303.101,287.5C301.307,287.5 299.851,288.956 299.851,290.75C299.851,292.544 301.307,294 303.101,294L384.25,294C386.044,294 387.5,292.544 387.5,290.75Z" style="fill:rgb(214,237,255);"/>
                    </g>
                    <g transform="matrix(0.662988,0,0,1,122.147,6)">
                        <path d="M387.5,290.75C387.5,288.956 385.303,287.5 382.598,287.5L304.753,287.5C302.048,287.5 299.851,288.956 299.851,290.75C299.851,292.544 302.048,294 304.753,294L382.598,294C385.303,294 387.5,292.544 387.5,290.75Z" style="fill:rgb(214,237,255);"/>
                    </g>
                    <g transform="matrix(0.744482,0,0,1,94.1396,15.25)">
                        <path d="M387.5,290.75C387.5,288.956 385.544,287.5 383.135,287.5L304.217,287.5C301.807,287.5 299.851,288.956 299.851,290.75C299.851,292.544 301.807,294 304.217,294L383.135,294C385.544,294 387.5,292.544 387.5,290.75Z" style="fill:rgb(214,237,255);"/>
                    </g>
                    <g transform="matrix(0.478268,0,0,1,185.631,24.5)">
                        <path d="M387.5,290.75C387.5,288.956 384.455,287.5 380.705,287.5L306.647,287.5C302.896,287.5 299.851,288.956 299.851,290.75C299.851,292.544 302.896,294 306.647,294L380.705,294C384.455,294 387.5,292.544 387.5,290.75Z" style="fill:rgb(214,237,255);"/>
                    </g>
                    <g transform="matrix(0.932929,0,0,1,29.3749,33.75)">
                        <path d="M387.5,290.75C387.5,288.956 385.939,287.5 384.016,287.5L303.335,287.5C301.412,287.5 299.851,288.956 299.851,290.75C299.851,292.544 301.412,294 303.335,294L384.016,294C385.939,294 387.5,292.544 387.5,290.75Z" style="fill:rgb(214,237,255);"/>
                    </g>
                    <g transform="matrix(0.573888,0,0,1,152.769,43)">
                        <path d="M387.5,290.75C387.5,288.956 384.962,287.5 381.837,287.5L305.514,287.5C302.389,287.5 299.851,288.956 299.851,290.75C299.851,292.544 302.389,294 305.514,294L381.837,294C384.962,294 387.5,292.544 387.5,290.75Z" style="fill:rgb(214,237,255);"/>
                    </g>
                    <g transform="matrix(0.693905,0,0,1,111.522,52.25)">
                        <path d="M387.5,290.75C387.5,288.956 385.401,287.5 382.816,287.5L304.535,287.5C301.95,287.5 299.851,288.956 299.851,290.75C299.851,292.544 301.95,294 304.535,294L382.816,294C385.401,294 387.5,292.544 387.5,290.75Z" style="fill:rgb(214,237,255);"/>
                    </g>
                    <g transform="matrix(0.794414,0,0,2.38462,76.9792,-318.327)">
                        <path d="M387.5,290.75C387.5,288.956 383.129,287.5 377.744,287.5L309.607,287.5C304.223,287.5 299.851,288.956 299.851,290.75C299.851,292.544 304.223,294 309.607,294L377.744,294C383.129,294 387.5,292.544 387.5,290.75Z" style="fill:rgb(104,159,200);"/>
                    </g>
                    <g>
                        <g transform="matrix(0.898491,0,0,0.898491,36.2021,17.4665)">
                            <circle cx="349.25" cy="231.25" r="56.25" style="fill:rgb(229,229,229);"/>
                        </g>
                        <g transform="matrix(0.891534,0,0,0.891534,38.6316,18.6839)">
                            <circle cx="349.25" cy="231.25" r="56.25" style="fill:rgb(214,237,255);"/>
                        </g>
                        <g transform="matrix(0.190476,0,0,0.190476,283.331,166.667)">
                            <g transform="matrix(1,0,0,1.125,0,-53.125)">
                                <rect x="175" y="225" width="350" height="200" style="fill:rgb(152,102,28);"/>
                            </g>
                            <g transform="matrix(1,0,0,0.0625,2.41585e-13,398.438)">
                                <rect x="175" y="225" width="350" height="200" style="fill:rgb(233,233,233);"/>
                            </g>
                            <g transform="matrix(1.07143,0,0,0.125,-25,384.375)">
                                <rect x="175" y="225" width="350" height="200" style="fill:white;"/>
                            </g>
                            <g transform="matrix(1,0,0,0.880769,-25,22.6923)">
                                <rect x="225" y="270" width="75" height="130" style="fill:rgb(177,216,255);stroke:white;stroke-width:3.63px;"/>
                            </g>
                            <g transform="matrix(1,0,0,0.873077,200,25.7692)">
                                <rect x="225" y="270" width="75" height="130" style="fill:rgb(177,216,255);stroke:white;stroke-width:3.65px;"/>
                            </g>
                            <g transform="matrix(1,0,0,1,0,-12.5)">
                                <g transform="matrix(2.04082,0,0,1,-312.245,0)">
                                    <g transform="matrix(0.98,0,0,1.47368,6,-201.316)">
                                        <rect x="300" y="306.25" width="50" height="118.75" style="fill:rgb(205,133,27);"/>
                                    </g>
                                    <g transform="matrix(0.9702,0,0,1.46526,9.43,-198.737)">
                                        <rect x="300" y="306.25" width="50" height="118.75" style="fill:rgb(255,159,18);"/>
                                    </g>
                                    <g transform="matrix(0.444267,0,0,0.384615,207.88,246.154)">
                                        <rect x="225" y="270" width="75" height="130" style="fill:rgb(177,216,255);stroke:rgb(152,102,28);stroke-width:4.92px;"/>
                                    </g>
                                    <g transform="matrix(0.444267,0,0,0.673077,207.88,55.7692)">
                                        <rect x="225" y="270" width="75" height="130" style="fill:rgb(177,216,255);stroke:rgb(152,102,28);stroke-width:4.29px;"/>
                                    </g>
                                </g>
                                <g>
                                    <g transform="matrix(1,0,0,1.08696,0,-25)">
                                        <path d="M396,323.38C396,322.618 395.328,322 394.5,322L391.5,322C390.672,322 390,322.618 390,323.38L390,343.62C390,344.382 390.672,345 391.5,345L394.5,345C395.328,345 396,344.382 396,343.62L396,323.38Z" style="fill:rgb(152,102,28);"/>
                                    </g>
                                    <g transform="matrix(0.99316,-0.116759,0.116759,0.99316,-36.7182,48.1948)">
                                        <g transform="matrix(0.9,0,0,0.9,38.85,33.75)">
                                            <circle cx="393.5" cy="337.5" r="2.5" style="fill:rgb(255,159,18);"/>
                                        </g>
                                        <g transform="matrix(3.06162e-17,0.5,-0.652174,3.99341e-17,604.5,141)">
                                            <path d="M396,323.15C396,322.515 395.328,322 394.5,322L391.5,322C390.672,322 390,322.515 390,323.15L390,343.85C390,344.485 390.672,345 391.5,345L394.5,345C395.328,345 396,344.485 396,343.85L396,323.15Z" style="fill:rgb(152,102,28);"/>
                                        </g>
                                    </g>
                                </g>
                            </g>
                            <g transform="matrix(5,0,0,0.431034,-1837.5,113.793)">
                                <rect x="400" y="142" width="75" height="58" style="fill:rgb(255,219,173);"/>
                            </g>
                            <g>
                                <g transform="matrix(1,0,0,1,50,0)">
                                    <path d="M150,250C150,250 150,262.502 150,275.003C150,281.633 152.634,287.991 157.321,292.679C162.009,297.366 168.367,300 174.997,300C174.999,300 175.001,300 175.003,300C181.633,300 187.991,297.366 192.679,292.679C197.366,287.991 200,281.633 200,275.003C200,262.502 200,250 200,250L150,250Z" style="fill:white;"/>
                                </g>
                                <g transform="matrix(1,0,0,1,150,0)">
                                    <path d="M150,250C150,250 150,262.502 150,275.003C150,281.633 152.634,287.991 157.321,292.679C162.009,297.366 168.367,300 174.997,300C174.999,300 175.001,300 175.003,300C181.633,300 187.991,297.366 192.679,292.679C197.366,287.991 200,281.633 200,275.003C200,262.502 200,250 200,250L150,250Z" style="fill:white;"/>
                                </g>
                                <g transform="matrix(1,0,0,1,250,0)">
                                    <path d="M150,250C150,250 150,262.502 150,275.003C150,281.633 152.634,287.991 157.321,292.679C162.009,297.366 168.367,300 174.997,300C174.999,300 175.001,300 175.003,300C181.633,300 187.991,297.366 192.679,292.679C197.366,287.991 200,281.633 200,275.003C200,262.502 200,250 200,250L150,250Z" style="fill:white;"/>
                                </g>
                                <g transform="matrix(1,0,0,1,350,0)">
                                    <path d="M150,250C150,250 150,262.502 150,275.003C150,281.633 152.634,287.991 157.321,292.679C162.009,297.366 168.367,300 174.997,300C174.999,300 175.001,300 175.003,300C181.633,300 187.991,297.366 192.679,292.679C197.366,287.991 200,281.633 200,275.003C200,262.502 200,250 200,250L150,250Z" style="fill:white;"/>
                                </g>
                                <path d="M150,250C150,250 150,262.502 150,275.003C150,281.633 152.634,287.991 157.321,292.679C162.009,297.366 168.367,300 174.997,300C174.999,300 175.001,300 175.003,300C181.633,300 187.991,297.366 192.679,292.679C197.366,287.991 200,281.633 200,275.003C200,262.502 200,250 200,250L150,250Z" style="fill:rgb(255,219,173);"/>
                                <g transform="matrix(1,0,0,1,100,0)">
                                    <path d="M150,250C150,250 150,262.502 150,275.003C150,281.633 152.634,287.991 157.321,292.679C162.009,297.366 168.367,300 174.997,300C174.999,300 175.001,300 175.003,300C181.633,300 187.991,297.366 192.679,292.679C197.366,287.991 200,281.633 200,275.003C200,262.502 200,250 200,250L150,250Z" style="fill:rgb(255,219,173);"/>
                                </g>
                                <g transform="matrix(1,0,0,1,200,0)">
                                    <path d="M150,250C150,250 150,262.502 150,275.003C150,281.633 152.634,287.991 157.321,292.679C162.009,297.366 168.367,300 174.997,300C174.999,300 175.001,300 175.003,300C181.633,300 187.991,297.366 192.679,292.679C197.366,287.991 200,281.633 200,275.003C200,262.502 200,250 200,250L150,250Z" style="fill:rgb(255,219,173);"/>
                                </g>
                                <g transform="matrix(1,0,0,1,300,0)">
                                    <path d="M150,250C150,250 150,262.502 150,275.003C150,281.633 152.634,287.991 157.321,292.679C162.009,297.366 168.367,300 174.997,300C174.999,300 175.001,300 175.003,300C181.633,300 187.991,297.366 192.679,292.679C197.366,287.991 200,281.633 200,275.003C200,262.502 200,250 200,250L150,250Z" style="fill:rgb(255,219,173);"/>
                                </g>
                            </g>
                            <path d="M150,250L175,225L525,225L550,250L150,250Z" style="fill:rgb(255,159,18);"/>
                        </g>
                    </g>
                </g>
            </g>
        </g>
    </g>
</svg>
