<?xml version="1.0" encoding="UTF-8" standalone="no"?>
<!DOCTYPE svg PUBLIC "-//W3C//DTD SVG 1.1//EN" "http://www.w3.org/Graphics/SVG/1.1/DTD/svg11.dtd">
<svg width="100%" height="100%" viewBox="0 0 879 250" version="1.1" xmlns="http://www.w3.org/2000/svg" xmlns:xlink="http://www.w3.org/1999/xlink" xml:space="preserve" xmlns:serif="http://www.serif.com/" style="fill-rule:evenodd;clip-rule:evenodd;stroke-linejoin:round;stroke-miterlimit:1.41421;">
    <g transform="matrix(1.5102,0,0,1.51022,-104.17,-273.733)">
        <g transform="matrix(1,0,0,1,3.74625,8.86525)">
            <g transform="matrix(1.91899,0,0,1.91899,388.099,-265.37)">
                <text x="37.081px" y="288.689px" style="font-family:'Arial-BoldMT', 'Arial', sans-serif;font-weight:700;font-size:51.676px;">ELS</text>
            </g>
            <g transform="matrix(0.366948,0,0,0.366948,283.413,170.59)">
                <g>
                    <g>
                        <g transform="matrix(0.968421,0,0,0.968421,247.579,31.3158)">
                            <g>
                                <g>
                                    <circle cx="140" cy="200" r="100"/>
                                    <path d="M140.646,100.002L141.292,100.008L141.936,100.018L142.579,100.033L143.222,100.051L143.863,100.073L144.503,100.1L145.143,100.13L145.781,100.165L146.418,100.203L147.054,100.245L147.689,100.292L148.323,100.342L148.956,100.396L149.588,100.455L150.218,100.517L150.848,100.583L151.476,100.653L152.103,100.726L152.729,100.804L153.354,100.886L153.977,100.971L154.599,101.06L155.22,101.153L155.84,101.25L156.459,101.351L157.076,101.455L157.692,101.563L158.307,101.675L158.92,101.791L159.532,101.91L160.143,102.033L160.752,102.16L161.36,102.291L161.967,102.425L162.572,102.563L163.176,102.704L163.779,102.849L164.38,102.998L164.979,103.151L165.577,103.307L166.174,103.466L166.769,103.629L167.363,103.796L167.955,103.967L168.546,104.141L169.135,104.318L169.723,104.499L170.309,104.683L170.894,104.871L171.477,105.063L172.059,105.258L172.639,105.456L173.217,105.658L173.793,105.863L174.369,106.072L174.942,106.284L175.514,106.5L176.084,106.719L176.652,106.941L177.219,107.167L177.784,107.396L178.347,107.628L178.909,107.864L179.469,108.103L180.027,108.345L180.583,108.591L181.138,108.839L181.691,109.092L182.242,109.347L182.791,109.606L183.338,109.867L183.884,110.132L184.427,110.401L184.969,110.672L185.509,110.947L186.047,111.225L186.583,111.506L187.117,111.79L187.65,112.077L188.18,112.367L188.708,112.661L189.235,112.957L189.759,113.257L190.282,113.56L190.802,113.865L191.321,114.174L191.837,114.486L192.352,114.801L192.864,115.119L193.374,115.439L193.883,115.763L194.389,116.09L194.893,116.42L195.395,116.753L195.895,117.088L196.392,117.427L196.888,117.768L197.381,118.113L197.873,118.46L198.362,118.81L198.849,119.163L199.333,119.519L199.816,119.877L200.296,120.239L200.774,120.603L201.25,120.97L201.723,121.34L202.194,121.713L202.663,122.088L203.13,122.466L203.594,122.847L204.056,123.231L204.515,123.617L204.973,124.006L205.428,124.398L205.88,124.792L206.33,125.189L206.778,125.589L207.223,125.991L207.666,126.396L208.106,126.804L208.544,127.214L208.98,127.627L209.413,128.042L209.843,128.46L210.271,128.88L210.697,129.303L211.12,129.729L211.54,130.157L211.958,130.587L212.373,131.02L212.786,131.456L213.196,131.894L213.604,132.334L214.009,132.777L214.411,133.222L214.811,133.67L215.208,134.12L215.602,134.572L215.994,135.027L216.383,135.485L216.769,135.944L217.153,136.406L217.534,136.87L217.912,137.337L218.287,137.806L218.66,138.277L219.03,138.75L219.397,139.226L219.761,139.704L220.123,140.184L220.481,140.667L220.837,141.151L221.19,141.638L221.54,142.127L221.887,142.619L222.232,143.112L222.573,143.608L222.912,144.105L223.247,144.605L223.58,145.107L223.91,145.611L224.237,146.117L224.561,146.626L224.881,147.136L225.199,147.648L225.514,148.163L225.826,148.679L226.135,149.198L226.44,149.718L226.743,150.241L227.043,150.765L227.339,151.292L227.633,151.82L227.923,152.35L228.21,152.883L228.494,153.417L228.775,153.953L229.053,154.491L229.328,155.031L229.599,155.573L229.868,156.116L230.133,156.662L230.394,157.209L230.653,157.758L230.908,158.309L231.161,158.862L231.409,159.417L231.655,159.973L231.897,160.531L232.136,161.091L232.372,161.653L232.604,162.216L232.833,162.781L233.059,163.348L233.281,163.916L233.5,164.486L233.716,165.058L233.928,165.631L234.137,166.207L234.342,166.783L234.544,167.361L234.742,167.941L234.937,168.523L235.129,169.106L235.317,169.691L235.501,170.277L235.682,170.865L235.859,171.454L236.033,172.045L236.204,172.637L236.371,173.231L236.534,173.826L236.693,174.423L236.849,175.021L237.002,175.62L237.151,176.221L237.296,176.824L237.437,177.428L237.575,178.033L237.709,178.64L237.84,179.248L237.967,179.857L238.09,180.468L238.209,181.08L238.325,181.693L238.437,182.308L238.545,182.924L238.649,183.541L238.75,184.16L238.847,184.78L238.94,185.401L239.029,186.023L239.114,186.646L239.196,187.271L239.274,187.897L239.347,188.524L239.417,189.152L239.483,189.782L239.545,190.412L239.604,191.044L239.658,191.677L239.708,192.311L239.755,192.946L239.797,193.582L239.835,194.219L239.87,194.857L239.9,195.497L239.927,196.137L239.949,196.778L239.967,197.421L239.982,198.064L239.992,198.708L239.998,199.354L240,200L239.998,200.646L239.992,201.292L239.982,201.936L239.967,202.579L239.949,203.222L239.927,203.863L239.9,204.503L239.87,205.143L239.835,205.781L239.797,206.418L239.755,207.054L239.708,207.689L239.658,208.323L239.604,208.956L239.545,209.588L239.483,210.218L239.417,210.848L239.347,211.476L239.274,212.103L239.196,212.729L239.114,213.354L239.029,213.977L238.94,214.599L238.847,215.22L238.75,215.84L238.649,216.459L238.545,217.076L238.437,217.692L238.325,218.307L238.209,218.92L238.09,219.532L237.967,220.143L237.84,220.752L237.709,221.36L237.575,221.967L237.437,222.572L237.296,223.176L237.151,223.779L237.002,224.38L236.849,224.979L236.693,225.577L236.534,226.174L236.371,226.769L236.204,227.363L236.033,227.955L235.859,228.546L235.682,229.135L235.501,229.723L235.317,230.309L235.129,230.894L234.937,231.477L234.742,232.059L234.544,232.639L234.342,233.217L234.137,233.793L233.928,234.369L233.716,234.942L233.5,235.514L233.281,236.084L233.059,236.652L232.833,237.219L232.604,237.784L232.372,238.347L232.136,238.909L231.897,239.469L231.655,240.027L231.409,240.583L231.161,241.138L230.908,241.691L230.653,242.242L230.394,242.791L230.133,243.338L229.868,243.884L229.599,244.427L229.328,244.969L229.053,245.509L228.775,246.047L228.494,246.583L228.21,247.117L227.923,247.65L227.633,248.18L227.339,248.708L227.043,249.235L226.743,249.759L226.44,250.282L226.135,250.802L225.826,251.321L225.514,251.837L225.199,252.352L224.881,252.864L224.561,253.374L224.237,253.883L223.91,254.389L223.58,254.893L223.247,255.395L222.912,255.895L222.573,256.392L222.232,256.888L221.887,257.381L221.54,257.873L221.19,258.362L220.837,258.849L220.481,259.333L220.123,259.816L219.761,260.296L219.397,260.774L219.03,261.25L218.66,261.723L218.287,262.194L217.912,262.663L217.534,263.13L217.153,263.594L216.769,264.056L216.383,264.515L215.994,264.973L215.602,265.428L215.208,265.88L214.811,266.33L214.411,266.778L214.009,267.223L213.604,267.666L213.196,268.106L212.786,268.544L212.373,268.98L211.958,269.413L211.54,269.843L211.12,270.271L210.697,270.697L210.271,271.12L209.843,271.54L209.413,271.958L208.98,272.373L208.544,272.786L208.106,273.196L207.666,273.604L207.223,274.009L206.778,274.411L206.33,274.811L205.88,275.208L205.428,275.602L204.973,275.994L204.515,276.383L204.056,276.769L203.594,277.153L203.13,277.534L202.663,277.912L202.194,278.287L201.723,278.66L201.25,279.03L200.774,279.397L200.296,279.761L199.816,280.123L199.333,280.481L198.849,280.837L198.362,281.19L197.873,281.54L197.381,281.887L196.888,282.232L196.392,282.573L195.895,282.912L195.395,283.247L194.893,283.58L194.389,283.91L193.883,284.237L193.374,284.561L192.864,284.881L192.352,285.199L191.837,285.514L191.321,285.826L190.802,286.135L190.282,286.44L189.759,286.743L189.235,287.043L188.708,287.339L188.18,287.633L187.65,287.923L187.117,288.21L186.583,288.494L186.047,288.775L185.509,289.053L184.969,289.328L184.427,289.599L183.884,289.868L183.338,290.133L182.791,290.394L182.242,290.653L181.691,290.908L181.138,291.161L180.583,291.409L180.027,291.655L179.469,291.897L178.909,292.136L178.347,292.372L177.784,292.604L177.219,292.833L176.652,293.059L176.084,293.281L175.514,293.5L174.942,293.716L174.369,293.928L173.793,294.137L173.217,294.342L172.639,294.544L172.059,294.742L171.477,294.937L170.894,295.129L170.309,295.317L169.723,295.501L169.135,295.682L168.546,295.859L167.955,296.033L167.363,296.204L166.769,296.371L166.174,296.534L165.577,296.693L164.979,296.849L164.38,297.002L163.779,297.151L163.176,297.296L162.572,297.437L161.967,297.575L161.36,297.709L160.752,297.84L160.143,297.967L159.532,298.09L158.92,298.209L158.307,298.325L157.692,298.437L157.076,298.545L156.459,298.649L155.84,298.75L155.22,298.847L154.599,298.94L153.977,299.029L153.354,299.114L152.729,299.196L152.103,299.274L151.476,299.347L150.848,299.417L150.218,299.483L149.588,299.545L148.956,299.604L148.323,299.658L147.689,299.708L147.054,299.755L146.418,299.797L145.781,299.835L145.143,299.87L144.503,299.9L143.863,299.927L143.222,299.949L142.579,299.967L141.936,299.982L141.292,299.992L140.646,299.998L140,300L139.354,299.998L138.708,299.992L138.064,299.982L137.421,299.967L136.778,299.949L136.137,299.927L135.497,299.9L134.857,299.87L134.219,299.835L133.582,299.797L132.946,299.755L132.311,299.708L131.677,299.658L131.044,299.604L130.412,299.545L129.782,299.483L129.152,299.417L128.524,299.347L127.897,299.274L127.271,299.196L126.646,299.114L126.023,299.029L125.401,298.94L124.78,298.847L124.16,298.75L123.541,298.649L122.924,298.545L122.308,298.437L121.693,298.325L121.08,298.209L120.468,298.09L119.857,297.967L119.248,297.84L118.64,297.709L118.033,297.575L117.428,297.437L116.824,297.296L116.221,297.151L115.62,297.002L115.021,296.849L114.423,296.693L113.826,296.534L113.231,296.371L112.637,296.204L112.045,296.033L111.454,295.859L110.865,295.682L110.277,295.501L109.691,295.317L109.106,295.129L108.523,294.937L107.941,294.742L107.361,294.544L106.783,294.342L106.207,294.137L105.631,293.928L105.058,293.716L104.486,293.5L103.916,293.281L103.348,293.059L102.781,292.833L102.216,292.604L101.653,292.372L101.091,292.136L100.531,291.897L99.973,291.655L99.417,291.409L98.862,291.161L98.309,290.908L97.758,290.653L97.209,290.394L96.662,290.133L96.116,289.868L95.573,289.599L95.031,289.328L94.491,289.053L93.953,288.775L93.417,288.494L92.883,288.21L92.35,287.923L91.82,287.633L91.292,287.339L90.765,287.043L90.241,286.743L89.718,286.44L89.198,286.135L88.679,285.826L88.163,285.514L87.648,285.199L87.136,284.881L86.626,284.561L86.117,284.237L85.611,283.91L85.107,283.58L84.605,283.247L84.105,282.912L83.608,282.573L83.112,282.232L82.619,281.887L82.127,281.54L81.638,281.19L81.151,280.837L80.667,280.481L80.184,280.123L79.704,279.761L79.226,279.397L78.75,279.03L78.277,278.66L77.806,278.287L77.337,277.912L76.87,277.534L76.406,277.153L75.944,276.769L75.485,276.383L75.027,275.994L74.572,275.602L74.12,275.208L73.67,274.811L73.222,274.411L72.777,274.009L72.334,273.604L71.894,273.196L71.456,272.786L71.02,272.373L70.587,271.958L70.157,271.54L69.729,271.12L69.303,270.697L68.88,270.271L68.46,269.843L68.042,269.413L67.627,268.98L67.214,268.544L66.804,268.106L66.396,267.666L65.991,267.223L65.589,266.778L65.189,266.33L64.792,265.88L64.398,265.428L64.006,264.973L63.617,264.515L63.231,264.056L62.847,263.594L62.466,263.13L62.088,262.663L61.713,262.194L61.34,261.723L60.97,261.25L60.603,260.774L60.239,260.296L59.877,259.816L59.519,259.333L59.163,258.849L58.81,258.362L58.46,257.873L58.113,257.381L57.768,256.888L57.427,256.392L57.088,255.895L56.753,255.395L56.42,254.893L56.09,254.389L55.763,253.883L55.439,253.374L55.119,252.864L54.801,252.352L54.486,251.837L54.174,251.321L53.865,250.802L53.56,250.282L53.257,249.759L52.957,249.235L52.661,248.708L52.367,248.18L52.077,247.65L51.79,247.117L51.506,246.583L51.225,246.047L50.947,245.509L50.672,244.969L50.401,244.427L50.132,243.884L49.867,243.338L49.606,242.791L49.347,242.242L49.092,241.691L48.839,241.138L48.591,240.583L48.345,240.027L48.103,239.469L47.864,238.909L47.628,238.347L47.396,237.784L47.167,237.219L46.941,236.652L46.719,236.084L46.5,235.514L46.284,234.942L46.072,234.369L45.863,233.793L45.658,233.217L45.456,232.639L45.258,232.059L45.063,231.477L44.871,230.894L44.683,230.309L44.499,229.723L44.318,229.135L44.141,228.546L43.967,227.955L43.796,227.363L43.629,226.769L43.466,226.174L43.307,225.577L43.151,224.979L42.998,224.38L42.849,223.779L42.704,223.176L42.563,222.572L42.425,221.967L42.291,221.36L42.16,220.752L42.033,220.143L41.91,219.532L41.791,218.92L41.675,218.307L41.563,217.692L41.455,217.076L41.351,216.459L41.25,215.84L41.153,215.22L41.06,214.599L40.971,213.977L40.886,213.354L40.804,212.729L40.726,212.103L40.653,211.476L40.583,210.848L40.517,210.218L40.455,209.588L40.396,208.956L40.342,208.323L40.292,207.689L40.245,207.054L40.203,206.418L40.165,205.781L40.13,205.143L40.1,204.503L40.073,203.863L40.051,203.222L40.033,202.579L40.018,201.936L40.008,201.292L40.002,200.646L40,200L40.002,199.354L40.008,198.708L40.018,198.064L40.033,197.421L40.051,196.778L40.073,196.137L40.1,195.497L40.13,194.857L40.165,194.219L40.203,193.582L40.245,192.946L40.292,192.311L40.342,191.677L40.396,191.044L40.455,190.412L40.517,189.782L40.583,189.152L40.653,188.524L40.726,187.897L40.804,187.271L40.886,186.646L40.971,186.023L41.06,185.401L41.153,184.78L41.25,184.16L41.351,183.541L41.455,182.924L41.563,182.308L41.675,181.693L41.791,181.08L41.91,180.468L42.033,179.857L42.16,179.248L42.291,178.64L42.425,178.033L42.563,177.428L42.704,176.824L42.849,176.221L42.998,175.62L43.151,175.021L43.307,174.423L43.466,173.826L43.629,173.231L43.796,172.637L43.967,172.045L44.141,171.454L44.318,170.865L44.499,170.277L44.683,169.691L44.871,169.106L45.063,168.523L45.258,167.941L45.456,167.361L45.658,166.783L45.863,166.207L46.072,165.631L46.284,165.058L46.5,164.486L46.719,163.916L46.941,163.348L47.167,162.781L47.396,162.216L47.628,161.653L47.864,161.091L48.103,160.531L48.345,159.973L48.591,159.417L48.839,158.862L49.092,158.309L49.347,157.758L49.606,157.209L49.867,156.662L50.132,156.116L50.401,155.573L50.672,155.031L50.947,154.491L51.225,153.953L51.506,153.417L51.79,152.883L52.077,152.35L52.367,151.82L52.661,151.292L52.957,150.765L53.257,150.241L53.56,149.718L53.865,149.198L54.174,148.679L54.486,148.163L54.801,147.648L55.119,147.136L55.439,146.626L55.763,146.117L56.09,145.611L56.42,145.107L56.753,144.605L57.088,144.105L57.427,143.608L57.768,143.112L58.113,142.619L58.46,142.127L58.81,141.638L59.163,141.151L59.519,140.667L59.877,140.184L60.239,139.704L60.603,139.226L60.97,138.75L61.34,138.277L61.713,137.806L62.088,137.337L62.466,136.87L62.847,136.406L63.231,135.944L63.617,135.485L64.006,135.027L64.398,134.572L64.792,134.12L65.189,133.67L65.589,133.222L65.991,132.777L66.396,132.334L66.804,131.894L67.214,131.456L67.627,131.02L68.042,130.587L68.46,130.157L68.88,129.729L69.303,129.303L69.729,128.88L70.157,128.46L70.587,128.042L71.02,127.627L71.456,127.214L71.894,126.804L72.334,126.396L72.777,125.991L73.222,125.589L73.67,125.189L74.12,124.792L74.572,124.398L75.027,124.006L75.485,123.617L75.944,123.231L76.406,122.847L76.87,122.466L77.337,122.088L77.806,121.713L78.277,121.34L78.75,120.97L79.226,120.603L79.704,120.239L80.184,119.877L80.667,119.519L81.151,119.163L81.638,118.81L82.127,118.46L82.619,118.113L83.112,117.768L83.608,117.427L84.105,117.088L84.605,116.753L85.107,116.42L85.611,116.09L86.117,115.763L86.626,115.439L87.136,115.119L87.648,114.801L88.163,114.486L88.679,114.174L89.198,113.865L89.718,113.56L90.241,113.257L90.765,112.957L91.292,112.661L91.82,112.367L92.35,112.077L92.883,111.79L93.417,111.506L93.953,111.225L94.491,110.947L95.031,110.672L95.573,110.401L96.116,110.132L96.662,109.867L97.209,109.606L97.758,109.347L98.309,109.092L98.862,108.839L99.417,108.591L99.973,108.345L100.531,108.103L101.091,107.864L101.653,107.628L102.216,107.396L102.781,107.167L103.348,106.941L103.916,106.719L104.486,106.5L105.058,106.284L105.631,106.072L106.207,105.863L106.783,105.658L107.361,105.456L107.941,105.258L108.523,105.063L109.106,104.871L109.691,104.683L110.277,104.499L110.865,104.318L111.454,104.141L112.045,103.967L112.637,103.796L113.231,103.629L113.826,103.466L114.423,103.307L115.021,103.151L115.62,102.998L116.221,102.849L116.824,102.704L117.428,102.563L118.033,102.425L118.64,102.291L119.248,102.16L119.857,102.033L120.468,101.91L121.08,101.791L121.693,101.675L122.308,101.563L122.924,101.455L123.541,101.351L124.16,101.25L124.78,101.153L125.401,101.06L126.023,100.971L126.646,100.886L127.271,100.804L127.897,100.726L128.524,100.653L129.152,100.583L129.782,100.517L130.412,100.455L131.044,100.396L131.677,100.342L132.311,100.292L132.946,100.245L133.582,100.203L134.219,100.165L134.857,100.13L135.497,100.1L136.137,100.073L136.778,100.051L137.421,100.033L138.064,100.018L138.708,100.008L139.354,100.002L140,100L140.646,100.002ZM139.443,114.133L138.888,114.138L138.333,114.147L137.779,114.159L137.226,114.175L136.674,114.194L136.124,114.217L135.574,114.243L135.025,114.273L134.477,114.306L133.93,114.342L133.384,114.382L132.84,114.425L132.296,114.472L131.753,114.522L131.211,114.575L130.671,114.632L130.131,114.692L129.593,114.755L129.055,114.822L128.519,114.892L127.984,114.965L127.449,115.042L126.916,115.122L126.384,115.205L125.854,115.291L125.324,115.381L124.796,115.473L124.268,115.569L123.742,115.669L123.217,115.771L122.693,115.877L122.17,115.985L121.649,116.097L121.129,116.212L120.609,116.331L120.091,116.452L119.575,116.577L119.059,116.704L118.545,116.835L118.032,116.969L117.52,117.106L117.01,117.246L116.501,117.389L115.993,117.535L115.486,117.684L114.981,117.836L114.477,117.991L113.974,118.149L113.473,118.311L112.973,118.475L112.475,118.642L111.977,118.812L111.481,118.985L110.987,119.161L110.494,119.34L110.002,119.522L109.511,119.707L109.022,119.895L108.535,120.085L108.049,120.279L107.564,120.475L107.081,120.675L106.599,120.877L106.119,121.082L105.641,121.29L105.163,121.501L104.687,121.714L104.213,121.93L103.74,122.149L103.269,122.371L102.799,122.596L102.331,122.823L101.865,123.054L101.399,123.287L100.936,123.522L100.474,123.761L100.014,124.002L99.556,124.246L99.099,124.492L98.643,124.742L98.19,124.994L97.738,125.248L97.287,125.505L96.839,125.765L96.392,126.028L95.946,126.293L95.503,126.561L95.061,126.831L94.621,127.104L94.183,127.38L93.747,127.658L93.312,127.939L92.878,128.222L92.447,128.508L92.018,128.796L91.59,129.087L91.165,129.38L90.741,129.676L90.318,129.975L89.898,130.275L89.48,130.579L89.063,130.884L88.649,131.193L88.236,131.503L87.826,131.816L87.417,132.132L87.01,132.45L86.605,132.77L86.202,133.092L85.8,133.418L85.402,133.745L85.005,134.075L84.61,134.407L84.217,134.741L83.825,135.078L83.436,135.417L83.049,135.758L82.665,136.102L82.282,136.447L81.901,136.796L81.523,137.146L81.146,137.499L80.772,137.854L80.399,138.211L80.029,138.57L79.661,138.932L79.296,139.295L78.932,139.661L78.57,140.029L78.211,140.399L77.854,140.771L77.499,141.146L77.146,141.522L76.796,141.901L76.448,142.282L76.102,142.665L75.758,143.049L75.417,143.436L75.078,143.825L74.741,144.216L74.407,144.609L74.075,145.004L73.745,145.402L73.418,145.801L73.093,146.201L72.77,146.604L72.45,147.01L72.132,147.417L71.817,147.825L71.503,148.236L71.193,148.648L70.885,149.063L70.578,149.48L70.276,149.898L69.975,150.318L69.676,150.74L69.381,151.164L69.087,151.59L68.796,152.018L68.508,152.447L68.222,152.879L67.939,153.312L67.659,153.746L67.38,154.182L67.104,154.622L66.831,155.062L66.561,155.503L66.294,155.946L66.028,156.392L65.766,156.839L65.506,157.287L65.248,157.738L64.994,158.19L64.742,158.644L64.493,159.099L64.246,159.555L64.002,160.014L63.761,160.474L63.523,160.936L63.287,161.399L63.054,161.864L62.824,162.33L62.596,162.799L62.372,163.269L62.15,163.74L61.931,164.213L61.714,164.687L61.501,165.163L61.29,165.64L61.082,166.119L60.877,166.599L60.675,167.081L60.476,167.564L60.279,168.049L60.086,168.535L59.895,169.022L59.707,169.511L59.522,170.002L59.34,170.494L59.162,170.986L58.986,171.481L58.812,171.978L58.642,172.474L58.475,172.973L58.311,173.473L58.15,173.974L57.992,174.476L57.836,174.981L57.684,175.487L57.535,175.992L57.389,176.5L57.246,177.01L57.106,177.521L56.969,178.032L56.835,178.545L56.704,179.059L56.577,179.575L56.452,180.091L56.331,180.609L56.213,181.129L56.097,181.649L55.986,182.17L55.877,182.693L55.771,183.217L55.669,183.742L55.569,184.268L55.474,184.795L55.381,185.324L55.291,185.854L55.205,186.385L55.122,186.917L55.042,187.449L54.965,187.983L54.892,188.518L54.822,189.055L54.755,189.593L54.692,190.132L54.632,190.67L54.575,191.21L54.522,191.753L54.472,192.296L54.425,192.84L54.382,193.384L54.342,193.93L54.306,194.477L54.273,195.024L54.243,195.574L54.217,196.124L54.194,196.674L54.175,197.226L54.159,197.779L54.147,198.332L54.138,198.887L54.133,199.443L54.131,200L54.133,200.557L54.138,201.113L54.147,201.668L54.159,202.221L54.175,202.774L54.194,203.326L54.217,203.876L54.243,204.426L54.273,204.976L54.306,205.523L54.342,206.07L54.382,206.616L54.425,207.16L54.472,207.704L54.522,208.247L54.575,208.79L54.632,209.33L54.692,209.868L54.755,210.407L54.822,210.945L54.892,211.482L54.965,212.017L55.042,212.551L55.122,213.083L55.205,213.615L55.291,214.146L55.381,214.676L55.474,215.205L55.569,215.732L55.669,216.258L55.771,216.783L55.877,217.307L55.986,217.83L56.097,218.351L56.213,218.871L56.331,219.391L56.452,219.909L56.577,220.425L56.704,220.941L56.835,221.455L56.969,221.968L57.106,222.479L57.246,222.99L57.389,223.5L57.535,224.008L57.684,224.513L57.836,225.019L57.992,225.524L58.15,226.026L58.311,226.527L58.475,227.027L58.642,227.525L58.812,228.022L58.986,228.519L59.162,229.014L59.34,229.506L59.522,229.998L59.707,230.489L59.895,230.978L60.086,231.465L60.279,231.951L60.476,232.436L60.675,232.919L60.877,233.401L61.082,233.881L61.29,234.36L61.501,234.837L61.714,235.313L61.931,235.787L62.15,236.26L62.372,236.731L62.596,237.2L62.824,237.67L63.054,238.136L63.287,238.601L63.523,239.064L63.761,239.526L64.002,239.986L64.246,240.445L64.493,240.901L64.742,241.356L64.994,241.81L65.248,242.262L65.506,242.713L65.766,243.161L66.028,243.608L66.294,244.054L66.561,244.497L66.831,244.938L67.104,245.378L67.38,245.818L67.659,246.254L67.939,246.688L68.222,247.121L68.508,247.553L68.797,247.983L69.087,248.41L69.381,248.836L69.676,249.26L69.975,249.682L70.276,250.102L70.579,250.52L70.885,250.937L71.193,251.352L71.503,251.764L71.817,252.175L72.132,252.583L72.45,252.99L72.771,253.396L73.093,253.799L73.418,254.199L73.745,254.598L74.075,254.996L74.407,255.391L74.741,255.784L75.078,256.175L75.417,256.564L75.759,256.951L76.102,257.335L76.448,257.718L76.796,258.099L77.146,258.478L77.499,258.854L77.854,259.229L78.211,259.601L78.57,259.971L78.932,260.339L79.296,260.705L79.661,261.068L80.029,261.43L80.399,261.789L80.772,262.146L81.146,262.501L81.522,262.854L81.901,263.204L82.282,263.553L82.664,263.898L83.049,264.242L83.437,264.583L83.825,264.922L84.217,265.259L84.61,265.593L85.005,265.925L85.402,266.255L85.8,266.582L86.202,266.908L86.605,267.23L87.01,267.55L87.417,267.868L87.825,268.184L88.236,268.497L88.649,268.807L89.063,269.116L89.48,269.421L89.898,269.725L90.318,270.025L90.741,270.324L91.165,270.62L91.59,270.913L92.018,271.204L92.447,271.492L92.878,271.778L93.312,272.061L93.747,272.342L94.183,272.62L94.621,272.896L95.061,273.169L95.503,273.439L95.946,273.707L96.392,273.972L96.839,274.235L97.287,274.495L97.738,274.752L98.19,275.006L98.644,275.258L99.099,275.508L99.556,275.754L100.014,275.998L100.474,276.239L100.936,276.478L101.399,276.713L101.865,276.946L102.331,277.176L102.799,277.404L103.269,277.629L103.74,277.85L104.213,278.07L104.687,278.286L105.163,278.499L105.64,278.71L106.119,278.918L106.599,279.123L107.081,279.325L107.564,279.525L108.049,279.721L108.535,279.915L109.022,280.105L109.511,280.293L110.002,280.478L110.494,280.66L110.987,280.839L111.481,281.015L111.977,281.188L112.475,281.358L112.973,281.525L113.473,281.689L113.974,281.851L114.477,282.009L114.981,282.164L115.487,282.316L115.993,282.465L116.501,282.611L117.01,282.754L117.52,282.894L118.032,283.031L118.545,283.165L119.059,283.296L119.575,283.423L120.091,283.548L120.609,283.669L121.129,283.788L121.649,283.903L122.17,284.015L122.693,284.123L123.217,284.229L123.742,284.331L124.268,284.431L124.796,284.527L125.324,284.62L125.854,284.709L126.384,284.795L126.916,284.878L127.45,284.958L127.984,285.035L128.519,285.108L129.055,285.178L129.593,285.245L130.131,285.308L130.671,285.368L131.211,285.425L131.753,285.478L132.296,285.528L132.839,285.575L133.384,285.618L133.93,285.658L134.477,285.694L135.025,285.727L135.574,285.757L136.124,285.783L136.674,285.806L137.226,285.825L137.779,285.841L138.333,285.853L138.888,285.862L139.443,285.867L140,285.869L140.556,285.867L141.112,285.862L141.667,285.853L142.221,285.841L142.774,285.825L143.326,285.806L143.876,285.783L144.426,285.757L144.975,285.727L145.523,285.694L146.07,285.658L146.616,285.618L147.161,285.575L147.704,285.528L148.247,285.478L148.789,285.425L149.329,285.368L149.869,285.308L150.407,285.245L150.945,285.178L151.481,285.108L152.016,285.035L152.55,284.958L153.084,284.878L153.616,284.795L154.146,284.709L154.676,284.62L155.204,284.527L155.732,284.431L156.258,284.331L156.783,284.229L157.307,284.123L157.83,284.015L158.351,283.903L158.871,283.788L159.391,283.669L159.909,283.548L160.425,283.423L160.941,283.296L161.455,283.165L161.968,283.031L162.479,282.894L162.99,282.754L163.499,282.611L164.007,282.465L164.513,282.316L165.019,282.164L165.523,282.009L166.025,281.851L166.527,281.689L167.027,281.525L167.525,281.358L168.022,281.188L168.519,281.015L169.013,280.839L169.506,280.66L169.998,280.478L170.489,280.293L170.977,280.105L171.465,279.915L171.951,279.721L172.436,279.525L172.919,279.325L173.401,279.123L173.881,278.918L174.36,278.71L174.837,278.5L175.313,278.286L175.787,278.07L176.26,277.851L176.731,277.629L177.201,277.404L177.669,277.176L178.135,276.946L178.601,276.713L179.064,276.478L179.526,276.239L179.986,275.998L180.444,275.754L180.901,275.508L181.356,275.258L181.81,275.006L182.262,274.752L182.713,274.495L183.161,274.235L183.608,273.972L184.054,273.707L184.497,273.439L184.939,273.169L185.379,272.896L185.817,272.62L186.253,272.342L186.688,272.061L187.122,271.778L187.553,271.492L187.982,271.204L188.41,270.913L188.835,270.62L189.259,270.324L189.682,270.025L190.102,269.725L190.52,269.421L190.937,269.116L191.351,268.807L191.764,268.497L192.175,268.184L192.583,267.868L192.99,267.55L193.395,267.23L193.798,266.908L194.199,266.583L194.598,266.255L194.996,265.925L195.39,265.593L195.783,265.259L196.175,264.922L196.563,264.583L196.95,264.242L197.335,263.898L197.718,263.552L198.099,263.204L198.478,262.854L198.854,262.501L199.228,262.146L199.601,261.789L199.971,261.43L200.339,261.068L200.704,260.705L201.068,260.339L201.43,259.971L201.789,259.601L202.146,259.229L202.501,258.854L202.854,258.478L203.204,258.099L203.552,257.718L203.898,257.336L204.241,256.951L204.583,256.564L204.922,256.175L205.259,255.784L205.593,255.391L205.925,254.996L206.255,254.599L206.582,254.199L206.908,253.798L207.229,253.396L207.55,252.991L207.868,252.583L208.184,252.174L208.497,251.764L208.807,251.352L209.115,250.937L209.421,250.52L209.724,250.102L210.025,249.682L210.323,249.26L210.62,248.835L210.913,248.41L211.203,247.983L211.492,247.553L211.778,247.122L212.061,246.689L212.342,246.254L212.62,245.817L212.895,245.379L213.168,244.939L213.439,244.497L213.707,244.053L213.972,243.608L214.234,243.161L214.494,242.713L214.752,242.262L215.006,241.81L215.258,241.356L215.507,240.901L215.754,240.445L215.998,239.986L216.239,239.526L216.477,239.064L216.713,238.601L216.946,238.136L217.176,237.67L217.404,237.2L217.629,236.731L217.85,236.26L218.07,235.787L218.286,235.313L218.499,234.837L218.71,234.36L218.918,233.881L219.123,233.401L219.325,232.919L219.524,232.436L219.721,231.952L219.914,231.465L220.105,230.977L220.293,230.489L220.478,229.998L220.659,229.507L220.838,229.014L221.015,228.518L221.188,228.023L221.358,227.525L221.525,227.027L221.689,226.527L221.851,226.025L222.008,225.524L222.164,225.019L222.316,224.513L222.465,224.008L222.611,223.5L222.754,222.99L222.894,222.479L223.031,221.969L223.165,221.455L223.296,220.941L223.423,220.425L223.548,219.909L223.669,219.391L223.787,218.871L223.903,218.351L224.014,217.83L224.123,217.307L224.229,216.783L224.331,216.259L224.43,215.732L224.527,215.204L224.619,214.677L224.709,214.146L224.795,213.615L224.878,213.083L224.958,212.551L225.035,212.017L225.108,211.481L225.178,210.945L225.245,210.407L225.308,209.869L225.368,209.33L225.425,208.789L225.478,208.247L225.528,207.704L225.575,207.16L225.618,206.616L225.658,206.07L225.694,205.523L225.727,204.976L225.757,204.426L225.783,203.877L225.806,203.326L225.825,202.773L225.841,202.221L225.853,201.668L225.862,201.112L225.867,200.557L225.869,200L225.867,199.443L225.862,198.888L225.853,198.332L225.841,197.779L225.825,197.227L225.806,196.674L225.783,196.123L225.757,195.574L225.727,195.024L225.694,194.477L225.658,193.93L225.618,193.384L225.575,192.84L225.528,192.296L225.478,191.753L225.425,191.211L225.368,190.67L225.308,190.131L225.245,189.593L225.178,189.055L225.108,188.519L225.035,187.983L224.958,187.449L224.878,186.917L224.795,186.385L224.709,185.854L224.619,185.323L224.527,184.796L224.43,184.268L224.331,183.741L224.229,183.217L224.123,182.693L224.014,182.17L223.903,181.649L223.787,181.129L223.669,180.609L223.548,180.091L223.423,179.575L223.296,179.059L223.165,178.545L223.031,178.031L222.894,177.521L222.754,177.01L222.611,176.5L222.465,175.992L222.316,175.487L222.164,174.981L222.008,174.476L221.851,173.975L221.689,173.473L221.525,172.973L221.358,172.474L221.188,171.977L221.015,171.482L220.838,170.986L220.659,170.493L220.478,170.002L220.293,169.511L220.105,169.023L219.914,168.535L219.721,168.048L219.524,167.564L219.325,167.081L219.123,166.599L218.918,166.119L218.71,165.64L218.499,165.163L218.286,164.687L218.07,164.213L217.85,163.74L217.629,163.269L217.404,162.799L217.176,162.33L216.946,161.864L216.713,161.399L216.477,160.936L216.239,160.474L215.998,160.014L215.754,159.555L215.507,159.099L215.258,158.644L215.006,158.19L214.752,157.738L214.494,157.287L214.234,156.839L213.972,156.392L213.707,155.947L213.439,155.503L213.168,155.061L212.895,154.621L212.62,154.183L212.342,153.746L212.061,153.311L211.778,152.878L211.492,152.447L211.204,152.018L210.913,151.59L210.62,151.165L210.323,150.74L210.025,150.318L209.724,149.898L209.422,149.48L209.115,149.063L208.807,148.648L208.497,148.236L208.184,147.826L207.868,147.417L207.55,147.009L207.23,146.604L206.908,146.202L206.582,145.801L206.255,145.401L205.925,145.004L205.593,144.609L205.259,144.216L204.922,143.825L204.583,143.436L204.241,143.049L203.898,142.664L203.552,142.282L203.204,141.901L202.854,141.522L202.501,141.146L202.146,140.771L201.789,140.399L201.43,140.029L201.068,139.661L200.704,139.295L200.339,138.932L199.971,138.57L199.601,138.211L199.228,137.854L198.854,137.499L198.477,137.146L198.099,136.796L197.718,136.448L197.335,136.102L196.95,135.758L196.564,135.417L196.175,135.078L195.783,134.741L195.39,134.407L194.996,134.075L194.598,133.745L194.199,133.417L193.798,133.092L193.395,132.77L192.99,132.45L192.583,132.132L192.175,131.816L191.764,131.503L191.351,131.193L190.937,130.884L190.52,130.579L190.102,130.275L189.682,129.975L189.259,129.676L188.835,129.38L188.41,129.087L187.982,128.796L187.553,128.508L187.122,128.222L186.688,127.939L186.253,127.658L185.817,127.38L185.379,127.104L184.939,126.831L184.497,126.561L184.054,126.293L183.608,126.028L183.161,125.765L182.713,125.505L182.262,125.248L181.81,124.994L181.357,124.742L180.901,124.492L180.444,124.246L179.986,124.002L179.526,123.761L179.064,123.522L178.601,123.287L178.135,123.054L177.669,122.823L177.201,122.596L176.731,122.371L176.26,122.149L175.787,121.93L175.313,121.714L174.837,121.5L174.36,121.29L173.881,121.082L173.401,120.877L172.919,120.675L172.436,120.475L171.951,120.279L171.465,120.085L170.977,119.895L170.489,119.707L169.998,119.522L169.506,119.34L169.013,119.161L168.519,118.985L168.022,118.812L167.525,118.642L167.027,118.475L166.527,118.311L166.025,118.149L165.523,117.991L165.019,117.836L164.514,117.684L164.007,117.535L163.499,117.389L162.99,117.246L162.479,117.106L161.968,116.969L161.455,116.835L160.941,116.704L160.425,116.577L159.909,116.452L159.391,116.331L158.871,116.212L158.351,116.097L157.83,115.985L157.307,115.877L156.783,115.771L156.258,115.669L155.732,115.569L155.204,115.473L154.676,115.381L154.146,115.291L153.616,115.205L153.084,115.122L152.55,115.042L152.016,114.965L151.481,114.892L150.945,114.822L150.407,114.755L149.869,114.692L149.329,114.632L148.789,114.575L148.247,114.522L147.704,114.472L147.161,114.425L146.616,114.382L146.07,114.342L145.523,114.306L144.975,114.273L144.426,114.243L143.876,114.217L143.326,114.194L142.774,114.175L142.221,114.159L141.667,114.147L141.112,114.138L140.557,114.133L140,114.131L139.443,114.133Z"/>
                                </g>
                            </g>
                        </g>
                        <g transform="matrix(0.564427,0,0,1.36948,239.229,-77.2648)">
                            <path d="M460,75C460,66.721 443.692,60 423.605,60L86.395,60C66.308,60 50,66.721 50,75L50,105C50,113.279 66.308,120 86.395,120L423.605,120C443.692,120 460,113.279 460,105L460,75Z"/>
                        </g>
                        <g transform="matrix(0.968421,0,0,0.968421,-18.7368,31.3158)">
                            <g>
                                <g>
                                    <circle cx="140" cy="200" r="100"/>
                                    <path d="M140.646,100.002L141.292,100.008L141.936,100.018L142.579,100.033L143.222,100.051L143.863,100.073L144.503,100.1L145.143,100.13L145.781,100.165L146.418,100.203L147.054,100.245L147.689,100.292L148.323,100.342L148.956,100.396L149.588,100.455L150.218,100.517L150.848,100.583L151.476,100.653L152.103,100.726L152.729,100.804L153.354,100.886L153.977,100.971L154.599,101.06L155.22,101.153L155.84,101.25L156.459,101.351L157.076,101.455L157.692,101.563L158.307,101.675L158.92,101.791L159.532,101.91L160.143,102.033L160.752,102.16L161.36,102.291L161.967,102.425L162.572,102.563L163.176,102.704L163.779,102.849L164.38,102.998L164.979,103.151L165.577,103.307L166.174,103.466L166.769,103.629L167.363,103.796L167.955,103.967L168.546,104.141L169.135,104.318L169.723,104.499L170.309,104.683L170.894,104.871L171.477,105.063L172.059,105.258L172.639,105.456L173.217,105.658L173.793,105.863L174.369,106.072L174.942,106.284L175.514,106.5L176.084,106.719L176.652,106.941L177.219,107.167L177.784,107.396L178.347,107.628L178.909,107.864L179.469,108.103L180.027,108.345L180.583,108.591L181.138,108.839L181.691,109.092L182.242,109.347L182.791,109.606L183.338,109.867L183.884,110.132L184.427,110.401L184.969,110.672L185.509,110.947L186.047,111.225L186.583,111.506L187.117,111.79L187.65,112.077L188.18,112.367L188.708,112.661L189.235,112.957L189.759,113.257L190.282,113.56L190.802,113.865L191.321,114.174L191.837,114.486L192.352,114.801L192.864,115.119L193.374,115.439L193.883,115.763L194.389,116.09L194.893,116.42L195.395,116.753L195.895,117.088L196.392,117.427L196.888,117.768L197.381,118.113L197.873,118.46L198.362,118.81L198.849,119.163L199.333,119.519L199.816,119.877L200.296,120.239L200.774,120.603L201.25,120.97L201.723,121.34L202.194,121.713L202.663,122.088L203.13,122.466L203.594,122.847L204.056,123.231L204.515,123.617L204.973,124.006L205.428,124.398L205.88,124.792L206.33,125.189L206.778,125.589L207.223,125.991L207.666,126.396L208.106,126.804L208.544,127.214L208.98,127.627L209.413,128.042L209.843,128.46L210.271,128.88L210.697,129.303L211.12,129.729L211.54,130.157L211.958,130.587L212.373,131.02L212.786,131.456L213.196,131.894L213.604,132.334L214.009,132.777L214.411,133.222L214.811,133.67L215.208,134.12L215.602,134.572L215.994,135.027L216.383,135.485L216.769,135.944L217.153,136.406L217.534,136.87L217.912,137.337L218.287,137.806L218.66,138.277L219.03,138.75L219.397,139.226L219.761,139.704L220.123,140.184L220.481,140.667L220.837,141.151L221.19,141.638L221.54,142.127L221.887,142.619L222.232,143.112L222.573,143.608L222.912,144.105L223.247,144.605L223.58,145.107L223.91,145.611L224.237,146.117L224.561,146.626L224.881,147.136L225.199,147.648L225.514,148.163L225.826,148.679L226.135,149.198L226.44,149.718L226.743,150.241L227.043,150.765L227.339,151.292L227.633,151.82L227.923,152.35L228.21,152.883L228.494,153.417L228.775,153.953L229.053,154.491L229.328,155.031L229.599,155.573L229.868,156.116L230.133,156.662L230.394,157.209L230.653,157.758L230.908,158.309L231.161,158.862L231.409,159.417L231.655,159.973L231.897,160.531L232.136,161.091L232.372,161.653L232.604,162.216L232.833,162.781L233.059,163.348L233.281,163.916L233.5,164.486L233.716,165.058L233.928,165.631L234.137,166.207L234.342,166.783L234.544,167.361L234.742,167.941L234.937,168.523L235.129,169.106L235.317,169.691L235.501,170.277L235.682,170.865L235.859,171.454L236.033,172.045L236.204,172.637L236.371,173.231L236.534,173.826L236.693,174.423L236.849,175.021L237.002,175.62L237.151,176.221L237.296,176.824L237.437,177.428L237.575,178.033L237.709,178.64L237.84,179.248L237.967,179.857L238.09,180.468L238.209,181.08L238.325,181.693L238.437,182.308L238.545,182.924L238.649,183.541L238.75,184.16L238.847,184.78L238.94,185.401L239.029,186.023L239.114,186.646L239.196,187.271L239.274,187.897L239.347,188.524L239.417,189.152L239.483,189.782L239.545,190.412L239.604,191.044L239.658,191.677L239.708,192.311L239.755,192.946L239.797,193.582L239.835,194.219L239.87,194.857L239.9,195.497L239.927,196.137L239.949,196.778L239.967,197.421L239.982,198.064L239.992,198.708L239.998,199.354L240,200L239.998,200.646L239.992,201.292L239.982,201.936L239.967,202.579L239.949,203.222L239.927,203.863L239.9,204.503L239.87,205.143L239.835,205.781L239.797,206.418L239.755,207.054L239.708,207.689L239.658,208.323L239.604,208.956L239.545,209.588L239.483,210.218L239.417,210.848L239.347,211.476L239.274,212.103L239.196,212.729L239.114,213.354L239.029,213.977L238.94,214.599L238.847,215.22L238.75,215.84L238.649,216.459L238.545,217.076L238.437,217.692L238.325,218.307L238.209,218.92L238.09,219.532L237.967,220.143L237.84,220.752L237.709,221.36L237.575,221.967L237.437,222.572L237.296,223.176L237.151,223.779L237.002,224.38L236.849,224.979L236.693,225.577L236.534,226.174L236.371,226.769L236.204,227.363L236.033,227.955L235.859,228.546L235.682,229.135L235.501,229.723L235.317,230.309L235.129,230.894L234.937,231.477L234.742,232.059L234.544,232.639L234.342,233.217L234.137,233.793L233.928,234.369L233.716,234.942L233.5,235.514L233.281,236.084L233.059,236.652L232.833,237.219L232.604,237.784L232.372,238.347L232.136,238.909L231.897,239.469L231.655,240.027L231.409,240.583L231.161,241.138L230.908,241.691L230.653,242.242L230.394,242.791L230.133,243.338L229.868,243.884L229.599,244.427L229.328,244.969L229.053,245.509L228.775,246.047L228.494,246.583L228.21,247.117L227.923,247.65L227.633,248.18L227.339,248.708L227.043,249.235L226.743,249.759L226.44,250.282L226.135,250.802L225.826,251.321L225.514,251.837L225.199,252.352L224.881,252.864L224.561,253.374L224.237,253.883L223.91,254.389L223.58,254.893L223.247,255.395L222.912,255.895L222.573,256.392L222.232,256.888L221.887,257.381L221.54,257.873L221.19,258.362L220.837,258.849L220.481,259.333L220.123,259.816L219.761,260.296L219.397,260.774L219.03,261.25L218.66,261.723L218.287,262.194L217.912,262.663L217.534,263.13L217.153,263.594L216.769,264.056L216.383,264.515L215.994,264.973L215.602,265.428L215.208,265.88L214.811,266.33L214.411,266.778L214.009,267.223L213.604,267.666L213.196,268.106L212.786,268.544L212.373,268.98L211.958,269.413L211.54,269.843L211.12,270.271L210.697,270.697L210.271,271.12L209.843,271.54L209.413,271.958L208.98,272.373L208.544,272.786L208.106,273.196L207.666,273.604L207.223,274.009L206.778,274.411L206.33,274.811L205.88,275.208L205.428,275.602L204.973,275.994L204.515,276.383L204.056,276.769L203.594,277.153L203.13,277.534L202.663,277.912L202.194,278.287L201.723,278.66L201.25,279.03L200.774,279.397L200.296,279.761L199.816,280.123L199.333,280.481L198.849,280.837L198.362,281.19L197.873,281.54L197.381,281.887L196.888,282.232L196.392,282.573L195.895,282.912L195.395,283.247L194.893,283.58L194.389,283.91L193.883,284.237L193.374,284.561L192.864,284.881L192.352,285.199L191.837,285.514L191.321,285.826L190.802,286.135L190.282,286.44L189.759,286.743L189.235,287.043L188.708,287.339L188.18,287.633L187.65,287.923L187.117,288.21L186.583,288.494L186.047,288.775L185.509,289.053L184.969,289.328L184.427,289.599L183.884,289.868L183.338,290.133L182.791,290.394L182.242,290.653L181.691,290.908L181.138,291.161L180.583,291.409L180.027,291.655L179.469,291.897L178.909,292.136L178.347,292.372L177.784,292.604L177.219,292.833L176.652,293.059L176.084,293.281L175.514,293.5L174.942,293.716L174.369,293.928L173.793,294.137L173.217,294.342L172.639,294.544L172.059,294.742L171.477,294.937L170.894,295.129L170.309,295.317L169.723,295.501L169.135,295.682L168.546,295.859L167.955,296.033L167.363,296.204L166.769,296.371L166.174,296.534L165.577,296.693L164.979,296.849L164.38,297.002L163.779,297.151L163.176,297.296L162.572,297.437L161.967,297.575L161.36,297.709L160.752,297.84L160.143,297.967L159.532,298.09L158.92,298.209L158.307,298.325L157.692,298.437L157.076,298.545L156.459,298.649L155.84,298.75L155.22,298.847L154.599,298.94L153.977,299.029L153.354,299.114L152.729,299.196L152.103,299.274L151.476,299.347L150.848,299.417L150.218,299.483L149.588,299.545L148.956,299.604L148.323,299.658L147.689,299.708L147.054,299.755L146.418,299.797L145.781,299.835L145.143,299.87L144.503,299.9L143.863,299.927L143.222,299.949L142.579,299.967L141.936,299.982L141.292,299.992L140.646,299.998L140,300L139.354,299.998L138.708,299.992L138.064,299.982L137.421,299.967L136.778,299.949L136.137,299.927L135.497,299.9L134.857,299.87L134.219,299.835L133.582,299.797L132.946,299.755L132.311,299.708L131.677,299.658L131.044,299.604L130.412,299.545L129.782,299.483L129.152,299.417L128.524,299.347L127.897,299.274L127.271,299.196L126.646,299.114L126.023,299.029L125.401,298.94L124.78,298.847L124.16,298.75L123.541,298.649L122.924,298.545L122.308,298.437L121.693,298.325L121.08,298.209L120.468,298.09L119.857,297.967L119.248,297.84L118.64,297.709L118.033,297.575L117.428,297.437L116.824,297.296L116.221,297.151L115.62,297.002L115.021,296.849L114.423,296.693L113.826,296.534L113.231,296.371L112.637,296.204L112.045,296.033L111.454,295.859L110.865,295.682L110.277,295.501L109.691,295.317L109.106,295.129L108.523,294.937L107.941,294.742L107.361,294.544L106.783,294.342L106.207,294.137L105.631,293.928L105.058,293.716L104.486,293.5L103.916,293.281L103.348,293.059L102.781,292.833L102.216,292.604L101.653,292.372L101.091,292.136L100.531,291.897L99.973,291.655L99.417,291.409L98.862,291.161L98.309,290.908L97.758,290.653L97.209,290.394L96.662,290.133L96.116,289.868L95.573,289.599L95.031,289.328L94.491,289.053L93.953,288.775L93.417,288.494L92.883,288.21L92.35,287.923L91.82,287.633L91.292,287.339L90.765,287.043L90.241,286.743L89.718,286.44L89.198,286.135L88.679,285.826L88.163,285.514L87.648,285.199L87.136,284.881L86.626,284.561L86.117,284.237L85.611,283.91L85.107,283.58L84.605,283.247L84.105,282.912L83.608,282.573L83.112,282.232L82.619,281.887L82.127,281.54L81.638,281.19L81.151,280.837L80.667,280.481L80.184,280.123L79.704,279.761L79.226,279.397L78.75,279.03L78.277,278.66L77.806,278.287L77.337,277.912L76.87,277.534L76.406,277.153L75.944,276.769L75.485,276.383L75.027,275.994L74.572,275.602L74.12,275.208L73.67,274.811L73.222,274.411L72.777,274.009L72.334,273.604L71.894,273.196L71.456,272.786L71.02,272.373L70.587,271.958L70.157,271.54L69.729,271.12L69.303,270.697L68.88,270.271L68.46,269.843L68.042,269.413L67.627,268.98L67.214,268.544L66.804,268.106L66.396,267.666L65.991,267.223L65.589,266.778L65.189,266.33L64.792,265.88L64.398,265.428L64.006,264.973L63.617,264.515L63.231,264.056L62.847,263.594L62.466,263.13L62.088,262.663L61.713,262.194L61.34,261.723L60.97,261.25L60.603,260.774L60.239,260.296L59.877,259.816L59.519,259.333L59.163,258.849L58.81,258.362L58.46,257.873L58.113,257.381L57.768,256.888L57.427,256.392L57.088,255.895L56.753,255.395L56.42,254.893L56.09,254.389L55.763,253.883L55.439,253.374L55.119,252.864L54.801,252.352L54.486,251.837L54.174,251.321L53.865,250.802L53.56,250.282L53.257,249.759L52.957,249.235L52.661,248.708L52.367,248.18L52.077,247.65L51.79,247.117L51.506,246.583L51.225,246.047L50.947,245.509L50.672,244.969L50.401,244.427L50.132,243.884L49.867,243.338L49.606,242.791L49.347,242.242L49.092,241.691L48.839,241.138L48.591,240.583L48.345,240.027L48.103,239.469L47.864,238.909L47.628,238.347L47.396,237.784L47.167,237.219L46.941,236.652L46.719,236.084L46.5,235.514L46.284,234.942L46.072,234.369L45.863,233.793L45.658,233.217L45.456,232.639L45.258,232.059L45.063,231.477L44.871,230.894L44.683,230.309L44.499,229.723L44.318,229.135L44.141,228.546L43.967,227.955L43.796,227.363L43.629,226.769L43.466,226.174L43.307,225.577L43.151,224.979L42.998,224.38L42.849,223.779L42.704,223.176L42.563,222.572L42.425,221.967L42.291,221.36L42.16,220.752L42.033,220.143L41.91,219.532L41.791,218.92L41.675,218.307L41.563,217.692L41.455,217.076L41.351,216.459L41.25,215.84L41.153,215.22L41.06,214.599L40.971,213.977L40.886,213.354L40.804,212.729L40.726,212.103L40.653,211.476L40.583,210.848L40.517,210.218L40.455,209.588L40.396,208.956L40.342,208.323L40.292,207.689L40.245,207.054L40.203,206.418L40.165,205.781L40.13,205.143L40.1,204.503L40.073,203.863L40.051,203.222L40.033,202.579L40.018,201.936L40.008,201.292L40.002,200.646L40,200L40.002,199.354L40.008,198.708L40.018,198.064L40.033,197.421L40.051,196.778L40.073,196.137L40.1,195.497L40.13,194.857L40.165,194.219L40.203,193.582L40.245,192.946L40.292,192.311L40.342,191.677L40.396,191.044L40.455,190.412L40.517,189.782L40.583,189.152L40.653,188.524L40.726,187.897L40.804,187.271L40.886,186.646L40.971,186.023L41.06,185.401L41.153,184.78L41.25,184.16L41.351,183.541L41.455,182.924L41.563,182.308L41.675,181.693L41.791,181.08L41.91,180.468L42.033,179.857L42.16,179.248L42.291,178.64L42.425,178.033L42.563,177.428L42.704,176.824L42.849,176.221L42.998,175.62L43.151,175.021L43.307,174.423L43.466,173.826L43.629,173.231L43.796,172.637L43.967,172.045L44.141,171.454L44.318,170.865L44.499,170.277L44.683,169.691L44.871,169.106L45.063,168.523L45.258,167.941L45.456,167.361L45.658,166.783L45.863,166.207L46.072,165.631L46.284,165.058L46.5,164.486L46.719,163.916L46.941,163.348L47.167,162.781L47.396,162.216L47.628,161.653L47.864,161.091L48.103,160.531L48.345,159.973L48.591,159.417L48.839,158.862L49.092,158.309L49.347,157.758L49.606,157.209L49.867,156.662L50.132,156.116L50.401,155.573L50.672,155.031L50.947,154.491L51.225,153.953L51.506,153.417L51.79,152.883L52.077,152.35L52.367,151.82L52.661,151.292L52.957,150.765L53.257,150.241L53.56,149.718L53.865,149.198L54.174,148.679L54.486,148.163L54.801,147.648L55.119,147.136L55.439,146.626L55.763,146.117L56.09,145.611L56.42,145.107L56.753,144.605L57.088,144.105L57.427,143.608L57.768,143.112L58.113,142.619L58.46,142.127L58.81,141.638L59.163,141.151L59.519,140.667L59.877,140.184L60.239,139.704L60.603,139.226L60.97,138.75L61.34,138.277L61.713,137.806L62.088,137.337L62.466,136.87L62.847,136.406L63.231,135.944L63.617,135.485L64.006,135.027L64.398,134.572L64.792,134.12L65.189,133.67L65.589,133.222L65.991,132.777L66.396,132.334L66.804,131.894L67.214,131.456L67.627,131.02L68.042,130.587L68.46,130.157L68.88,129.729L69.303,129.303L69.729,128.88L70.157,128.46L70.587,128.042L71.02,127.627L71.456,127.214L71.894,126.804L72.334,126.396L72.777,125.991L73.222,125.589L73.67,125.189L74.12,124.792L74.572,124.398L75.027,124.006L75.485,123.617L75.944,123.231L76.406,122.847L76.87,122.466L77.337,122.088L77.806,121.713L78.277,121.34L78.75,120.97L79.226,120.603L79.704,120.239L80.184,119.877L80.667,119.519L81.151,119.163L81.638,118.81L82.127,118.46L82.619,118.113L83.112,117.768L83.608,117.427L84.105,117.088L84.605,116.753L85.107,116.42L85.611,116.09L86.117,115.763L86.626,115.439L87.136,115.119L87.648,114.801L88.163,114.486L88.679,114.174L89.198,113.865L89.718,113.56L90.241,113.257L90.765,112.957L91.292,112.661L91.82,112.367L92.35,112.077L92.883,111.79L93.417,111.506L93.953,111.225L94.491,110.947L95.031,110.672L95.573,110.401L96.116,110.132L96.662,109.867L97.209,109.606L97.758,109.347L98.309,109.092L98.862,108.839L99.417,108.591L99.973,108.345L100.531,108.103L101.091,107.864L101.653,107.628L102.216,107.396L102.781,107.167L103.348,106.941L103.916,106.719L104.486,106.5L105.058,106.284L105.631,106.072L106.207,105.863L106.783,105.658L107.361,105.456L107.941,105.258L108.523,105.063L109.106,104.871L109.691,104.683L110.277,104.499L110.865,104.318L111.454,104.141L112.045,103.967L112.637,103.796L113.231,103.629L113.826,103.466L114.423,103.307L115.021,103.151L115.62,102.998L116.221,102.849L116.824,102.704L117.428,102.563L118.033,102.425L118.64,102.291L119.248,102.16L119.857,102.033L120.468,101.91L121.08,101.791L121.693,101.675L122.308,101.563L122.924,101.455L123.541,101.351L124.16,101.25L124.78,101.153L125.401,101.06L126.023,100.971L126.646,100.886L127.271,100.804L127.897,100.726L128.524,100.653L129.152,100.583L129.782,100.517L130.412,100.455L131.044,100.396L131.677,100.342L132.311,100.292L132.946,100.245L133.582,100.203L134.219,100.165L134.857,100.13L135.497,100.1L136.137,100.073L136.778,100.051L137.421,100.033L138.064,100.018L138.708,100.008L139.354,100.002L140,100L140.646,100.002ZM139.443,114.133L138.888,114.138L138.333,114.147L137.779,114.159L137.226,114.175L136.674,114.194L136.123,114.217L135.574,114.243L135.025,114.273L134.477,114.306L133.93,114.342L133.384,114.382L132.839,114.425L132.296,114.472L131.753,114.522L131.211,114.575L130.671,114.632L130.131,114.692L129.592,114.755L129.055,114.822L128.519,114.892L127.984,114.965L127.45,115.042L126.916,115.122L126.385,115.205L125.854,115.291L125.324,115.381L124.796,115.473L124.268,115.569L123.742,115.669L123.217,115.771L122.693,115.877L122.17,115.985L121.649,116.097L121.128,116.212L120.609,116.331L120.091,116.452L119.575,116.577L119.06,116.704L118.545,116.835L118.032,116.969L117.521,117.106L117.01,117.246L116.501,117.389L115.993,117.535L115.486,117.684L114.981,117.836L114.477,117.991L113.974,118.149L113.473,118.311L112.973,118.475L112.474,118.642L111.977,118.812L111.481,118.985L110.987,119.161L110.493,119.34L110.002,119.522L109.512,119.707L109.022,119.895L108.535,120.085L108.049,120.279L107.564,120.475L107.081,120.675L106.599,120.877L106.119,121.082L105.64,121.29L105.163,121.5L104.687,121.714L104.213,121.93L103.74,122.149L103.269,122.371L102.799,122.596L102.331,122.823L101.865,123.054L101.4,123.287L100.936,123.522L100.474,123.761L100.014,124.002L99.555,124.246L99.099,124.492L98.643,124.742L98.19,124.994L97.738,125.248L97.287,125.505L96.839,125.765L96.392,126.028L95.947,126.293L95.503,126.561L95.061,126.831L94.621,127.104L94.183,127.38L93.746,127.658L93.312,127.939L92.879,128.222L92.447,128.508L92.018,128.796L91.59,129.087L91.165,129.38L90.74,129.676L90.318,129.975L89.899,130.275L89.48,130.578L89.064,130.884L88.649,131.193L88.236,131.503L87.826,131.816L87.417,132.132L87.01,132.45L86.604,132.77L86.201,133.093L85.801,133.417L85.402,133.745L85.005,134.075L84.61,134.407L84.216,134.741L83.826,135.078L83.436,135.417L83.049,135.758L82.665,136.102L82.282,136.448L81.901,136.796L81.523,137.146L81.146,137.499L80.771,137.854L80.399,138.211L80.029,138.57L79.661,138.932L79.295,139.295L78.932,139.661L78.571,140.029L78.211,140.399L77.854,140.771L77.499,141.146L77.146,141.522L76.796,141.901L76.448,142.282L76.102,142.665L75.758,143.049L75.417,143.436L75.078,143.825L74.741,144.216L74.407,144.609L74.075,145.004L73.745,145.401L73.418,145.8L73.093,146.201L72.77,146.605L72.45,147.01L72.132,147.416L71.816,147.825L71.503,148.236L71.193,148.648L70.885,149.063L70.579,149.48L70.275,149.898L69.975,150.318L69.677,150.74L69.38,151.164L69.087,151.59L68.796,152.018L68.508,152.447L68.222,152.878L67.939,153.312L67.658,153.746L67.38,154.183L67.105,154.621L66.831,155.061L66.561,155.503L66.293,155.946L66.028,156.392L65.766,156.839L65.506,157.287L65.248,157.738L64.994,158.189L64.742,158.643L64.493,159.099L64.246,159.555L64.002,160.014L63.761,160.474L63.523,160.936L63.287,161.399L63.054,161.864L62.824,162.331L62.596,162.799L62.372,163.269L62.15,163.74L61.931,164.213L61.714,164.687L61.501,165.163L61.29,165.64L61.082,166.119L60.877,166.599L60.675,167.081L60.476,167.564L60.279,168.049L60.086,168.535L59.895,169.022L59.707,169.511L59.522,170.002L59.34,170.494L59.162,170.986L58.985,171.481L58.812,171.977L58.642,172.474L58.475,172.973L58.311,173.473L58.15,173.974L57.991,174.477L57.836,174.981L57.684,175.486L57.535,175.993L57.389,176.501L57.246,177.01L57.106,177.52L56.969,178.032L56.835,178.545L56.704,179.059L56.577,179.575L56.452,180.091L56.331,180.609L56.213,181.128L56.097,181.649L55.986,182.17L55.877,182.693L55.771,183.217L55.669,183.742L55.57,184.268L55.473,184.796L55.381,185.324L55.291,185.853L55.205,186.385L55.122,186.917L55.042,187.449L54.965,187.983L54.892,188.518L54.822,189.055L54.755,189.593L54.692,190.131L54.632,190.671L54.575,191.211L54.522,191.753L54.472,192.295L54.425,192.839L54.382,193.384L54.342,193.93L54.306,194.477L54.273,195.024L54.243,195.574L54.217,196.124L54.194,196.674L54.175,197.226L54.159,197.779L54.147,198.333L54.138,198.887L54.133,199.443L54.131,200L54.133,200.557L54.138,201.113L54.147,201.667L54.159,202.221L54.175,202.774L54.194,203.326L54.217,203.876L54.243,204.426L54.273,204.976L54.306,205.523L54.342,206.07L54.382,206.616L54.425,207.161L54.472,207.705L54.522,208.247L54.575,208.789L54.632,209.329L54.692,209.869L54.755,210.407L54.822,210.945L54.892,211.482L54.965,212.017L55.042,212.551L55.122,213.083L55.205,213.615L55.291,214.147L55.381,214.676L55.473,215.204L55.57,215.732L55.669,216.258L55.771,216.783L55.877,217.307L55.986,217.83L56.097,218.351L56.213,218.872L56.331,219.391L56.452,219.909L56.577,220.425L56.704,220.941L56.835,221.455L56.969,221.968L57.106,222.48L57.246,222.99L57.389,223.499L57.535,224.007L57.684,224.514L57.836,225.019L57.991,225.523L58.15,226.026L58.311,226.527L58.475,227.027L58.642,227.526L58.812,228.023L58.985,228.519L59.162,229.014L59.34,229.506L59.522,229.998L59.707,230.489L59.895,230.978L60.086,231.465L60.279,231.951L60.476,232.436L60.675,232.919L60.877,233.401L61.082,233.881L61.29,234.36L61.501,234.837L61.714,235.313L61.931,235.787L62.15,236.26L62.372,236.731L62.596,237.201L62.824,237.669L63.054,238.136L63.287,238.601L63.523,239.064L63.761,239.526L64.002,239.986L64.246,240.445L64.493,240.901L64.742,241.357L64.994,241.811L65.248,242.262L65.506,242.713L65.766,243.161L66.028,243.608L66.293,244.054L66.561,244.497L66.831,244.939L67.105,245.379L67.38,245.817L67.658,246.254L67.939,246.688L68.222,247.122L68.508,247.553L68.797,247.983L69.087,248.41L69.38,248.835L69.677,249.26L69.975,249.682L70.275,250.102L70.579,250.52L70.885,250.937L71.193,251.352L71.503,251.764L71.816,252.175L72.132,252.584L72.45,252.99L72.77,253.395L73.093,253.799L73.418,254.2L73.745,254.599L74.075,254.996L74.407,255.391L74.741,255.784L75.078,256.175L75.417,256.564L75.759,256.951L76.102,257.335L76.448,257.718L76.796,258.099L77.146,258.478L77.499,258.854L77.854,259.229L78.211,259.601L78.571,259.971L78.932,260.339L79.295,260.705L79.661,261.068L80.029,261.43L80.399,261.789L80.772,262.146L81.146,262.501L81.523,262.854L81.901,263.204L82.282,263.552L82.665,263.898L83.049,264.242L83.437,264.583L83.826,264.922L84.216,265.259L84.61,265.593L85.005,265.925L85.402,266.255L85.801,266.583L86.202,266.907L86.604,267.23L87.01,267.55L87.417,267.868L87.825,268.184L88.236,268.497L88.649,268.807L89.064,269.116L89.48,269.422L89.899,269.725L90.318,270.025L90.74,270.324L91.165,270.62L91.59,270.913L92.018,271.204L92.447,271.492L92.879,271.778L93.312,272.061L93.746,272.342L94.183,272.62L94.621,272.896L95.061,273.169L95.503,273.439L95.947,273.707L96.392,273.972L96.839,274.235L97.287,274.495L97.738,274.752L98.19,275.006L98.644,275.258L99.099,275.508L99.555,275.754L100.014,275.998L100.475,276.239L100.936,276.478L101.4,276.713L101.865,276.946L102.331,277.176L102.799,277.404L103.269,277.629L103.74,277.85L104.213,278.07L104.687,278.286L105.163,278.5L105.64,278.71L106.119,278.918L106.599,279.123L107.081,279.325L107.564,279.525L108.049,279.721L108.535,279.915L109.022,280.105L109.512,280.293L110.002,280.478L110.493,280.66L110.987,280.839L111.481,281.015L111.977,281.188L112.475,281.358L112.973,281.525L113.473,281.689L113.974,281.851L114.477,282.009L114.981,282.164L115.486,282.316L115.993,282.465L116.501,282.611L117.01,282.754L117.521,282.894L118.032,283.031L118.545,283.165L119.06,283.296L119.575,283.423L120.091,283.548L120.609,283.669L121.129,283.788L121.649,283.903L122.17,284.015L122.693,284.123L123.217,284.229L123.742,284.331L124.268,284.431L124.796,284.527L125.324,284.62L125.854,284.709L126.384,284.795L126.916,284.878L127.45,284.958L127.984,285.035L128.519,285.108L129.055,285.178L129.593,285.245L130.131,285.308L130.671,285.368L131.211,285.425L131.753,285.478L132.296,285.528L132.839,285.575L133.384,285.618L133.93,285.658L134.477,285.694L135.025,285.727L135.574,285.757L136.124,285.783L136.674,285.806L137.226,285.825L137.779,285.841L138.333,285.853L138.888,285.862L139.443,285.867L140,285.869L140.557,285.867L141.112,285.862L141.667,285.853L142.221,285.841L142.774,285.825L143.326,285.806L143.876,285.783L144.426,285.757L144.975,285.727L145.523,285.694L146.07,285.658L146.616,285.618L147.161,285.575L147.704,285.528L148.247,285.478L148.789,285.425L149.329,285.368L149.869,285.308L150.407,285.245L150.945,285.178L151.481,285.108L152.016,285.035L152.55,284.958L153.084,284.878L153.616,284.795L154.146,284.709L154.676,284.619L155.204,284.527L155.732,284.431L156.258,284.331L156.783,284.229L157.307,284.123L157.83,284.015L158.351,283.903L158.871,283.788L159.39,283.669L159.909,283.548L160.425,283.423L160.94,283.296L161.455,283.165L161.968,283.031L162.479,282.894L162.99,282.754L163.499,282.611L164.007,282.465L164.514,282.316L165.019,282.164L165.523,282.009L166.025,281.851L166.527,281.689L167.027,281.525L167.525,281.358L168.023,281.188L168.519,281.015L169.013,280.839L169.506,280.66L169.998,280.478L170.488,280.293L170.978,280.105L171.465,279.915L171.951,279.721L172.436,279.525L172.919,279.325L173.401,279.123L173.881,278.918L174.36,278.71L174.837,278.5L175.312,278.286L175.787,278.07L176.26,277.85L176.731,277.629L177.201,277.404L177.669,277.176L178.136,276.946L178.6,276.713L179.064,276.478L179.526,276.239L179.986,275.998L180.444,275.754L180.901,275.508L181.356,275.258L181.81,275.006L182.262,274.752L182.713,274.494L183.161,274.235L183.608,273.972L184.053,273.707L184.497,273.439L184.939,273.169L185.378,272.896L185.817,272.62L186.254,272.342L186.688,272.061L187.121,271.778L187.553,271.492L187.982,271.204L188.41,270.913L188.835,270.62L189.26,270.324L189.682,270.025L190.102,269.725L190.52,269.422L190.936,269.116L191.351,268.807L191.764,268.497L192.175,268.184L192.583,267.868L192.99,267.55L193.396,267.23L193.798,266.907L194.199,266.583L194.598,266.255L194.995,265.925L195.39,265.593L195.784,265.259L196.175,264.922L196.564,264.583L196.95,264.242L197.335,263.898L197.718,263.552L198.099,263.204L198.478,262.854L198.854,262.501L199.228,262.147L199.601,261.789L199.971,261.43L200.339,261.068L200.705,260.705L201.068,260.339L201.429,259.971L201.789,259.601L202.146,259.228L202.501,258.854L202.853,258.478L203.204,258.099L203.552,257.718L203.898,257.336L204.241,256.951L204.583,256.564L204.922,256.175L205.259,255.784L205.593,255.391L205.925,254.996L206.255,254.599L206.582,254.2L206.907,253.799L207.23,253.395L207.55,252.99L207.868,252.583L208.183,252.175L208.496,251.764L208.807,251.351L209.115,250.937L209.421,250.52L209.725,250.101L210.025,249.682L210.323,249.26L210.619,248.836L210.913,248.41L211.204,247.982L211.492,247.553L211.778,247.122L212.061,246.688L212.342,246.254L212.62,245.817L212.895,245.379L213.168,244.939L213.439,244.497L213.707,244.053L213.972,243.608L214.234,243.161L214.494,242.712L214.752,242.262L215.006,241.81L215.258,241.357L215.507,240.901L215.754,240.445L215.998,239.986L216.239,239.526L216.478,239.063L216.713,238.601L216.946,238.136L217.176,237.669L217.404,237.201L217.628,236.731L217.85,236.26L218.069,235.787L218.286,235.313L218.499,234.838L218.71,234.36L218.918,233.881L219.123,233.401L219.325,232.92L219.525,232.436L219.721,231.951L219.914,231.466L220.105,230.977L220.293,230.489L220.478,229.998L220.66,229.506L220.838,229.014L221.015,228.518L221.188,228.023L221.358,227.526L221.525,227.027L221.689,226.527L221.851,226.025L222.009,225.523L222.164,225.02L222.316,224.514L222.465,224.007L222.611,223.499L222.754,222.99L222.894,222.479L223.031,221.968L223.165,221.455L223.296,220.941L223.423,220.425L223.548,219.909L223.669,219.39L223.787,218.871L223.902,218.352L224.014,217.83L224.123,217.307L224.229,216.783L224.331,216.258L224.43,215.732L224.527,215.204L224.619,214.677L224.709,214.146L224.795,213.615L224.878,213.084L224.958,212.551L225.035,212.016L225.108,211.481L225.178,210.945L225.245,210.408L225.308,209.869L225.368,209.329L225.425,208.789L225.478,208.247L225.528,207.705L225.575,207.161L225.618,206.615L225.658,206.07L225.694,205.523L225.727,204.975L225.757,204.426L225.783,203.877L225.806,203.325L225.825,202.774L225.841,202.221L225.853,201.667L225.862,201.113L225.867,200.557L225.869,200L225.867,199.443L225.862,198.887L225.853,198.333L225.841,197.779L225.825,197.226L225.806,196.675L225.783,196.123L225.757,195.574L225.727,195.025L225.694,194.477L225.658,193.93L225.618,193.385L225.575,192.839L225.528,192.295L225.478,191.753L225.425,191.211L225.368,190.671L225.308,190.131L225.245,189.592L225.178,189.055L225.108,188.519L225.035,187.984L224.958,187.449L224.878,186.916L224.795,186.385L224.709,185.854L224.619,185.323L224.527,184.796L224.43,184.268L224.331,183.742L224.229,183.217L224.123,182.693L224.014,182.17L223.902,181.648L223.787,181.129L223.669,180.61L223.548,180.091L223.423,179.575L223.296,179.059L223.165,178.545L223.031,178.032L222.894,177.521L222.754,177.01L222.611,176.501L222.465,175.993L222.316,175.486L222.164,174.98L222.009,174.477L221.851,173.975L221.689,173.473L221.525,172.973L221.358,172.474L221.188,171.977L221.015,171.482L220.838,170.986L220.66,170.494L220.478,170.002L220.293,169.511L220.105,169.023L219.914,168.534L219.721,168.049L219.525,167.565L219.325,167.08L219.123,166.599L218.918,166.119L218.71,165.64L218.499,165.162L218.286,164.687L218.069,164.213L217.85,163.74L217.628,163.269L217.404,162.799L217.176,162.331L216.946,161.864L216.713,161.399L216.478,160.937L216.239,160.474L215.998,160.014L215.754,159.555L215.507,159.099L215.258,158.643L215.006,158.19L214.752,157.738L214.494,157.288L214.234,156.839L213.972,156.392L213.707,155.947L213.439,155.503L213.168,155.061L212.895,154.621L212.62,154.183L212.342,153.746L212.061,153.312L211.778,152.878L211.492,152.447L211.204,152.018L210.913,151.59L210.619,151.164L210.323,150.74L210.025,150.318L209.725,149.899L209.421,149.48L209.115,149.063L208.807,148.649L208.496,148.236L208.183,147.825L207.868,147.417L207.55,147.01L207.23,146.605L206.907,146.201L206.582,145.8L206.255,145.401L205.925,145.004L205.593,144.609L205.259,144.216L204.922,143.825L204.583,143.436L204.241,143.049L203.898,142.664L203.552,142.282L203.204,141.901L202.853,141.522L202.501,141.146L202.146,140.772L201.789,140.399L201.429,140.029L201.068,139.661L200.705,139.295L200.339,138.932L199.971,138.57L199.601,138.211L199.228,137.853L198.854,137.499L198.477,137.146L198.099,136.796L197.718,136.448L197.335,136.102L196.95,135.758L196.564,135.417L196.175,135.078L195.784,134.741L195.39,134.407L194.995,134.075L194.598,133.745L194.199,133.417L193.799,133.093L193.396,132.77L192.99,132.45L192.583,132.132L192.174,131.816L191.763,131.503L191.351,131.193L190.936,130.884L190.52,130.578L190.102,130.275L189.682,129.975L189.26,129.676L188.835,129.38L188.41,129.087L187.982,128.796L187.553,128.508L187.121,128.222L186.688,127.939L186.254,127.658L185.817,127.38L185.378,127.104L184.939,126.831L184.497,126.561L184.053,126.293L183.608,126.028L183.161,125.765L182.713,125.506L182.262,125.248L181.81,124.994L181.357,124.742L180.901,124.492L180.444,124.246L179.986,124.002L179.526,123.761L179.064,123.522L178.6,123.287L178.136,123.054L177.669,122.823L177.201,122.596L176.731,122.371L176.26,122.149L175.787,121.93L175.313,121.714L174.837,121.5L174.36,121.29L173.881,121.082L173.401,120.877L172.919,120.675L172.436,120.475L171.951,120.279L171.465,120.085L170.978,119.895L170.488,119.707L169.998,119.522L169.506,119.34L169.013,119.161L168.519,118.985L168.023,118.812L167.526,118.642L167.027,118.475L166.527,118.311L166.025,118.149L165.523,117.991L165.019,117.836L164.514,117.684L164.007,117.535L163.499,117.389L162.99,117.246L162.479,117.106L161.968,116.969L161.455,116.835L160.94,116.704L160.425,116.577L159.908,116.452L159.39,116.331L158.872,116.212L158.351,116.097L157.83,115.985L157.307,115.877L156.783,115.771L156.258,115.669L155.732,115.569L155.204,115.473L154.676,115.381L154.146,115.291L153.615,115.205L153.084,115.122L152.55,115.042L152.016,114.965L151.481,114.892L150.945,114.822L150.407,114.755L149.869,114.692L149.329,114.632L148.789,114.575L148.247,114.522L147.704,114.472L147.161,114.425L146.616,114.382L146.07,114.342L145.523,114.306L144.975,114.273L144.426,114.243L143.876,114.217L143.326,114.194L142.774,114.175L142.221,114.159L141.667,114.147L141.112,114.138L140.557,114.133L140,114.131L139.443,114.133Z"/>
                                </g>
                            </g>
                        </g>
                        <g transform="matrix(0.564427,0,0,1.36948,-27.0867,-77.2648)">
                            <path d="M460,75C460,66.721 443.692,60 423.605,60L86.395,60C66.308,60 50,66.721 50,75L50,105C50,113.279 66.308,120 86.395,120L423.605,120C443.692,120 460,113.279 460,105L460,75Z"/>
                        </g>
                    </g>
                </g>
            </g>
            <g transform="matrix(1.98575,0,0,1.98575,-8.35241,-284.576)">
                <text x="37.081px" y="288.689px" style="font-family:'Arial-BoldMT', 'Arial', sans-serif;font-weight:700;font-size:50px;">VIZH</text>
            </g>
        </g>
        <g transform="matrix(0.38184,0,0,0.38184,77.9863,208.717)">
            <text x="287.812px" y="360.351px" style="font-family:'Arial-BoldMT', 'Arial', sans-serif;font-weight:700;font-size:99.167px;fill:rgb(31,31,31);">THE VISUAL<tspan x="875.549px 903.101px " y="360.351px 360.351px "> M</tspan>ENU</text>
        </g>
    </g>
</svg>
