<?xml version="1.0" encoding="UTF-8" standalone="no"?>
<!DOCTYPE svg PUBLIC "-//W3C//DTD SVG 1.1//EN" "http://www.w3.org/Graphics/SVG/1.1/DTD/svg11.dtd">
<svg width="100%" height="100%" viewBox="0 0 500 500" version="1.1" xmlns="http://www.w3.org/2000/svg" xmlns:xlink="http://www.w3.org/1999/xlink" xml:space="preserve" xmlns:serif="http://www.serif.com/" style="fill-rule:evenodd;clip-rule:evenodd;stroke-linejoin:round;stroke-miterlimit:1.41421;">
    <g transform="matrix(4.03582,0,0,4.03551,-102.106,-1067.59)">
        <path d="M144.4,308C138.9,297.7 128.2,291.3 116.5,291.3L28.3,291.3C26.6,291.3 25.3,292.7 25.3,294.4C25.3,295.2 25.6,296 26.2,296.5L45.4,315.8C47.1,317.5 49.4,318.5 51.8,318.5L114,318.5C118.4,318.5 122.1,322 122.1,326.4C122.1,330.8 118.6,334.5 114.2,334.5L71.3,334.5C69.6,334.5 68.3,335.9 68.3,337.6C68.3,338.4 68.6,339.2 69.2,339.7L88.3,359C90,360.7 92.3,361.7 94.7,361.7L114.1,361.7C139.4,361.7 158.5,334.7 144.4,308" style="fill:rgb(255,48,8);fill-rule:nonzero;"/>
    </g>
</svg>
